%TF.GenerationSoftware,KiCad,Pcbnew,5.1.12-84ad8e8a86~92~ubuntu20.04.1*%
%TF.CreationDate,2022-04-07T20:47:11+02:00*%
%TF.ProjectId,bkm-15r-mini,626b6d2d-3135-4722-9d6d-696e692e6b69,rev?*%
%TF.SameCoordinates,Original*%
%TF.FileFunction,Soldermask,Bot*%
%TF.FilePolarity,Negative*%
%FSLAX46Y46*%
G04 Gerber Fmt 4.6, Leading zero omitted, Abs format (unit mm)*
G04 Created by KiCad (PCBNEW 5.1.12-84ad8e8a86~92~ubuntu20.04.1) date 2022-04-07 20:47:11*
%MOMM*%
%LPD*%
G01*
G04 APERTURE LIST*
%ADD10R,1.700000X1.700000*%
%ADD11O,1.700000X1.700000*%
%ADD12C,2.700000*%
%ADD13C,1.800000*%
%ADD14C,0.700000*%
%ADD15R,2.500000X1.500000*%
%ADD16O,2.500000X1.500000*%
%ADD17O,3.500000X2.200000*%
%ADD18C,1.524000*%
G04 APERTURE END LIST*
D10*
%TO.C,J301*%
X145500000Y-77000000D03*
D11*
X145500000Y-79540000D03*
X148040000Y-77000000D03*
X148040000Y-79540000D03*
X150580000Y-77000000D03*
X150580000Y-79540000D03*
X153120000Y-77000000D03*
X153120000Y-79540000D03*
X155660000Y-77000000D03*
X155660000Y-79540000D03*
X158200000Y-77000000D03*
X158200000Y-79540000D03*
%TD*%
D12*
%TO.C,H1*%
X92500000Y-31000000D03*
%TD*%
%TO.C,H2*%
X92500000Y-79000000D03*
%TD*%
%TO.C,H3*%
X175000000Y-31000000D03*
%TD*%
%TO.C,H4*%
X175000000Y-79000000D03*
%TD*%
D13*
%TO.C,SW101*%
X161750000Y-30350000D03*
X166250000Y-30350000D03*
X166250000Y-36850000D03*
X161750000Y-36850000D03*
%TD*%
%TO.C,SW102*%
X149750000Y-30350000D03*
X154250000Y-30350000D03*
X154250000Y-36850000D03*
X149750000Y-36850000D03*
%TD*%
%TO.C,SW103*%
X137750000Y-36850000D03*
X142250000Y-36850000D03*
X142250000Y-30350000D03*
X137750000Y-30350000D03*
%TD*%
%TO.C,SW104*%
X161750000Y-48850000D03*
X166250000Y-48850000D03*
X166250000Y-42350000D03*
X161750000Y-42350000D03*
%TD*%
%TO.C,SW105*%
X149750000Y-48850000D03*
X154250000Y-48850000D03*
X154250000Y-42350000D03*
X149750000Y-42350000D03*
%TD*%
%TO.C,SW106*%
X137750000Y-48850000D03*
X142250000Y-48850000D03*
X142250000Y-42350000D03*
X137750000Y-42350000D03*
%TD*%
%TO.C,SW107*%
X161750000Y-60850000D03*
X166250000Y-60850000D03*
X166250000Y-54350000D03*
X161750000Y-54350000D03*
%TD*%
%TO.C,SW108*%
X149750000Y-54350000D03*
X154250000Y-54350000D03*
X154250000Y-60850000D03*
X149750000Y-60850000D03*
%TD*%
%TO.C,SW109*%
X137750000Y-54350000D03*
X142250000Y-54350000D03*
X142250000Y-60850000D03*
X137750000Y-60850000D03*
%TD*%
%TO.C,SW110*%
X161750000Y-72850000D03*
X166250000Y-72850000D03*
X166250000Y-66350000D03*
X161750000Y-66350000D03*
%TD*%
%TO.C,SW111*%
X149750000Y-66350000D03*
X154250000Y-66350000D03*
X154250000Y-72850000D03*
X149750000Y-72850000D03*
%TD*%
%TO.C,SW112*%
X137750000Y-72850000D03*
X142250000Y-72850000D03*
X142250000Y-66350000D03*
X137750000Y-66350000D03*
%TD*%
%TO.C,SW201*%
X118750000Y-60850000D03*
X114250000Y-60850000D03*
X114250000Y-54350000D03*
X118750000Y-54350000D03*
%TD*%
%TO.C,SW202*%
X106750000Y-60850000D03*
X102250000Y-60850000D03*
X102250000Y-54350000D03*
X106750000Y-54350000D03*
%TD*%
%TO.C,SW203*%
X118750000Y-72850000D03*
X114250000Y-72850000D03*
X114250000Y-66350000D03*
X118750000Y-66350000D03*
%TD*%
%TO.C,SW204*%
X106750000Y-66350000D03*
X102250000Y-66350000D03*
X102250000Y-72850000D03*
X106750000Y-72850000D03*
%TD*%
%TO.C,SW205*%
X102250000Y-30350000D03*
X106750000Y-30350000D03*
X106750000Y-36850000D03*
X102250000Y-36850000D03*
%TD*%
D12*
%TO.C,H5*%
X130500000Y-53600000D03*
%TD*%
D14*
%TO.C,SW301*%
X178700000Y-42418000D03*
X176900000Y-42418000D03*
%TD*%
%TO.C,SW302*%
X176900000Y-54864000D03*
X178700000Y-54864000D03*
%TD*%
D15*
%TO.C,SW303*%
X91850000Y-40700000D03*
D16*
X91850000Y-42700000D03*
X91850000Y-44700000D03*
D17*
X91850000Y-38600000D03*
X91850000Y-46800000D03*
%TD*%
D18*
%TO.C,U301*%
X97800000Y-73560000D03*
X97800000Y-71020000D03*
X97800000Y-68480000D03*
X97800000Y-65940000D03*
X97800000Y-63400000D03*
X97800000Y-60860000D03*
X97800000Y-58320000D03*
X97800000Y-55780000D03*
X97800000Y-53240000D03*
X97800000Y-50700000D03*
X97800000Y-48160000D03*
X97800000Y-45620000D03*
X97800000Y-43080000D03*
X97800000Y-40540000D03*
X97800000Y-38000000D03*
X123200000Y-38000000D03*
X123200000Y-40540000D03*
X123200000Y-43080000D03*
X123200000Y-45620000D03*
X123200000Y-48160000D03*
X123200000Y-50700000D03*
X123200000Y-53240000D03*
X123200000Y-55780000D03*
X123200000Y-58320000D03*
X123200000Y-60860000D03*
X123200000Y-63400000D03*
X123200000Y-65940000D03*
X123200000Y-68480000D03*
X123200000Y-71020000D03*
X123200000Y-73560000D03*
%TD*%
M02*
