%TF.GenerationSoftware,KiCad,Pcbnew,5.1.12-84ad8e8a86~92~ubuntu20.04.1*%
%TF.CreationDate,2022-04-07T20:47:10+02:00*%
%TF.ProjectId,bkm-15r-mini,626b6d2d-3135-4722-9d6d-696e692e6b69,rev?*%
%TF.SameCoordinates,Original*%
%TF.FileFunction,Copper,L2,Bot*%
%TF.FilePolarity,Positive*%
%FSLAX46Y46*%
G04 Gerber Fmt 4.6, Leading zero omitted, Abs format (unit mm)*
G04 Created by KiCad (PCBNEW 5.1.12-84ad8e8a86~92~ubuntu20.04.1) date 2022-04-07 20:47:10*
%MOMM*%
%LPD*%
G01*
G04 APERTURE LIST*
%TA.AperFunction,ComponentPad*%
%ADD10R,1.700000X1.700000*%
%TD*%
%TA.AperFunction,ComponentPad*%
%ADD11O,1.700000X1.700000*%
%TD*%
%TA.AperFunction,ComponentPad*%
%ADD12C,1.800000*%
%TD*%
%TA.AperFunction,ComponentPad*%
%ADD13R,2.500000X1.500000*%
%TD*%
%TA.AperFunction,ComponentPad*%
%ADD14O,2.500000X1.500000*%
%TD*%
%TA.AperFunction,ComponentPad*%
%ADD15O,3.500000X2.200000*%
%TD*%
%TA.AperFunction,ComponentPad*%
%ADD16C,1.524000*%
%TD*%
%TA.AperFunction,ViaPad*%
%ADD17C,0.800000*%
%TD*%
%TA.AperFunction,Conductor*%
%ADD18C,1.000000*%
%TD*%
%TA.AperFunction,Conductor*%
%ADD19C,0.250000*%
%TD*%
%TA.AperFunction,Conductor*%
%ADD20C,0.254000*%
%TD*%
%TA.AperFunction,Conductor*%
%ADD21C,0.100000*%
%TD*%
G04 APERTURE END LIST*
D10*
%TO.P,J301,1*%
%TO.N,+5V*%
X145500000Y-77000000D03*
D11*
%TO.P,J301,2*%
%TO.N,GND*%
X145500000Y-79540000D03*
%TO.P,J301,3*%
%TO.N,N/C*%
X148040000Y-77000000D03*
%TO.P,J301,4*%
X148040000Y-79540000D03*
%TO.P,J301,5*%
%TO.N,SO*%
X150580000Y-77000000D03*
%TO.P,J301,6*%
%TO.N,N/C*%
X150580000Y-79540000D03*
%TO.P,J301,7*%
%TO.N,SCK*%
X153120000Y-77000000D03*
%TO.P,J301,8*%
%TO.N,ST*%
X153120000Y-79540000D03*
%TO.P,J301,9*%
%TO.N,N/C*%
X155660000Y-77000000D03*
%TO.P,J301,10*%
%TO.N,CS*%
X155660000Y-79540000D03*
%TO.P,J301,11*%
%TO.N,N/C*%
X158200000Y-77000000D03*
%TO.P,J301,12*%
%TO.N,GND*%
X158200000Y-79540000D03*
%TD*%
D12*
%TO.P,SW101,4*%
%TO.N,N/C*%
X161750000Y-30350000D03*
%TO.P,SW101,2*%
%TO.N,Net-(R101-Pad2)*%
X166250000Y-30350000D03*
%TO.P,SW101,1*%
%TO.N,Net-(R104-Pad2)*%
X166250000Y-36850000D03*
%TO.P,SW101,3*%
%TO.N,GND*%
X161750000Y-36850000D03*
%TD*%
%TO.P,SW102,4*%
%TO.N,N/C*%
X149750000Y-30350000D03*
%TO.P,SW102,2*%
%TO.N,Net-(R102-Pad2)*%
X154250000Y-30350000D03*
%TO.P,SW102,1*%
%TO.N,Net-(R105-Pad2)*%
X154250000Y-36850000D03*
%TO.P,SW102,3*%
%TO.N,GND*%
X149750000Y-36850000D03*
%TD*%
%TO.P,SW103,3*%
%TO.N,GND*%
X137750000Y-36850000D03*
%TO.P,SW103,1*%
%TO.N,Net-(R106-Pad2)*%
X142250000Y-36850000D03*
%TO.P,SW103,2*%
%TO.N,Net-(R103-Pad2)*%
X142250000Y-30350000D03*
%TO.P,SW103,4*%
%TO.N,N/C*%
X137750000Y-30350000D03*
%TD*%
%TO.P,SW104,3*%
%TO.N,GND*%
X161750000Y-48850000D03*
%TO.P,SW104,1*%
%TO.N,Net-(R110-Pad2)*%
X166250000Y-48850000D03*
%TO.P,SW104,2*%
%TO.N,Net-(R107-Pad2)*%
X166250000Y-42350000D03*
%TO.P,SW104,4*%
%TO.N,N/C*%
X161750000Y-42350000D03*
%TD*%
%TO.P,SW105,3*%
%TO.N,GND*%
X149750000Y-48850000D03*
%TO.P,SW105,1*%
%TO.N,Net-(R111-Pad2)*%
X154250000Y-48850000D03*
%TO.P,SW105,2*%
%TO.N,Net-(R108-Pad2)*%
X154250000Y-42350000D03*
%TO.P,SW105,4*%
%TO.N,N/C*%
X149750000Y-42350000D03*
%TD*%
%TO.P,SW106,3*%
%TO.N,GND*%
X137750000Y-48850000D03*
%TO.P,SW106,1*%
%TO.N,Net-(R112-Pad2)*%
X142250000Y-48850000D03*
%TO.P,SW106,2*%
%TO.N,Net-(R109-Pad2)*%
X142250000Y-42350000D03*
%TO.P,SW106,4*%
%TO.N,N/C*%
X137750000Y-42350000D03*
%TD*%
%TO.P,SW107,3*%
%TO.N,GND*%
X161750000Y-60850000D03*
%TO.P,SW107,1*%
%TO.N,Net-(R116-Pad2)*%
X166250000Y-60850000D03*
%TO.P,SW107,2*%
%TO.N,Net-(R113-Pad2)*%
X166250000Y-54350000D03*
%TO.P,SW107,4*%
%TO.N,N/C*%
X161750000Y-54350000D03*
%TD*%
%TO.P,SW108,4*%
%TO.N,N/C*%
X149750000Y-54350000D03*
%TO.P,SW108,2*%
%TO.N,Net-(R114-Pad2)*%
X154250000Y-54350000D03*
%TO.P,SW108,1*%
%TO.N,Net-(R117-Pad2)*%
X154250000Y-60850000D03*
%TO.P,SW108,3*%
%TO.N,GND*%
X149750000Y-60850000D03*
%TD*%
%TO.P,SW109,4*%
%TO.N,N/C*%
X137750000Y-54350000D03*
%TO.P,SW109,2*%
%TO.N,Net-(R115-Pad2)*%
X142250000Y-54350000D03*
%TO.P,SW109,1*%
%TO.N,Net-(R118-Pad2)*%
X142250000Y-60850000D03*
%TO.P,SW109,3*%
%TO.N,GND*%
X137750000Y-60850000D03*
%TD*%
%TO.P,SW110,3*%
%TO.N,GND*%
X161750000Y-72850000D03*
%TO.P,SW110,1*%
%TO.N,Net-(R122-Pad2)*%
X166250000Y-72850000D03*
%TO.P,SW110,2*%
%TO.N,Net-(R119-Pad2)*%
X166250000Y-66350000D03*
%TO.P,SW110,4*%
%TO.N,N/C*%
X161750000Y-66350000D03*
%TD*%
%TO.P,SW111,4*%
%TO.N,N/C*%
X149750000Y-66350000D03*
%TO.P,SW111,2*%
%TO.N,Net-(R120-Pad2)*%
X154250000Y-66350000D03*
%TO.P,SW111,1*%
%TO.N,Net-(R123-Pad2)*%
X154250000Y-72850000D03*
%TO.P,SW111,3*%
%TO.N,GND*%
X149750000Y-72850000D03*
%TD*%
%TO.P,SW112,3*%
%TO.N,GND*%
X137750000Y-72850000D03*
%TO.P,SW112,1*%
%TO.N,Net-(R124-Pad2)*%
X142250000Y-72850000D03*
%TO.P,SW112,2*%
%TO.N,Net-(R121-Pad2)*%
X142250000Y-66350000D03*
%TO.P,SW112,4*%
%TO.N,N/C*%
X137750000Y-66350000D03*
%TD*%
%TO.P,SW201,4*%
%TO.N,N/C*%
X118750000Y-60850000D03*
%TO.P,SW201,2*%
%TO.N,Net-(R201-Pad2)*%
X114250000Y-60850000D03*
%TO.P,SW201,1*%
%TO.N,Net-(R203-Pad2)*%
X114250000Y-54350000D03*
%TO.P,SW201,3*%
%TO.N,GND*%
X118750000Y-54350000D03*
%TD*%
%TO.P,SW202,4*%
%TO.N,N/C*%
X106750000Y-60850000D03*
%TO.P,SW202,2*%
%TO.N,Net-(R202-Pad2)*%
X102250000Y-60850000D03*
%TO.P,SW202,1*%
%TO.N,Net-(R204-Pad2)*%
X102250000Y-54350000D03*
%TO.P,SW202,3*%
%TO.N,GND*%
X106750000Y-54350000D03*
%TD*%
%TO.P,SW203,4*%
%TO.N,N/C*%
X118750000Y-72850000D03*
%TO.P,SW203,2*%
%TO.N,Net-(R205-Pad2)*%
X114250000Y-72850000D03*
%TO.P,SW203,1*%
%TO.N,Net-(R207-Pad2)*%
X114250000Y-66350000D03*
%TO.P,SW203,3*%
%TO.N,GND*%
X118750000Y-66350000D03*
%TD*%
%TO.P,SW204,3*%
%TO.N,GND*%
X106750000Y-66350000D03*
%TO.P,SW204,1*%
%TO.N,Net-(R208-Pad2)*%
X102250000Y-66350000D03*
%TO.P,SW204,2*%
%TO.N,Net-(R206-Pad2)*%
X102250000Y-72850000D03*
%TO.P,SW204,4*%
%TO.N,N/C*%
X106750000Y-72850000D03*
%TD*%
%TO.P,SW205,4*%
%TO.N,N/C*%
X102250000Y-30350000D03*
%TO.P,SW205,2*%
%TO.N,Net-(R209-Pad2)*%
X106750000Y-30350000D03*
%TO.P,SW205,1*%
%TO.N,Net-(R210-Pad2)*%
X106750000Y-36850000D03*
%TO.P,SW205,3*%
%TO.N,GND*%
X102250000Y-36850000D03*
%TD*%
D13*
%TO.P,SW303,1*%
%TO.N,GND*%
X91850000Y-40700000D03*
D14*
%TO.P,SW303,2*%
%TO.N,DISABLE_WIFI*%
X91850000Y-42700000D03*
%TO.P,SW303,3*%
%TO.N,N/C*%
X91850000Y-44700000D03*
D15*
%TO.P,SW303,*%
%TO.N,*%
X91850000Y-38600000D03*
X91850000Y-46800000D03*
%TD*%
D16*
%TO.P,U301,36*%
%TO.N,ST*%
X97800000Y-73560000D03*
%TO.P,U301,35*%
%TO.N,NAV_KEY_DOWN*%
X97800000Y-71020000D03*
%TO.P,U301,34*%
%TO.N,N/C*%
X97800000Y-68480000D03*
%TO.P,U301,33*%
%TO.N,FORCE_SETUP*%
X97800000Y-65940000D03*
%TO.P,U301,32*%
%TO.N,NAV_KEY_ENTER*%
X97800000Y-63400000D03*
%TO.P,U301,31*%
%TO.N,SO*%
X97800000Y-60860000D03*
%TO.P,U301,30*%
%TO.N,SCK*%
X97800000Y-58320000D03*
%TO.P,U301,29*%
%TO.N,CS*%
X97800000Y-55780000D03*
%TO.P,U301,28*%
%TO.N,DISABLE_WIFI*%
X97800000Y-53240000D03*
%TO.P,U301,27*%
%TO.N,KEY_POWER*%
X97800000Y-50700000D03*
%TO.P,U301,26*%
%TO.N,NAV_KEY_UP*%
X97800000Y-48160000D03*
%TO.P,U301,25*%
%TO.N,N/C*%
X97800000Y-45620000D03*
%TO.P,U301,24*%
%TO.N,NAV_KEY_MENU*%
X97800000Y-43080000D03*
%TO.P,U301,23*%
%TO.N,GND*%
X97800000Y-40540000D03*
%TO.P,U301,22*%
%TO.N,+3V3*%
X97800000Y-38000000D03*
%TO.P,U301,15*%
%TO.N,+5V*%
X123200000Y-38000000D03*
%TO.P,U301,14*%
%TO.N,GND*%
X123200000Y-40540000D03*
%TO.P,U301,13*%
%TO.N,INPUT_KEY1*%
X123200000Y-43080000D03*
%TO.P,U301,12*%
%TO.N,INPUT_KEY2*%
X123200000Y-45620000D03*
%TO.P,U301,11*%
%TO.N,INPUT_KEY3*%
X123200000Y-48160000D03*
%TO.P,U301,10*%
%TO.N,INPUT_KEY4*%
X123200000Y-50700000D03*
%TO.P,U301,9*%
%TO.N,INPUT_KEY5*%
X123200000Y-53240000D03*
%TO.P,U301,8*%
%TO.N,INPUT_KEY6*%
X123200000Y-55780000D03*
%TO.P,U301,7*%
%TO.N,INPUT_KEY7*%
X123200000Y-58320000D03*
%TO.P,U301,6*%
%TO.N,INPUT_KEY8*%
X123200000Y-60860000D03*
%TO.P,U301,5*%
%TO.N,INPUT_KEY9*%
X123200000Y-63400000D03*
%TO.P,U301,4*%
%TO.N,INPUT_KEY0*%
X123200000Y-65940000D03*
%TO.P,U301,3*%
%TO.N,INPUT_KEY_ENT*%
X123200000Y-68480000D03*
%TO.P,U301,2*%
%TO.N,INPUT_KEY_DEL*%
X123200000Y-71020000D03*
%TO.P,U301,1*%
%TO.N,RESET*%
X123200000Y-73560000D03*
%TD*%
D17*
%TO.N,GND*%
X136000000Y-41200000D03*
X111800000Y-49200000D03*
X128900000Y-60700000D03*
X136000000Y-65200000D03*
X113200000Y-49700000D03*
X128890000Y-36740000D03*
%TO.N,+3V3*%
X170900000Y-65100000D03*
X170900000Y-53200000D03*
X170900000Y-41100000D03*
X170900000Y-29000000D03*
X158900000Y-65000000D03*
X158900000Y-53100000D03*
X158900000Y-41000000D03*
X158900000Y-29200000D03*
X146900000Y-41200000D03*
X146900000Y-53100000D03*
X146900000Y-65000000D03*
X147000000Y-28600000D03*
X136300000Y-67300000D03*
X136300000Y-43300000D03*
X110900000Y-28600000D03*
X112600000Y-60500000D03*
X114200000Y-46800000D03*
X109500000Y-70200000D03*
X109600000Y-61600000D03*
%TO.N,Net-(C203-Pad1)*%
X112700000Y-63100000D03*
X111100000Y-50000000D03*
%TO.N,Net-(C204-Pad1)*%
X108600000Y-63300000D03*
X108600000Y-51000000D03*
%TO.N,INPUT_KEY3*%
X132800000Y-35540000D03*
%TO.N,INPUT_KEY5*%
X130850000Y-45610000D03*
%TO.N,INPUT_KEY7*%
X132990000Y-59430000D03*
%TO.N,INPUT_KEY8*%
X131500000Y-58630000D03*
%TO.N,INPUT_KEY_ENT*%
X131850000Y-68190000D03*
%TO.N,NAV_KEY_ENTER*%
X107900000Y-47900000D03*
%TO.N,NAV_KEY_DOWN*%
X109850000Y-49850000D03*
X104700000Y-49900000D03*
%TO.N,NAV_KEY_MENU*%
X110300000Y-40500000D03*
%TO.N,NAV_KEY_UP*%
X111700000Y-40700000D03*
%TO.N,FORCE_SETUP*%
X94488000Y-62611000D03*
%TO.N,RESET*%
X175350000Y-61370000D03*
%TO.N,INPUT_KEY6*%
X132150000Y-45580000D03*
%TD*%
D18*
%TO.N,GND*%
X118750000Y-54350000D02*
X118650000Y-54350000D01*
X118650000Y-54350000D02*
X116800000Y-56200000D01*
X116800000Y-64400000D02*
X118750000Y-66350000D01*
X116800000Y-56200000D02*
X116800000Y-64400000D01*
%TO.N,+3V3*%
X109600000Y-61600000D02*
X109600000Y-62200000D01*
X109600000Y-62200000D02*
X110100000Y-62700000D01*
X110100000Y-62700000D02*
X110100000Y-69600000D01*
X110100000Y-69600000D02*
X109500000Y-70200000D01*
X170900000Y-65100000D02*
X170900000Y-53200000D01*
X170900000Y-53200000D02*
X170900000Y-41100000D01*
X170900000Y-41100000D02*
X170900000Y-29000000D01*
X158900000Y-53100000D02*
X158900000Y-65000000D01*
X158900000Y-41000000D02*
X158900000Y-53100000D01*
X158900000Y-29200000D02*
X158900000Y-41000000D01*
X146900000Y-65000000D02*
X146900000Y-53100000D01*
X146900000Y-28700000D02*
X147000000Y-28600000D01*
X146900000Y-41200000D02*
X146900000Y-28700000D01*
X170900000Y-28800000D02*
X170900000Y-29000000D01*
X170700000Y-28600000D02*
X170900000Y-28800000D01*
X147000000Y-28600000D02*
X170700000Y-28600000D01*
X158900000Y-28600000D02*
X158900000Y-29200000D01*
X146900000Y-53100000D02*
X146900000Y-44000000D01*
X146900000Y-44000000D02*
X137000000Y-44000000D01*
X146900000Y-44000000D02*
X146900000Y-41200000D01*
X137000000Y-44000000D02*
X136300000Y-43300000D01*
X146900000Y-65000000D02*
X146900000Y-67100000D01*
X146900000Y-67100000D02*
X145900000Y-68100000D01*
X145900000Y-68100000D02*
X137100000Y-68100000D01*
X137100000Y-68100000D02*
X136300000Y-67300000D01*
X147000000Y-28600000D02*
X116900000Y-28600000D01*
X97820000Y-30380000D02*
X97800000Y-30380000D01*
X99600000Y-28600000D02*
X97820000Y-30380000D01*
X116900000Y-28600000D02*
X113700000Y-28600000D01*
X113700000Y-28600000D02*
X99600000Y-28600000D01*
X113700000Y-28600000D02*
X114200000Y-29100000D01*
X114200000Y-29100000D02*
X114200000Y-46800000D01*
X112100000Y-53100000D02*
X112100000Y-60000000D01*
X112100000Y-60000000D02*
X112600000Y-60500000D01*
X114200000Y-51900000D02*
X113300000Y-51900000D01*
X114900000Y-47400000D02*
X114900000Y-51200000D01*
X113300000Y-51900000D02*
X112100000Y-53100000D01*
X114900000Y-51200000D02*
X114200000Y-51900000D01*
X114800000Y-47400000D02*
X114900000Y-47400000D01*
X114200000Y-46800000D02*
X114800000Y-47400000D01*
X97800000Y-30400000D02*
X97820000Y-30380000D01*
X97800000Y-38000000D02*
X97800000Y-30400000D01*
D19*
%TO.N,Net-(C203-Pad1)*%
X111100000Y-61500000D02*
X112700000Y-63100000D01*
X111100000Y-50000000D02*
X111100000Y-61500000D01*
%TO.N,Net-(C204-Pad1)*%
X108600000Y-63300000D02*
X108700000Y-63200000D01*
X108600000Y-51000000D02*
X108600000Y-63300000D01*
D18*
%TO.N,+5V*%
X143300000Y-77000000D02*
X145500000Y-77000000D01*
X141600000Y-75300000D02*
X143300000Y-77000000D01*
X122000000Y-75300000D02*
X141600000Y-75300000D01*
X121000000Y-74300000D02*
X122000000Y-75300000D01*
X121000000Y-40200000D02*
X121000000Y-74300000D01*
X123200000Y-38000000D02*
X121000000Y-40200000D01*
D19*
%TO.N,SCK*%
X153100000Y-77000000D02*
X153120000Y-77000000D01*
X151900000Y-78200000D02*
X153100000Y-77000000D01*
X132400000Y-78200000D02*
X151900000Y-78200000D01*
X130500000Y-76300000D02*
X132400000Y-78200000D01*
X101600000Y-76300000D02*
X130500000Y-76300000D01*
X99800000Y-74500000D02*
X101600000Y-76300000D01*
X99800000Y-60300000D02*
X99800000Y-74500000D01*
X97820000Y-58320000D02*
X99800000Y-60300000D01*
X97800000Y-58320000D02*
X97820000Y-58320000D01*
%TO.N,CS*%
X155660000Y-79540000D02*
X155660000Y-79640000D01*
%TO.N,INPUT_KEY3*%
X125950000Y-45410000D02*
X123200000Y-48160000D01*
X125950000Y-36680000D02*
X125950000Y-45410000D01*
X128090000Y-34540000D02*
X125950000Y-36680000D01*
X131800000Y-34540000D02*
X128090000Y-34540000D01*
X132800000Y-35540000D02*
X131800000Y-34540000D01*
%TO.N,INPUT_KEY5*%
X125910000Y-50530000D02*
X123200000Y-53240000D01*
X130830000Y-45610000D02*
X125910000Y-50530000D01*
X130850000Y-45610000D02*
X130830000Y-45610000D01*
%TO.N,INPUT_KEY7*%
X132990000Y-59430000D02*
X133000000Y-59420000D01*
X123200000Y-58320000D02*
X123200000Y-58310000D01*
X123200000Y-58310000D02*
X123880000Y-57630000D01*
X132190000Y-57630000D02*
X133000000Y-58440000D01*
X123880000Y-57630000D02*
X132190000Y-57630000D01*
X133000000Y-59420000D02*
X133000000Y-58440000D01*
%TO.N,INPUT_KEY8*%
X125430000Y-58630000D02*
X123200000Y-60860000D01*
X131500000Y-58630000D02*
X125430000Y-58630000D01*
%TO.N,INPUT_KEY_ENT*%
X131560000Y-68480000D02*
X123200000Y-68480000D01*
X131850000Y-68190000D02*
X131560000Y-68480000D01*
%TO.N,NAV_KEY_ENTER*%
X99314000Y-52425600D02*
X103839600Y-47900000D01*
X99314000Y-53797200D02*
X99314000Y-52425600D01*
X96697800Y-54483000D02*
X98628200Y-54483000D01*
X95631000Y-61468000D02*
X95631000Y-55549800D01*
X103839600Y-47900000D02*
X107900000Y-47900000D01*
X98628200Y-54483000D02*
X99314000Y-53797200D01*
X97563000Y-63400000D02*
X95631000Y-61468000D01*
X95631000Y-55549800D02*
X96697800Y-54483000D01*
X97800000Y-63400000D02*
X97563000Y-63400000D01*
%TO.N,NAV_KEY_DOWN*%
X109800000Y-49900000D02*
X104700000Y-49900000D01*
X109850000Y-49850000D02*
X109800000Y-49900000D01*
%TO.N,NAV_KEY_MENU*%
X101800000Y-40500000D02*
X99220000Y-43080000D01*
X99220000Y-43080000D02*
X97800000Y-43080000D01*
X110300000Y-40500000D02*
X101800000Y-40500000D01*
%TO.N,NAV_KEY_UP*%
X95500000Y-45860000D02*
X97800000Y-48160000D01*
X95500000Y-40300000D02*
X95500000Y-45860000D01*
X96500000Y-39300000D02*
X95500000Y-40300000D01*
X110300000Y-39300000D02*
X96500000Y-39300000D01*
X111700000Y-40700000D02*
X110300000Y-39300000D01*
%TO.N,FORCE_SETUP*%
X94488000Y-62628000D02*
X97800000Y-65940000D01*
X94488000Y-62611000D02*
X94488000Y-62628000D01*
%TO.N,RESET*%
X126240000Y-70520000D02*
X123200000Y-73560000D01*
X175356000Y-65264000D02*
X170100000Y-70520000D01*
X175356000Y-61376000D02*
X175356000Y-65264000D01*
X170100000Y-70520000D02*
X126240000Y-70520000D01*
X175350000Y-61370000D02*
X175356000Y-61376000D01*
%TO.N,DISABLE_WIFI*%
X94410000Y-49850000D02*
X97800000Y-53240000D01*
X94410000Y-43310000D02*
X94410000Y-49850000D01*
X93800000Y-42700000D02*
X94410000Y-43310000D01*
X91850000Y-42700000D02*
X93800000Y-42700000D01*
%TO.N,INPUT_KEY6*%
X132150000Y-45580000D02*
X132150000Y-45730000D01*
X132150000Y-45730000D02*
X125140000Y-52740000D01*
X125140000Y-53840000D02*
X123200000Y-55780000D01*
X125140000Y-52740000D02*
X125140000Y-53840000D01*
%TD*%
D20*
%TO.N,GND*%
X178840000Y-41441550D02*
X178797014Y-41433000D01*
X178602986Y-41433000D01*
X178412686Y-41470853D01*
X178233428Y-41545104D01*
X178072099Y-41652901D01*
X177934901Y-41790099D01*
X177827104Y-41951428D01*
X177800000Y-42016863D01*
X177772896Y-41951428D01*
X177665099Y-41790099D01*
X177527901Y-41652901D01*
X177366572Y-41545104D01*
X177187314Y-41470853D01*
X176997014Y-41433000D01*
X176802986Y-41433000D01*
X176612686Y-41470853D01*
X176433428Y-41545104D01*
X176272099Y-41652901D01*
X176134901Y-41790099D01*
X176027104Y-41951428D01*
X175952853Y-42130686D01*
X175915000Y-42320986D01*
X175915000Y-42515014D01*
X175952853Y-42705314D01*
X176027104Y-42884572D01*
X176134901Y-43045901D01*
X176272099Y-43183099D01*
X176433428Y-43290896D01*
X176612686Y-43365147D01*
X176802986Y-43403000D01*
X176997014Y-43403000D01*
X177187314Y-43365147D01*
X177366572Y-43290896D01*
X177527901Y-43183099D01*
X177665099Y-43045901D01*
X177772896Y-42884572D01*
X177800000Y-42819137D01*
X177827104Y-42884572D01*
X177934901Y-43045901D01*
X178072099Y-43183099D01*
X178233428Y-43290896D01*
X178412686Y-43365147D01*
X178602986Y-43403000D01*
X178797014Y-43403000D01*
X178840000Y-43394449D01*
X178840000Y-53887551D01*
X178797014Y-53879000D01*
X178602986Y-53879000D01*
X178412686Y-53916853D01*
X178233428Y-53991104D01*
X178072099Y-54098901D01*
X177934901Y-54236099D01*
X177827104Y-54397428D01*
X177800000Y-54462863D01*
X177772896Y-54397428D01*
X177665099Y-54236099D01*
X177527901Y-54098901D01*
X177366572Y-53991104D01*
X177187314Y-53916853D01*
X176997014Y-53879000D01*
X176802986Y-53879000D01*
X176612686Y-53916853D01*
X176433428Y-53991104D01*
X176272099Y-54098901D01*
X176134901Y-54236099D01*
X176027104Y-54397428D01*
X175952853Y-54576686D01*
X175915000Y-54766986D01*
X175915000Y-54961014D01*
X175952853Y-55151314D01*
X176027104Y-55330572D01*
X176134901Y-55491901D01*
X176272099Y-55629099D01*
X176433428Y-55736896D01*
X176612686Y-55811147D01*
X176802986Y-55849000D01*
X176997014Y-55849000D01*
X177187314Y-55811147D01*
X177366572Y-55736896D01*
X177527901Y-55629099D01*
X177665099Y-55491901D01*
X177772896Y-55330572D01*
X177800000Y-55265137D01*
X177827104Y-55330572D01*
X177934901Y-55491901D01*
X178072099Y-55629099D01*
X178233428Y-55736896D01*
X178412686Y-55811147D01*
X178602986Y-55849000D01*
X178797014Y-55849000D01*
X178840001Y-55840449D01*
X178840001Y-82840000D01*
X143127000Y-82840000D01*
X143127000Y-79896891D01*
X144058519Y-79896891D01*
X144155843Y-80171252D01*
X144304822Y-80421355D01*
X144499731Y-80637588D01*
X144733080Y-80811641D01*
X144995901Y-80936825D01*
X145143110Y-80981476D01*
X145373000Y-80860155D01*
X145373000Y-79667000D01*
X144179186Y-79667000D01*
X144058519Y-79896891D01*
X143127000Y-79896891D01*
X143127000Y-78960000D01*
X144137662Y-78960000D01*
X144058519Y-79183109D01*
X144179186Y-79413000D01*
X145373000Y-79413000D01*
X145373000Y-79393000D01*
X145627000Y-79393000D01*
X145627000Y-79413000D01*
X145647000Y-79413000D01*
X145647000Y-79667000D01*
X145627000Y-79667000D01*
X145627000Y-80860155D01*
X145856890Y-80981476D01*
X146004099Y-80936825D01*
X146266920Y-80811641D01*
X146500269Y-80637588D01*
X146695178Y-80421355D01*
X146764805Y-80304466D01*
X146886525Y-80486632D01*
X147093368Y-80693475D01*
X147336589Y-80855990D01*
X147606842Y-80967932D01*
X147893740Y-81025000D01*
X148186260Y-81025000D01*
X148473158Y-80967932D01*
X148743411Y-80855990D01*
X148986632Y-80693475D01*
X149193475Y-80486632D01*
X149310000Y-80312240D01*
X149426525Y-80486632D01*
X149633368Y-80693475D01*
X149876589Y-80855990D01*
X150146842Y-80967932D01*
X150433740Y-81025000D01*
X150726260Y-81025000D01*
X151013158Y-80967932D01*
X151283411Y-80855990D01*
X151526632Y-80693475D01*
X151733475Y-80486632D01*
X151850000Y-80312240D01*
X151966525Y-80486632D01*
X152173368Y-80693475D01*
X152416589Y-80855990D01*
X152686842Y-80967932D01*
X152973740Y-81025000D01*
X153266260Y-81025000D01*
X153553158Y-80967932D01*
X153823411Y-80855990D01*
X154066632Y-80693475D01*
X154273475Y-80486632D01*
X154390000Y-80312240D01*
X154506525Y-80486632D01*
X154713368Y-80693475D01*
X154956589Y-80855990D01*
X155226842Y-80967932D01*
X155513740Y-81025000D01*
X155806260Y-81025000D01*
X156093158Y-80967932D01*
X156363411Y-80855990D01*
X156606632Y-80693475D01*
X156813475Y-80486632D01*
X156935195Y-80304466D01*
X157004822Y-80421355D01*
X157199731Y-80637588D01*
X157433080Y-80811641D01*
X157695901Y-80936825D01*
X157843110Y-80981476D01*
X158073000Y-80860155D01*
X158073000Y-79667000D01*
X158327000Y-79667000D01*
X158327000Y-80860155D01*
X158556890Y-80981476D01*
X158704099Y-80936825D01*
X158966920Y-80811641D01*
X159200269Y-80637588D01*
X159395178Y-80421355D01*
X159544157Y-80171252D01*
X159641481Y-79896891D01*
X159520814Y-79667000D01*
X158327000Y-79667000D01*
X158073000Y-79667000D01*
X158053000Y-79667000D01*
X158053000Y-79413000D01*
X158073000Y-79413000D01*
X158073000Y-79393000D01*
X158327000Y-79393000D01*
X158327000Y-79413000D01*
X159520814Y-79413000D01*
X159641481Y-79183109D01*
X159544157Y-78908748D01*
X159482057Y-78804495D01*
X173015000Y-78804495D01*
X173015000Y-79195505D01*
X173091282Y-79579003D01*
X173240915Y-79940250D01*
X173458149Y-80265364D01*
X173734636Y-80541851D01*
X174059750Y-80759085D01*
X174420997Y-80908718D01*
X174804495Y-80985000D01*
X175195505Y-80985000D01*
X175579003Y-80908718D01*
X175940250Y-80759085D01*
X176265364Y-80541851D01*
X176541851Y-80265364D01*
X176759085Y-79940250D01*
X176908718Y-79579003D01*
X176985000Y-79195505D01*
X176985000Y-78804495D01*
X176908718Y-78420997D01*
X176759085Y-78059750D01*
X176541851Y-77734636D01*
X176265364Y-77458149D01*
X175940250Y-77240915D01*
X175579003Y-77091282D01*
X175195505Y-77015000D01*
X174804495Y-77015000D01*
X174420997Y-77091282D01*
X174059750Y-77240915D01*
X173734636Y-77458149D01*
X173458149Y-77734636D01*
X173240915Y-78059750D01*
X173091282Y-78420997D01*
X173015000Y-78804495D01*
X159482057Y-78804495D01*
X159395178Y-78658645D01*
X159200269Y-78442412D01*
X158970594Y-78271100D01*
X159146632Y-78153475D01*
X159353475Y-77946632D01*
X159515990Y-77703411D01*
X159627932Y-77433158D01*
X159685000Y-77146260D01*
X159685000Y-76853740D01*
X159627932Y-76566842D01*
X159515990Y-76296589D01*
X159353475Y-76053368D01*
X159146632Y-75846525D01*
X158903411Y-75684010D01*
X158633158Y-75572068D01*
X158346260Y-75515000D01*
X158053740Y-75515000D01*
X157766842Y-75572068D01*
X157496589Y-75684010D01*
X157253368Y-75846525D01*
X157046525Y-76053368D01*
X156930000Y-76227760D01*
X156813475Y-76053368D01*
X156606632Y-75846525D01*
X156363411Y-75684010D01*
X156093158Y-75572068D01*
X155806260Y-75515000D01*
X155513740Y-75515000D01*
X155226842Y-75572068D01*
X154956589Y-75684010D01*
X154713368Y-75846525D01*
X154506525Y-76053368D01*
X154390000Y-76227760D01*
X154273475Y-76053368D01*
X154066632Y-75846525D01*
X153823411Y-75684010D01*
X153553158Y-75572068D01*
X153266260Y-75515000D01*
X152973740Y-75515000D01*
X152686842Y-75572068D01*
X152416589Y-75684010D01*
X152173368Y-75846525D01*
X151966525Y-76053368D01*
X151850000Y-76227760D01*
X151733475Y-76053368D01*
X151526632Y-75846525D01*
X151283411Y-75684010D01*
X151013158Y-75572068D01*
X150726260Y-75515000D01*
X150433740Y-75515000D01*
X150146842Y-75572068D01*
X149876589Y-75684010D01*
X149633368Y-75846525D01*
X149426525Y-76053368D01*
X149310000Y-76227760D01*
X149193475Y-76053368D01*
X148986632Y-75846525D01*
X148743411Y-75684010D01*
X148473158Y-75572068D01*
X148186260Y-75515000D01*
X147893740Y-75515000D01*
X147606842Y-75572068D01*
X147336589Y-75684010D01*
X147093368Y-75846525D01*
X146961513Y-75978380D01*
X146939502Y-75905820D01*
X146880537Y-75795506D01*
X146801185Y-75698815D01*
X146704494Y-75619463D01*
X146594180Y-75560498D01*
X146474482Y-75524188D01*
X146350000Y-75511928D01*
X144650000Y-75511928D01*
X144525518Y-75524188D01*
X144405820Y-75560498D01*
X144295506Y-75619463D01*
X144198815Y-75698815D01*
X144119463Y-75795506D01*
X144082317Y-75865000D01*
X143770132Y-75865000D01*
X143127000Y-75221868D01*
X143127000Y-74110136D01*
X143228505Y-74042312D01*
X143356737Y-73914080D01*
X148865525Y-73914080D01*
X148949208Y-74168261D01*
X149221775Y-74299158D01*
X149514642Y-74374365D01*
X149816553Y-74390991D01*
X150115907Y-74348397D01*
X150401199Y-74248222D01*
X150550792Y-74168261D01*
X150634475Y-73914080D01*
X149750000Y-73029605D01*
X148865525Y-73914080D01*
X143356737Y-73914080D01*
X143442312Y-73828505D01*
X143610299Y-73577095D01*
X143726011Y-73297743D01*
X143785000Y-73001184D01*
X143785000Y-72916553D01*
X148209009Y-72916553D01*
X148251603Y-73215907D01*
X148351778Y-73501199D01*
X148431739Y-73650792D01*
X148685920Y-73734475D01*
X149570395Y-72850000D01*
X149929605Y-72850000D01*
X150814080Y-73734475D01*
X151068261Y-73650792D01*
X151199158Y-73378225D01*
X151274365Y-73085358D01*
X151290991Y-72783447D01*
X151278950Y-72698816D01*
X152715000Y-72698816D01*
X152715000Y-73001184D01*
X152773989Y-73297743D01*
X152889701Y-73577095D01*
X153057688Y-73828505D01*
X153271495Y-74042312D01*
X153522905Y-74210299D01*
X153802257Y-74326011D01*
X154098816Y-74385000D01*
X154401184Y-74385000D01*
X154697743Y-74326011D01*
X154977095Y-74210299D01*
X155228505Y-74042312D01*
X155356737Y-73914080D01*
X160865525Y-73914080D01*
X160949208Y-74168261D01*
X161221775Y-74299158D01*
X161514642Y-74374365D01*
X161816553Y-74390991D01*
X162115907Y-74348397D01*
X162401199Y-74248222D01*
X162550792Y-74168261D01*
X162634475Y-73914080D01*
X161750000Y-73029605D01*
X160865525Y-73914080D01*
X155356737Y-73914080D01*
X155442312Y-73828505D01*
X155610299Y-73577095D01*
X155726011Y-73297743D01*
X155785000Y-73001184D01*
X155785000Y-72916553D01*
X160209009Y-72916553D01*
X160251603Y-73215907D01*
X160351778Y-73501199D01*
X160431739Y-73650792D01*
X160685920Y-73734475D01*
X161570395Y-72850000D01*
X161929605Y-72850000D01*
X162814080Y-73734475D01*
X163068261Y-73650792D01*
X163199158Y-73378225D01*
X163274365Y-73085358D01*
X163290991Y-72783447D01*
X163278950Y-72698816D01*
X164715000Y-72698816D01*
X164715000Y-73001184D01*
X164773989Y-73297743D01*
X164889701Y-73577095D01*
X165057688Y-73828505D01*
X165271495Y-74042312D01*
X165522905Y-74210299D01*
X165802257Y-74326011D01*
X166098816Y-74385000D01*
X166401184Y-74385000D01*
X166697743Y-74326011D01*
X166977095Y-74210299D01*
X167228505Y-74042312D01*
X167442312Y-73828505D01*
X167610299Y-73577095D01*
X167726011Y-73297743D01*
X167785000Y-73001184D01*
X167785000Y-72698816D01*
X167726011Y-72402257D01*
X167610299Y-72122905D01*
X167442312Y-71871495D01*
X167228505Y-71657688D01*
X166977095Y-71489701D01*
X166697743Y-71373989D01*
X166401184Y-71315000D01*
X166098816Y-71315000D01*
X165802257Y-71373989D01*
X165522905Y-71489701D01*
X165271495Y-71657688D01*
X165057688Y-71871495D01*
X164889701Y-72122905D01*
X164773989Y-72402257D01*
X164715000Y-72698816D01*
X163278950Y-72698816D01*
X163248397Y-72484093D01*
X163148222Y-72198801D01*
X163068261Y-72049208D01*
X162814080Y-71965525D01*
X161929605Y-72850000D01*
X161570395Y-72850000D01*
X160685920Y-71965525D01*
X160431739Y-72049208D01*
X160300842Y-72321775D01*
X160225635Y-72614642D01*
X160209009Y-72916553D01*
X155785000Y-72916553D01*
X155785000Y-72698816D01*
X155726011Y-72402257D01*
X155610299Y-72122905D01*
X155442312Y-71871495D01*
X155356737Y-71785920D01*
X160865525Y-71785920D01*
X161750000Y-72670395D01*
X162634475Y-71785920D01*
X162550792Y-71531739D01*
X162278225Y-71400842D01*
X161985358Y-71325635D01*
X161683447Y-71309009D01*
X161384093Y-71351603D01*
X161098801Y-71451778D01*
X160949208Y-71531739D01*
X160865525Y-71785920D01*
X155356737Y-71785920D01*
X155228505Y-71657688D01*
X154977095Y-71489701D01*
X154697743Y-71373989D01*
X154401184Y-71315000D01*
X154098816Y-71315000D01*
X153802257Y-71373989D01*
X153522905Y-71489701D01*
X153271495Y-71657688D01*
X153057688Y-71871495D01*
X152889701Y-72122905D01*
X152773989Y-72402257D01*
X152715000Y-72698816D01*
X151278950Y-72698816D01*
X151248397Y-72484093D01*
X151148222Y-72198801D01*
X151068261Y-72049208D01*
X150814080Y-71965525D01*
X149929605Y-72850000D01*
X149570395Y-72850000D01*
X148685920Y-71965525D01*
X148431739Y-72049208D01*
X148300842Y-72321775D01*
X148225635Y-72614642D01*
X148209009Y-72916553D01*
X143785000Y-72916553D01*
X143785000Y-72698816D01*
X143726011Y-72402257D01*
X143610299Y-72122905D01*
X143442312Y-71871495D01*
X143356737Y-71785920D01*
X148865525Y-71785920D01*
X149750000Y-72670395D01*
X150634475Y-71785920D01*
X150550792Y-71531739D01*
X150278225Y-71400842D01*
X149985358Y-71325635D01*
X149683447Y-71309009D01*
X149384093Y-71351603D01*
X149098801Y-71451778D01*
X148949208Y-71531739D01*
X148865525Y-71785920D01*
X143356737Y-71785920D01*
X143228505Y-71657688D01*
X142977095Y-71489701D01*
X142697743Y-71373989D01*
X142401184Y-71315000D01*
X142098816Y-71315000D01*
X141802257Y-71373989D01*
X141522905Y-71489701D01*
X141271495Y-71657688D01*
X141057688Y-71871495D01*
X140889701Y-72122905D01*
X140773989Y-72402257D01*
X140715000Y-72698816D01*
X140715000Y-73001184D01*
X140773989Y-73297743D01*
X140889701Y-73577095D01*
X141057688Y-73828505D01*
X141102183Y-73873000D01*
X138907452Y-73873000D01*
X138930030Y-73850422D01*
X138814082Y-73734474D01*
X139068261Y-73650792D01*
X139199158Y-73378225D01*
X139274365Y-73085358D01*
X139290991Y-72783447D01*
X139248397Y-72484093D01*
X139148222Y-72198801D01*
X139068261Y-72049208D01*
X138814080Y-71965525D01*
X137929605Y-72850000D01*
X137943748Y-72864143D01*
X137764143Y-73043748D01*
X137750000Y-73029605D01*
X137735858Y-73043748D01*
X137556253Y-72864143D01*
X137570395Y-72850000D01*
X136685920Y-71965525D01*
X136431739Y-72049208D01*
X136300842Y-72321775D01*
X136225635Y-72614642D01*
X136209009Y-72916553D01*
X136251603Y-73215907D01*
X136351778Y-73501199D01*
X136431739Y-73650792D01*
X136685918Y-73734474D01*
X136569970Y-73850422D01*
X136592548Y-73873000D01*
X126127000Y-73873000D01*
X126127000Y-71785920D01*
X136865525Y-71785920D01*
X137750000Y-72670395D01*
X138634475Y-71785920D01*
X138550792Y-71531739D01*
X138278225Y-71400842D01*
X137985358Y-71325635D01*
X137683447Y-71309009D01*
X137384093Y-71351603D01*
X137098801Y-71451778D01*
X136949208Y-71531739D01*
X136865525Y-71785920D01*
X126127000Y-71785920D01*
X126127000Y-71707802D01*
X126554802Y-71280000D01*
X170062678Y-71280000D01*
X170100000Y-71283676D01*
X170137322Y-71280000D01*
X170137333Y-71280000D01*
X170248986Y-71269003D01*
X170392247Y-71225546D01*
X170524276Y-71154974D01*
X170640001Y-71060001D01*
X170663804Y-71030997D01*
X175867008Y-65827795D01*
X175896001Y-65804001D01*
X175919795Y-65775008D01*
X175919799Y-65775004D01*
X175990973Y-65688277D01*
X175990974Y-65688276D01*
X176061546Y-65556247D01*
X176105003Y-65412986D01*
X176116000Y-65301333D01*
X176116000Y-65301324D01*
X176119676Y-65264001D01*
X176116000Y-65226678D01*
X176116000Y-62067711D01*
X176153937Y-62029774D01*
X176267205Y-61860256D01*
X176345226Y-61671898D01*
X176385000Y-61471939D01*
X176385000Y-61268061D01*
X176345226Y-61068102D01*
X176267205Y-60879744D01*
X176153937Y-60710226D01*
X176009774Y-60566063D01*
X175840256Y-60452795D01*
X175651898Y-60374774D01*
X175451939Y-60335000D01*
X175248061Y-60335000D01*
X175048102Y-60374774D01*
X174859744Y-60452795D01*
X174690226Y-60566063D01*
X174546063Y-60710226D01*
X174432795Y-60879744D01*
X174354774Y-61068102D01*
X174315000Y-61268061D01*
X174315000Y-61471939D01*
X174354774Y-61671898D01*
X174432795Y-61860256D01*
X174546063Y-62029774D01*
X174596000Y-62079711D01*
X174596001Y-64949196D01*
X169785199Y-69760000D01*
X126277322Y-69760000D01*
X126239999Y-69756324D01*
X126202676Y-69760000D01*
X126202667Y-69760000D01*
X126127000Y-69767453D01*
X126127000Y-69240000D01*
X131522678Y-69240000D01*
X131560000Y-69243676D01*
X131597322Y-69240000D01*
X131597333Y-69240000D01*
X131708986Y-69229003D01*
X131732431Y-69221891D01*
X131748061Y-69225000D01*
X131951939Y-69225000D01*
X132151898Y-69185226D01*
X132340256Y-69107205D01*
X132509774Y-68993937D01*
X132653937Y-68849774D01*
X132767205Y-68680256D01*
X132845226Y-68491898D01*
X132885000Y-68291939D01*
X132885000Y-68088061D01*
X132845226Y-67888102D01*
X132767205Y-67699744D01*
X132653937Y-67530226D01*
X132509774Y-67386063D01*
X132340256Y-67272795D01*
X132151898Y-67194774D01*
X131951939Y-67155000D01*
X131748061Y-67155000D01*
X131548102Y-67194774D01*
X131359744Y-67272795D01*
X131190226Y-67386063D01*
X131046063Y-67530226D01*
X130932795Y-67699744D01*
X130924405Y-67720000D01*
X126127000Y-67720000D01*
X126127000Y-64000000D01*
X126124560Y-63975224D01*
X126117333Y-63951399D01*
X126105597Y-63929443D01*
X126089803Y-63910197D01*
X126070557Y-63894403D01*
X126048601Y-63882667D01*
X126024776Y-63875440D01*
X126000000Y-63873000D01*
X124516179Y-63873000D01*
X124543314Y-63807490D01*
X124597000Y-63537592D01*
X124597000Y-63262408D01*
X124543314Y-62992510D01*
X124438005Y-62738273D01*
X124285120Y-62509465D01*
X124090535Y-62314880D01*
X123861727Y-62161995D01*
X123784485Y-62130000D01*
X123861727Y-62098005D01*
X124090535Y-61945120D01*
X124121575Y-61914080D01*
X136865525Y-61914080D01*
X136949208Y-62168261D01*
X137221775Y-62299158D01*
X137514642Y-62374365D01*
X137816553Y-62390991D01*
X138115907Y-62348397D01*
X138401199Y-62248222D01*
X138550792Y-62168261D01*
X138634475Y-61914080D01*
X137750000Y-61029605D01*
X136865525Y-61914080D01*
X124121575Y-61914080D01*
X124285120Y-61750535D01*
X124438005Y-61521727D01*
X124543314Y-61267490D01*
X124597000Y-60997592D01*
X124597000Y-60916553D01*
X136209009Y-60916553D01*
X136251603Y-61215907D01*
X136351778Y-61501199D01*
X136431739Y-61650792D01*
X136685920Y-61734475D01*
X137570395Y-60850000D01*
X137929605Y-60850000D01*
X138814080Y-61734475D01*
X139068261Y-61650792D01*
X139199158Y-61378225D01*
X139274365Y-61085358D01*
X139290991Y-60783447D01*
X139278950Y-60698816D01*
X140715000Y-60698816D01*
X140715000Y-61001184D01*
X140773989Y-61297743D01*
X140889701Y-61577095D01*
X141057688Y-61828505D01*
X141271495Y-62042312D01*
X141522905Y-62210299D01*
X141802257Y-62326011D01*
X142098816Y-62385000D01*
X142401184Y-62385000D01*
X142697743Y-62326011D01*
X142977095Y-62210299D01*
X143228505Y-62042312D01*
X143442312Y-61828505D01*
X143610299Y-61577095D01*
X143726011Y-61297743D01*
X143785000Y-61001184D01*
X143785000Y-60698816D01*
X143726011Y-60402257D01*
X143610299Y-60122905D01*
X143442312Y-59871495D01*
X143228505Y-59657688D01*
X142977095Y-59489701D01*
X142697743Y-59373989D01*
X142401184Y-59315000D01*
X142098816Y-59315000D01*
X141802257Y-59373989D01*
X141522905Y-59489701D01*
X141271495Y-59657688D01*
X141057688Y-59871495D01*
X140889701Y-60122905D01*
X140773989Y-60402257D01*
X140715000Y-60698816D01*
X139278950Y-60698816D01*
X139248397Y-60484093D01*
X139148222Y-60198801D01*
X139068261Y-60049208D01*
X138814080Y-59965525D01*
X137929605Y-60850000D01*
X137570395Y-60850000D01*
X136685920Y-59965525D01*
X136431739Y-60049208D01*
X136300842Y-60321775D01*
X136225635Y-60614642D01*
X136209009Y-60916553D01*
X124597000Y-60916553D01*
X124597000Y-60722408D01*
X124566372Y-60568430D01*
X125744802Y-59390000D01*
X130796289Y-59390000D01*
X130840226Y-59433937D01*
X131009744Y-59547205D01*
X131198102Y-59625226D01*
X131398061Y-59665000D01*
X131601939Y-59665000D01*
X131801898Y-59625226D01*
X131960489Y-59559535D01*
X131994774Y-59731898D01*
X132072795Y-59920256D01*
X132186063Y-60089774D01*
X132330226Y-60233937D01*
X132499744Y-60347205D01*
X132688102Y-60425226D01*
X132888061Y-60465000D01*
X133091939Y-60465000D01*
X133291898Y-60425226D01*
X133480256Y-60347205D01*
X133649774Y-60233937D01*
X133793937Y-60089774D01*
X133907205Y-59920256D01*
X133962849Y-59785920D01*
X136865525Y-59785920D01*
X137750000Y-60670395D01*
X138634475Y-59785920D01*
X138550792Y-59531739D01*
X138278225Y-59400842D01*
X137985358Y-59325635D01*
X137683447Y-59309009D01*
X137384093Y-59351603D01*
X137098801Y-59451778D01*
X136949208Y-59531739D01*
X136865525Y-59785920D01*
X133962849Y-59785920D01*
X133985226Y-59731898D01*
X134025000Y-59531939D01*
X134025000Y-59328061D01*
X133985226Y-59128102D01*
X133907205Y-58939744D01*
X133793937Y-58770226D01*
X133760000Y-58736289D01*
X133760000Y-58477322D01*
X133763676Y-58440000D01*
X133760000Y-58402677D01*
X133760000Y-58402667D01*
X133749003Y-58291014D01*
X133705546Y-58147753D01*
X133701265Y-58139744D01*
X133634974Y-58015723D01*
X133563799Y-57928997D01*
X133540001Y-57899999D01*
X133511002Y-57876201D01*
X132753803Y-57119002D01*
X132730001Y-57089999D01*
X132614276Y-56995026D01*
X132482247Y-56924454D01*
X132338986Y-56880997D01*
X132227333Y-56870000D01*
X132227322Y-56870000D01*
X132190000Y-56866324D01*
X132152678Y-56870000D01*
X124083232Y-56870000D01*
X124090535Y-56865120D01*
X124285120Y-56670535D01*
X124438005Y-56441727D01*
X124543314Y-56187490D01*
X124597000Y-55917592D01*
X124597000Y-55642408D01*
X124566372Y-55488430D01*
X125651003Y-54403799D01*
X125680001Y-54380001D01*
X125774974Y-54264276D01*
X125845546Y-54132247D01*
X125889003Y-53988986D01*
X125900000Y-53877333D01*
X125900000Y-53877324D01*
X125903676Y-53840001D01*
X125900000Y-53802678D01*
X125900000Y-53404495D01*
X128515000Y-53404495D01*
X128515000Y-53795505D01*
X128591282Y-54179003D01*
X128740915Y-54540250D01*
X128958149Y-54865364D01*
X129234636Y-55141851D01*
X129559750Y-55359085D01*
X129920997Y-55508718D01*
X130304495Y-55585000D01*
X130695505Y-55585000D01*
X131079003Y-55508718D01*
X131440250Y-55359085D01*
X131765364Y-55141851D01*
X132041851Y-54865364D01*
X132259085Y-54540250D01*
X132400511Y-54198816D01*
X136215000Y-54198816D01*
X136215000Y-54501184D01*
X136273989Y-54797743D01*
X136389701Y-55077095D01*
X136557688Y-55328505D01*
X136771495Y-55542312D01*
X137022905Y-55710299D01*
X137302257Y-55826011D01*
X137598816Y-55885000D01*
X137901184Y-55885000D01*
X138197743Y-55826011D01*
X138477095Y-55710299D01*
X138728505Y-55542312D01*
X138942312Y-55328505D01*
X139110299Y-55077095D01*
X139226011Y-54797743D01*
X139285000Y-54501184D01*
X139285000Y-54198816D01*
X140715000Y-54198816D01*
X140715000Y-54501184D01*
X140773989Y-54797743D01*
X140889701Y-55077095D01*
X141057688Y-55328505D01*
X141271495Y-55542312D01*
X141522905Y-55710299D01*
X141802257Y-55826011D01*
X142098816Y-55885000D01*
X142401184Y-55885000D01*
X142697743Y-55826011D01*
X142977095Y-55710299D01*
X143228505Y-55542312D01*
X143442312Y-55328505D01*
X143610299Y-55077095D01*
X143726011Y-54797743D01*
X143785000Y-54501184D01*
X143785000Y-54198816D01*
X143726011Y-53902257D01*
X143610299Y-53622905D01*
X143442312Y-53371495D01*
X143228505Y-53157688D01*
X142977095Y-52989701D01*
X142697743Y-52873989D01*
X142401184Y-52815000D01*
X142098816Y-52815000D01*
X141802257Y-52873989D01*
X141522905Y-52989701D01*
X141271495Y-53157688D01*
X141057688Y-53371495D01*
X140889701Y-53622905D01*
X140773989Y-53902257D01*
X140715000Y-54198816D01*
X139285000Y-54198816D01*
X139226011Y-53902257D01*
X139110299Y-53622905D01*
X138942312Y-53371495D01*
X138728505Y-53157688D01*
X138477095Y-52989701D01*
X138197743Y-52873989D01*
X137901184Y-52815000D01*
X137598816Y-52815000D01*
X137302257Y-52873989D01*
X137022905Y-52989701D01*
X136771495Y-53157688D01*
X136557688Y-53371495D01*
X136389701Y-53622905D01*
X136273989Y-53902257D01*
X136215000Y-54198816D01*
X132400511Y-54198816D01*
X132408718Y-54179003D01*
X132485000Y-53795505D01*
X132485000Y-53404495D01*
X132408718Y-53020997D01*
X132259085Y-52659750D01*
X132041851Y-52334636D01*
X131765364Y-52058149D01*
X131440250Y-51840915D01*
X131079003Y-51691282D01*
X130695505Y-51615000D01*
X130304495Y-51615000D01*
X129920997Y-51691282D01*
X129559750Y-51840915D01*
X129234636Y-52058149D01*
X128958149Y-52334636D01*
X128740915Y-52659750D01*
X128591282Y-53020997D01*
X128515000Y-53404495D01*
X125900000Y-53404495D01*
X125900000Y-53054801D01*
X129040721Y-49914080D01*
X136865525Y-49914080D01*
X136949208Y-50168261D01*
X137221775Y-50299158D01*
X137514642Y-50374365D01*
X137816553Y-50390991D01*
X138115907Y-50348397D01*
X138401199Y-50248222D01*
X138550792Y-50168261D01*
X138634475Y-49914080D01*
X137750000Y-49029605D01*
X136865525Y-49914080D01*
X129040721Y-49914080D01*
X130038248Y-48916553D01*
X136209009Y-48916553D01*
X136251603Y-49215907D01*
X136351778Y-49501199D01*
X136431739Y-49650792D01*
X136685920Y-49734475D01*
X137570395Y-48850000D01*
X137929605Y-48850000D01*
X138814080Y-49734475D01*
X139068261Y-49650792D01*
X139199158Y-49378225D01*
X139274365Y-49085358D01*
X139290991Y-48783447D01*
X139278950Y-48698816D01*
X140715000Y-48698816D01*
X140715000Y-49001184D01*
X140773989Y-49297743D01*
X140889701Y-49577095D01*
X141057688Y-49828505D01*
X141271495Y-50042312D01*
X141522905Y-50210299D01*
X141802257Y-50326011D01*
X142098816Y-50385000D01*
X142401184Y-50385000D01*
X142697743Y-50326011D01*
X142977095Y-50210299D01*
X143228505Y-50042312D01*
X143442312Y-49828505D01*
X143610299Y-49577095D01*
X143726011Y-49297743D01*
X143785000Y-49001184D01*
X143785000Y-48698816D01*
X143726011Y-48402257D01*
X143610299Y-48122905D01*
X143442312Y-47871495D01*
X143228505Y-47657688D01*
X142977095Y-47489701D01*
X142697743Y-47373989D01*
X142401184Y-47315000D01*
X142098816Y-47315000D01*
X141802257Y-47373989D01*
X141522905Y-47489701D01*
X141271495Y-47657688D01*
X141057688Y-47871495D01*
X140889701Y-48122905D01*
X140773989Y-48402257D01*
X140715000Y-48698816D01*
X139278950Y-48698816D01*
X139248397Y-48484093D01*
X139148222Y-48198801D01*
X139068261Y-48049208D01*
X138814080Y-47965525D01*
X137929605Y-48850000D01*
X137570395Y-48850000D01*
X136685920Y-47965525D01*
X136431739Y-48049208D01*
X136300842Y-48321775D01*
X136225635Y-48614642D01*
X136209009Y-48916553D01*
X130038248Y-48916553D01*
X131168881Y-47785920D01*
X136865525Y-47785920D01*
X137750000Y-48670395D01*
X138634475Y-47785920D01*
X138550792Y-47531739D01*
X138278225Y-47400842D01*
X137985358Y-47325635D01*
X137683447Y-47309009D01*
X137384093Y-47351603D01*
X137098801Y-47451778D01*
X136949208Y-47531739D01*
X136865525Y-47785920D01*
X131168881Y-47785920D01*
X132361618Y-46593184D01*
X132451898Y-46575226D01*
X132640256Y-46497205D01*
X132809774Y-46383937D01*
X132953937Y-46239774D01*
X133067205Y-46070256D01*
X133145226Y-45881898D01*
X133185000Y-45681939D01*
X133185000Y-45478061D01*
X133145226Y-45278102D01*
X133067205Y-45089744D01*
X132953937Y-44920226D01*
X132809774Y-44776063D01*
X132640256Y-44662795D01*
X132451898Y-44584774D01*
X132251939Y-44545000D01*
X132048061Y-44545000D01*
X131848102Y-44584774D01*
X131659744Y-44662795D01*
X131490226Y-44776063D01*
X131480072Y-44786217D01*
X131340256Y-44692795D01*
X131151898Y-44614774D01*
X130951939Y-44575000D01*
X130748061Y-44575000D01*
X130548102Y-44614774D01*
X130359744Y-44692795D01*
X130190226Y-44806063D01*
X130046063Y-44950226D01*
X129932795Y-45119744D01*
X129854774Y-45308102D01*
X129815000Y-45508061D01*
X129815000Y-45550198D01*
X125399003Y-49966196D01*
X125398997Y-49966201D01*
X124597000Y-50768198D01*
X124597000Y-50562408D01*
X124543314Y-50292510D01*
X124438005Y-50038273D01*
X124285120Y-49809465D01*
X124090535Y-49614880D01*
X123861727Y-49461995D01*
X123784485Y-49430000D01*
X123861727Y-49398005D01*
X124090535Y-49245120D01*
X124285120Y-49050535D01*
X124438005Y-48821727D01*
X124543314Y-48567490D01*
X124597000Y-48297592D01*
X124597000Y-48022408D01*
X124566372Y-47868430D01*
X126461003Y-45973799D01*
X126490001Y-45950001D01*
X126584974Y-45834276D01*
X126655546Y-45702247D01*
X126699003Y-45558986D01*
X126710000Y-45447333D01*
X126710000Y-45447324D01*
X126713676Y-45410001D01*
X126710000Y-45372678D01*
X126710000Y-37914080D01*
X136865525Y-37914080D01*
X136949208Y-38168261D01*
X137221775Y-38299158D01*
X137514642Y-38374365D01*
X137816553Y-38390991D01*
X138115907Y-38348397D01*
X138401199Y-38248222D01*
X138550792Y-38168261D01*
X138634475Y-37914080D01*
X137750000Y-37029605D01*
X136865525Y-37914080D01*
X126710000Y-37914080D01*
X126710000Y-36994801D01*
X126788248Y-36916553D01*
X136209009Y-36916553D01*
X136251603Y-37215907D01*
X136351778Y-37501199D01*
X136431739Y-37650792D01*
X136685920Y-37734475D01*
X137570395Y-36850000D01*
X137929605Y-36850000D01*
X138814080Y-37734475D01*
X139068261Y-37650792D01*
X139199158Y-37378225D01*
X139274365Y-37085358D01*
X139290991Y-36783447D01*
X139278950Y-36698816D01*
X140715000Y-36698816D01*
X140715000Y-37001184D01*
X140773989Y-37297743D01*
X140889701Y-37577095D01*
X141057688Y-37828505D01*
X141271495Y-38042312D01*
X141522905Y-38210299D01*
X141802257Y-38326011D01*
X142098816Y-38385000D01*
X142401184Y-38385000D01*
X142697743Y-38326011D01*
X142977095Y-38210299D01*
X143228505Y-38042312D01*
X143442312Y-37828505D01*
X143610299Y-37577095D01*
X143726011Y-37297743D01*
X143785000Y-37001184D01*
X143785000Y-36698816D01*
X143726011Y-36402257D01*
X143610299Y-36122905D01*
X143442312Y-35871495D01*
X143228505Y-35657688D01*
X142977095Y-35489701D01*
X142697743Y-35373989D01*
X142401184Y-35315000D01*
X142098816Y-35315000D01*
X141802257Y-35373989D01*
X141522905Y-35489701D01*
X141271495Y-35657688D01*
X141057688Y-35871495D01*
X140889701Y-36122905D01*
X140773989Y-36402257D01*
X140715000Y-36698816D01*
X139278950Y-36698816D01*
X139248397Y-36484093D01*
X139148222Y-36198801D01*
X139068261Y-36049208D01*
X138814080Y-35965525D01*
X137929605Y-36850000D01*
X137570395Y-36850000D01*
X136685920Y-35965525D01*
X136431739Y-36049208D01*
X136300842Y-36321775D01*
X136225635Y-36614642D01*
X136209009Y-36916553D01*
X126788248Y-36916553D01*
X128404802Y-35300000D01*
X131485199Y-35300000D01*
X131765000Y-35579802D01*
X131765000Y-35641939D01*
X131804774Y-35841898D01*
X131882795Y-36030256D01*
X131996063Y-36199774D01*
X132140226Y-36343937D01*
X132309744Y-36457205D01*
X132498102Y-36535226D01*
X132698061Y-36575000D01*
X132901939Y-36575000D01*
X133101898Y-36535226D01*
X133290256Y-36457205D01*
X133459774Y-36343937D01*
X133603937Y-36199774D01*
X133717205Y-36030256D01*
X133795226Y-35841898D01*
X133806360Y-35785920D01*
X136865525Y-35785920D01*
X137750000Y-36670395D01*
X138634475Y-35785920D01*
X138550792Y-35531739D01*
X138278225Y-35400842D01*
X137985358Y-35325635D01*
X137683447Y-35309009D01*
X137384093Y-35351603D01*
X137098801Y-35451778D01*
X136949208Y-35531739D01*
X136865525Y-35785920D01*
X133806360Y-35785920D01*
X133835000Y-35641939D01*
X133835000Y-35438061D01*
X133795226Y-35238102D01*
X133717205Y-35049744D01*
X133603937Y-34880226D01*
X133459774Y-34736063D01*
X133290256Y-34622795D01*
X133101898Y-34544774D01*
X132901939Y-34505000D01*
X132839802Y-34505000D01*
X132363804Y-34029002D01*
X132340001Y-33999999D01*
X132224276Y-33905026D01*
X132092247Y-33834454D01*
X131948986Y-33790997D01*
X131837333Y-33780000D01*
X131837322Y-33780000D01*
X131800000Y-33776324D01*
X131762678Y-33780000D01*
X128127322Y-33780000D01*
X128089999Y-33776324D01*
X128052676Y-33780000D01*
X128052667Y-33780000D01*
X127941014Y-33790997D01*
X127797753Y-33834454D01*
X127665723Y-33905026D01*
X127582083Y-33973668D01*
X127549999Y-33999999D01*
X127526201Y-34028997D01*
X125439003Y-36116196D01*
X125409999Y-36139999D01*
X125354871Y-36207174D01*
X125315026Y-36255724D01*
X125279721Y-36321775D01*
X125244454Y-36387754D01*
X125200997Y-36531015D01*
X125190000Y-36642668D01*
X125190000Y-36642678D01*
X125186324Y-36680000D01*
X125190000Y-36717322D01*
X125190001Y-45095197D01*
X124597000Y-45688198D01*
X124597000Y-45482408D01*
X124543314Y-45212510D01*
X124438005Y-44958273D01*
X124285120Y-44729465D01*
X124090535Y-44534880D01*
X123861727Y-44381995D01*
X123784485Y-44350000D01*
X123861727Y-44318005D01*
X124090535Y-44165120D01*
X124285120Y-43970535D01*
X124438005Y-43741727D01*
X124543314Y-43487490D01*
X124597000Y-43217592D01*
X124597000Y-42942408D01*
X124543314Y-42672510D01*
X124438005Y-42418273D01*
X124285120Y-42189465D01*
X124090535Y-41994880D01*
X123861727Y-41841995D01*
X123790057Y-41812308D01*
X123803023Y-41807636D01*
X123918980Y-41745656D01*
X123985960Y-41505565D01*
X123200000Y-40719605D01*
X122414040Y-41505565D01*
X122481020Y-41745656D01*
X122616760Y-41809485D01*
X122538273Y-41841995D01*
X122309465Y-41994880D01*
X122135000Y-42169345D01*
X122135000Y-41298220D01*
X122234435Y-41325960D01*
X123020395Y-40540000D01*
X123379605Y-40540000D01*
X124165565Y-41325960D01*
X124405656Y-41258980D01*
X124522756Y-41009952D01*
X124589023Y-40742865D01*
X124601910Y-40467983D01*
X124560922Y-40195867D01*
X124467636Y-39936977D01*
X124405656Y-39821020D01*
X124165565Y-39754040D01*
X123379605Y-40540000D01*
X123020395Y-40540000D01*
X123006253Y-40525858D01*
X123185858Y-40346253D01*
X123200000Y-40360395D01*
X123985960Y-39574435D01*
X123918980Y-39334344D01*
X123783240Y-39270515D01*
X123861727Y-39238005D01*
X124090535Y-39085120D01*
X124285120Y-38890535D01*
X124438005Y-38661727D01*
X124543314Y-38407490D01*
X124597000Y-38137592D01*
X124597000Y-37862408D01*
X124543314Y-37592510D01*
X124438005Y-37338273D01*
X124285120Y-37109465D01*
X124090535Y-36914880D01*
X123861727Y-36761995D01*
X123607490Y-36656686D01*
X123337592Y-36603000D01*
X123062408Y-36603000D01*
X122792510Y-36656686D01*
X122538273Y-36761995D01*
X122309465Y-36914880D01*
X122114880Y-37109465D01*
X121961995Y-37338273D01*
X121856686Y-37592510D01*
X121820515Y-37774353D01*
X120236865Y-39358004D01*
X120193551Y-39393551D01*
X120051716Y-39566377D01*
X119960879Y-39736324D01*
X119946324Y-39763554D01*
X119881423Y-39977502D01*
X119859509Y-40200000D01*
X119865000Y-40255751D01*
X119865000Y-53482289D01*
X119814080Y-53465525D01*
X118929605Y-54350000D01*
X119814080Y-55234475D01*
X119865000Y-55217711D01*
X119865001Y-59794184D01*
X119728505Y-59657688D01*
X119477095Y-59489701D01*
X119197743Y-59373989D01*
X118901184Y-59315000D01*
X118598816Y-59315000D01*
X118302257Y-59373989D01*
X118022905Y-59489701D01*
X117771495Y-59657688D01*
X117557688Y-59871495D01*
X117389701Y-60122905D01*
X117273989Y-60402257D01*
X117215000Y-60698816D01*
X117215000Y-61001184D01*
X117273989Y-61297743D01*
X117389701Y-61577095D01*
X117557688Y-61828505D01*
X117771495Y-62042312D01*
X118022905Y-62210299D01*
X118302257Y-62326011D01*
X118598816Y-62385000D01*
X118901184Y-62385000D01*
X119197743Y-62326011D01*
X119477095Y-62210299D01*
X119728505Y-62042312D01*
X119865001Y-61905816D01*
X119865001Y-63873000D01*
X113390711Y-63873000D01*
X113503937Y-63759774D01*
X113617205Y-63590256D01*
X113695226Y-63401898D01*
X113735000Y-63201939D01*
X113735000Y-62998061D01*
X113695226Y-62798102D01*
X113617205Y-62609744D01*
X113503937Y-62440226D01*
X113359774Y-62296063D01*
X113190256Y-62182795D01*
X113001898Y-62104774D01*
X112801939Y-62065000D01*
X112739802Y-62065000D01*
X112256748Y-61581947D01*
X112377501Y-61618577D01*
X112600000Y-61640491D01*
X112822499Y-61618577D01*
X112901421Y-61594636D01*
X113057688Y-61828505D01*
X113271495Y-62042312D01*
X113522905Y-62210299D01*
X113802257Y-62326011D01*
X114098816Y-62385000D01*
X114401184Y-62385000D01*
X114697743Y-62326011D01*
X114977095Y-62210299D01*
X115228505Y-62042312D01*
X115442312Y-61828505D01*
X115610299Y-61577095D01*
X115726011Y-61297743D01*
X115785000Y-61001184D01*
X115785000Y-60698816D01*
X115726011Y-60402257D01*
X115610299Y-60122905D01*
X115442312Y-59871495D01*
X115228505Y-59657688D01*
X114977095Y-59489701D01*
X114697743Y-59373989D01*
X114401184Y-59315000D01*
X114098816Y-59315000D01*
X113802257Y-59373989D01*
X113522905Y-59489701D01*
X113326240Y-59621109D01*
X113235000Y-59529869D01*
X113235000Y-55505817D01*
X113271495Y-55542312D01*
X113522905Y-55710299D01*
X113802257Y-55826011D01*
X114098816Y-55885000D01*
X114401184Y-55885000D01*
X114697743Y-55826011D01*
X114977095Y-55710299D01*
X115228505Y-55542312D01*
X115356737Y-55414080D01*
X117865525Y-55414080D01*
X117949208Y-55668261D01*
X118221775Y-55799158D01*
X118514642Y-55874365D01*
X118816553Y-55890991D01*
X119115907Y-55848397D01*
X119401199Y-55748222D01*
X119550792Y-55668261D01*
X119634475Y-55414080D01*
X118750000Y-54529605D01*
X117865525Y-55414080D01*
X115356737Y-55414080D01*
X115442312Y-55328505D01*
X115610299Y-55077095D01*
X115726011Y-54797743D01*
X115785000Y-54501184D01*
X115785000Y-54416553D01*
X117209009Y-54416553D01*
X117251603Y-54715907D01*
X117351778Y-55001199D01*
X117431739Y-55150792D01*
X117685920Y-55234475D01*
X118570395Y-54350000D01*
X117685920Y-53465525D01*
X117431739Y-53549208D01*
X117300842Y-53821775D01*
X117225635Y-54114642D01*
X117209009Y-54416553D01*
X115785000Y-54416553D01*
X115785000Y-54198816D01*
X115726011Y-53902257D01*
X115610299Y-53622905D01*
X115442312Y-53371495D01*
X115356737Y-53285920D01*
X117865525Y-53285920D01*
X118750000Y-54170395D01*
X119634475Y-53285920D01*
X119550792Y-53031739D01*
X119278225Y-52900842D01*
X118985358Y-52825635D01*
X118683447Y-52809009D01*
X118384093Y-52851603D01*
X118098801Y-52951778D01*
X117949208Y-53031739D01*
X117865525Y-53285920D01*
X115356737Y-53285920D01*
X115228505Y-53157688D01*
X114977095Y-52989701D01*
X114747203Y-52894476D01*
X114833623Y-52848284D01*
X115006449Y-52706449D01*
X115041996Y-52663135D01*
X115663135Y-52041996D01*
X115706449Y-52006449D01*
X115848284Y-51833623D01*
X115953676Y-51636447D01*
X116018577Y-51422499D01*
X116035000Y-51255752D01*
X116035000Y-51255743D01*
X116040490Y-51200001D01*
X116035000Y-51144259D01*
X116035000Y-47455752D01*
X116040491Y-47400000D01*
X116018577Y-47177501D01*
X115953676Y-46963553D01*
X115848284Y-46766377D01*
X115706449Y-46593551D01*
X115533623Y-46451716D01*
X115368688Y-46363557D01*
X115335000Y-46329869D01*
X115335000Y-29735000D01*
X136343269Y-29735000D01*
X136273989Y-29902257D01*
X136215000Y-30198816D01*
X136215000Y-30501184D01*
X136273989Y-30797743D01*
X136389701Y-31077095D01*
X136557688Y-31328505D01*
X136771495Y-31542312D01*
X137022905Y-31710299D01*
X137302257Y-31826011D01*
X137598816Y-31885000D01*
X137901184Y-31885000D01*
X138197743Y-31826011D01*
X138477095Y-31710299D01*
X138728505Y-31542312D01*
X138942312Y-31328505D01*
X139110299Y-31077095D01*
X139226011Y-30797743D01*
X139285000Y-30501184D01*
X139285000Y-30198816D01*
X139226011Y-29902257D01*
X139156731Y-29735000D01*
X140843269Y-29735000D01*
X140773989Y-29902257D01*
X140715000Y-30198816D01*
X140715000Y-30501184D01*
X140773989Y-30797743D01*
X140889701Y-31077095D01*
X141057688Y-31328505D01*
X141271495Y-31542312D01*
X141522905Y-31710299D01*
X141802257Y-31826011D01*
X142098816Y-31885000D01*
X142401184Y-31885000D01*
X142697743Y-31826011D01*
X142977095Y-31710299D01*
X143228505Y-31542312D01*
X143442312Y-31328505D01*
X143610299Y-31077095D01*
X143726011Y-30797743D01*
X143785000Y-30501184D01*
X143785000Y-30198816D01*
X143726011Y-29902257D01*
X143656731Y-29735000D01*
X145765001Y-29735000D01*
X145765000Y-41255751D01*
X145765001Y-41255761D01*
X145765000Y-42865000D01*
X143698152Y-42865000D01*
X143726011Y-42797743D01*
X143785000Y-42501184D01*
X143785000Y-42198816D01*
X143726011Y-41902257D01*
X143610299Y-41622905D01*
X143442312Y-41371495D01*
X143228505Y-41157688D01*
X142977095Y-40989701D01*
X142697743Y-40873989D01*
X142401184Y-40815000D01*
X142098816Y-40815000D01*
X141802257Y-40873989D01*
X141522905Y-40989701D01*
X141271495Y-41157688D01*
X141057688Y-41371495D01*
X140889701Y-41622905D01*
X140773989Y-41902257D01*
X140715000Y-42198816D01*
X140715000Y-42501184D01*
X140773989Y-42797743D01*
X140801848Y-42865000D01*
X139198152Y-42865000D01*
X139226011Y-42797743D01*
X139285000Y-42501184D01*
X139285000Y-42198816D01*
X139226011Y-41902257D01*
X139110299Y-41622905D01*
X138942312Y-41371495D01*
X138728505Y-41157688D01*
X138477095Y-40989701D01*
X138197743Y-40873989D01*
X137901184Y-40815000D01*
X137598816Y-40815000D01*
X137302257Y-40873989D01*
X137022905Y-40989701D01*
X136771495Y-41157688D01*
X136557688Y-41371495D01*
X136389701Y-41622905D01*
X136273989Y-41902257D01*
X136221276Y-42167263D01*
X136077502Y-42181423D01*
X135863554Y-42246324D01*
X135666378Y-42351717D01*
X135493552Y-42493552D01*
X135351717Y-42666378D01*
X135246324Y-42863554D01*
X135181423Y-43077502D01*
X135159509Y-43300000D01*
X135181423Y-43522498D01*
X135246324Y-43736446D01*
X135351717Y-43933622D01*
X135458012Y-44063143D01*
X136158004Y-44763135D01*
X136193551Y-44806449D01*
X136366377Y-44948284D01*
X136563553Y-45053676D01*
X136777501Y-45118577D01*
X136944248Y-45135000D01*
X136944257Y-45135000D01*
X136999999Y-45140490D01*
X137055741Y-45135000D01*
X145765001Y-45135000D01*
X145765000Y-53155751D01*
X145765001Y-53155761D01*
X145765000Y-64944248D01*
X145765000Y-64944249D01*
X145765001Y-66629867D01*
X145429868Y-66965000D01*
X143656731Y-66965000D01*
X143726011Y-66797743D01*
X143785000Y-66501184D01*
X143785000Y-66198816D01*
X143726011Y-65902257D01*
X143610299Y-65622905D01*
X143442312Y-65371495D01*
X143228505Y-65157688D01*
X142977095Y-64989701D01*
X142697743Y-64873989D01*
X142401184Y-64815000D01*
X142098816Y-64815000D01*
X141802257Y-64873989D01*
X141522905Y-64989701D01*
X141271495Y-65157688D01*
X141057688Y-65371495D01*
X140889701Y-65622905D01*
X140773989Y-65902257D01*
X140715000Y-66198816D01*
X140715000Y-66501184D01*
X140773989Y-66797743D01*
X140843269Y-66965000D01*
X139156731Y-66965000D01*
X139226011Y-66797743D01*
X139285000Y-66501184D01*
X139285000Y-66198816D01*
X139226011Y-65902257D01*
X139110299Y-65622905D01*
X138942312Y-65371495D01*
X138728505Y-65157688D01*
X138477095Y-64989701D01*
X138197743Y-64873989D01*
X137901184Y-64815000D01*
X137598816Y-64815000D01*
X137302257Y-64873989D01*
X137022905Y-64989701D01*
X136771495Y-65157688D01*
X136557688Y-65371495D01*
X136389701Y-65622905D01*
X136273989Y-65902257D01*
X136221276Y-66167263D01*
X136077502Y-66181423D01*
X135863554Y-66246324D01*
X135666378Y-66351717D01*
X135493552Y-66493552D01*
X135351717Y-66666378D01*
X135246324Y-66863554D01*
X135181423Y-67077502D01*
X135159509Y-67300000D01*
X135181423Y-67522498D01*
X135246324Y-67736446D01*
X135351717Y-67933622D01*
X135458012Y-68063143D01*
X136258008Y-68863140D01*
X136293551Y-68906449D01*
X136466377Y-69048284D01*
X136663553Y-69153676D01*
X136877501Y-69218577D01*
X136942716Y-69225000D01*
X137100000Y-69240491D01*
X137155752Y-69235000D01*
X145844249Y-69235000D01*
X145900000Y-69240491D01*
X145955751Y-69235000D01*
X145955752Y-69235000D01*
X146122499Y-69218577D01*
X146336447Y-69153676D01*
X146533623Y-69048284D01*
X146706449Y-68906449D01*
X146741995Y-68863136D01*
X147663145Y-67941987D01*
X147706449Y-67906449D01*
X147754092Y-67848397D01*
X147848284Y-67733623D01*
X147953676Y-67536447D01*
X148018577Y-67322499D01*
X148040491Y-67100000D01*
X148035000Y-67044248D01*
X148035000Y-66198816D01*
X148215000Y-66198816D01*
X148215000Y-66501184D01*
X148273989Y-66797743D01*
X148389701Y-67077095D01*
X148557688Y-67328505D01*
X148771495Y-67542312D01*
X149022905Y-67710299D01*
X149302257Y-67826011D01*
X149598816Y-67885000D01*
X149901184Y-67885000D01*
X150197743Y-67826011D01*
X150477095Y-67710299D01*
X150728505Y-67542312D01*
X150942312Y-67328505D01*
X151110299Y-67077095D01*
X151226011Y-66797743D01*
X151285000Y-66501184D01*
X151285000Y-66198816D01*
X152715000Y-66198816D01*
X152715000Y-66501184D01*
X152773989Y-66797743D01*
X152889701Y-67077095D01*
X153057688Y-67328505D01*
X153271495Y-67542312D01*
X153522905Y-67710299D01*
X153802257Y-67826011D01*
X154098816Y-67885000D01*
X154401184Y-67885000D01*
X154697743Y-67826011D01*
X154977095Y-67710299D01*
X155228505Y-67542312D01*
X155442312Y-67328505D01*
X155610299Y-67077095D01*
X155726011Y-66797743D01*
X155785000Y-66501184D01*
X155785000Y-66198816D01*
X160215000Y-66198816D01*
X160215000Y-66501184D01*
X160273989Y-66797743D01*
X160389701Y-67077095D01*
X160557688Y-67328505D01*
X160771495Y-67542312D01*
X161022905Y-67710299D01*
X161302257Y-67826011D01*
X161598816Y-67885000D01*
X161901184Y-67885000D01*
X162197743Y-67826011D01*
X162477095Y-67710299D01*
X162728505Y-67542312D01*
X162942312Y-67328505D01*
X163110299Y-67077095D01*
X163226011Y-66797743D01*
X163285000Y-66501184D01*
X163285000Y-66198816D01*
X164715000Y-66198816D01*
X164715000Y-66501184D01*
X164773989Y-66797743D01*
X164889701Y-67077095D01*
X165057688Y-67328505D01*
X165271495Y-67542312D01*
X165522905Y-67710299D01*
X165802257Y-67826011D01*
X166098816Y-67885000D01*
X166401184Y-67885000D01*
X166697743Y-67826011D01*
X166977095Y-67710299D01*
X167228505Y-67542312D01*
X167442312Y-67328505D01*
X167610299Y-67077095D01*
X167726011Y-66797743D01*
X167785000Y-66501184D01*
X167785000Y-66198816D01*
X167726011Y-65902257D01*
X167610299Y-65622905D01*
X167442312Y-65371495D01*
X167228505Y-65157688D01*
X166977095Y-64989701D01*
X166697743Y-64873989D01*
X166401184Y-64815000D01*
X166098816Y-64815000D01*
X165802257Y-64873989D01*
X165522905Y-64989701D01*
X165271495Y-65157688D01*
X165057688Y-65371495D01*
X164889701Y-65622905D01*
X164773989Y-65902257D01*
X164715000Y-66198816D01*
X163285000Y-66198816D01*
X163226011Y-65902257D01*
X163110299Y-65622905D01*
X162942312Y-65371495D01*
X162728505Y-65157688D01*
X162477095Y-64989701D01*
X162197743Y-64873989D01*
X161901184Y-64815000D01*
X161598816Y-64815000D01*
X161302257Y-64873989D01*
X161022905Y-64989701D01*
X160771495Y-65157688D01*
X160557688Y-65371495D01*
X160389701Y-65622905D01*
X160273989Y-65902257D01*
X160215000Y-66198816D01*
X155785000Y-66198816D01*
X155726011Y-65902257D01*
X155610299Y-65622905D01*
X155442312Y-65371495D01*
X155228505Y-65157688D01*
X154977095Y-64989701D01*
X154697743Y-64873989D01*
X154401184Y-64815000D01*
X154098816Y-64815000D01*
X153802257Y-64873989D01*
X153522905Y-64989701D01*
X153271495Y-65157688D01*
X153057688Y-65371495D01*
X152889701Y-65622905D01*
X152773989Y-65902257D01*
X152715000Y-66198816D01*
X151285000Y-66198816D01*
X151226011Y-65902257D01*
X151110299Y-65622905D01*
X150942312Y-65371495D01*
X150728505Y-65157688D01*
X150477095Y-64989701D01*
X150197743Y-64873989D01*
X149901184Y-64815000D01*
X149598816Y-64815000D01*
X149302257Y-64873989D01*
X149022905Y-64989701D01*
X148771495Y-65157688D01*
X148557688Y-65371495D01*
X148389701Y-65622905D01*
X148273989Y-65902257D01*
X148215000Y-66198816D01*
X148035000Y-66198816D01*
X148035000Y-61914080D01*
X148865525Y-61914080D01*
X148949208Y-62168261D01*
X149221775Y-62299158D01*
X149514642Y-62374365D01*
X149816553Y-62390991D01*
X150115907Y-62348397D01*
X150401199Y-62248222D01*
X150550792Y-62168261D01*
X150634475Y-61914080D01*
X149750000Y-61029605D01*
X148865525Y-61914080D01*
X148035000Y-61914080D01*
X148035000Y-60916553D01*
X148209009Y-60916553D01*
X148251603Y-61215907D01*
X148351778Y-61501199D01*
X148431739Y-61650792D01*
X148685920Y-61734475D01*
X149570395Y-60850000D01*
X149929605Y-60850000D01*
X150814080Y-61734475D01*
X151068261Y-61650792D01*
X151199158Y-61378225D01*
X151274365Y-61085358D01*
X151290991Y-60783447D01*
X151278950Y-60698816D01*
X152715000Y-60698816D01*
X152715000Y-61001184D01*
X152773989Y-61297743D01*
X152889701Y-61577095D01*
X153057688Y-61828505D01*
X153271495Y-62042312D01*
X153522905Y-62210299D01*
X153802257Y-62326011D01*
X154098816Y-62385000D01*
X154401184Y-62385000D01*
X154697743Y-62326011D01*
X154977095Y-62210299D01*
X155228505Y-62042312D01*
X155442312Y-61828505D01*
X155610299Y-61577095D01*
X155726011Y-61297743D01*
X155785000Y-61001184D01*
X155785000Y-60698816D01*
X155726011Y-60402257D01*
X155610299Y-60122905D01*
X155442312Y-59871495D01*
X155228505Y-59657688D01*
X154977095Y-59489701D01*
X154697743Y-59373989D01*
X154401184Y-59315000D01*
X154098816Y-59315000D01*
X153802257Y-59373989D01*
X153522905Y-59489701D01*
X153271495Y-59657688D01*
X153057688Y-59871495D01*
X152889701Y-60122905D01*
X152773989Y-60402257D01*
X152715000Y-60698816D01*
X151278950Y-60698816D01*
X151248397Y-60484093D01*
X151148222Y-60198801D01*
X151068261Y-60049208D01*
X150814080Y-59965525D01*
X149929605Y-60850000D01*
X149570395Y-60850000D01*
X148685920Y-59965525D01*
X148431739Y-60049208D01*
X148300842Y-60321775D01*
X148225635Y-60614642D01*
X148209009Y-60916553D01*
X148035000Y-60916553D01*
X148035000Y-59785920D01*
X148865525Y-59785920D01*
X149750000Y-60670395D01*
X150634475Y-59785920D01*
X150550792Y-59531739D01*
X150278225Y-59400842D01*
X149985358Y-59325635D01*
X149683447Y-59309009D01*
X149384093Y-59351603D01*
X149098801Y-59451778D01*
X148949208Y-59531739D01*
X148865525Y-59785920D01*
X148035000Y-59785920D01*
X148035000Y-54198816D01*
X148215000Y-54198816D01*
X148215000Y-54501184D01*
X148273989Y-54797743D01*
X148389701Y-55077095D01*
X148557688Y-55328505D01*
X148771495Y-55542312D01*
X149022905Y-55710299D01*
X149302257Y-55826011D01*
X149598816Y-55885000D01*
X149901184Y-55885000D01*
X150197743Y-55826011D01*
X150477095Y-55710299D01*
X150728505Y-55542312D01*
X150942312Y-55328505D01*
X151110299Y-55077095D01*
X151226011Y-54797743D01*
X151285000Y-54501184D01*
X151285000Y-54198816D01*
X152715000Y-54198816D01*
X152715000Y-54501184D01*
X152773989Y-54797743D01*
X152889701Y-55077095D01*
X153057688Y-55328505D01*
X153271495Y-55542312D01*
X153522905Y-55710299D01*
X153802257Y-55826011D01*
X154098816Y-55885000D01*
X154401184Y-55885000D01*
X154697743Y-55826011D01*
X154977095Y-55710299D01*
X155228505Y-55542312D01*
X155442312Y-55328505D01*
X155610299Y-55077095D01*
X155726011Y-54797743D01*
X155785000Y-54501184D01*
X155785000Y-54198816D01*
X155726011Y-53902257D01*
X155610299Y-53622905D01*
X155442312Y-53371495D01*
X155228505Y-53157688D01*
X154977095Y-52989701D01*
X154697743Y-52873989D01*
X154401184Y-52815000D01*
X154098816Y-52815000D01*
X153802257Y-52873989D01*
X153522905Y-52989701D01*
X153271495Y-53157688D01*
X153057688Y-53371495D01*
X152889701Y-53622905D01*
X152773989Y-53902257D01*
X152715000Y-54198816D01*
X151285000Y-54198816D01*
X151226011Y-53902257D01*
X151110299Y-53622905D01*
X150942312Y-53371495D01*
X150728505Y-53157688D01*
X150477095Y-52989701D01*
X150197743Y-52873989D01*
X149901184Y-52815000D01*
X149598816Y-52815000D01*
X149302257Y-52873989D01*
X149022905Y-52989701D01*
X148771495Y-53157688D01*
X148557688Y-53371495D01*
X148389701Y-53622905D01*
X148273989Y-53902257D01*
X148215000Y-54198816D01*
X148035000Y-54198816D01*
X148035000Y-49914080D01*
X148865525Y-49914080D01*
X148949208Y-50168261D01*
X149221775Y-50299158D01*
X149514642Y-50374365D01*
X149816553Y-50390991D01*
X150115907Y-50348397D01*
X150401199Y-50248222D01*
X150550792Y-50168261D01*
X150634475Y-49914080D01*
X149750000Y-49029605D01*
X148865525Y-49914080D01*
X148035000Y-49914080D01*
X148035000Y-48916553D01*
X148209009Y-48916553D01*
X148251603Y-49215907D01*
X148351778Y-49501199D01*
X148431739Y-49650792D01*
X148685920Y-49734475D01*
X149570395Y-48850000D01*
X149929605Y-48850000D01*
X150814080Y-49734475D01*
X151068261Y-49650792D01*
X151199158Y-49378225D01*
X151274365Y-49085358D01*
X151290991Y-48783447D01*
X151278950Y-48698816D01*
X152715000Y-48698816D01*
X152715000Y-49001184D01*
X152773989Y-49297743D01*
X152889701Y-49577095D01*
X153057688Y-49828505D01*
X153271495Y-50042312D01*
X153522905Y-50210299D01*
X153802257Y-50326011D01*
X154098816Y-50385000D01*
X154401184Y-50385000D01*
X154697743Y-50326011D01*
X154977095Y-50210299D01*
X155228505Y-50042312D01*
X155442312Y-49828505D01*
X155610299Y-49577095D01*
X155726011Y-49297743D01*
X155785000Y-49001184D01*
X155785000Y-48698816D01*
X155726011Y-48402257D01*
X155610299Y-48122905D01*
X155442312Y-47871495D01*
X155228505Y-47657688D01*
X154977095Y-47489701D01*
X154697743Y-47373989D01*
X154401184Y-47315000D01*
X154098816Y-47315000D01*
X153802257Y-47373989D01*
X153522905Y-47489701D01*
X153271495Y-47657688D01*
X153057688Y-47871495D01*
X152889701Y-48122905D01*
X152773989Y-48402257D01*
X152715000Y-48698816D01*
X151278950Y-48698816D01*
X151248397Y-48484093D01*
X151148222Y-48198801D01*
X151068261Y-48049208D01*
X150814080Y-47965525D01*
X149929605Y-48850000D01*
X149570395Y-48850000D01*
X148685920Y-47965525D01*
X148431739Y-48049208D01*
X148300842Y-48321775D01*
X148225635Y-48614642D01*
X148209009Y-48916553D01*
X148035000Y-48916553D01*
X148035000Y-47785920D01*
X148865525Y-47785920D01*
X149750000Y-48670395D01*
X150634475Y-47785920D01*
X150550792Y-47531739D01*
X150278225Y-47400842D01*
X149985358Y-47325635D01*
X149683447Y-47309009D01*
X149384093Y-47351603D01*
X149098801Y-47451778D01*
X148949208Y-47531739D01*
X148865525Y-47785920D01*
X148035000Y-47785920D01*
X148035000Y-44055751D01*
X148040491Y-44000000D01*
X148035000Y-43944248D01*
X148035000Y-42198816D01*
X148215000Y-42198816D01*
X148215000Y-42501184D01*
X148273989Y-42797743D01*
X148389701Y-43077095D01*
X148557688Y-43328505D01*
X148771495Y-43542312D01*
X149022905Y-43710299D01*
X149302257Y-43826011D01*
X149598816Y-43885000D01*
X149901184Y-43885000D01*
X150197743Y-43826011D01*
X150477095Y-43710299D01*
X150728505Y-43542312D01*
X150942312Y-43328505D01*
X151110299Y-43077095D01*
X151226011Y-42797743D01*
X151285000Y-42501184D01*
X151285000Y-42198816D01*
X152715000Y-42198816D01*
X152715000Y-42501184D01*
X152773989Y-42797743D01*
X152889701Y-43077095D01*
X153057688Y-43328505D01*
X153271495Y-43542312D01*
X153522905Y-43710299D01*
X153802257Y-43826011D01*
X154098816Y-43885000D01*
X154401184Y-43885000D01*
X154697743Y-43826011D01*
X154977095Y-43710299D01*
X155228505Y-43542312D01*
X155442312Y-43328505D01*
X155610299Y-43077095D01*
X155726011Y-42797743D01*
X155785000Y-42501184D01*
X155785000Y-42198816D01*
X155726011Y-41902257D01*
X155610299Y-41622905D01*
X155442312Y-41371495D01*
X155228505Y-41157688D01*
X154977095Y-40989701D01*
X154697743Y-40873989D01*
X154401184Y-40815000D01*
X154098816Y-40815000D01*
X153802257Y-40873989D01*
X153522905Y-40989701D01*
X153271495Y-41157688D01*
X153057688Y-41371495D01*
X152889701Y-41622905D01*
X152773989Y-41902257D01*
X152715000Y-42198816D01*
X151285000Y-42198816D01*
X151226011Y-41902257D01*
X151110299Y-41622905D01*
X150942312Y-41371495D01*
X150728505Y-41157688D01*
X150477095Y-40989701D01*
X150197743Y-40873989D01*
X149901184Y-40815000D01*
X149598816Y-40815000D01*
X149302257Y-40873989D01*
X149022905Y-40989701D01*
X148771495Y-41157688D01*
X148557688Y-41371495D01*
X148389701Y-41622905D01*
X148273989Y-41902257D01*
X148215000Y-42198816D01*
X148035000Y-42198816D01*
X148035000Y-37914080D01*
X148865525Y-37914080D01*
X148949208Y-38168261D01*
X149221775Y-38299158D01*
X149514642Y-38374365D01*
X149816553Y-38390991D01*
X150115907Y-38348397D01*
X150401199Y-38248222D01*
X150550792Y-38168261D01*
X150634475Y-37914080D01*
X149750000Y-37029605D01*
X148865525Y-37914080D01*
X148035000Y-37914080D01*
X148035000Y-36916553D01*
X148209009Y-36916553D01*
X148251603Y-37215907D01*
X148351778Y-37501199D01*
X148431739Y-37650792D01*
X148685920Y-37734475D01*
X149570395Y-36850000D01*
X149929605Y-36850000D01*
X150814080Y-37734475D01*
X151068261Y-37650792D01*
X151199158Y-37378225D01*
X151274365Y-37085358D01*
X151290991Y-36783447D01*
X151278950Y-36698816D01*
X152715000Y-36698816D01*
X152715000Y-37001184D01*
X152773989Y-37297743D01*
X152889701Y-37577095D01*
X153057688Y-37828505D01*
X153271495Y-38042312D01*
X153522905Y-38210299D01*
X153802257Y-38326011D01*
X154098816Y-38385000D01*
X154401184Y-38385000D01*
X154697743Y-38326011D01*
X154977095Y-38210299D01*
X155228505Y-38042312D01*
X155442312Y-37828505D01*
X155610299Y-37577095D01*
X155726011Y-37297743D01*
X155785000Y-37001184D01*
X155785000Y-36698816D01*
X155726011Y-36402257D01*
X155610299Y-36122905D01*
X155442312Y-35871495D01*
X155228505Y-35657688D01*
X154977095Y-35489701D01*
X154697743Y-35373989D01*
X154401184Y-35315000D01*
X154098816Y-35315000D01*
X153802257Y-35373989D01*
X153522905Y-35489701D01*
X153271495Y-35657688D01*
X153057688Y-35871495D01*
X152889701Y-36122905D01*
X152773989Y-36402257D01*
X152715000Y-36698816D01*
X151278950Y-36698816D01*
X151248397Y-36484093D01*
X151148222Y-36198801D01*
X151068261Y-36049208D01*
X150814080Y-35965525D01*
X149929605Y-36850000D01*
X149570395Y-36850000D01*
X148685920Y-35965525D01*
X148431739Y-36049208D01*
X148300842Y-36321775D01*
X148225635Y-36614642D01*
X148209009Y-36916553D01*
X148035000Y-36916553D01*
X148035000Y-35785920D01*
X148865525Y-35785920D01*
X149750000Y-36670395D01*
X150634475Y-35785920D01*
X150550792Y-35531739D01*
X150278225Y-35400842D01*
X149985358Y-35325635D01*
X149683447Y-35309009D01*
X149384093Y-35351603D01*
X149098801Y-35451778D01*
X148949208Y-35531739D01*
X148865525Y-35785920D01*
X148035000Y-35785920D01*
X148035000Y-29735000D01*
X148343269Y-29735000D01*
X148273989Y-29902257D01*
X148215000Y-30198816D01*
X148215000Y-30501184D01*
X148273989Y-30797743D01*
X148389701Y-31077095D01*
X148557688Y-31328505D01*
X148771495Y-31542312D01*
X149022905Y-31710299D01*
X149302257Y-31826011D01*
X149598816Y-31885000D01*
X149901184Y-31885000D01*
X150197743Y-31826011D01*
X150477095Y-31710299D01*
X150728505Y-31542312D01*
X150942312Y-31328505D01*
X151110299Y-31077095D01*
X151226011Y-30797743D01*
X151285000Y-30501184D01*
X151285000Y-30198816D01*
X151226011Y-29902257D01*
X151156731Y-29735000D01*
X152843269Y-29735000D01*
X152773989Y-29902257D01*
X152715000Y-30198816D01*
X152715000Y-30501184D01*
X152773989Y-30797743D01*
X152889701Y-31077095D01*
X153057688Y-31328505D01*
X153271495Y-31542312D01*
X153522905Y-31710299D01*
X153802257Y-31826011D01*
X154098816Y-31885000D01*
X154401184Y-31885000D01*
X154697743Y-31826011D01*
X154977095Y-31710299D01*
X155228505Y-31542312D01*
X155442312Y-31328505D01*
X155610299Y-31077095D01*
X155726011Y-30797743D01*
X155785000Y-30501184D01*
X155785000Y-30198816D01*
X155726011Y-29902257D01*
X155656731Y-29735000D01*
X157765000Y-29735000D01*
X157765001Y-40944239D01*
X157765000Y-40944249D01*
X157765001Y-53044239D01*
X157765000Y-53044249D01*
X157765001Y-65055752D01*
X157781424Y-65222499D01*
X157846325Y-65436447D01*
X157951717Y-65633623D01*
X158093552Y-65806449D01*
X158266378Y-65948284D01*
X158463554Y-66053676D01*
X158677502Y-66118577D01*
X158900000Y-66140491D01*
X159122499Y-66118577D01*
X159336447Y-66053676D01*
X159533623Y-65948284D01*
X159706449Y-65806449D01*
X159848284Y-65633623D01*
X159953676Y-65436447D01*
X160018577Y-65222499D01*
X160035000Y-65055752D01*
X160035000Y-61914080D01*
X160865525Y-61914080D01*
X160949208Y-62168261D01*
X161221775Y-62299158D01*
X161514642Y-62374365D01*
X161816553Y-62390991D01*
X162115907Y-62348397D01*
X162401199Y-62248222D01*
X162550792Y-62168261D01*
X162634475Y-61914080D01*
X161750000Y-61029605D01*
X160865525Y-61914080D01*
X160035000Y-61914080D01*
X160035000Y-60916553D01*
X160209009Y-60916553D01*
X160251603Y-61215907D01*
X160351778Y-61501199D01*
X160431739Y-61650792D01*
X160685920Y-61734475D01*
X161570395Y-60850000D01*
X161929605Y-60850000D01*
X162814080Y-61734475D01*
X163068261Y-61650792D01*
X163199158Y-61378225D01*
X163274365Y-61085358D01*
X163290991Y-60783447D01*
X163278950Y-60698816D01*
X164715000Y-60698816D01*
X164715000Y-61001184D01*
X164773989Y-61297743D01*
X164889701Y-61577095D01*
X165057688Y-61828505D01*
X165271495Y-62042312D01*
X165522905Y-62210299D01*
X165802257Y-62326011D01*
X166098816Y-62385000D01*
X166401184Y-62385000D01*
X166697743Y-62326011D01*
X166977095Y-62210299D01*
X167228505Y-62042312D01*
X167442312Y-61828505D01*
X167610299Y-61577095D01*
X167726011Y-61297743D01*
X167785000Y-61001184D01*
X167785000Y-60698816D01*
X167726011Y-60402257D01*
X167610299Y-60122905D01*
X167442312Y-59871495D01*
X167228505Y-59657688D01*
X166977095Y-59489701D01*
X166697743Y-59373989D01*
X166401184Y-59315000D01*
X166098816Y-59315000D01*
X165802257Y-59373989D01*
X165522905Y-59489701D01*
X165271495Y-59657688D01*
X165057688Y-59871495D01*
X164889701Y-60122905D01*
X164773989Y-60402257D01*
X164715000Y-60698816D01*
X163278950Y-60698816D01*
X163248397Y-60484093D01*
X163148222Y-60198801D01*
X163068261Y-60049208D01*
X162814080Y-59965525D01*
X161929605Y-60850000D01*
X161570395Y-60850000D01*
X160685920Y-59965525D01*
X160431739Y-60049208D01*
X160300842Y-60321775D01*
X160225635Y-60614642D01*
X160209009Y-60916553D01*
X160035000Y-60916553D01*
X160035000Y-59785920D01*
X160865525Y-59785920D01*
X161750000Y-60670395D01*
X162634475Y-59785920D01*
X162550792Y-59531739D01*
X162278225Y-59400842D01*
X161985358Y-59325635D01*
X161683447Y-59309009D01*
X161384093Y-59351603D01*
X161098801Y-59451778D01*
X160949208Y-59531739D01*
X160865525Y-59785920D01*
X160035000Y-59785920D01*
X160035000Y-54198816D01*
X160215000Y-54198816D01*
X160215000Y-54501184D01*
X160273989Y-54797743D01*
X160389701Y-55077095D01*
X160557688Y-55328505D01*
X160771495Y-55542312D01*
X161022905Y-55710299D01*
X161302257Y-55826011D01*
X161598816Y-55885000D01*
X161901184Y-55885000D01*
X162197743Y-55826011D01*
X162477095Y-55710299D01*
X162728505Y-55542312D01*
X162942312Y-55328505D01*
X163110299Y-55077095D01*
X163226011Y-54797743D01*
X163285000Y-54501184D01*
X163285000Y-54198816D01*
X164715000Y-54198816D01*
X164715000Y-54501184D01*
X164773989Y-54797743D01*
X164889701Y-55077095D01*
X165057688Y-55328505D01*
X165271495Y-55542312D01*
X165522905Y-55710299D01*
X165802257Y-55826011D01*
X166098816Y-55885000D01*
X166401184Y-55885000D01*
X166697743Y-55826011D01*
X166977095Y-55710299D01*
X167228505Y-55542312D01*
X167442312Y-55328505D01*
X167610299Y-55077095D01*
X167726011Y-54797743D01*
X167785000Y-54501184D01*
X167785000Y-54198816D01*
X167726011Y-53902257D01*
X167610299Y-53622905D01*
X167442312Y-53371495D01*
X167228505Y-53157688D01*
X166977095Y-52989701D01*
X166697743Y-52873989D01*
X166401184Y-52815000D01*
X166098816Y-52815000D01*
X165802257Y-52873989D01*
X165522905Y-52989701D01*
X165271495Y-53157688D01*
X165057688Y-53371495D01*
X164889701Y-53622905D01*
X164773989Y-53902257D01*
X164715000Y-54198816D01*
X163285000Y-54198816D01*
X163226011Y-53902257D01*
X163110299Y-53622905D01*
X162942312Y-53371495D01*
X162728505Y-53157688D01*
X162477095Y-52989701D01*
X162197743Y-52873989D01*
X161901184Y-52815000D01*
X161598816Y-52815000D01*
X161302257Y-52873989D01*
X161022905Y-52989701D01*
X160771495Y-53157688D01*
X160557688Y-53371495D01*
X160389701Y-53622905D01*
X160273989Y-53902257D01*
X160215000Y-54198816D01*
X160035000Y-54198816D01*
X160035000Y-49914080D01*
X160865525Y-49914080D01*
X160949208Y-50168261D01*
X161221775Y-50299158D01*
X161514642Y-50374365D01*
X161816553Y-50390991D01*
X162115907Y-50348397D01*
X162401199Y-50248222D01*
X162550792Y-50168261D01*
X162634475Y-49914080D01*
X161750000Y-49029605D01*
X160865525Y-49914080D01*
X160035000Y-49914080D01*
X160035000Y-48916553D01*
X160209009Y-48916553D01*
X160251603Y-49215907D01*
X160351778Y-49501199D01*
X160431739Y-49650792D01*
X160685920Y-49734475D01*
X161570395Y-48850000D01*
X161929605Y-48850000D01*
X162814080Y-49734475D01*
X163068261Y-49650792D01*
X163199158Y-49378225D01*
X163274365Y-49085358D01*
X163290991Y-48783447D01*
X163278950Y-48698816D01*
X164715000Y-48698816D01*
X164715000Y-49001184D01*
X164773989Y-49297743D01*
X164889701Y-49577095D01*
X165057688Y-49828505D01*
X165271495Y-50042312D01*
X165522905Y-50210299D01*
X165802257Y-50326011D01*
X166098816Y-50385000D01*
X166401184Y-50385000D01*
X166697743Y-50326011D01*
X166977095Y-50210299D01*
X167228505Y-50042312D01*
X167442312Y-49828505D01*
X167610299Y-49577095D01*
X167726011Y-49297743D01*
X167785000Y-49001184D01*
X167785000Y-48698816D01*
X167726011Y-48402257D01*
X167610299Y-48122905D01*
X167442312Y-47871495D01*
X167228505Y-47657688D01*
X166977095Y-47489701D01*
X166697743Y-47373989D01*
X166401184Y-47315000D01*
X166098816Y-47315000D01*
X165802257Y-47373989D01*
X165522905Y-47489701D01*
X165271495Y-47657688D01*
X165057688Y-47871495D01*
X164889701Y-48122905D01*
X164773989Y-48402257D01*
X164715000Y-48698816D01*
X163278950Y-48698816D01*
X163248397Y-48484093D01*
X163148222Y-48198801D01*
X163068261Y-48049208D01*
X162814080Y-47965525D01*
X161929605Y-48850000D01*
X161570395Y-48850000D01*
X160685920Y-47965525D01*
X160431739Y-48049208D01*
X160300842Y-48321775D01*
X160225635Y-48614642D01*
X160209009Y-48916553D01*
X160035000Y-48916553D01*
X160035000Y-47785920D01*
X160865525Y-47785920D01*
X161750000Y-48670395D01*
X162634475Y-47785920D01*
X162550792Y-47531739D01*
X162278225Y-47400842D01*
X161985358Y-47325635D01*
X161683447Y-47309009D01*
X161384093Y-47351603D01*
X161098801Y-47451778D01*
X160949208Y-47531739D01*
X160865525Y-47785920D01*
X160035000Y-47785920D01*
X160035000Y-42198816D01*
X160215000Y-42198816D01*
X160215000Y-42501184D01*
X160273989Y-42797743D01*
X160389701Y-43077095D01*
X160557688Y-43328505D01*
X160771495Y-43542312D01*
X161022905Y-43710299D01*
X161302257Y-43826011D01*
X161598816Y-43885000D01*
X161901184Y-43885000D01*
X162197743Y-43826011D01*
X162477095Y-43710299D01*
X162728505Y-43542312D01*
X162942312Y-43328505D01*
X163110299Y-43077095D01*
X163226011Y-42797743D01*
X163285000Y-42501184D01*
X163285000Y-42198816D01*
X164715000Y-42198816D01*
X164715000Y-42501184D01*
X164773989Y-42797743D01*
X164889701Y-43077095D01*
X165057688Y-43328505D01*
X165271495Y-43542312D01*
X165522905Y-43710299D01*
X165802257Y-43826011D01*
X166098816Y-43885000D01*
X166401184Y-43885000D01*
X166697743Y-43826011D01*
X166977095Y-43710299D01*
X167228505Y-43542312D01*
X167442312Y-43328505D01*
X167610299Y-43077095D01*
X167726011Y-42797743D01*
X167785000Y-42501184D01*
X167785000Y-42198816D01*
X167726011Y-41902257D01*
X167610299Y-41622905D01*
X167442312Y-41371495D01*
X167228505Y-41157688D01*
X166977095Y-40989701D01*
X166697743Y-40873989D01*
X166401184Y-40815000D01*
X166098816Y-40815000D01*
X165802257Y-40873989D01*
X165522905Y-40989701D01*
X165271495Y-41157688D01*
X165057688Y-41371495D01*
X164889701Y-41622905D01*
X164773989Y-41902257D01*
X164715000Y-42198816D01*
X163285000Y-42198816D01*
X163226011Y-41902257D01*
X163110299Y-41622905D01*
X162942312Y-41371495D01*
X162728505Y-41157688D01*
X162477095Y-40989701D01*
X162197743Y-40873989D01*
X161901184Y-40815000D01*
X161598816Y-40815000D01*
X161302257Y-40873989D01*
X161022905Y-40989701D01*
X160771495Y-41157688D01*
X160557688Y-41371495D01*
X160389701Y-41622905D01*
X160273989Y-41902257D01*
X160215000Y-42198816D01*
X160035000Y-42198816D01*
X160035000Y-37914080D01*
X160865525Y-37914080D01*
X160949208Y-38168261D01*
X161221775Y-38299158D01*
X161514642Y-38374365D01*
X161816553Y-38390991D01*
X162115907Y-38348397D01*
X162401199Y-38248222D01*
X162550792Y-38168261D01*
X162634475Y-37914080D01*
X161750000Y-37029605D01*
X160865525Y-37914080D01*
X160035000Y-37914080D01*
X160035000Y-36916553D01*
X160209009Y-36916553D01*
X160251603Y-37215907D01*
X160351778Y-37501199D01*
X160431739Y-37650792D01*
X160685920Y-37734475D01*
X161570395Y-36850000D01*
X161929605Y-36850000D01*
X162814080Y-37734475D01*
X163068261Y-37650792D01*
X163199158Y-37378225D01*
X163274365Y-37085358D01*
X163290991Y-36783447D01*
X163278950Y-36698816D01*
X164715000Y-36698816D01*
X164715000Y-37001184D01*
X164773989Y-37297743D01*
X164889701Y-37577095D01*
X165057688Y-37828505D01*
X165271495Y-38042312D01*
X165522905Y-38210299D01*
X165802257Y-38326011D01*
X166098816Y-38385000D01*
X166401184Y-38385000D01*
X166697743Y-38326011D01*
X166977095Y-38210299D01*
X167228505Y-38042312D01*
X167442312Y-37828505D01*
X167610299Y-37577095D01*
X167726011Y-37297743D01*
X167785000Y-37001184D01*
X167785000Y-36698816D01*
X167726011Y-36402257D01*
X167610299Y-36122905D01*
X167442312Y-35871495D01*
X167228505Y-35657688D01*
X166977095Y-35489701D01*
X166697743Y-35373989D01*
X166401184Y-35315000D01*
X166098816Y-35315000D01*
X165802257Y-35373989D01*
X165522905Y-35489701D01*
X165271495Y-35657688D01*
X165057688Y-35871495D01*
X164889701Y-36122905D01*
X164773989Y-36402257D01*
X164715000Y-36698816D01*
X163278950Y-36698816D01*
X163248397Y-36484093D01*
X163148222Y-36198801D01*
X163068261Y-36049208D01*
X162814080Y-35965525D01*
X161929605Y-36850000D01*
X161570395Y-36850000D01*
X160685920Y-35965525D01*
X160431739Y-36049208D01*
X160300842Y-36321775D01*
X160225635Y-36614642D01*
X160209009Y-36916553D01*
X160035000Y-36916553D01*
X160035000Y-35785920D01*
X160865525Y-35785920D01*
X161750000Y-36670395D01*
X162634475Y-35785920D01*
X162550792Y-35531739D01*
X162278225Y-35400842D01*
X161985358Y-35325635D01*
X161683447Y-35309009D01*
X161384093Y-35351603D01*
X161098801Y-35451778D01*
X160949208Y-35531739D01*
X160865525Y-35785920D01*
X160035000Y-35785920D01*
X160035000Y-29735000D01*
X160343269Y-29735000D01*
X160273989Y-29902257D01*
X160215000Y-30198816D01*
X160215000Y-30501184D01*
X160273989Y-30797743D01*
X160389701Y-31077095D01*
X160557688Y-31328505D01*
X160771495Y-31542312D01*
X161022905Y-31710299D01*
X161302257Y-31826011D01*
X161598816Y-31885000D01*
X161901184Y-31885000D01*
X162197743Y-31826011D01*
X162477095Y-31710299D01*
X162728505Y-31542312D01*
X162942312Y-31328505D01*
X163110299Y-31077095D01*
X163226011Y-30797743D01*
X163285000Y-30501184D01*
X163285000Y-30198816D01*
X163226011Y-29902257D01*
X163156731Y-29735000D01*
X164843269Y-29735000D01*
X164773989Y-29902257D01*
X164715000Y-30198816D01*
X164715000Y-30501184D01*
X164773989Y-30797743D01*
X164889701Y-31077095D01*
X165057688Y-31328505D01*
X165271495Y-31542312D01*
X165522905Y-31710299D01*
X165802257Y-31826011D01*
X166098816Y-31885000D01*
X166401184Y-31885000D01*
X166697743Y-31826011D01*
X166977095Y-31710299D01*
X167228505Y-31542312D01*
X167442312Y-31328505D01*
X167610299Y-31077095D01*
X167726011Y-30797743D01*
X167785000Y-30501184D01*
X167785000Y-30198816D01*
X167726011Y-29902257D01*
X167656731Y-29735000D01*
X169765001Y-29735000D01*
X169765000Y-41155751D01*
X169765001Y-41155761D01*
X169765000Y-53255751D01*
X169765001Y-53255761D01*
X169765000Y-65155751D01*
X169781423Y-65322498D01*
X169846324Y-65536446D01*
X169951716Y-65733623D01*
X170093551Y-65906449D01*
X170266377Y-66048284D01*
X170463553Y-66153676D01*
X170677501Y-66218577D01*
X170900000Y-66240491D01*
X171122498Y-66218577D01*
X171336446Y-66153676D01*
X171533623Y-66048284D01*
X171706449Y-65906449D01*
X171848284Y-65733623D01*
X171953676Y-65536447D01*
X172018577Y-65322499D01*
X172035000Y-65155752D01*
X172035000Y-30804495D01*
X173015000Y-30804495D01*
X173015000Y-31195505D01*
X173091282Y-31579003D01*
X173240915Y-31940250D01*
X173458149Y-32265364D01*
X173734636Y-32541851D01*
X174059750Y-32759085D01*
X174420997Y-32908718D01*
X174804495Y-32985000D01*
X175195505Y-32985000D01*
X175579003Y-32908718D01*
X175940250Y-32759085D01*
X176265364Y-32541851D01*
X176541851Y-32265364D01*
X176759085Y-31940250D01*
X176908718Y-31579003D01*
X176985000Y-31195505D01*
X176985000Y-30804495D01*
X176908718Y-30420997D01*
X176759085Y-30059750D01*
X176541851Y-29734636D01*
X176265364Y-29458149D01*
X175940250Y-29240915D01*
X175579003Y-29091282D01*
X175195505Y-29015000D01*
X174804495Y-29015000D01*
X174420997Y-29091282D01*
X174059750Y-29240915D01*
X173734636Y-29458149D01*
X173458149Y-29734636D01*
X173240915Y-30059750D01*
X173091282Y-30420997D01*
X173015000Y-30804495D01*
X172035000Y-30804495D01*
X172035000Y-28855752D01*
X172040491Y-28800000D01*
X172018577Y-28577502D01*
X172018577Y-28577501D01*
X171953676Y-28363553D01*
X171848284Y-28166377D01*
X171706449Y-27993551D01*
X171663139Y-27958007D01*
X171541995Y-27836863D01*
X171506449Y-27793551D01*
X171333623Y-27651716D01*
X171136447Y-27546324D01*
X170922499Y-27481423D01*
X170755752Y-27465000D01*
X170755751Y-27465000D01*
X170700000Y-27459509D01*
X170644249Y-27465000D01*
X158955751Y-27465000D01*
X158900000Y-27459509D01*
X158844248Y-27465000D01*
X147055741Y-27465000D01*
X146999999Y-27459510D01*
X146944258Y-27465000D01*
X113755751Y-27465000D01*
X113700000Y-27459509D01*
X113644249Y-27465000D01*
X99655751Y-27465000D01*
X99599999Y-27459509D01*
X99377500Y-27481423D01*
X99327705Y-27496529D01*
X99163553Y-27546324D01*
X98966377Y-27651716D01*
X98793551Y-27793551D01*
X98758009Y-27836860D01*
X97148397Y-29446472D01*
X96993551Y-29573551D01*
X96851716Y-29746377D01*
X96746324Y-29943553D01*
X96681423Y-30157501D01*
X96659509Y-30380000D01*
X96660494Y-30390000D01*
X96659509Y-30400000D01*
X96665001Y-30455761D01*
X96665000Y-37184115D01*
X96561995Y-37338273D01*
X96456686Y-37592510D01*
X96403000Y-37862408D01*
X96403000Y-38137592D01*
X96456686Y-38407490D01*
X96510478Y-38537355D01*
X96500000Y-38536323D01*
X96462667Y-38540000D01*
X96351014Y-38550997D01*
X96207753Y-38594454D01*
X96075724Y-38665026D01*
X95959999Y-38759999D01*
X95936201Y-38788997D01*
X94989002Y-39736196D01*
X94959999Y-39759999D01*
X94909921Y-39821020D01*
X94865026Y-39875724D01*
X94820242Y-39959509D01*
X94794454Y-40007754D01*
X94750997Y-40151015D01*
X94740000Y-40262668D01*
X94740000Y-40262678D01*
X94736324Y-40300000D01*
X94740000Y-40337323D01*
X94740000Y-42565199D01*
X94363803Y-42189002D01*
X94340001Y-42159999D01*
X94224276Y-42065026D01*
X94092247Y-41994454D01*
X93948986Y-41950997D01*
X93837333Y-41940000D01*
X93837322Y-41940000D01*
X93800000Y-41936324D01*
X93762678Y-41940000D01*
X93514206Y-41940000D01*
X93511060Y-41934114D01*
X93551185Y-41901185D01*
X93630537Y-41804494D01*
X93689502Y-41694180D01*
X93725812Y-41574482D01*
X93738072Y-41450000D01*
X93735000Y-40985750D01*
X93576250Y-40827000D01*
X91977000Y-40827000D01*
X91977000Y-40847000D01*
X91723000Y-40847000D01*
X91723000Y-40827000D01*
X90123750Y-40827000D01*
X89965000Y-40985750D01*
X89961928Y-41450000D01*
X89974188Y-41574482D01*
X90010498Y-41694180D01*
X90069463Y-41804494D01*
X90148815Y-41901185D01*
X90188940Y-41934114D01*
X90064236Y-42167419D01*
X89985040Y-42428493D01*
X89958299Y-42700000D01*
X89985040Y-42971507D01*
X90064236Y-43232581D01*
X90192843Y-43473188D01*
X90365919Y-43684081D01*
X90385316Y-43700000D01*
X90365919Y-43715919D01*
X90192843Y-43926812D01*
X90064236Y-44167419D01*
X89985040Y-44428493D01*
X89958299Y-44700000D01*
X89985040Y-44971507D01*
X90064236Y-45232581D01*
X90158994Y-45409861D01*
X89967234Y-45567234D01*
X89750421Y-45831422D01*
X89589314Y-46132832D01*
X89490105Y-46459881D01*
X89456606Y-46800000D01*
X89490105Y-47140119D01*
X89589314Y-47467168D01*
X89750421Y-47768578D01*
X89967234Y-48032766D01*
X90231422Y-48249579D01*
X90532832Y-48410686D01*
X90859881Y-48509895D01*
X91114775Y-48535000D01*
X92585225Y-48535000D01*
X92840119Y-48509895D01*
X93167168Y-48410686D01*
X93468578Y-48249579D01*
X93650001Y-48100690D01*
X93650001Y-49812668D01*
X93646324Y-49850000D01*
X93650001Y-49887333D01*
X93660998Y-49998986D01*
X93672915Y-50038273D01*
X93704454Y-50142246D01*
X93775026Y-50274276D01*
X93829175Y-50340256D01*
X93870000Y-50390001D01*
X93898998Y-50413799D01*
X96433628Y-52948430D01*
X96403000Y-53102408D01*
X96403000Y-53377592D01*
X96456686Y-53647490D01*
X96498802Y-53749168D01*
X96405553Y-53777454D01*
X96273523Y-53848026D01*
X96202335Y-53906449D01*
X96157799Y-53942999D01*
X96134001Y-53971997D01*
X95119998Y-54986001D01*
X95091000Y-55009799D01*
X95067202Y-55038797D01*
X95067201Y-55038798D01*
X94996026Y-55125524D01*
X94925454Y-55257554D01*
X94881998Y-55400815D01*
X94867324Y-55549800D01*
X94871001Y-55587132D01*
X94871000Y-61430677D01*
X94867324Y-61468000D01*
X94871000Y-61505322D01*
X94871000Y-61505332D01*
X94881997Y-61616985D01*
X94894812Y-61659231D01*
X94789898Y-61615774D01*
X94589939Y-61576000D01*
X94386061Y-61576000D01*
X94186102Y-61615774D01*
X93997744Y-61693795D01*
X93828226Y-61807063D01*
X93684063Y-61951226D01*
X93570795Y-62120744D01*
X93492774Y-62309102D01*
X93453000Y-62509061D01*
X93453000Y-62712939D01*
X93492774Y-62912898D01*
X93570795Y-63101256D01*
X93684063Y-63270774D01*
X93828226Y-63414937D01*
X93997744Y-63528205D01*
X94186102Y-63606226D01*
X94386061Y-63646000D01*
X94431199Y-63646000D01*
X94658199Y-63873000D01*
X89160000Y-63873000D01*
X89160000Y-38600000D01*
X89456606Y-38600000D01*
X89490105Y-38940119D01*
X89589314Y-39267168D01*
X89750421Y-39568578D01*
X89967234Y-39832766D01*
X89973008Y-39837504D01*
X89961928Y-39950000D01*
X89965000Y-40414250D01*
X90123750Y-40573000D01*
X91723000Y-40573000D01*
X91723000Y-40553000D01*
X91977000Y-40553000D01*
X91977000Y-40573000D01*
X93576250Y-40573000D01*
X93735000Y-40414250D01*
X93738072Y-39950000D01*
X93726992Y-39837504D01*
X93732766Y-39832766D01*
X93949579Y-39568578D01*
X94110686Y-39267168D01*
X94209895Y-38940119D01*
X94243394Y-38600000D01*
X94209895Y-38259881D01*
X94110686Y-37932832D01*
X93949579Y-37631422D01*
X93732766Y-37367234D01*
X93468578Y-37150421D01*
X93167168Y-36989314D01*
X92840119Y-36890105D01*
X92585225Y-36865000D01*
X91114775Y-36865000D01*
X90859881Y-36890105D01*
X90532832Y-36989314D01*
X90231422Y-37150421D01*
X89967234Y-37367234D01*
X89750421Y-37631422D01*
X89589314Y-37932832D01*
X89490105Y-38259881D01*
X89456606Y-38600000D01*
X89160000Y-38600000D01*
X89160000Y-30804495D01*
X90515000Y-30804495D01*
X90515000Y-31195505D01*
X90591282Y-31579003D01*
X90740915Y-31940250D01*
X90958149Y-32265364D01*
X91234636Y-32541851D01*
X91559750Y-32759085D01*
X91920997Y-32908718D01*
X92304495Y-32985000D01*
X92695505Y-32985000D01*
X93079003Y-32908718D01*
X93440250Y-32759085D01*
X93765364Y-32541851D01*
X94041851Y-32265364D01*
X94259085Y-31940250D01*
X94408718Y-31579003D01*
X94485000Y-31195505D01*
X94485000Y-30804495D01*
X94408718Y-30420997D01*
X94259085Y-30059750D01*
X94041851Y-29734636D01*
X93765364Y-29458149D01*
X93440250Y-29240915D01*
X93079003Y-29091282D01*
X92695505Y-29015000D01*
X92304495Y-29015000D01*
X91920997Y-29091282D01*
X91559750Y-29240915D01*
X91234636Y-29458149D01*
X90958149Y-29734636D01*
X90740915Y-30059750D01*
X90591282Y-30420997D01*
X90515000Y-30804495D01*
X89160000Y-30804495D01*
X89160000Y-27160000D01*
X178840000Y-27160000D01*
X178840000Y-41441550D01*
%TA.AperFunction,Conductor*%
D21*
G36*
X178840000Y-41441550D02*
G01*
X178797014Y-41433000D01*
X178602986Y-41433000D01*
X178412686Y-41470853D01*
X178233428Y-41545104D01*
X178072099Y-41652901D01*
X177934901Y-41790099D01*
X177827104Y-41951428D01*
X177800000Y-42016863D01*
X177772896Y-41951428D01*
X177665099Y-41790099D01*
X177527901Y-41652901D01*
X177366572Y-41545104D01*
X177187314Y-41470853D01*
X176997014Y-41433000D01*
X176802986Y-41433000D01*
X176612686Y-41470853D01*
X176433428Y-41545104D01*
X176272099Y-41652901D01*
X176134901Y-41790099D01*
X176027104Y-41951428D01*
X175952853Y-42130686D01*
X175915000Y-42320986D01*
X175915000Y-42515014D01*
X175952853Y-42705314D01*
X176027104Y-42884572D01*
X176134901Y-43045901D01*
X176272099Y-43183099D01*
X176433428Y-43290896D01*
X176612686Y-43365147D01*
X176802986Y-43403000D01*
X176997014Y-43403000D01*
X177187314Y-43365147D01*
X177366572Y-43290896D01*
X177527901Y-43183099D01*
X177665099Y-43045901D01*
X177772896Y-42884572D01*
X177800000Y-42819137D01*
X177827104Y-42884572D01*
X177934901Y-43045901D01*
X178072099Y-43183099D01*
X178233428Y-43290896D01*
X178412686Y-43365147D01*
X178602986Y-43403000D01*
X178797014Y-43403000D01*
X178840000Y-43394449D01*
X178840000Y-53887551D01*
X178797014Y-53879000D01*
X178602986Y-53879000D01*
X178412686Y-53916853D01*
X178233428Y-53991104D01*
X178072099Y-54098901D01*
X177934901Y-54236099D01*
X177827104Y-54397428D01*
X177800000Y-54462863D01*
X177772896Y-54397428D01*
X177665099Y-54236099D01*
X177527901Y-54098901D01*
X177366572Y-53991104D01*
X177187314Y-53916853D01*
X176997014Y-53879000D01*
X176802986Y-53879000D01*
X176612686Y-53916853D01*
X176433428Y-53991104D01*
X176272099Y-54098901D01*
X176134901Y-54236099D01*
X176027104Y-54397428D01*
X175952853Y-54576686D01*
X175915000Y-54766986D01*
X175915000Y-54961014D01*
X175952853Y-55151314D01*
X176027104Y-55330572D01*
X176134901Y-55491901D01*
X176272099Y-55629099D01*
X176433428Y-55736896D01*
X176612686Y-55811147D01*
X176802986Y-55849000D01*
X176997014Y-55849000D01*
X177187314Y-55811147D01*
X177366572Y-55736896D01*
X177527901Y-55629099D01*
X177665099Y-55491901D01*
X177772896Y-55330572D01*
X177800000Y-55265137D01*
X177827104Y-55330572D01*
X177934901Y-55491901D01*
X178072099Y-55629099D01*
X178233428Y-55736896D01*
X178412686Y-55811147D01*
X178602986Y-55849000D01*
X178797014Y-55849000D01*
X178840001Y-55840449D01*
X178840001Y-82840000D01*
X143127000Y-82840000D01*
X143127000Y-79896891D01*
X144058519Y-79896891D01*
X144155843Y-80171252D01*
X144304822Y-80421355D01*
X144499731Y-80637588D01*
X144733080Y-80811641D01*
X144995901Y-80936825D01*
X145143110Y-80981476D01*
X145373000Y-80860155D01*
X145373000Y-79667000D01*
X144179186Y-79667000D01*
X144058519Y-79896891D01*
X143127000Y-79896891D01*
X143127000Y-78960000D01*
X144137662Y-78960000D01*
X144058519Y-79183109D01*
X144179186Y-79413000D01*
X145373000Y-79413000D01*
X145373000Y-79393000D01*
X145627000Y-79393000D01*
X145627000Y-79413000D01*
X145647000Y-79413000D01*
X145647000Y-79667000D01*
X145627000Y-79667000D01*
X145627000Y-80860155D01*
X145856890Y-80981476D01*
X146004099Y-80936825D01*
X146266920Y-80811641D01*
X146500269Y-80637588D01*
X146695178Y-80421355D01*
X146764805Y-80304466D01*
X146886525Y-80486632D01*
X147093368Y-80693475D01*
X147336589Y-80855990D01*
X147606842Y-80967932D01*
X147893740Y-81025000D01*
X148186260Y-81025000D01*
X148473158Y-80967932D01*
X148743411Y-80855990D01*
X148986632Y-80693475D01*
X149193475Y-80486632D01*
X149310000Y-80312240D01*
X149426525Y-80486632D01*
X149633368Y-80693475D01*
X149876589Y-80855990D01*
X150146842Y-80967932D01*
X150433740Y-81025000D01*
X150726260Y-81025000D01*
X151013158Y-80967932D01*
X151283411Y-80855990D01*
X151526632Y-80693475D01*
X151733475Y-80486632D01*
X151850000Y-80312240D01*
X151966525Y-80486632D01*
X152173368Y-80693475D01*
X152416589Y-80855990D01*
X152686842Y-80967932D01*
X152973740Y-81025000D01*
X153266260Y-81025000D01*
X153553158Y-80967932D01*
X153823411Y-80855990D01*
X154066632Y-80693475D01*
X154273475Y-80486632D01*
X154390000Y-80312240D01*
X154506525Y-80486632D01*
X154713368Y-80693475D01*
X154956589Y-80855990D01*
X155226842Y-80967932D01*
X155513740Y-81025000D01*
X155806260Y-81025000D01*
X156093158Y-80967932D01*
X156363411Y-80855990D01*
X156606632Y-80693475D01*
X156813475Y-80486632D01*
X156935195Y-80304466D01*
X157004822Y-80421355D01*
X157199731Y-80637588D01*
X157433080Y-80811641D01*
X157695901Y-80936825D01*
X157843110Y-80981476D01*
X158073000Y-80860155D01*
X158073000Y-79667000D01*
X158327000Y-79667000D01*
X158327000Y-80860155D01*
X158556890Y-80981476D01*
X158704099Y-80936825D01*
X158966920Y-80811641D01*
X159200269Y-80637588D01*
X159395178Y-80421355D01*
X159544157Y-80171252D01*
X159641481Y-79896891D01*
X159520814Y-79667000D01*
X158327000Y-79667000D01*
X158073000Y-79667000D01*
X158053000Y-79667000D01*
X158053000Y-79413000D01*
X158073000Y-79413000D01*
X158073000Y-79393000D01*
X158327000Y-79393000D01*
X158327000Y-79413000D01*
X159520814Y-79413000D01*
X159641481Y-79183109D01*
X159544157Y-78908748D01*
X159482057Y-78804495D01*
X173015000Y-78804495D01*
X173015000Y-79195505D01*
X173091282Y-79579003D01*
X173240915Y-79940250D01*
X173458149Y-80265364D01*
X173734636Y-80541851D01*
X174059750Y-80759085D01*
X174420997Y-80908718D01*
X174804495Y-80985000D01*
X175195505Y-80985000D01*
X175579003Y-80908718D01*
X175940250Y-80759085D01*
X176265364Y-80541851D01*
X176541851Y-80265364D01*
X176759085Y-79940250D01*
X176908718Y-79579003D01*
X176985000Y-79195505D01*
X176985000Y-78804495D01*
X176908718Y-78420997D01*
X176759085Y-78059750D01*
X176541851Y-77734636D01*
X176265364Y-77458149D01*
X175940250Y-77240915D01*
X175579003Y-77091282D01*
X175195505Y-77015000D01*
X174804495Y-77015000D01*
X174420997Y-77091282D01*
X174059750Y-77240915D01*
X173734636Y-77458149D01*
X173458149Y-77734636D01*
X173240915Y-78059750D01*
X173091282Y-78420997D01*
X173015000Y-78804495D01*
X159482057Y-78804495D01*
X159395178Y-78658645D01*
X159200269Y-78442412D01*
X158970594Y-78271100D01*
X159146632Y-78153475D01*
X159353475Y-77946632D01*
X159515990Y-77703411D01*
X159627932Y-77433158D01*
X159685000Y-77146260D01*
X159685000Y-76853740D01*
X159627932Y-76566842D01*
X159515990Y-76296589D01*
X159353475Y-76053368D01*
X159146632Y-75846525D01*
X158903411Y-75684010D01*
X158633158Y-75572068D01*
X158346260Y-75515000D01*
X158053740Y-75515000D01*
X157766842Y-75572068D01*
X157496589Y-75684010D01*
X157253368Y-75846525D01*
X157046525Y-76053368D01*
X156930000Y-76227760D01*
X156813475Y-76053368D01*
X156606632Y-75846525D01*
X156363411Y-75684010D01*
X156093158Y-75572068D01*
X155806260Y-75515000D01*
X155513740Y-75515000D01*
X155226842Y-75572068D01*
X154956589Y-75684010D01*
X154713368Y-75846525D01*
X154506525Y-76053368D01*
X154390000Y-76227760D01*
X154273475Y-76053368D01*
X154066632Y-75846525D01*
X153823411Y-75684010D01*
X153553158Y-75572068D01*
X153266260Y-75515000D01*
X152973740Y-75515000D01*
X152686842Y-75572068D01*
X152416589Y-75684010D01*
X152173368Y-75846525D01*
X151966525Y-76053368D01*
X151850000Y-76227760D01*
X151733475Y-76053368D01*
X151526632Y-75846525D01*
X151283411Y-75684010D01*
X151013158Y-75572068D01*
X150726260Y-75515000D01*
X150433740Y-75515000D01*
X150146842Y-75572068D01*
X149876589Y-75684010D01*
X149633368Y-75846525D01*
X149426525Y-76053368D01*
X149310000Y-76227760D01*
X149193475Y-76053368D01*
X148986632Y-75846525D01*
X148743411Y-75684010D01*
X148473158Y-75572068D01*
X148186260Y-75515000D01*
X147893740Y-75515000D01*
X147606842Y-75572068D01*
X147336589Y-75684010D01*
X147093368Y-75846525D01*
X146961513Y-75978380D01*
X146939502Y-75905820D01*
X146880537Y-75795506D01*
X146801185Y-75698815D01*
X146704494Y-75619463D01*
X146594180Y-75560498D01*
X146474482Y-75524188D01*
X146350000Y-75511928D01*
X144650000Y-75511928D01*
X144525518Y-75524188D01*
X144405820Y-75560498D01*
X144295506Y-75619463D01*
X144198815Y-75698815D01*
X144119463Y-75795506D01*
X144082317Y-75865000D01*
X143770132Y-75865000D01*
X143127000Y-75221868D01*
X143127000Y-74110136D01*
X143228505Y-74042312D01*
X143356737Y-73914080D01*
X148865525Y-73914080D01*
X148949208Y-74168261D01*
X149221775Y-74299158D01*
X149514642Y-74374365D01*
X149816553Y-74390991D01*
X150115907Y-74348397D01*
X150401199Y-74248222D01*
X150550792Y-74168261D01*
X150634475Y-73914080D01*
X149750000Y-73029605D01*
X148865525Y-73914080D01*
X143356737Y-73914080D01*
X143442312Y-73828505D01*
X143610299Y-73577095D01*
X143726011Y-73297743D01*
X143785000Y-73001184D01*
X143785000Y-72916553D01*
X148209009Y-72916553D01*
X148251603Y-73215907D01*
X148351778Y-73501199D01*
X148431739Y-73650792D01*
X148685920Y-73734475D01*
X149570395Y-72850000D01*
X149929605Y-72850000D01*
X150814080Y-73734475D01*
X151068261Y-73650792D01*
X151199158Y-73378225D01*
X151274365Y-73085358D01*
X151290991Y-72783447D01*
X151278950Y-72698816D01*
X152715000Y-72698816D01*
X152715000Y-73001184D01*
X152773989Y-73297743D01*
X152889701Y-73577095D01*
X153057688Y-73828505D01*
X153271495Y-74042312D01*
X153522905Y-74210299D01*
X153802257Y-74326011D01*
X154098816Y-74385000D01*
X154401184Y-74385000D01*
X154697743Y-74326011D01*
X154977095Y-74210299D01*
X155228505Y-74042312D01*
X155356737Y-73914080D01*
X160865525Y-73914080D01*
X160949208Y-74168261D01*
X161221775Y-74299158D01*
X161514642Y-74374365D01*
X161816553Y-74390991D01*
X162115907Y-74348397D01*
X162401199Y-74248222D01*
X162550792Y-74168261D01*
X162634475Y-73914080D01*
X161750000Y-73029605D01*
X160865525Y-73914080D01*
X155356737Y-73914080D01*
X155442312Y-73828505D01*
X155610299Y-73577095D01*
X155726011Y-73297743D01*
X155785000Y-73001184D01*
X155785000Y-72916553D01*
X160209009Y-72916553D01*
X160251603Y-73215907D01*
X160351778Y-73501199D01*
X160431739Y-73650792D01*
X160685920Y-73734475D01*
X161570395Y-72850000D01*
X161929605Y-72850000D01*
X162814080Y-73734475D01*
X163068261Y-73650792D01*
X163199158Y-73378225D01*
X163274365Y-73085358D01*
X163290991Y-72783447D01*
X163278950Y-72698816D01*
X164715000Y-72698816D01*
X164715000Y-73001184D01*
X164773989Y-73297743D01*
X164889701Y-73577095D01*
X165057688Y-73828505D01*
X165271495Y-74042312D01*
X165522905Y-74210299D01*
X165802257Y-74326011D01*
X166098816Y-74385000D01*
X166401184Y-74385000D01*
X166697743Y-74326011D01*
X166977095Y-74210299D01*
X167228505Y-74042312D01*
X167442312Y-73828505D01*
X167610299Y-73577095D01*
X167726011Y-73297743D01*
X167785000Y-73001184D01*
X167785000Y-72698816D01*
X167726011Y-72402257D01*
X167610299Y-72122905D01*
X167442312Y-71871495D01*
X167228505Y-71657688D01*
X166977095Y-71489701D01*
X166697743Y-71373989D01*
X166401184Y-71315000D01*
X166098816Y-71315000D01*
X165802257Y-71373989D01*
X165522905Y-71489701D01*
X165271495Y-71657688D01*
X165057688Y-71871495D01*
X164889701Y-72122905D01*
X164773989Y-72402257D01*
X164715000Y-72698816D01*
X163278950Y-72698816D01*
X163248397Y-72484093D01*
X163148222Y-72198801D01*
X163068261Y-72049208D01*
X162814080Y-71965525D01*
X161929605Y-72850000D01*
X161570395Y-72850000D01*
X160685920Y-71965525D01*
X160431739Y-72049208D01*
X160300842Y-72321775D01*
X160225635Y-72614642D01*
X160209009Y-72916553D01*
X155785000Y-72916553D01*
X155785000Y-72698816D01*
X155726011Y-72402257D01*
X155610299Y-72122905D01*
X155442312Y-71871495D01*
X155356737Y-71785920D01*
X160865525Y-71785920D01*
X161750000Y-72670395D01*
X162634475Y-71785920D01*
X162550792Y-71531739D01*
X162278225Y-71400842D01*
X161985358Y-71325635D01*
X161683447Y-71309009D01*
X161384093Y-71351603D01*
X161098801Y-71451778D01*
X160949208Y-71531739D01*
X160865525Y-71785920D01*
X155356737Y-71785920D01*
X155228505Y-71657688D01*
X154977095Y-71489701D01*
X154697743Y-71373989D01*
X154401184Y-71315000D01*
X154098816Y-71315000D01*
X153802257Y-71373989D01*
X153522905Y-71489701D01*
X153271495Y-71657688D01*
X153057688Y-71871495D01*
X152889701Y-72122905D01*
X152773989Y-72402257D01*
X152715000Y-72698816D01*
X151278950Y-72698816D01*
X151248397Y-72484093D01*
X151148222Y-72198801D01*
X151068261Y-72049208D01*
X150814080Y-71965525D01*
X149929605Y-72850000D01*
X149570395Y-72850000D01*
X148685920Y-71965525D01*
X148431739Y-72049208D01*
X148300842Y-72321775D01*
X148225635Y-72614642D01*
X148209009Y-72916553D01*
X143785000Y-72916553D01*
X143785000Y-72698816D01*
X143726011Y-72402257D01*
X143610299Y-72122905D01*
X143442312Y-71871495D01*
X143356737Y-71785920D01*
X148865525Y-71785920D01*
X149750000Y-72670395D01*
X150634475Y-71785920D01*
X150550792Y-71531739D01*
X150278225Y-71400842D01*
X149985358Y-71325635D01*
X149683447Y-71309009D01*
X149384093Y-71351603D01*
X149098801Y-71451778D01*
X148949208Y-71531739D01*
X148865525Y-71785920D01*
X143356737Y-71785920D01*
X143228505Y-71657688D01*
X142977095Y-71489701D01*
X142697743Y-71373989D01*
X142401184Y-71315000D01*
X142098816Y-71315000D01*
X141802257Y-71373989D01*
X141522905Y-71489701D01*
X141271495Y-71657688D01*
X141057688Y-71871495D01*
X140889701Y-72122905D01*
X140773989Y-72402257D01*
X140715000Y-72698816D01*
X140715000Y-73001184D01*
X140773989Y-73297743D01*
X140889701Y-73577095D01*
X141057688Y-73828505D01*
X141102183Y-73873000D01*
X138907452Y-73873000D01*
X138930030Y-73850422D01*
X138814082Y-73734474D01*
X139068261Y-73650792D01*
X139199158Y-73378225D01*
X139274365Y-73085358D01*
X139290991Y-72783447D01*
X139248397Y-72484093D01*
X139148222Y-72198801D01*
X139068261Y-72049208D01*
X138814080Y-71965525D01*
X137929605Y-72850000D01*
X137943748Y-72864143D01*
X137764143Y-73043748D01*
X137750000Y-73029605D01*
X137735858Y-73043748D01*
X137556253Y-72864143D01*
X137570395Y-72850000D01*
X136685920Y-71965525D01*
X136431739Y-72049208D01*
X136300842Y-72321775D01*
X136225635Y-72614642D01*
X136209009Y-72916553D01*
X136251603Y-73215907D01*
X136351778Y-73501199D01*
X136431739Y-73650792D01*
X136685918Y-73734474D01*
X136569970Y-73850422D01*
X136592548Y-73873000D01*
X126127000Y-73873000D01*
X126127000Y-71785920D01*
X136865525Y-71785920D01*
X137750000Y-72670395D01*
X138634475Y-71785920D01*
X138550792Y-71531739D01*
X138278225Y-71400842D01*
X137985358Y-71325635D01*
X137683447Y-71309009D01*
X137384093Y-71351603D01*
X137098801Y-71451778D01*
X136949208Y-71531739D01*
X136865525Y-71785920D01*
X126127000Y-71785920D01*
X126127000Y-71707802D01*
X126554802Y-71280000D01*
X170062678Y-71280000D01*
X170100000Y-71283676D01*
X170137322Y-71280000D01*
X170137333Y-71280000D01*
X170248986Y-71269003D01*
X170392247Y-71225546D01*
X170524276Y-71154974D01*
X170640001Y-71060001D01*
X170663804Y-71030997D01*
X175867008Y-65827795D01*
X175896001Y-65804001D01*
X175919795Y-65775008D01*
X175919799Y-65775004D01*
X175990973Y-65688277D01*
X175990974Y-65688276D01*
X176061546Y-65556247D01*
X176105003Y-65412986D01*
X176116000Y-65301333D01*
X176116000Y-65301324D01*
X176119676Y-65264001D01*
X176116000Y-65226678D01*
X176116000Y-62067711D01*
X176153937Y-62029774D01*
X176267205Y-61860256D01*
X176345226Y-61671898D01*
X176385000Y-61471939D01*
X176385000Y-61268061D01*
X176345226Y-61068102D01*
X176267205Y-60879744D01*
X176153937Y-60710226D01*
X176009774Y-60566063D01*
X175840256Y-60452795D01*
X175651898Y-60374774D01*
X175451939Y-60335000D01*
X175248061Y-60335000D01*
X175048102Y-60374774D01*
X174859744Y-60452795D01*
X174690226Y-60566063D01*
X174546063Y-60710226D01*
X174432795Y-60879744D01*
X174354774Y-61068102D01*
X174315000Y-61268061D01*
X174315000Y-61471939D01*
X174354774Y-61671898D01*
X174432795Y-61860256D01*
X174546063Y-62029774D01*
X174596000Y-62079711D01*
X174596001Y-64949196D01*
X169785199Y-69760000D01*
X126277322Y-69760000D01*
X126239999Y-69756324D01*
X126202676Y-69760000D01*
X126202667Y-69760000D01*
X126127000Y-69767453D01*
X126127000Y-69240000D01*
X131522678Y-69240000D01*
X131560000Y-69243676D01*
X131597322Y-69240000D01*
X131597333Y-69240000D01*
X131708986Y-69229003D01*
X131732431Y-69221891D01*
X131748061Y-69225000D01*
X131951939Y-69225000D01*
X132151898Y-69185226D01*
X132340256Y-69107205D01*
X132509774Y-68993937D01*
X132653937Y-68849774D01*
X132767205Y-68680256D01*
X132845226Y-68491898D01*
X132885000Y-68291939D01*
X132885000Y-68088061D01*
X132845226Y-67888102D01*
X132767205Y-67699744D01*
X132653937Y-67530226D01*
X132509774Y-67386063D01*
X132340256Y-67272795D01*
X132151898Y-67194774D01*
X131951939Y-67155000D01*
X131748061Y-67155000D01*
X131548102Y-67194774D01*
X131359744Y-67272795D01*
X131190226Y-67386063D01*
X131046063Y-67530226D01*
X130932795Y-67699744D01*
X130924405Y-67720000D01*
X126127000Y-67720000D01*
X126127000Y-64000000D01*
X126124560Y-63975224D01*
X126117333Y-63951399D01*
X126105597Y-63929443D01*
X126089803Y-63910197D01*
X126070557Y-63894403D01*
X126048601Y-63882667D01*
X126024776Y-63875440D01*
X126000000Y-63873000D01*
X124516179Y-63873000D01*
X124543314Y-63807490D01*
X124597000Y-63537592D01*
X124597000Y-63262408D01*
X124543314Y-62992510D01*
X124438005Y-62738273D01*
X124285120Y-62509465D01*
X124090535Y-62314880D01*
X123861727Y-62161995D01*
X123784485Y-62130000D01*
X123861727Y-62098005D01*
X124090535Y-61945120D01*
X124121575Y-61914080D01*
X136865525Y-61914080D01*
X136949208Y-62168261D01*
X137221775Y-62299158D01*
X137514642Y-62374365D01*
X137816553Y-62390991D01*
X138115907Y-62348397D01*
X138401199Y-62248222D01*
X138550792Y-62168261D01*
X138634475Y-61914080D01*
X137750000Y-61029605D01*
X136865525Y-61914080D01*
X124121575Y-61914080D01*
X124285120Y-61750535D01*
X124438005Y-61521727D01*
X124543314Y-61267490D01*
X124597000Y-60997592D01*
X124597000Y-60916553D01*
X136209009Y-60916553D01*
X136251603Y-61215907D01*
X136351778Y-61501199D01*
X136431739Y-61650792D01*
X136685920Y-61734475D01*
X137570395Y-60850000D01*
X137929605Y-60850000D01*
X138814080Y-61734475D01*
X139068261Y-61650792D01*
X139199158Y-61378225D01*
X139274365Y-61085358D01*
X139290991Y-60783447D01*
X139278950Y-60698816D01*
X140715000Y-60698816D01*
X140715000Y-61001184D01*
X140773989Y-61297743D01*
X140889701Y-61577095D01*
X141057688Y-61828505D01*
X141271495Y-62042312D01*
X141522905Y-62210299D01*
X141802257Y-62326011D01*
X142098816Y-62385000D01*
X142401184Y-62385000D01*
X142697743Y-62326011D01*
X142977095Y-62210299D01*
X143228505Y-62042312D01*
X143442312Y-61828505D01*
X143610299Y-61577095D01*
X143726011Y-61297743D01*
X143785000Y-61001184D01*
X143785000Y-60698816D01*
X143726011Y-60402257D01*
X143610299Y-60122905D01*
X143442312Y-59871495D01*
X143228505Y-59657688D01*
X142977095Y-59489701D01*
X142697743Y-59373989D01*
X142401184Y-59315000D01*
X142098816Y-59315000D01*
X141802257Y-59373989D01*
X141522905Y-59489701D01*
X141271495Y-59657688D01*
X141057688Y-59871495D01*
X140889701Y-60122905D01*
X140773989Y-60402257D01*
X140715000Y-60698816D01*
X139278950Y-60698816D01*
X139248397Y-60484093D01*
X139148222Y-60198801D01*
X139068261Y-60049208D01*
X138814080Y-59965525D01*
X137929605Y-60850000D01*
X137570395Y-60850000D01*
X136685920Y-59965525D01*
X136431739Y-60049208D01*
X136300842Y-60321775D01*
X136225635Y-60614642D01*
X136209009Y-60916553D01*
X124597000Y-60916553D01*
X124597000Y-60722408D01*
X124566372Y-60568430D01*
X125744802Y-59390000D01*
X130796289Y-59390000D01*
X130840226Y-59433937D01*
X131009744Y-59547205D01*
X131198102Y-59625226D01*
X131398061Y-59665000D01*
X131601939Y-59665000D01*
X131801898Y-59625226D01*
X131960489Y-59559535D01*
X131994774Y-59731898D01*
X132072795Y-59920256D01*
X132186063Y-60089774D01*
X132330226Y-60233937D01*
X132499744Y-60347205D01*
X132688102Y-60425226D01*
X132888061Y-60465000D01*
X133091939Y-60465000D01*
X133291898Y-60425226D01*
X133480256Y-60347205D01*
X133649774Y-60233937D01*
X133793937Y-60089774D01*
X133907205Y-59920256D01*
X133962849Y-59785920D01*
X136865525Y-59785920D01*
X137750000Y-60670395D01*
X138634475Y-59785920D01*
X138550792Y-59531739D01*
X138278225Y-59400842D01*
X137985358Y-59325635D01*
X137683447Y-59309009D01*
X137384093Y-59351603D01*
X137098801Y-59451778D01*
X136949208Y-59531739D01*
X136865525Y-59785920D01*
X133962849Y-59785920D01*
X133985226Y-59731898D01*
X134025000Y-59531939D01*
X134025000Y-59328061D01*
X133985226Y-59128102D01*
X133907205Y-58939744D01*
X133793937Y-58770226D01*
X133760000Y-58736289D01*
X133760000Y-58477322D01*
X133763676Y-58440000D01*
X133760000Y-58402677D01*
X133760000Y-58402667D01*
X133749003Y-58291014D01*
X133705546Y-58147753D01*
X133701265Y-58139744D01*
X133634974Y-58015723D01*
X133563799Y-57928997D01*
X133540001Y-57899999D01*
X133511002Y-57876201D01*
X132753803Y-57119002D01*
X132730001Y-57089999D01*
X132614276Y-56995026D01*
X132482247Y-56924454D01*
X132338986Y-56880997D01*
X132227333Y-56870000D01*
X132227322Y-56870000D01*
X132190000Y-56866324D01*
X132152678Y-56870000D01*
X124083232Y-56870000D01*
X124090535Y-56865120D01*
X124285120Y-56670535D01*
X124438005Y-56441727D01*
X124543314Y-56187490D01*
X124597000Y-55917592D01*
X124597000Y-55642408D01*
X124566372Y-55488430D01*
X125651003Y-54403799D01*
X125680001Y-54380001D01*
X125774974Y-54264276D01*
X125845546Y-54132247D01*
X125889003Y-53988986D01*
X125900000Y-53877333D01*
X125900000Y-53877324D01*
X125903676Y-53840001D01*
X125900000Y-53802678D01*
X125900000Y-53404495D01*
X128515000Y-53404495D01*
X128515000Y-53795505D01*
X128591282Y-54179003D01*
X128740915Y-54540250D01*
X128958149Y-54865364D01*
X129234636Y-55141851D01*
X129559750Y-55359085D01*
X129920997Y-55508718D01*
X130304495Y-55585000D01*
X130695505Y-55585000D01*
X131079003Y-55508718D01*
X131440250Y-55359085D01*
X131765364Y-55141851D01*
X132041851Y-54865364D01*
X132259085Y-54540250D01*
X132400511Y-54198816D01*
X136215000Y-54198816D01*
X136215000Y-54501184D01*
X136273989Y-54797743D01*
X136389701Y-55077095D01*
X136557688Y-55328505D01*
X136771495Y-55542312D01*
X137022905Y-55710299D01*
X137302257Y-55826011D01*
X137598816Y-55885000D01*
X137901184Y-55885000D01*
X138197743Y-55826011D01*
X138477095Y-55710299D01*
X138728505Y-55542312D01*
X138942312Y-55328505D01*
X139110299Y-55077095D01*
X139226011Y-54797743D01*
X139285000Y-54501184D01*
X139285000Y-54198816D01*
X140715000Y-54198816D01*
X140715000Y-54501184D01*
X140773989Y-54797743D01*
X140889701Y-55077095D01*
X141057688Y-55328505D01*
X141271495Y-55542312D01*
X141522905Y-55710299D01*
X141802257Y-55826011D01*
X142098816Y-55885000D01*
X142401184Y-55885000D01*
X142697743Y-55826011D01*
X142977095Y-55710299D01*
X143228505Y-55542312D01*
X143442312Y-55328505D01*
X143610299Y-55077095D01*
X143726011Y-54797743D01*
X143785000Y-54501184D01*
X143785000Y-54198816D01*
X143726011Y-53902257D01*
X143610299Y-53622905D01*
X143442312Y-53371495D01*
X143228505Y-53157688D01*
X142977095Y-52989701D01*
X142697743Y-52873989D01*
X142401184Y-52815000D01*
X142098816Y-52815000D01*
X141802257Y-52873989D01*
X141522905Y-52989701D01*
X141271495Y-53157688D01*
X141057688Y-53371495D01*
X140889701Y-53622905D01*
X140773989Y-53902257D01*
X140715000Y-54198816D01*
X139285000Y-54198816D01*
X139226011Y-53902257D01*
X139110299Y-53622905D01*
X138942312Y-53371495D01*
X138728505Y-53157688D01*
X138477095Y-52989701D01*
X138197743Y-52873989D01*
X137901184Y-52815000D01*
X137598816Y-52815000D01*
X137302257Y-52873989D01*
X137022905Y-52989701D01*
X136771495Y-53157688D01*
X136557688Y-53371495D01*
X136389701Y-53622905D01*
X136273989Y-53902257D01*
X136215000Y-54198816D01*
X132400511Y-54198816D01*
X132408718Y-54179003D01*
X132485000Y-53795505D01*
X132485000Y-53404495D01*
X132408718Y-53020997D01*
X132259085Y-52659750D01*
X132041851Y-52334636D01*
X131765364Y-52058149D01*
X131440250Y-51840915D01*
X131079003Y-51691282D01*
X130695505Y-51615000D01*
X130304495Y-51615000D01*
X129920997Y-51691282D01*
X129559750Y-51840915D01*
X129234636Y-52058149D01*
X128958149Y-52334636D01*
X128740915Y-52659750D01*
X128591282Y-53020997D01*
X128515000Y-53404495D01*
X125900000Y-53404495D01*
X125900000Y-53054801D01*
X129040721Y-49914080D01*
X136865525Y-49914080D01*
X136949208Y-50168261D01*
X137221775Y-50299158D01*
X137514642Y-50374365D01*
X137816553Y-50390991D01*
X138115907Y-50348397D01*
X138401199Y-50248222D01*
X138550792Y-50168261D01*
X138634475Y-49914080D01*
X137750000Y-49029605D01*
X136865525Y-49914080D01*
X129040721Y-49914080D01*
X130038248Y-48916553D01*
X136209009Y-48916553D01*
X136251603Y-49215907D01*
X136351778Y-49501199D01*
X136431739Y-49650792D01*
X136685920Y-49734475D01*
X137570395Y-48850000D01*
X137929605Y-48850000D01*
X138814080Y-49734475D01*
X139068261Y-49650792D01*
X139199158Y-49378225D01*
X139274365Y-49085358D01*
X139290991Y-48783447D01*
X139278950Y-48698816D01*
X140715000Y-48698816D01*
X140715000Y-49001184D01*
X140773989Y-49297743D01*
X140889701Y-49577095D01*
X141057688Y-49828505D01*
X141271495Y-50042312D01*
X141522905Y-50210299D01*
X141802257Y-50326011D01*
X142098816Y-50385000D01*
X142401184Y-50385000D01*
X142697743Y-50326011D01*
X142977095Y-50210299D01*
X143228505Y-50042312D01*
X143442312Y-49828505D01*
X143610299Y-49577095D01*
X143726011Y-49297743D01*
X143785000Y-49001184D01*
X143785000Y-48698816D01*
X143726011Y-48402257D01*
X143610299Y-48122905D01*
X143442312Y-47871495D01*
X143228505Y-47657688D01*
X142977095Y-47489701D01*
X142697743Y-47373989D01*
X142401184Y-47315000D01*
X142098816Y-47315000D01*
X141802257Y-47373989D01*
X141522905Y-47489701D01*
X141271495Y-47657688D01*
X141057688Y-47871495D01*
X140889701Y-48122905D01*
X140773989Y-48402257D01*
X140715000Y-48698816D01*
X139278950Y-48698816D01*
X139248397Y-48484093D01*
X139148222Y-48198801D01*
X139068261Y-48049208D01*
X138814080Y-47965525D01*
X137929605Y-48850000D01*
X137570395Y-48850000D01*
X136685920Y-47965525D01*
X136431739Y-48049208D01*
X136300842Y-48321775D01*
X136225635Y-48614642D01*
X136209009Y-48916553D01*
X130038248Y-48916553D01*
X131168881Y-47785920D01*
X136865525Y-47785920D01*
X137750000Y-48670395D01*
X138634475Y-47785920D01*
X138550792Y-47531739D01*
X138278225Y-47400842D01*
X137985358Y-47325635D01*
X137683447Y-47309009D01*
X137384093Y-47351603D01*
X137098801Y-47451778D01*
X136949208Y-47531739D01*
X136865525Y-47785920D01*
X131168881Y-47785920D01*
X132361618Y-46593184D01*
X132451898Y-46575226D01*
X132640256Y-46497205D01*
X132809774Y-46383937D01*
X132953937Y-46239774D01*
X133067205Y-46070256D01*
X133145226Y-45881898D01*
X133185000Y-45681939D01*
X133185000Y-45478061D01*
X133145226Y-45278102D01*
X133067205Y-45089744D01*
X132953937Y-44920226D01*
X132809774Y-44776063D01*
X132640256Y-44662795D01*
X132451898Y-44584774D01*
X132251939Y-44545000D01*
X132048061Y-44545000D01*
X131848102Y-44584774D01*
X131659744Y-44662795D01*
X131490226Y-44776063D01*
X131480072Y-44786217D01*
X131340256Y-44692795D01*
X131151898Y-44614774D01*
X130951939Y-44575000D01*
X130748061Y-44575000D01*
X130548102Y-44614774D01*
X130359744Y-44692795D01*
X130190226Y-44806063D01*
X130046063Y-44950226D01*
X129932795Y-45119744D01*
X129854774Y-45308102D01*
X129815000Y-45508061D01*
X129815000Y-45550198D01*
X125399003Y-49966196D01*
X125398997Y-49966201D01*
X124597000Y-50768198D01*
X124597000Y-50562408D01*
X124543314Y-50292510D01*
X124438005Y-50038273D01*
X124285120Y-49809465D01*
X124090535Y-49614880D01*
X123861727Y-49461995D01*
X123784485Y-49430000D01*
X123861727Y-49398005D01*
X124090535Y-49245120D01*
X124285120Y-49050535D01*
X124438005Y-48821727D01*
X124543314Y-48567490D01*
X124597000Y-48297592D01*
X124597000Y-48022408D01*
X124566372Y-47868430D01*
X126461003Y-45973799D01*
X126490001Y-45950001D01*
X126584974Y-45834276D01*
X126655546Y-45702247D01*
X126699003Y-45558986D01*
X126710000Y-45447333D01*
X126710000Y-45447324D01*
X126713676Y-45410001D01*
X126710000Y-45372678D01*
X126710000Y-37914080D01*
X136865525Y-37914080D01*
X136949208Y-38168261D01*
X137221775Y-38299158D01*
X137514642Y-38374365D01*
X137816553Y-38390991D01*
X138115907Y-38348397D01*
X138401199Y-38248222D01*
X138550792Y-38168261D01*
X138634475Y-37914080D01*
X137750000Y-37029605D01*
X136865525Y-37914080D01*
X126710000Y-37914080D01*
X126710000Y-36994801D01*
X126788248Y-36916553D01*
X136209009Y-36916553D01*
X136251603Y-37215907D01*
X136351778Y-37501199D01*
X136431739Y-37650792D01*
X136685920Y-37734475D01*
X137570395Y-36850000D01*
X137929605Y-36850000D01*
X138814080Y-37734475D01*
X139068261Y-37650792D01*
X139199158Y-37378225D01*
X139274365Y-37085358D01*
X139290991Y-36783447D01*
X139278950Y-36698816D01*
X140715000Y-36698816D01*
X140715000Y-37001184D01*
X140773989Y-37297743D01*
X140889701Y-37577095D01*
X141057688Y-37828505D01*
X141271495Y-38042312D01*
X141522905Y-38210299D01*
X141802257Y-38326011D01*
X142098816Y-38385000D01*
X142401184Y-38385000D01*
X142697743Y-38326011D01*
X142977095Y-38210299D01*
X143228505Y-38042312D01*
X143442312Y-37828505D01*
X143610299Y-37577095D01*
X143726011Y-37297743D01*
X143785000Y-37001184D01*
X143785000Y-36698816D01*
X143726011Y-36402257D01*
X143610299Y-36122905D01*
X143442312Y-35871495D01*
X143228505Y-35657688D01*
X142977095Y-35489701D01*
X142697743Y-35373989D01*
X142401184Y-35315000D01*
X142098816Y-35315000D01*
X141802257Y-35373989D01*
X141522905Y-35489701D01*
X141271495Y-35657688D01*
X141057688Y-35871495D01*
X140889701Y-36122905D01*
X140773989Y-36402257D01*
X140715000Y-36698816D01*
X139278950Y-36698816D01*
X139248397Y-36484093D01*
X139148222Y-36198801D01*
X139068261Y-36049208D01*
X138814080Y-35965525D01*
X137929605Y-36850000D01*
X137570395Y-36850000D01*
X136685920Y-35965525D01*
X136431739Y-36049208D01*
X136300842Y-36321775D01*
X136225635Y-36614642D01*
X136209009Y-36916553D01*
X126788248Y-36916553D01*
X128404802Y-35300000D01*
X131485199Y-35300000D01*
X131765000Y-35579802D01*
X131765000Y-35641939D01*
X131804774Y-35841898D01*
X131882795Y-36030256D01*
X131996063Y-36199774D01*
X132140226Y-36343937D01*
X132309744Y-36457205D01*
X132498102Y-36535226D01*
X132698061Y-36575000D01*
X132901939Y-36575000D01*
X133101898Y-36535226D01*
X133290256Y-36457205D01*
X133459774Y-36343937D01*
X133603937Y-36199774D01*
X133717205Y-36030256D01*
X133795226Y-35841898D01*
X133806360Y-35785920D01*
X136865525Y-35785920D01*
X137750000Y-36670395D01*
X138634475Y-35785920D01*
X138550792Y-35531739D01*
X138278225Y-35400842D01*
X137985358Y-35325635D01*
X137683447Y-35309009D01*
X137384093Y-35351603D01*
X137098801Y-35451778D01*
X136949208Y-35531739D01*
X136865525Y-35785920D01*
X133806360Y-35785920D01*
X133835000Y-35641939D01*
X133835000Y-35438061D01*
X133795226Y-35238102D01*
X133717205Y-35049744D01*
X133603937Y-34880226D01*
X133459774Y-34736063D01*
X133290256Y-34622795D01*
X133101898Y-34544774D01*
X132901939Y-34505000D01*
X132839802Y-34505000D01*
X132363804Y-34029002D01*
X132340001Y-33999999D01*
X132224276Y-33905026D01*
X132092247Y-33834454D01*
X131948986Y-33790997D01*
X131837333Y-33780000D01*
X131837322Y-33780000D01*
X131800000Y-33776324D01*
X131762678Y-33780000D01*
X128127322Y-33780000D01*
X128089999Y-33776324D01*
X128052676Y-33780000D01*
X128052667Y-33780000D01*
X127941014Y-33790997D01*
X127797753Y-33834454D01*
X127665723Y-33905026D01*
X127582083Y-33973668D01*
X127549999Y-33999999D01*
X127526201Y-34028997D01*
X125439003Y-36116196D01*
X125409999Y-36139999D01*
X125354871Y-36207174D01*
X125315026Y-36255724D01*
X125279721Y-36321775D01*
X125244454Y-36387754D01*
X125200997Y-36531015D01*
X125190000Y-36642668D01*
X125190000Y-36642678D01*
X125186324Y-36680000D01*
X125190000Y-36717322D01*
X125190001Y-45095197D01*
X124597000Y-45688198D01*
X124597000Y-45482408D01*
X124543314Y-45212510D01*
X124438005Y-44958273D01*
X124285120Y-44729465D01*
X124090535Y-44534880D01*
X123861727Y-44381995D01*
X123784485Y-44350000D01*
X123861727Y-44318005D01*
X124090535Y-44165120D01*
X124285120Y-43970535D01*
X124438005Y-43741727D01*
X124543314Y-43487490D01*
X124597000Y-43217592D01*
X124597000Y-42942408D01*
X124543314Y-42672510D01*
X124438005Y-42418273D01*
X124285120Y-42189465D01*
X124090535Y-41994880D01*
X123861727Y-41841995D01*
X123790057Y-41812308D01*
X123803023Y-41807636D01*
X123918980Y-41745656D01*
X123985960Y-41505565D01*
X123200000Y-40719605D01*
X122414040Y-41505565D01*
X122481020Y-41745656D01*
X122616760Y-41809485D01*
X122538273Y-41841995D01*
X122309465Y-41994880D01*
X122135000Y-42169345D01*
X122135000Y-41298220D01*
X122234435Y-41325960D01*
X123020395Y-40540000D01*
X123379605Y-40540000D01*
X124165565Y-41325960D01*
X124405656Y-41258980D01*
X124522756Y-41009952D01*
X124589023Y-40742865D01*
X124601910Y-40467983D01*
X124560922Y-40195867D01*
X124467636Y-39936977D01*
X124405656Y-39821020D01*
X124165565Y-39754040D01*
X123379605Y-40540000D01*
X123020395Y-40540000D01*
X123006253Y-40525858D01*
X123185858Y-40346253D01*
X123200000Y-40360395D01*
X123985960Y-39574435D01*
X123918980Y-39334344D01*
X123783240Y-39270515D01*
X123861727Y-39238005D01*
X124090535Y-39085120D01*
X124285120Y-38890535D01*
X124438005Y-38661727D01*
X124543314Y-38407490D01*
X124597000Y-38137592D01*
X124597000Y-37862408D01*
X124543314Y-37592510D01*
X124438005Y-37338273D01*
X124285120Y-37109465D01*
X124090535Y-36914880D01*
X123861727Y-36761995D01*
X123607490Y-36656686D01*
X123337592Y-36603000D01*
X123062408Y-36603000D01*
X122792510Y-36656686D01*
X122538273Y-36761995D01*
X122309465Y-36914880D01*
X122114880Y-37109465D01*
X121961995Y-37338273D01*
X121856686Y-37592510D01*
X121820515Y-37774353D01*
X120236865Y-39358004D01*
X120193551Y-39393551D01*
X120051716Y-39566377D01*
X119960879Y-39736324D01*
X119946324Y-39763554D01*
X119881423Y-39977502D01*
X119859509Y-40200000D01*
X119865000Y-40255751D01*
X119865000Y-53482289D01*
X119814080Y-53465525D01*
X118929605Y-54350000D01*
X119814080Y-55234475D01*
X119865000Y-55217711D01*
X119865001Y-59794184D01*
X119728505Y-59657688D01*
X119477095Y-59489701D01*
X119197743Y-59373989D01*
X118901184Y-59315000D01*
X118598816Y-59315000D01*
X118302257Y-59373989D01*
X118022905Y-59489701D01*
X117771495Y-59657688D01*
X117557688Y-59871495D01*
X117389701Y-60122905D01*
X117273989Y-60402257D01*
X117215000Y-60698816D01*
X117215000Y-61001184D01*
X117273989Y-61297743D01*
X117389701Y-61577095D01*
X117557688Y-61828505D01*
X117771495Y-62042312D01*
X118022905Y-62210299D01*
X118302257Y-62326011D01*
X118598816Y-62385000D01*
X118901184Y-62385000D01*
X119197743Y-62326011D01*
X119477095Y-62210299D01*
X119728505Y-62042312D01*
X119865001Y-61905816D01*
X119865001Y-63873000D01*
X113390711Y-63873000D01*
X113503937Y-63759774D01*
X113617205Y-63590256D01*
X113695226Y-63401898D01*
X113735000Y-63201939D01*
X113735000Y-62998061D01*
X113695226Y-62798102D01*
X113617205Y-62609744D01*
X113503937Y-62440226D01*
X113359774Y-62296063D01*
X113190256Y-62182795D01*
X113001898Y-62104774D01*
X112801939Y-62065000D01*
X112739802Y-62065000D01*
X112256748Y-61581947D01*
X112377501Y-61618577D01*
X112600000Y-61640491D01*
X112822499Y-61618577D01*
X112901421Y-61594636D01*
X113057688Y-61828505D01*
X113271495Y-62042312D01*
X113522905Y-62210299D01*
X113802257Y-62326011D01*
X114098816Y-62385000D01*
X114401184Y-62385000D01*
X114697743Y-62326011D01*
X114977095Y-62210299D01*
X115228505Y-62042312D01*
X115442312Y-61828505D01*
X115610299Y-61577095D01*
X115726011Y-61297743D01*
X115785000Y-61001184D01*
X115785000Y-60698816D01*
X115726011Y-60402257D01*
X115610299Y-60122905D01*
X115442312Y-59871495D01*
X115228505Y-59657688D01*
X114977095Y-59489701D01*
X114697743Y-59373989D01*
X114401184Y-59315000D01*
X114098816Y-59315000D01*
X113802257Y-59373989D01*
X113522905Y-59489701D01*
X113326240Y-59621109D01*
X113235000Y-59529869D01*
X113235000Y-55505817D01*
X113271495Y-55542312D01*
X113522905Y-55710299D01*
X113802257Y-55826011D01*
X114098816Y-55885000D01*
X114401184Y-55885000D01*
X114697743Y-55826011D01*
X114977095Y-55710299D01*
X115228505Y-55542312D01*
X115356737Y-55414080D01*
X117865525Y-55414080D01*
X117949208Y-55668261D01*
X118221775Y-55799158D01*
X118514642Y-55874365D01*
X118816553Y-55890991D01*
X119115907Y-55848397D01*
X119401199Y-55748222D01*
X119550792Y-55668261D01*
X119634475Y-55414080D01*
X118750000Y-54529605D01*
X117865525Y-55414080D01*
X115356737Y-55414080D01*
X115442312Y-55328505D01*
X115610299Y-55077095D01*
X115726011Y-54797743D01*
X115785000Y-54501184D01*
X115785000Y-54416553D01*
X117209009Y-54416553D01*
X117251603Y-54715907D01*
X117351778Y-55001199D01*
X117431739Y-55150792D01*
X117685920Y-55234475D01*
X118570395Y-54350000D01*
X117685920Y-53465525D01*
X117431739Y-53549208D01*
X117300842Y-53821775D01*
X117225635Y-54114642D01*
X117209009Y-54416553D01*
X115785000Y-54416553D01*
X115785000Y-54198816D01*
X115726011Y-53902257D01*
X115610299Y-53622905D01*
X115442312Y-53371495D01*
X115356737Y-53285920D01*
X117865525Y-53285920D01*
X118750000Y-54170395D01*
X119634475Y-53285920D01*
X119550792Y-53031739D01*
X119278225Y-52900842D01*
X118985358Y-52825635D01*
X118683447Y-52809009D01*
X118384093Y-52851603D01*
X118098801Y-52951778D01*
X117949208Y-53031739D01*
X117865525Y-53285920D01*
X115356737Y-53285920D01*
X115228505Y-53157688D01*
X114977095Y-52989701D01*
X114747203Y-52894476D01*
X114833623Y-52848284D01*
X115006449Y-52706449D01*
X115041996Y-52663135D01*
X115663135Y-52041996D01*
X115706449Y-52006449D01*
X115848284Y-51833623D01*
X115953676Y-51636447D01*
X116018577Y-51422499D01*
X116035000Y-51255752D01*
X116035000Y-51255743D01*
X116040490Y-51200001D01*
X116035000Y-51144259D01*
X116035000Y-47455752D01*
X116040491Y-47400000D01*
X116018577Y-47177501D01*
X115953676Y-46963553D01*
X115848284Y-46766377D01*
X115706449Y-46593551D01*
X115533623Y-46451716D01*
X115368688Y-46363557D01*
X115335000Y-46329869D01*
X115335000Y-29735000D01*
X136343269Y-29735000D01*
X136273989Y-29902257D01*
X136215000Y-30198816D01*
X136215000Y-30501184D01*
X136273989Y-30797743D01*
X136389701Y-31077095D01*
X136557688Y-31328505D01*
X136771495Y-31542312D01*
X137022905Y-31710299D01*
X137302257Y-31826011D01*
X137598816Y-31885000D01*
X137901184Y-31885000D01*
X138197743Y-31826011D01*
X138477095Y-31710299D01*
X138728505Y-31542312D01*
X138942312Y-31328505D01*
X139110299Y-31077095D01*
X139226011Y-30797743D01*
X139285000Y-30501184D01*
X139285000Y-30198816D01*
X139226011Y-29902257D01*
X139156731Y-29735000D01*
X140843269Y-29735000D01*
X140773989Y-29902257D01*
X140715000Y-30198816D01*
X140715000Y-30501184D01*
X140773989Y-30797743D01*
X140889701Y-31077095D01*
X141057688Y-31328505D01*
X141271495Y-31542312D01*
X141522905Y-31710299D01*
X141802257Y-31826011D01*
X142098816Y-31885000D01*
X142401184Y-31885000D01*
X142697743Y-31826011D01*
X142977095Y-31710299D01*
X143228505Y-31542312D01*
X143442312Y-31328505D01*
X143610299Y-31077095D01*
X143726011Y-30797743D01*
X143785000Y-30501184D01*
X143785000Y-30198816D01*
X143726011Y-29902257D01*
X143656731Y-29735000D01*
X145765001Y-29735000D01*
X145765000Y-41255751D01*
X145765001Y-41255761D01*
X145765000Y-42865000D01*
X143698152Y-42865000D01*
X143726011Y-42797743D01*
X143785000Y-42501184D01*
X143785000Y-42198816D01*
X143726011Y-41902257D01*
X143610299Y-41622905D01*
X143442312Y-41371495D01*
X143228505Y-41157688D01*
X142977095Y-40989701D01*
X142697743Y-40873989D01*
X142401184Y-40815000D01*
X142098816Y-40815000D01*
X141802257Y-40873989D01*
X141522905Y-40989701D01*
X141271495Y-41157688D01*
X141057688Y-41371495D01*
X140889701Y-41622905D01*
X140773989Y-41902257D01*
X140715000Y-42198816D01*
X140715000Y-42501184D01*
X140773989Y-42797743D01*
X140801848Y-42865000D01*
X139198152Y-42865000D01*
X139226011Y-42797743D01*
X139285000Y-42501184D01*
X139285000Y-42198816D01*
X139226011Y-41902257D01*
X139110299Y-41622905D01*
X138942312Y-41371495D01*
X138728505Y-41157688D01*
X138477095Y-40989701D01*
X138197743Y-40873989D01*
X137901184Y-40815000D01*
X137598816Y-40815000D01*
X137302257Y-40873989D01*
X137022905Y-40989701D01*
X136771495Y-41157688D01*
X136557688Y-41371495D01*
X136389701Y-41622905D01*
X136273989Y-41902257D01*
X136221276Y-42167263D01*
X136077502Y-42181423D01*
X135863554Y-42246324D01*
X135666378Y-42351717D01*
X135493552Y-42493552D01*
X135351717Y-42666378D01*
X135246324Y-42863554D01*
X135181423Y-43077502D01*
X135159509Y-43300000D01*
X135181423Y-43522498D01*
X135246324Y-43736446D01*
X135351717Y-43933622D01*
X135458012Y-44063143D01*
X136158004Y-44763135D01*
X136193551Y-44806449D01*
X136366377Y-44948284D01*
X136563553Y-45053676D01*
X136777501Y-45118577D01*
X136944248Y-45135000D01*
X136944257Y-45135000D01*
X136999999Y-45140490D01*
X137055741Y-45135000D01*
X145765001Y-45135000D01*
X145765000Y-53155751D01*
X145765001Y-53155761D01*
X145765000Y-64944248D01*
X145765000Y-64944249D01*
X145765001Y-66629867D01*
X145429868Y-66965000D01*
X143656731Y-66965000D01*
X143726011Y-66797743D01*
X143785000Y-66501184D01*
X143785000Y-66198816D01*
X143726011Y-65902257D01*
X143610299Y-65622905D01*
X143442312Y-65371495D01*
X143228505Y-65157688D01*
X142977095Y-64989701D01*
X142697743Y-64873989D01*
X142401184Y-64815000D01*
X142098816Y-64815000D01*
X141802257Y-64873989D01*
X141522905Y-64989701D01*
X141271495Y-65157688D01*
X141057688Y-65371495D01*
X140889701Y-65622905D01*
X140773989Y-65902257D01*
X140715000Y-66198816D01*
X140715000Y-66501184D01*
X140773989Y-66797743D01*
X140843269Y-66965000D01*
X139156731Y-66965000D01*
X139226011Y-66797743D01*
X139285000Y-66501184D01*
X139285000Y-66198816D01*
X139226011Y-65902257D01*
X139110299Y-65622905D01*
X138942312Y-65371495D01*
X138728505Y-65157688D01*
X138477095Y-64989701D01*
X138197743Y-64873989D01*
X137901184Y-64815000D01*
X137598816Y-64815000D01*
X137302257Y-64873989D01*
X137022905Y-64989701D01*
X136771495Y-65157688D01*
X136557688Y-65371495D01*
X136389701Y-65622905D01*
X136273989Y-65902257D01*
X136221276Y-66167263D01*
X136077502Y-66181423D01*
X135863554Y-66246324D01*
X135666378Y-66351717D01*
X135493552Y-66493552D01*
X135351717Y-66666378D01*
X135246324Y-66863554D01*
X135181423Y-67077502D01*
X135159509Y-67300000D01*
X135181423Y-67522498D01*
X135246324Y-67736446D01*
X135351717Y-67933622D01*
X135458012Y-68063143D01*
X136258008Y-68863140D01*
X136293551Y-68906449D01*
X136466377Y-69048284D01*
X136663553Y-69153676D01*
X136877501Y-69218577D01*
X136942716Y-69225000D01*
X137100000Y-69240491D01*
X137155752Y-69235000D01*
X145844249Y-69235000D01*
X145900000Y-69240491D01*
X145955751Y-69235000D01*
X145955752Y-69235000D01*
X146122499Y-69218577D01*
X146336447Y-69153676D01*
X146533623Y-69048284D01*
X146706449Y-68906449D01*
X146741995Y-68863136D01*
X147663145Y-67941987D01*
X147706449Y-67906449D01*
X147754092Y-67848397D01*
X147848284Y-67733623D01*
X147953676Y-67536447D01*
X148018577Y-67322499D01*
X148040491Y-67100000D01*
X148035000Y-67044248D01*
X148035000Y-66198816D01*
X148215000Y-66198816D01*
X148215000Y-66501184D01*
X148273989Y-66797743D01*
X148389701Y-67077095D01*
X148557688Y-67328505D01*
X148771495Y-67542312D01*
X149022905Y-67710299D01*
X149302257Y-67826011D01*
X149598816Y-67885000D01*
X149901184Y-67885000D01*
X150197743Y-67826011D01*
X150477095Y-67710299D01*
X150728505Y-67542312D01*
X150942312Y-67328505D01*
X151110299Y-67077095D01*
X151226011Y-66797743D01*
X151285000Y-66501184D01*
X151285000Y-66198816D01*
X152715000Y-66198816D01*
X152715000Y-66501184D01*
X152773989Y-66797743D01*
X152889701Y-67077095D01*
X153057688Y-67328505D01*
X153271495Y-67542312D01*
X153522905Y-67710299D01*
X153802257Y-67826011D01*
X154098816Y-67885000D01*
X154401184Y-67885000D01*
X154697743Y-67826011D01*
X154977095Y-67710299D01*
X155228505Y-67542312D01*
X155442312Y-67328505D01*
X155610299Y-67077095D01*
X155726011Y-66797743D01*
X155785000Y-66501184D01*
X155785000Y-66198816D01*
X160215000Y-66198816D01*
X160215000Y-66501184D01*
X160273989Y-66797743D01*
X160389701Y-67077095D01*
X160557688Y-67328505D01*
X160771495Y-67542312D01*
X161022905Y-67710299D01*
X161302257Y-67826011D01*
X161598816Y-67885000D01*
X161901184Y-67885000D01*
X162197743Y-67826011D01*
X162477095Y-67710299D01*
X162728505Y-67542312D01*
X162942312Y-67328505D01*
X163110299Y-67077095D01*
X163226011Y-66797743D01*
X163285000Y-66501184D01*
X163285000Y-66198816D01*
X164715000Y-66198816D01*
X164715000Y-66501184D01*
X164773989Y-66797743D01*
X164889701Y-67077095D01*
X165057688Y-67328505D01*
X165271495Y-67542312D01*
X165522905Y-67710299D01*
X165802257Y-67826011D01*
X166098816Y-67885000D01*
X166401184Y-67885000D01*
X166697743Y-67826011D01*
X166977095Y-67710299D01*
X167228505Y-67542312D01*
X167442312Y-67328505D01*
X167610299Y-67077095D01*
X167726011Y-66797743D01*
X167785000Y-66501184D01*
X167785000Y-66198816D01*
X167726011Y-65902257D01*
X167610299Y-65622905D01*
X167442312Y-65371495D01*
X167228505Y-65157688D01*
X166977095Y-64989701D01*
X166697743Y-64873989D01*
X166401184Y-64815000D01*
X166098816Y-64815000D01*
X165802257Y-64873989D01*
X165522905Y-64989701D01*
X165271495Y-65157688D01*
X165057688Y-65371495D01*
X164889701Y-65622905D01*
X164773989Y-65902257D01*
X164715000Y-66198816D01*
X163285000Y-66198816D01*
X163226011Y-65902257D01*
X163110299Y-65622905D01*
X162942312Y-65371495D01*
X162728505Y-65157688D01*
X162477095Y-64989701D01*
X162197743Y-64873989D01*
X161901184Y-64815000D01*
X161598816Y-64815000D01*
X161302257Y-64873989D01*
X161022905Y-64989701D01*
X160771495Y-65157688D01*
X160557688Y-65371495D01*
X160389701Y-65622905D01*
X160273989Y-65902257D01*
X160215000Y-66198816D01*
X155785000Y-66198816D01*
X155726011Y-65902257D01*
X155610299Y-65622905D01*
X155442312Y-65371495D01*
X155228505Y-65157688D01*
X154977095Y-64989701D01*
X154697743Y-64873989D01*
X154401184Y-64815000D01*
X154098816Y-64815000D01*
X153802257Y-64873989D01*
X153522905Y-64989701D01*
X153271495Y-65157688D01*
X153057688Y-65371495D01*
X152889701Y-65622905D01*
X152773989Y-65902257D01*
X152715000Y-66198816D01*
X151285000Y-66198816D01*
X151226011Y-65902257D01*
X151110299Y-65622905D01*
X150942312Y-65371495D01*
X150728505Y-65157688D01*
X150477095Y-64989701D01*
X150197743Y-64873989D01*
X149901184Y-64815000D01*
X149598816Y-64815000D01*
X149302257Y-64873989D01*
X149022905Y-64989701D01*
X148771495Y-65157688D01*
X148557688Y-65371495D01*
X148389701Y-65622905D01*
X148273989Y-65902257D01*
X148215000Y-66198816D01*
X148035000Y-66198816D01*
X148035000Y-61914080D01*
X148865525Y-61914080D01*
X148949208Y-62168261D01*
X149221775Y-62299158D01*
X149514642Y-62374365D01*
X149816553Y-62390991D01*
X150115907Y-62348397D01*
X150401199Y-62248222D01*
X150550792Y-62168261D01*
X150634475Y-61914080D01*
X149750000Y-61029605D01*
X148865525Y-61914080D01*
X148035000Y-61914080D01*
X148035000Y-60916553D01*
X148209009Y-60916553D01*
X148251603Y-61215907D01*
X148351778Y-61501199D01*
X148431739Y-61650792D01*
X148685920Y-61734475D01*
X149570395Y-60850000D01*
X149929605Y-60850000D01*
X150814080Y-61734475D01*
X151068261Y-61650792D01*
X151199158Y-61378225D01*
X151274365Y-61085358D01*
X151290991Y-60783447D01*
X151278950Y-60698816D01*
X152715000Y-60698816D01*
X152715000Y-61001184D01*
X152773989Y-61297743D01*
X152889701Y-61577095D01*
X153057688Y-61828505D01*
X153271495Y-62042312D01*
X153522905Y-62210299D01*
X153802257Y-62326011D01*
X154098816Y-62385000D01*
X154401184Y-62385000D01*
X154697743Y-62326011D01*
X154977095Y-62210299D01*
X155228505Y-62042312D01*
X155442312Y-61828505D01*
X155610299Y-61577095D01*
X155726011Y-61297743D01*
X155785000Y-61001184D01*
X155785000Y-60698816D01*
X155726011Y-60402257D01*
X155610299Y-60122905D01*
X155442312Y-59871495D01*
X155228505Y-59657688D01*
X154977095Y-59489701D01*
X154697743Y-59373989D01*
X154401184Y-59315000D01*
X154098816Y-59315000D01*
X153802257Y-59373989D01*
X153522905Y-59489701D01*
X153271495Y-59657688D01*
X153057688Y-59871495D01*
X152889701Y-60122905D01*
X152773989Y-60402257D01*
X152715000Y-60698816D01*
X151278950Y-60698816D01*
X151248397Y-60484093D01*
X151148222Y-60198801D01*
X151068261Y-60049208D01*
X150814080Y-59965525D01*
X149929605Y-60850000D01*
X149570395Y-60850000D01*
X148685920Y-59965525D01*
X148431739Y-60049208D01*
X148300842Y-60321775D01*
X148225635Y-60614642D01*
X148209009Y-60916553D01*
X148035000Y-60916553D01*
X148035000Y-59785920D01*
X148865525Y-59785920D01*
X149750000Y-60670395D01*
X150634475Y-59785920D01*
X150550792Y-59531739D01*
X150278225Y-59400842D01*
X149985358Y-59325635D01*
X149683447Y-59309009D01*
X149384093Y-59351603D01*
X149098801Y-59451778D01*
X148949208Y-59531739D01*
X148865525Y-59785920D01*
X148035000Y-59785920D01*
X148035000Y-54198816D01*
X148215000Y-54198816D01*
X148215000Y-54501184D01*
X148273989Y-54797743D01*
X148389701Y-55077095D01*
X148557688Y-55328505D01*
X148771495Y-55542312D01*
X149022905Y-55710299D01*
X149302257Y-55826011D01*
X149598816Y-55885000D01*
X149901184Y-55885000D01*
X150197743Y-55826011D01*
X150477095Y-55710299D01*
X150728505Y-55542312D01*
X150942312Y-55328505D01*
X151110299Y-55077095D01*
X151226011Y-54797743D01*
X151285000Y-54501184D01*
X151285000Y-54198816D01*
X152715000Y-54198816D01*
X152715000Y-54501184D01*
X152773989Y-54797743D01*
X152889701Y-55077095D01*
X153057688Y-55328505D01*
X153271495Y-55542312D01*
X153522905Y-55710299D01*
X153802257Y-55826011D01*
X154098816Y-55885000D01*
X154401184Y-55885000D01*
X154697743Y-55826011D01*
X154977095Y-55710299D01*
X155228505Y-55542312D01*
X155442312Y-55328505D01*
X155610299Y-55077095D01*
X155726011Y-54797743D01*
X155785000Y-54501184D01*
X155785000Y-54198816D01*
X155726011Y-53902257D01*
X155610299Y-53622905D01*
X155442312Y-53371495D01*
X155228505Y-53157688D01*
X154977095Y-52989701D01*
X154697743Y-52873989D01*
X154401184Y-52815000D01*
X154098816Y-52815000D01*
X153802257Y-52873989D01*
X153522905Y-52989701D01*
X153271495Y-53157688D01*
X153057688Y-53371495D01*
X152889701Y-53622905D01*
X152773989Y-53902257D01*
X152715000Y-54198816D01*
X151285000Y-54198816D01*
X151226011Y-53902257D01*
X151110299Y-53622905D01*
X150942312Y-53371495D01*
X150728505Y-53157688D01*
X150477095Y-52989701D01*
X150197743Y-52873989D01*
X149901184Y-52815000D01*
X149598816Y-52815000D01*
X149302257Y-52873989D01*
X149022905Y-52989701D01*
X148771495Y-53157688D01*
X148557688Y-53371495D01*
X148389701Y-53622905D01*
X148273989Y-53902257D01*
X148215000Y-54198816D01*
X148035000Y-54198816D01*
X148035000Y-49914080D01*
X148865525Y-49914080D01*
X148949208Y-50168261D01*
X149221775Y-50299158D01*
X149514642Y-50374365D01*
X149816553Y-50390991D01*
X150115907Y-50348397D01*
X150401199Y-50248222D01*
X150550792Y-50168261D01*
X150634475Y-49914080D01*
X149750000Y-49029605D01*
X148865525Y-49914080D01*
X148035000Y-49914080D01*
X148035000Y-48916553D01*
X148209009Y-48916553D01*
X148251603Y-49215907D01*
X148351778Y-49501199D01*
X148431739Y-49650792D01*
X148685920Y-49734475D01*
X149570395Y-48850000D01*
X149929605Y-48850000D01*
X150814080Y-49734475D01*
X151068261Y-49650792D01*
X151199158Y-49378225D01*
X151274365Y-49085358D01*
X151290991Y-48783447D01*
X151278950Y-48698816D01*
X152715000Y-48698816D01*
X152715000Y-49001184D01*
X152773989Y-49297743D01*
X152889701Y-49577095D01*
X153057688Y-49828505D01*
X153271495Y-50042312D01*
X153522905Y-50210299D01*
X153802257Y-50326011D01*
X154098816Y-50385000D01*
X154401184Y-50385000D01*
X154697743Y-50326011D01*
X154977095Y-50210299D01*
X155228505Y-50042312D01*
X155442312Y-49828505D01*
X155610299Y-49577095D01*
X155726011Y-49297743D01*
X155785000Y-49001184D01*
X155785000Y-48698816D01*
X155726011Y-48402257D01*
X155610299Y-48122905D01*
X155442312Y-47871495D01*
X155228505Y-47657688D01*
X154977095Y-47489701D01*
X154697743Y-47373989D01*
X154401184Y-47315000D01*
X154098816Y-47315000D01*
X153802257Y-47373989D01*
X153522905Y-47489701D01*
X153271495Y-47657688D01*
X153057688Y-47871495D01*
X152889701Y-48122905D01*
X152773989Y-48402257D01*
X152715000Y-48698816D01*
X151278950Y-48698816D01*
X151248397Y-48484093D01*
X151148222Y-48198801D01*
X151068261Y-48049208D01*
X150814080Y-47965525D01*
X149929605Y-48850000D01*
X149570395Y-48850000D01*
X148685920Y-47965525D01*
X148431739Y-48049208D01*
X148300842Y-48321775D01*
X148225635Y-48614642D01*
X148209009Y-48916553D01*
X148035000Y-48916553D01*
X148035000Y-47785920D01*
X148865525Y-47785920D01*
X149750000Y-48670395D01*
X150634475Y-47785920D01*
X150550792Y-47531739D01*
X150278225Y-47400842D01*
X149985358Y-47325635D01*
X149683447Y-47309009D01*
X149384093Y-47351603D01*
X149098801Y-47451778D01*
X148949208Y-47531739D01*
X148865525Y-47785920D01*
X148035000Y-47785920D01*
X148035000Y-44055751D01*
X148040491Y-44000000D01*
X148035000Y-43944248D01*
X148035000Y-42198816D01*
X148215000Y-42198816D01*
X148215000Y-42501184D01*
X148273989Y-42797743D01*
X148389701Y-43077095D01*
X148557688Y-43328505D01*
X148771495Y-43542312D01*
X149022905Y-43710299D01*
X149302257Y-43826011D01*
X149598816Y-43885000D01*
X149901184Y-43885000D01*
X150197743Y-43826011D01*
X150477095Y-43710299D01*
X150728505Y-43542312D01*
X150942312Y-43328505D01*
X151110299Y-43077095D01*
X151226011Y-42797743D01*
X151285000Y-42501184D01*
X151285000Y-42198816D01*
X152715000Y-42198816D01*
X152715000Y-42501184D01*
X152773989Y-42797743D01*
X152889701Y-43077095D01*
X153057688Y-43328505D01*
X153271495Y-43542312D01*
X153522905Y-43710299D01*
X153802257Y-43826011D01*
X154098816Y-43885000D01*
X154401184Y-43885000D01*
X154697743Y-43826011D01*
X154977095Y-43710299D01*
X155228505Y-43542312D01*
X155442312Y-43328505D01*
X155610299Y-43077095D01*
X155726011Y-42797743D01*
X155785000Y-42501184D01*
X155785000Y-42198816D01*
X155726011Y-41902257D01*
X155610299Y-41622905D01*
X155442312Y-41371495D01*
X155228505Y-41157688D01*
X154977095Y-40989701D01*
X154697743Y-40873989D01*
X154401184Y-40815000D01*
X154098816Y-40815000D01*
X153802257Y-40873989D01*
X153522905Y-40989701D01*
X153271495Y-41157688D01*
X153057688Y-41371495D01*
X152889701Y-41622905D01*
X152773989Y-41902257D01*
X152715000Y-42198816D01*
X151285000Y-42198816D01*
X151226011Y-41902257D01*
X151110299Y-41622905D01*
X150942312Y-41371495D01*
X150728505Y-41157688D01*
X150477095Y-40989701D01*
X150197743Y-40873989D01*
X149901184Y-40815000D01*
X149598816Y-40815000D01*
X149302257Y-40873989D01*
X149022905Y-40989701D01*
X148771495Y-41157688D01*
X148557688Y-41371495D01*
X148389701Y-41622905D01*
X148273989Y-41902257D01*
X148215000Y-42198816D01*
X148035000Y-42198816D01*
X148035000Y-37914080D01*
X148865525Y-37914080D01*
X148949208Y-38168261D01*
X149221775Y-38299158D01*
X149514642Y-38374365D01*
X149816553Y-38390991D01*
X150115907Y-38348397D01*
X150401199Y-38248222D01*
X150550792Y-38168261D01*
X150634475Y-37914080D01*
X149750000Y-37029605D01*
X148865525Y-37914080D01*
X148035000Y-37914080D01*
X148035000Y-36916553D01*
X148209009Y-36916553D01*
X148251603Y-37215907D01*
X148351778Y-37501199D01*
X148431739Y-37650792D01*
X148685920Y-37734475D01*
X149570395Y-36850000D01*
X149929605Y-36850000D01*
X150814080Y-37734475D01*
X151068261Y-37650792D01*
X151199158Y-37378225D01*
X151274365Y-37085358D01*
X151290991Y-36783447D01*
X151278950Y-36698816D01*
X152715000Y-36698816D01*
X152715000Y-37001184D01*
X152773989Y-37297743D01*
X152889701Y-37577095D01*
X153057688Y-37828505D01*
X153271495Y-38042312D01*
X153522905Y-38210299D01*
X153802257Y-38326011D01*
X154098816Y-38385000D01*
X154401184Y-38385000D01*
X154697743Y-38326011D01*
X154977095Y-38210299D01*
X155228505Y-38042312D01*
X155442312Y-37828505D01*
X155610299Y-37577095D01*
X155726011Y-37297743D01*
X155785000Y-37001184D01*
X155785000Y-36698816D01*
X155726011Y-36402257D01*
X155610299Y-36122905D01*
X155442312Y-35871495D01*
X155228505Y-35657688D01*
X154977095Y-35489701D01*
X154697743Y-35373989D01*
X154401184Y-35315000D01*
X154098816Y-35315000D01*
X153802257Y-35373989D01*
X153522905Y-35489701D01*
X153271495Y-35657688D01*
X153057688Y-35871495D01*
X152889701Y-36122905D01*
X152773989Y-36402257D01*
X152715000Y-36698816D01*
X151278950Y-36698816D01*
X151248397Y-36484093D01*
X151148222Y-36198801D01*
X151068261Y-36049208D01*
X150814080Y-35965525D01*
X149929605Y-36850000D01*
X149570395Y-36850000D01*
X148685920Y-35965525D01*
X148431739Y-36049208D01*
X148300842Y-36321775D01*
X148225635Y-36614642D01*
X148209009Y-36916553D01*
X148035000Y-36916553D01*
X148035000Y-35785920D01*
X148865525Y-35785920D01*
X149750000Y-36670395D01*
X150634475Y-35785920D01*
X150550792Y-35531739D01*
X150278225Y-35400842D01*
X149985358Y-35325635D01*
X149683447Y-35309009D01*
X149384093Y-35351603D01*
X149098801Y-35451778D01*
X148949208Y-35531739D01*
X148865525Y-35785920D01*
X148035000Y-35785920D01*
X148035000Y-29735000D01*
X148343269Y-29735000D01*
X148273989Y-29902257D01*
X148215000Y-30198816D01*
X148215000Y-30501184D01*
X148273989Y-30797743D01*
X148389701Y-31077095D01*
X148557688Y-31328505D01*
X148771495Y-31542312D01*
X149022905Y-31710299D01*
X149302257Y-31826011D01*
X149598816Y-31885000D01*
X149901184Y-31885000D01*
X150197743Y-31826011D01*
X150477095Y-31710299D01*
X150728505Y-31542312D01*
X150942312Y-31328505D01*
X151110299Y-31077095D01*
X151226011Y-30797743D01*
X151285000Y-30501184D01*
X151285000Y-30198816D01*
X151226011Y-29902257D01*
X151156731Y-29735000D01*
X152843269Y-29735000D01*
X152773989Y-29902257D01*
X152715000Y-30198816D01*
X152715000Y-30501184D01*
X152773989Y-30797743D01*
X152889701Y-31077095D01*
X153057688Y-31328505D01*
X153271495Y-31542312D01*
X153522905Y-31710299D01*
X153802257Y-31826011D01*
X154098816Y-31885000D01*
X154401184Y-31885000D01*
X154697743Y-31826011D01*
X154977095Y-31710299D01*
X155228505Y-31542312D01*
X155442312Y-31328505D01*
X155610299Y-31077095D01*
X155726011Y-30797743D01*
X155785000Y-30501184D01*
X155785000Y-30198816D01*
X155726011Y-29902257D01*
X155656731Y-29735000D01*
X157765000Y-29735000D01*
X157765001Y-40944239D01*
X157765000Y-40944249D01*
X157765001Y-53044239D01*
X157765000Y-53044249D01*
X157765001Y-65055752D01*
X157781424Y-65222499D01*
X157846325Y-65436447D01*
X157951717Y-65633623D01*
X158093552Y-65806449D01*
X158266378Y-65948284D01*
X158463554Y-66053676D01*
X158677502Y-66118577D01*
X158900000Y-66140491D01*
X159122499Y-66118577D01*
X159336447Y-66053676D01*
X159533623Y-65948284D01*
X159706449Y-65806449D01*
X159848284Y-65633623D01*
X159953676Y-65436447D01*
X160018577Y-65222499D01*
X160035000Y-65055752D01*
X160035000Y-61914080D01*
X160865525Y-61914080D01*
X160949208Y-62168261D01*
X161221775Y-62299158D01*
X161514642Y-62374365D01*
X161816553Y-62390991D01*
X162115907Y-62348397D01*
X162401199Y-62248222D01*
X162550792Y-62168261D01*
X162634475Y-61914080D01*
X161750000Y-61029605D01*
X160865525Y-61914080D01*
X160035000Y-61914080D01*
X160035000Y-60916553D01*
X160209009Y-60916553D01*
X160251603Y-61215907D01*
X160351778Y-61501199D01*
X160431739Y-61650792D01*
X160685920Y-61734475D01*
X161570395Y-60850000D01*
X161929605Y-60850000D01*
X162814080Y-61734475D01*
X163068261Y-61650792D01*
X163199158Y-61378225D01*
X163274365Y-61085358D01*
X163290991Y-60783447D01*
X163278950Y-60698816D01*
X164715000Y-60698816D01*
X164715000Y-61001184D01*
X164773989Y-61297743D01*
X164889701Y-61577095D01*
X165057688Y-61828505D01*
X165271495Y-62042312D01*
X165522905Y-62210299D01*
X165802257Y-62326011D01*
X166098816Y-62385000D01*
X166401184Y-62385000D01*
X166697743Y-62326011D01*
X166977095Y-62210299D01*
X167228505Y-62042312D01*
X167442312Y-61828505D01*
X167610299Y-61577095D01*
X167726011Y-61297743D01*
X167785000Y-61001184D01*
X167785000Y-60698816D01*
X167726011Y-60402257D01*
X167610299Y-60122905D01*
X167442312Y-59871495D01*
X167228505Y-59657688D01*
X166977095Y-59489701D01*
X166697743Y-59373989D01*
X166401184Y-59315000D01*
X166098816Y-59315000D01*
X165802257Y-59373989D01*
X165522905Y-59489701D01*
X165271495Y-59657688D01*
X165057688Y-59871495D01*
X164889701Y-60122905D01*
X164773989Y-60402257D01*
X164715000Y-60698816D01*
X163278950Y-60698816D01*
X163248397Y-60484093D01*
X163148222Y-60198801D01*
X163068261Y-60049208D01*
X162814080Y-59965525D01*
X161929605Y-60850000D01*
X161570395Y-60850000D01*
X160685920Y-59965525D01*
X160431739Y-60049208D01*
X160300842Y-60321775D01*
X160225635Y-60614642D01*
X160209009Y-60916553D01*
X160035000Y-60916553D01*
X160035000Y-59785920D01*
X160865525Y-59785920D01*
X161750000Y-60670395D01*
X162634475Y-59785920D01*
X162550792Y-59531739D01*
X162278225Y-59400842D01*
X161985358Y-59325635D01*
X161683447Y-59309009D01*
X161384093Y-59351603D01*
X161098801Y-59451778D01*
X160949208Y-59531739D01*
X160865525Y-59785920D01*
X160035000Y-59785920D01*
X160035000Y-54198816D01*
X160215000Y-54198816D01*
X160215000Y-54501184D01*
X160273989Y-54797743D01*
X160389701Y-55077095D01*
X160557688Y-55328505D01*
X160771495Y-55542312D01*
X161022905Y-55710299D01*
X161302257Y-55826011D01*
X161598816Y-55885000D01*
X161901184Y-55885000D01*
X162197743Y-55826011D01*
X162477095Y-55710299D01*
X162728505Y-55542312D01*
X162942312Y-55328505D01*
X163110299Y-55077095D01*
X163226011Y-54797743D01*
X163285000Y-54501184D01*
X163285000Y-54198816D01*
X164715000Y-54198816D01*
X164715000Y-54501184D01*
X164773989Y-54797743D01*
X164889701Y-55077095D01*
X165057688Y-55328505D01*
X165271495Y-55542312D01*
X165522905Y-55710299D01*
X165802257Y-55826011D01*
X166098816Y-55885000D01*
X166401184Y-55885000D01*
X166697743Y-55826011D01*
X166977095Y-55710299D01*
X167228505Y-55542312D01*
X167442312Y-55328505D01*
X167610299Y-55077095D01*
X167726011Y-54797743D01*
X167785000Y-54501184D01*
X167785000Y-54198816D01*
X167726011Y-53902257D01*
X167610299Y-53622905D01*
X167442312Y-53371495D01*
X167228505Y-53157688D01*
X166977095Y-52989701D01*
X166697743Y-52873989D01*
X166401184Y-52815000D01*
X166098816Y-52815000D01*
X165802257Y-52873989D01*
X165522905Y-52989701D01*
X165271495Y-53157688D01*
X165057688Y-53371495D01*
X164889701Y-53622905D01*
X164773989Y-53902257D01*
X164715000Y-54198816D01*
X163285000Y-54198816D01*
X163226011Y-53902257D01*
X163110299Y-53622905D01*
X162942312Y-53371495D01*
X162728505Y-53157688D01*
X162477095Y-52989701D01*
X162197743Y-52873989D01*
X161901184Y-52815000D01*
X161598816Y-52815000D01*
X161302257Y-52873989D01*
X161022905Y-52989701D01*
X160771495Y-53157688D01*
X160557688Y-53371495D01*
X160389701Y-53622905D01*
X160273989Y-53902257D01*
X160215000Y-54198816D01*
X160035000Y-54198816D01*
X160035000Y-49914080D01*
X160865525Y-49914080D01*
X160949208Y-50168261D01*
X161221775Y-50299158D01*
X161514642Y-50374365D01*
X161816553Y-50390991D01*
X162115907Y-50348397D01*
X162401199Y-50248222D01*
X162550792Y-50168261D01*
X162634475Y-49914080D01*
X161750000Y-49029605D01*
X160865525Y-49914080D01*
X160035000Y-49914080D01*
X160035000Y-48916553D01*
X160209009Y-48916553D01*
X160251603Y-49215907D01*
X160351778Y-49501199D01*
X160431739Y-49650792D01*
X160685920Y-49734475D01*
X161570395Y-48850000D01*
X161929605Y-48850000D01*
X162814080Y-49734475D01*
X163068261Y-49650792D01*
X163199158Y-49378225D01*
X163274365Y-49085358D01*
X163290991Y-48783447D01*
X163278950Y-48698816D01*
X164715000Y-48698816D01*
X164715000Y-49001184D01*
X164773989Y-49297743D01*
X164889701Y-49577095D01*
X165057688Y-49828505D01*
X165271495Y-50042312D01*
X165522905Y-50210299D01*
X165802257Y-50326011D01*
X166098816Y-50385000D01*
X166401184Y-50385000D01*
X166697743Y-50326011D01*
X166977095Y-50210299D01*
X167228505Y-50042312D01*
X167442312Y-49828505D01*
X167610299Y-49577095D01*
X167726011Y-49297743D01*
X167785000Y-49001184D01*
X167785000Y-48698816D01*
X167726011Y-48402257D01*
X167610299Y-48122905D01*
X167442312Y-47871495D01*
X167228505Y-47657688D01*
X166977095Y-47489701D01*
X166697743Y-47373989D01*
X166401184Y-47315000D01*
X166098816Y-47315000D01*
X165802257Y-47373989D01*
X165522905Y-47489701D01*
X165271495Y-47657688D01*
X165057688Y-47871495D01*
X164889701Y-48122905D01*
X164773989Y-48402257D01*
X164715000Y-48698816D01*
X163278950Y-48698816D01*
X163248397Y-48484093D01*
X163148222Y-48198801D01*
X163068261Y-48049208D01*
X162814080Y-47965525D01*
X161929605Y-48850000D01*
X161570395Y-48850000D01*
X160685920Y-47965525D01*
X160431739Y-48049208D01*
X160300842Y-48321775D01*
X160225635Y-48614642D01*
X160209009Y-48916553D01*
X160035000Y-48916553D01*
X160035000Y-47785920D01*
X160865525Y-47785920D01*
X161750000Y-48670395D01*
X162634475Y-47785920D01*
X162550792Y-47531739D01*
X162278225Y-47400842D01*
X161985358Y-47325635D01*
X161683447Y-47309009D01*
X161384093Y-47351603D01*
X161098801Y-47451778D01*
X160949208Y-47531739D01*
X160865525Y-47785920D01*
X160035000Y-47785920D01*
X160035000Y-42198816D01*
X160215000Y-42198816D01*
X160215000Y-42501184D01*
X160273989Y-42797743D01*
X160389701Y-43077095D01*
X160557688Y-43328505D01*
X160771495Y-43542312D01*
X161022905Y-43710299D01*
X161302257Y-43826011D01*
X161598816Y-43885000D01*
X161901184Y-43885000D01*
X162197743Y-43826011D01*
X162477095Y-43710299D01*
X162728505Y-43542312D01*
X162942312Y-43328505D01*
X163110299Y-43077095D01*
X163226011Y-42797743D01*
X163285000Y-42501184D01*
X163285000Y-42198816D01*
X164715000Y-42198816D01*
X164715000Y-42501184D01*
X164773989Y-42797743D01*
X164889701Y-43077095D01*
X165057688Y-43328505D01*
X165271495Y-43542312D01*
X165522905Y-43710299D01*
X165802257Y-43826011D01*
X166098816Y-43885000D01*
X166401184Y-43885000D01*
X166697743Y-43826011D01*
X166977095Y-43710299D01*
X167228505Y-43542312D01*
X167442312Y-43328505D01*
X167610299Y-43077095D01*
X167726011Y-42797743D01*
X167785000Y-42501184D01*
X167785000Y-42198816D01*
X167726011Y-41902257D01*
X167610299Y-41622905D01*
X167442312Y-41371495D01*
X167228505Y-41157688D01*
X166977095Y-40989701D01*
X166697743Y-40873989D01*
X166401184Y-40815000D01*
X166098816Y-40815000D01*
X165802257Y-40873989D01*
X165522905Y-40989701D01*
X165271495Y-41157688D01*
X165057688Y-41371495D01*
X164889701Y-41622905D01*
X164773989Y-41902257D01*
X164715000Y-42198816D01*
X163285000Y-42198816D01*
X163226011Y-41902257D01*
X163110299Y-41622905D01*
X162942312Y-41371495D01*
X162728505Y-41157688D01*
X162477095Y-40989701D01*
X162197743Y-40873989D01*
X161901184Y-40815000D01*
X161598816Y-40815000D01*
X161302257Y-40873989D01*
X161022905Y-40989701D01*
X160771495Y-41157688D01*
X160557688Y-41371495D01*
X160389701Y-41622905D01*
X160273989Y-41902257D01*
X160215000Y-42198816D01*
X160035000Y-42198816D01*
X160035000Y-37914080D01*
X160865525Y-37914080D01*
X160949208Y-38168261D01*
X161221775Y-38299158D01*
X161514642Y-38374365D01*
X161816553Y-38390991D01*
X162115907Y-38348397D01*
X162401199Y-38248222D01*
X162550792Y-38168261D01*
X162634475Y-37914080D01*
X161750000Y-37029605D01*
X160865525Y-37914080D01*
X160035000Y-37914080D01*
X160035000Y-36916553D01*
X160209009Y-36916553D01*
X160251603Y-37215907D01*
X160351778Y-37501199D01*
X160431739Y-37650792D01*
X160685920Y-37734475D01*
X161570395Y-36850000D01*
X161929605Y-36850000D01*
X162814080Y-37734475D01*
X163068261Y-37650792D01*
X163199158Y-37378225D01*
X163274365Y-37085358D01*
X163290991Y-36783447D01*
X163278950Y-36698816D01*
X164715000Y-36698816D01*
X164715000Y-37001184D01*
X164773989Y-37297743D01*
X164889701Y-37577095D01*
X165057688Y-37828505D01*
X165271495Y-38042312D01*
X165522905Y-38210299D01*
X165802257Y-38326011D01*
X166098816Y-38385000D01*
X166401184Y-38385000D01*
X166697743Y-38326011D01*
X166977095Y-38210299D01*
X167228505Y-38042312D01*
X167442312Y-37828505D01*
X167610299Y-37577095D01*
X167726011Y-37297743D01*
X167785000Y-37001184D01*
X167785000Y-36698816D01*
X167726011Y-36402257D01*
X167610299Y-36122905D01*
X167442312Y-35871495D01*
X167228505Y-35657688D01*
X166977095Y-35489701D01*
X166697743Y-35373989D01*
X166401184Y-35315000D01*
X166098816Y-35315000D01*
X165802257Y-35373989D01*
X165522905Y-35489701D01*
X165271495Y-35657688D01*
X165057688Y-35871495D01*
X164889701Y-36122905D01*
X164773989Y-36402257D01*
X164715000Y-36698816D01*
X163278950Y-36698816D01*
X163248397Y-36484093D01*
X163148222Y-36198801D01*
X163068261Y-36049208D01*
X162814080Y-35965525D01*
X161929605Y-36850000D01*
X161570395Y-36850000D01*
X160685920Y-35965525D01*
X160431739Y-36049208D01*
X160300842Y-36321775D01*
X160225635Y-36614642D01*
X160209009Y-36916553D01*
X160035000Y-36916553D01*
X160035000Y-35785920D01*
X160865525Y-35785920D01*
X161750000Y-36670395D01*
X162634475Y-35785920D01*
X162550792Y-35531739D01*
X162278225Y-35400842D01*
X161985358Y-35325635D01*
X161683447Y-35309009D01*
X161384093Y-35351603D01*
X161098801Y-35451778D01*
X160949208Y-35531739D01*
X160865525Y-35785920D01*
X160035000Y-35785920D01*
X160035000Y-29735000D01*
X160343269Y-29735000D01*
X160273989Y-29902257D01*
X160215000Y-30198816D01*
X160215000Y-30501184D01*
X160273989Y-30797743D01*
X160389701Y-31077095D01*
X160557688Y-31328505D01*
X160771495Y-31542312D01*
X161022905Y-31710299D01*
X161302257Y-31826011D01*
X161598816Y-31885000D01*
X161901184Y-31885000D01*
X162197743Y-31826011D01*
X162477095Y-31710299D01*
X162728505Y-31542312D01*
X162942312Y-31328505D01*
X163110299Y-31077095D01*
X163226011Y-30797743D01*
X163285000Y-30501184D01*
X163285000Y-30198816D01*
X163226011Y-29902257D01*
X163156731Y-29735000D01*
X164843269Y-29735000D01*
X164773989Y-29902257D01*
X164715000Y-30198816D01*
X164715000Y-30501184D01*
X164773989Y-30797743D01*
X164889701Y-31077095D01*
X165057688Y-31328505D01*
X165271495Y-31542312D01*
X165522905Y-31710299D01*
X165802257Y-31826011D01*
X166098816Y-31885000D01*
X166401184Y-31885000D01*
X166697743Y-31826011D01*
X166977095Y-31710299D01*
X167228505Y-31542312D01*
X167442312Y-31328505D01*
X167610299Y-31077095D01*
X167726011Y-30797743D01*
X167785000Y-30501184D01*
X167785000Y-30198816D01*
X167726011Y-29902257D01*
X167656731Y-29735000D01*
X169765001Y-29735000D01*
X169765000Y-41155751D01*
X169765001Y-41155761D01*
X169765000Y-53255751D01*
X169765001Y-53255761D01*
X169765000Y-65155751D01*
X169781423Y-65322498D01*
X169846324Y-65536446D01*
X169951716Y-65733623D01*
X170093551Y-65906449D01*
X170266377Y-66048284D01*
X170463553Y-66153676D01*
X170677501Y-66218577D01*
X170900000Y-66240491D01*
X171122498Y-66218577D01*
X171336446Y-66153676D01*
X171533623Y-66048284D01*
X171706449Y-65906449D01*
X171848284Y-65733623D01*
X171953676Y-65536447D01*
X172018577Y-65322499D01*
X172035000Y-65155752D01*
X172035000Y-30804495D01*
X173015000Y-30804495D01*
X173015000Y-31195505D01*
X173091282Y-31579003D01*
X173240915Y-31940250D01*
X173458149Y-32265364D01*
X173734636Y-32541851D01*
X174059750Y-32759085D01*
X174420997Y-32908718D01*
X174804495Y-32985000D01*
X175195505Y-32985000D01*
X175579003Y-32908718D01*
X175940250Y-32759085D01*
X176265364Y-32541851D01*
X176541851Y-32265364D01*
X176759085Y-31940250D01*
X176908718Y-31579003D01*
X176985000Y-31195505D01*
X176985000Y-30804495D01*
X176908718Y-30420997D01*
X176759085Y-30059750D01*
X176541851Y-29734636D01*
X176265364Y-29458149D01*
X175940250Y-29240915D01*
X175579003Y-29091282D01*
X175195505Y-29015000D01*
X174804495Y-29015000D01*
X174420997Y-29091282D01*
X174059750Y-29240915D01*
X173734636Y-29458149D01*
X173458149Y-29734636D01*
X173240915Y-30059750D01*
X173091282Y-30420997D01*
X173015000Y-30804495D01*
X172035000Y-30804495D01*
X172035000Y-28855752D01*
X172040491Y-28800000D01*
X172018577Y-28577502D01*
X172018577Y-28577501D01*
X171953676Y-28363553D01*
X171848284Y-28166377D01*
X171706449Y-27993551D01*
X171663139Y-27958007D01*
X171541995Y-27836863D01*
X171506449Y-27793551D01*
X171333623Y-27651716D01*
X171136447Y-27546324D01*
X170922499Y-27481423D01*
X170755752Y-27465000D01*
X170755751Y-27465000D01*
X170700000Y-27459509D01*
X170644249Y-27465000D01*
X158955751Y-27465000D01*
X158900000Y-27459509D01*
X158844248Y-27465000D01*
X147055741Y-27465000D01*
X146999999Y-27459510D01*
X146944258Y-27465000D01*
X113755751Y-27465000D01*
X113700000Y-27459509D01*
X113644249Y-27465000D01*
X99655751Y-27465000D01*
X99599999Y-27459509D01*
X99377500Y-27481423D01*
X99327705Y-27496529D01*
X99163553Y-27546324D01*
X98966377Y-27651716D01*
X98793551Y-27793551D01*
X98758009Y-27836860D01*
X97148397Y-29446472D01*
X96993551Y-29573551D01*
X96851716Y-29746377D01*
X96746324Y-29943553D01*
X96681423Y-30157501D01*
X96659509Y-30380000D01*
X96660494Y-30390000D01*
X96659509Y-30400000D01*
X96665001Y-30455761D01*
X96665000Y-37184115D01*
X96561995Y-37338273D01*
X96456686Y-37592510D01*
X96403000Y-37862408D01*
X96403000Y-38137592D01*
X96456686Y-38407490D01*
X96510478Y-38537355D01*
X96500000Y-38536323D01*
X96462667Y-38540000D01*
X96351014Y-38550997D01*
X96207753Y-38594454D01*
X96075724Y-38665026D01*
X95959999Y-38759999D01*
X95936201Y-38788997D01*
X94989002Y-39736196D01*
X94959999Y-39759999D01*
X94909921Y-39821020D01*
X94865026Y-39875724D01*
X94820242Y-39959509D01*
X94794454Y-40007754D01*
X94750997Y-40151015D01*
X94740000Y-40262668D01*
X94740000Y-40262678D01*
X94736324Y-40300000D01*
X94740000Y-40337323D01*
X94740000Y-42565199D01*
X94363803Y-42189002D01*
X94340001Y-42159999D01*
X94224276Y-42065026D01*
X94092247Y-41994454D01*
X93948986Y-41950997D01*
X93837333Y-41940000D01*
X93837322Y-41940000D01*
X93800000Y-41936324D01*
X93762678Y-41940000D01*
X93514206Y-41940000D01*
X93511060Y-41934114D01*
X93551185Y-41901185D01*
X93630537Y-41804494D01*
X93689502Y-41694180D01*
X93725812Y-41574482D01*
X93738072Y-41450000D01*
X93735000Y-40985750D01*
X93576250Y-40827000D01*
X91977000Y-40827000D01*
X91977000Y-40847000D01*
X91723000Y-40847000D01*
X91723000Y-40827000D01*
X90123750Y-40827000D01*
X89965000Y-40985750D01*
X89961928Y-41450000D01*
X89974188Y-41574482D01*
X90010498Y-41694180D01*
X90069463Y-41804494D01*
X90148815Y-41901185D01*
X90188940Y-41934114D01*
X90064236Y-42167419D01*
X89985040Y-42428493D01*
X89958299Y-42700000D01*
X89985040Y-42971507D01*
X90064236Y-43232581D01*
X90192843Y-43473188D01*
X90365919Y-43684081D01*
X90385316Y-43700000D01*
X90365919Y-43715919D01*
X90192843Y-43926812D01*
X90064236Y-44167419D01*
X89985040Y-44428493D01*
X89958299Y-44700000D01*
X89985040Y-44971507D01*
X90064236Y-45232581D01*
X90158994Y-45409861D01*
X89967234Y-45567234D01*
X89750421Y-45831422D01*
X89589314Y-46132832D01*
X89490105Y-46459881D01*
X89456606Y-46800000D01*
X89490105Y-47140119D01*
X89589314Y-47467168D01*
X89750421Y-47768578D01*
X89967234Y-48032766D01*
X90231422Y-48249579D01*
X90532832Y-48410686D01*
X90859881Y-48509895D01*
X91114775Y-48535000D01*
X92585225Y-48535000D01*
X92840119Y-48509895D01*
X93167168Y-48410686D01*
X93468578Y-48249579D01*
X93650001Y-48100690D01*
X93650001Y-49812668D01*
X93646324Y-49850000D01*
X93650001Y-49887333D01*
X93660998Y-49998986D01*
X93672915Y-50038273D01*
X93704454Y-50142246D01*
X93775026Y-50274276D01*
X93829175Y-50340256D01*
X93870000Y-50390001D01*
X93898998Y-50413799D01*
X96433628Y-52948430D01*
X96403000Y-53102408D01*
X96403000Y-53377592D01*
X96456686Y-53647490D01*
X96498802Y-53749168D01*
X96405553Y-53777454D01*
X96273523Y-53848026D01*
X96202335Y-53906449D01*
X96157799Y-53942999D01*
X96134001Y-53971997D01*
X95119998Y-54986001D01*
X95091000Y-55009799D01*
X95067202Y-55038797D01*
X95067201Y-55038798D01*
X94996026Y-55125524D01*
X94925454Y-55257554D01*
X94881998Y-55400815D01*
X94867324Y-55549800D01*
X94871001Y-55587132D01*
X94871000Y-61430677D01*
X94867324Y-61468000D01*
X94871000Y-61505322D01*
X94871000Y-61505332D01*
X94881997Y-61616985D01*
X94894812Y-61659231D01*
X94789898Y-61615774D01*
X94589939Y-61576000D01*
X94386061Y-61576000D01*
X94186102Y-61615774D01*
X93997744Y-61693795D01*
X93828226Y-61807063D01*
X93684063Y-61951226D01*
X93570795Y-62120744D01*
X93492774Y-62309102D01*
X93453000Y-62509061D01*
X93453000Y-62712939D01*
X93492774Y-62912898D01*
X93570795Y-63101256D01*
X93684063Y-63270774D01*
X93828226Y-63414937D01*
X93997744Y-63528205D01*
X94186102Y-63606226D01*
X94386061Y-63646000D01*
X94431199Y-63646000D01*
X94658199Y-63873000D01*
X89160000Y-63873000D01*
X89160000Y-38600000D01*
X89456606Y-38600000D01*
X89490105Y-38940119D01*
X89589314Y-39267168D01*
X89750421Y-39568578D01*
X89967234Y-39832766D01*
X89973008Y-39837504D01*
X89961928Y-39950000D01*
X89965000Y-40414250D01*
X90123750Y-40573000D01*
X91723000Y-40573000D01*
X91723000Y-40553000D01*
X91977000Y-40553000D01*
X91977000Y-40573000D01*
X93576250Y-40573000D01*
X93735000Y-40414250D01*
X93738072Y-39950000D01*
X93726992Y-39837504D01*
X93732766Y-39832766D01*
X93949579Y-39568578D01*
X94110686Y-39267168D01*
X94209895Y-38940119D01*
X94243394Y-38600000D01*
X94209895Y-38259881D01*
X94110686Y-37932832D01*
X93949579Y-37631422D01*
X93732766Y-37367234D01*
X93468578Y-37150421D01*
X93167168Y-36989314D01*
X92840119Y-36890105D01*
X92585225Y-36865000D01*
X91114775Y-36865000D01*
X90859881Y-36890105D01*
X90532832Y-36989314D01*
X90231422Y-37150421D01*
X89967234Y-37367234D01*
X89750421Y-37631422D01*
X89589314Y-37932832D01*
X89490105Y-38259881D01*
X89456606Y-38600000D01*
X89160000Y-38600000D01*
X89160000Y-30804495D01*
X90515000Y-30804495D01*
X90515000Y-31195505D01*
X90591282Y-31579003D01*
X90740915Y-31940250D01*
X90958149Y-32265364D01*
X91234636Y-32541851D01*
X91559750Y-32759085D01*
X91920997Y-32908718D01*
X92304495Y-32985000D01*
X92695505Y-32985000D01*
X93079003Y-32908718D01*
X93440250Y-32759085D01*
X93765364Y-32541851D01*
X94041851Y-32265364D01*
X94259085Y-31940250D01*
X94408718Y-31579003D01*
X94485000Y-31195505D01*
X94485000Y-30804495D01*
X94408718Y-30420997D01*
X94259085Y-30059750D01*
X94041851Y-29734636D01*
X93765364Y-29458149D01*
X93440250Y-29240915D01*
X93079003Y-29091282D01*
X92695505Y-29015000D01*
X92304495Y-29015000D01*
X91920997Y-29091282D01*
X91559750Y-29240915D01*
X91234636Y-29458149D01*
X90958149Y-29734636D01*
X90740915Y-30059750D01*
X90591282Y-30420997D01*
X90515000Y-30804495D01*
X89160000Y-30804495D01*
X89160000Y-27160000D01*
X178840000Y-27160000D01*
X178840000Y-41441550D01*
G37*
%TD.AperFunction*%
D20*
X100773989Y-29902257D02*
X100715000Y-30198816D01*
X100715000Y-30501184D01*
X100773989Y-30797743D01*
X100889701Y-31077095D01*
X101057688Y-31328505D01*
X101271495Y-31542312D01*
X101522905Y-31710299D01*
X101802257Y-31826011D01*
X102098816Y-31885000D01*
X102401184Y-31885000D01*
X102697743Y-31826011D01*
X102977095Y-31710299D01*
X103228505Y-31542312D01*
X103442312Y-31328505D01*
X103610299Y-31077095D01*
X103726011Y-30797743D01*
X103785000Y-30501184D01*
X103785000Y-30198816D01*
X103726011Y-29902257D01*
X103656731Y-29735000D01*
X105343269Y-29735000D01*
X105273989Y-29902257D01*
X105215000Y-30198816D01*
X105215000Y-30501184D01*
X105273989Y-30797743D01*
X105389701Y-31077095D01*
X105557688Y-31328505D01*
X105771495Y-31542312D01*
X106022905Y-31710299D01*
X106302257Y-31826011D01*
X106598816Y-31885000D01*
X106901184Y-31885000D01*
X107197743Y-31826011D01*
X107477095Y-31710299D01*
X107728505Y-31542312D01*
X107942312Y-31328505D01*
X108110299Y-31077095D01*
X108226011Y-30797743D01*
X108285000Y-30501184D01*
X108285000Y-30198816D01*
X108226011Y-29902257D01*
X108156731Y-29735000D01*
X113065000Y-29735000D01*
X113065001Y-46744238D01*
X113059509Y-46800000D01*
X113081423Y-47022498D01*
X113146324Y-47236446D01*
X113163973Y-47269465D01*
X113251717Y-47433623D01*
X113393552Y-47606449D01*
X113436860Y-47641991D01*
X113765000Y-47970131D01*
X113765001Y-50729868D01*
X113729869Y-50765000D01*
X113355741Y-50765000D01*
X113299999Y-50759510D01*
X113244257Y-50765000D01*
X113244248Y-50765000D01*
X113077501Y-50781423D01*
X112863553Y-50846324D01*
X112666377Y-50951716D01*
X112493551Y-51093551D01*
X112458011Y-51136857D01*
X111860000Y-51734869D01*
X111860000Y-50703711D01*
X111903937Y-50659774D01*
X112017205Y-50490256D01*
X112095226Y-50301898D01*
X112135000Y-50101939D01*
X112135000Y-49898061D01*
X112095226Y-49698102D01*
X112017205Y-49509744D01*
X111903937Y-49340226D01*
X111759774Y-49196063D01*
X111590256Y-49082795D01*
X111401898Y-49004774D01*
X111201939Y-48965000D01*
X110998061Y-48965000D01*
X110798102Y-49004774D01*
X110609744Y-49082795D01*
X110571836Y-49108125D01*
X110509774Y-49046063D01*
X110340256Y-48932795D01*
X110151898Y-48854774D01*
X109951939Y-48815000D01*
X109748061Y-48815000D01*
X109548102Y-48854774D01*
X109359744Y-48932795D01*
X109190226Y-49046063D01*
X109096289Y-49140000D01*
X105403711Y-49140000D01*
X105359774Y-49096063D01*
X105190256Y-48982795D01*
X105001898Y-48904774D01*
X104801939Y-48865000D01*
X104598061Y-48865000D01*
X104398102Y-48904774D01*
X104209744Y-48982795D01*
X104040226Y-49096063D01*
X103896063Y-49240226D01*
X103782795Y-49409744D01*
X103704774Y-49598102D01*
X103665000Y-49798061D01*
X103665000Y-50001939D01*
X103704774Y-50201898D01*
X103782795Y-50390256D01*
X103896063Y-50559774D01*
X104040226Y-50703937D01*
X104209744Y-50817205D01*
X104398102Y-50895226D01*
X104598061Y-50935000D01*
X104801939Y-50935000D01*
X105001898Y-50895226D01*
X105190256Y-50817205D01*
X105359774Y-50703937D01*
X105403711Y-50660000D01*
X107620556Y-50660000D01*
X107604774Y-50698102D01*
X107565000Y-50898061D01*
X107565000Y-51101939D01*
X107604774Y-51301898D01*
X107682795Y-51490256D01*
X107796063Y-51659774D01*
X107840000Y-51703711D01*
X107840000Y-53259548D01*
X107750422Y-53169970D01*
X107634474Y-53285918D01*
X107550792Y-53031739D01*
X107278225Y-52900842D01*
X106985358Y-52825635D01*
X106683447Y-52809009D01*
X106384093Y-52851603D01*
X106098801Y-52951778D01*
X105949208Y-53031739D01*
X105865525Y-53285920D01*
X106750000Y-54170395D01*
X106764143Y-54156253D01*
X106943748Y-54335858D01*
X106929605Y-54350000D01*
X106943748Y-54364143D01*
X106764143Y-54543748D01*
X106750000Y-54529605D01*
X105865525Y-55414080D01*
X105949208Y-55668261D01*
X106221775Y-55799158D01*
X106514642Y-55874365D01*
X106816553Y-55890991D01*
X107115907Y-55848397D01*
X107401199Y-55748222D01*
X107550792Y-55668261D01*
X107634474Y-55414082D01*
X107750422Y-55530030D01*
X107840000Y-55440452D01*
X107840001Y-59769184D01*
X107728505Y-59657688D01*
X107477095Y-59489701D01*
X107197743Y-59373989D01*
X106901184Y-59315000D01*
X106598816Y-59315000D01*
X106302257Y-59373989D01*
X106022905Y-59489701D01*
X105771495Y-59657688D01*
X105557688Y-59871495D01*
X105389701Y-60122905D01*
X105273989Y-60402257D01*
X105215000Y-60698816D01*
X105215000Y-61001184D01*
X105273989Y-61297743D01*
X105389701Y-61577095D01*
X105557688Y-61828505D01*
X105771495Y-62042312D01*
X106022905Y-62210299D01*
X106302257Y-62326011D01*
X106598816Y-62385000D01*
X106901184Y-62385000D01*
X107197743Y-62326011D01*
X107477095Y-62210299D01*
X107728505Y-62042312D01*
X107840001Y-61930816D01*
X107840001Y-62596288D01*
X107796063Y-62640226D01*
X107682795Y-62809744D01*
X107604774Y-62998102D01*
X107565000Y-63198061D01*
X107565000Y-63401939D01*
X107604774Y-63601898D01*
X107682795Y-63790256D01*
X107738083Y-63873000D01*
X100560000Y-63873000D01*
X100560000Y-60698816D01*
X100715000Y-60698816D01*
X100715000Y-61001184D01*
X100773989Y-61297743D01*
X100889701Y-61577095D01*
X101057688Y-61828505D01*
X101271495Y-62042312D01*
X101522905Y-62210299D01*
X101802257Y-62326011D01*
X102098816Y-62385000D01*
X102401184Y-62385000D01*
X102697743Y-62326011D01*
X102977095Y-62210299D01*
X103228505Y-62042312D01*
X103442312Y-61828505D01*
X103610299Y-61577095D01*
X103726011Y-61297743D01*
X103785000Y-61001184D01*
X103785000Y-60698816D01*
X103726011Y-60402257D01*
X103610299Y-60122905D01*
X103442312Y-59871495D01*
X103228505Y-59657688D01*
X102977095Y-59489701D01*
X102697743Y-59373989D01*
X102401184Y-59315000D01*
X102098816Y-59315000D01*
X101802257Y-59373989D01*
X101522905Y-59489701D01*
X101271495Y-59657688D01*
X101057688Y-59871495D01*
X100889701Y-60122905D01*
X100773989Y-60402257D01*
X100715000Y-60698816D01*
X100560000Y-60698816D01*
X100560000Y-60337323D01*
X100563676Y-60300000D01*
X100560000Y-60262677D01*
X100560000Y-60262667D01*
X100549003Y-60151014D01*
X100505546Y-60007753D01*
X100434974Y-59875724D01*
X100340001Y-59759999D01*
X100311004Y-59736202D01*
X99169690Y-58594889D01*
X99197000Y-58457592D01*
X99197000Y-58182408D01*
X99143314Y-57912510D01*
X99038005Y-57658273D01*
X98885120Y-57429465D01*
X98690535Y-57234880D01*
X98461727Y-57081995D01*
X98384485Y-57050000D01*
X98461727Y-57018005D01*
X98690535Y-56865120D01*
X98885120Y-56670535D01*
X99038005Y-56441727D01*
X99143314Y-56187490D01*
X99197000Y-55917592D01*
X99197000Y-55642408D01*
X99143314Y-55372510D01*
X99040527Y-55124361D01*
X99052476Y-55117974D01*
X99168201Y-55023001D01*
X99192003Y-54993998D01*
X99825004Y-54360998D01*
X99854001Y-54337201D01*
X99948974Y-54221476D01*
X99961086Y-54198816D01*
X100715000Y-54198816D01*
X100715000Y-54501184D01*
X100773989Y-54797743D01*
X100889701Y-55077095D01*
X101057688Y-55328505D01*
X101271495Y-55542312D01*
X101522905Y-55710299D01*
X101802257Y-55826011D01*
X102098816Y-55885000D01*
X102401184Y-55885000D01*
X102697743Y-55826011D01*
X102977095Y-55710299D01*
X103228505Y-55542312D01*
X103442312Y-55328505D01*
X103610299Y-55077095D01*
X103726011Y-54797743D01*
X103785000Y-54501184D01*
X103785000Y-54416553D01*
X105209009Y-54416553D01*
X105251603Y-54715907D01*
X105351778Y-55001199D01*
X105431739Y-55150792D01*
X105685920Y-55234475D01*
X106570395Y-54350000D01*
X105685920Y-53465525D01*
X105431739Y-53549208D01*
X105300842Y-53821775D01*
X105225635Y-54114642D01*
X105209009Y-54416553D01*
X103785000Y-54416553D01*
X103785000Y-54198816D01*
X103726011Y-53902257D01*
X103610299Y-53622905D01*
X103442312Y-53371495D01*
X103228505Y-53157688D01*
X102977095Y-52989701D01*
X102697743Y-52873989D01*
X102401184Y-52815000D01*
X102098816Y-52815000D01*
X101802257Y-52873989D01*
X101522905Y-52989701D01*
X101271495Y-53157688D01*
X101057688Y-53371495D01*
X100889701Y-53622905D01*
X100773989Y-53902257D01*
X100715000Y-54198816D01*
X99961086Y-54198816D01*
X100019546Y-54089447D01*
X100063003Y-53946186D01*
X100074000Y-53834533D01*
X100074000Y-53834525D01*
X100077676Y-53797200D01*
X100074000Y-53759875D01*
X100074000Y-52740401D01*
X104154402Y-48660000D01*
X107196289Y-48660000D01*
X107240226Y-48703937D01*
X107409744Y-48817205D01*
X107598102Y-48895226D01*
X107798061Y-48935000D01*
X108001939Y-48935000D01*
X108201898Y-48895226D01*
X108390256Y-48817205D01*
X108559774Y-48703937D01*
X108703937Y-48559774D01*
X108817205Y-48390256D01*
X108895226Y-48201898D01*
X108935000Y-48001939D01*
X108935000Y-47798061D01*
X108895226Y-47598102D01*
X108817205Y-47409744D01*
X108703937Y-47240226D01*
X108559774Y-47096063D01*
X108390256Y-46982795D01*
X108201898Y-46904774D01*
X108001939Y-46865000D01*
X107798061Y-46865000D01*
X107598102Y-46904774D01*
X107409744Y-46982795D01*
X107240226Y-47096063D01*
X107196289Y-47140000D01*
X103876923Y-47140000D01*
X103839600Y-47136324D01*
X103802277Y-47140000D01*
X103802267Y-47140000D01*
X103690614Y-47150997D01*
X103547353Y-47194454D01*
X103415323Y-47265026D01*
X103354430Y-47315000D01*
X103299599Y-47359999D01*
X103275801Y-47388997D01*
X98802998Y-51861801D01*
X98774000Y-51885599D01*
X98750202Y-51914597D01*
X98750201Y-51914598D01*
X98679026Y-52001324D01*
X98621577Y-52108803D01*
X98461727Y-52001995D01*
X98384485Y-51970000D01*
X98461727Y-51938005D01*
X98690535Y-51785120D01*
X98885120Y-51590535D01*
X99038005Y-51361727D01*
X99143314Y-51107490D01*
X99197000Y-50837592D01*
X99197000Y-50562408D01*
X99143314Y-50292510D01*
X99038005Y-50038273D01*
X98885120Y-49809465D01*
X98690535Y-49614880D01*
X98461727Y-49461995D01*
X98384485Y-49430000D01*
X98461727Y-49398005D01*
X98690535Y-49245120D01*
X98885120Y-49050535D01*
X99038005Y-48821727D01*
X99143314Y-48567490D01*
X99197000Y-48297592D01*
X99197000Y-48022408D01*
X99143314Y-47752510D01*
X99038005Y-47498273D01*
X98885120Y-47269465D01*
X98690535Y-47074880D01*
X98461727Y-46921995D01*
X98384485Y-46890000D01*
X98461727Y-46858005D01*
X98690535Y-46705120D01*
X98885120Y-46510535D01*
X99038005Y-46281727D01*
X99143314Y-46027490D01*
X99197000Y-45757592D01*
X99197000Y-45482408D01*
X99143314Y-45212510D01*
X99038005Y-44958273D01*
X98885120Y-44729465D01*
X98690535Y-44534880D01*
X98461727Y-44381995D01*
X98384485Y-44350000D01*
X98461727Y-44318005D01*
X98690535Y-44165120D01*
X98885120Y-43970535D01*
X98972341Y-43840000D01*
X99182678Y-43840000D01*
X99220000Y-43843676D01*
X99257322Y-43840000D01*
X99257333Y-43840000D01*
X99368986Y-43829003D01*
X99512247Y-43785546D01*
X99644276Y-43714974D01*
X99760001Y-43620001D01*
X99783804Y-43590997D01*
X102114802Y-41260000D01*
X109596289Y-41260000D01*
X109640226Y-41303937D01*
X109809744Y-41417205D01*
X109998102Y-41495226D01*
X110198061Y-41535000D01*
X110401939Y-41535000D01*
X110601898Y-41495226D01*
X110790256Y-41417205D01*
X110889935Y-41350602D01*
X110896063Y-41359774D01*
X111040226Y-41503937D01*
X111209744Y-41617205D01*
X111398102Y-41695226D01*
X111598061Y-41735000D01*
X111801939Y-41735000D01*
X112001898Y-41695226D01*
X112190256Y-41617205D01*
X112359774Y-41503937D01*
X112503937Y-41359774D01*
X112617205Y-41190256D01*
X112695226Y-41001898D01*
X112735000Y-40801939D01*
X112735000Y-40598061D01*
X112695226Y-40398102D01*
X112617205Y-40209744D01*
X112503937Y-40040226D01*
X112359774Y-39896063D01*
X112190256Y-39782795D01*
X112001898Y-39704774D01*
X111801939Y-39665000D01*
X111739802Y-39665000D01*
X110863804Y-38789003D01*
X110840001Y-38759999D01*
X110724276Y-38665026D01*
X110592247Y-38594454D01*
X110448986Y-38550997D01*
X110337333Y-38540000D01*
X110337322Y-38540000D01*
X110300000Y-38536324D01*
X110262678Y-38540000D01*
X99088426Y-38540000D01*
X99143314Y-38407490D01*
X99197000Y-38137592D01*
X99197000Y-37914080D01*
X101365525Y-37914080D01*
X101449208Y-38168261D01*
X101721775Y-38299158D01*
X102014642Y-38374365D01*
X102316553Y-38390991D01*
X102615907Y-38348397D01*
X102901199Y-38248222D01*
X103050792Y-38168261D01*
X103134475Y-37914080D01*
X102250000Y-37029605D01*
X101365525Y-37914080D01*
X99197000Y-37914080D01*
X99197000Y-37862408D01*
X99143314Y-37592510D01*
X99038005Y-37338273D01*
X98935000Y-37184116D01*
X98935000Y-36916553D01*
X100709009Y-36916553D01*
X100751603Y-37215907D01*
X100851778Y-37501199D01*
X100931739Y-37650792D01*
X101185920Y-37734475D01*
X102070395Y-36850000D01*
X102429605Y-36850000D01*
X103314080Y-37734475D01*
X103568261Y-37650792D01*
X103699158Y-37378225D01*
X103774365Y-37085358D01*
X103790991Y-36783447D01*
X103778950Y-36698816D01*
X105215000Y-36698816D01*
X105215000Y-37001184D01*
X105273989Y-37297743D01*
X105389701Y-37577095D01*
X105557688Y-37828505D01*
X105771495Y-38042312D01*
X106022905Y-38210299D01*
X106302257Y-38326011D01*
X106598816Y-38385000D01*
X106901184Y-38385000D01*
X107197743Y-38326011D01*
X107477095Y-38210299D01*
X107728505Y-38042312D01*
X107942312Y-37828505D01*
X108110299Y-37577095D01*
X108226011Y-37297743D01*
X108285000Y-37001184D01*
X108285000Y-36698816D01*
X108226011Y-36402257D01*
X108110299Y-36122905D01*
X107942312Y-35871495D01*
X107728505Y-35657688D01*
X107477095Y-35489701D01*
X107197743Y-35373989D01*
X106901184Y-35315000D01*
X106598816Y-35315000D01*
X106302257Y-35373989D01*
X106022905Y-35489701D01*
X105771495Y-35657688D01*
X105557688Y-35871495D01*
X105389701Y-36122905D01*
X105273989Y-36402257D01*
X105215000Y-36698816D01*
X103778950Y-36698816D01*
X103748397Y-36484093D01*
X103648222Y-36198801D01*
X103568261Y-36049208D01*
X103314080Y-35965525D01*
X102429605Y-36850000D01*
X102070395Y-36850000D01*
X101185920Y-35965525D01*
X100931739Y-36049208D01*
X100800842Y-36321775D01*
X100725635Y-36614642D01*
X100709009Y-36916553D01*
X98935000Y-36916553D01*
X98935000Y-35785920D01*
X101365525Y-35785920D01*
X102250000Y-36670395D01*
X103134475Y-35785920D01*
X103050792Y-35531739D01*
X102778225Y-35400842D01*
X102485358Y-35325635D01*
X102183447Y-35309009D01*
X101884093Y-35351603D01*
X101598801Y-35451778D01*
X101449208Y-35531739D01*
X101365525Y-35785920D01*
X98935000Y-35785920D01*
X98935000Y-30870131D01*
X100070132Y-29735000D01*
X100843269Y-29735000D01*
X100773989Y-29902257D01*
%TA.AperFunction,Conductor*%
D21*
G36*
X100773989Y-29902257D02*
G01*
X100715000Y-30198816D01*
X100715000Y-30501184D01*
X100773989Y-30797743D01*
X100889701Y-31077095D01*
X101057688Y-31328505D01*
X101271495Y-31542312D01*
X101522905Y-31710299D01*
X101802257Y-31826011D01*
X102098816Y-31885000D01*
X102401184Y-31885000D01*
X102697743Y-31826011D01*
X102977095Y-31710299D01*
X103228505Y-31542312D01*
X103442312Y-31328505D01*
X103610299Y-31077095D01*
X103726011Y-30797743D01*
X103785000Y-30501184D01*
X103785000Y-30198816D01*
X103726011Y-29902257D01*
X103656731Y-29735000D01*
X105343269Y-29735000D01*
X105273989Y-29902257D01*
X105215000Y-30198816D01*
X105215000Y-30501184D01*
X105273989Y-30797743D01*
X105389701Y-31077095D01*
X105557688Y-31328505D01*
X105771495Y-31542312D01*
X106022905Y-31710299D01*
X106302257Y-31826011D01*
X106598816Y-31885000D01*
X106901184Y-31885000D01*
X107197743Y-31826011D01*
X107477095Y-31710299D01*
X107728505Y-31542312D01*
X107942312Y-31328505D01*
X108110299Y-31077095D01*
X108226011Y-30797743D01*
X108285000Y-30501184D01*
X108285000Y-30198816D01*
X108226011Y-29902257D01*
X108156731Y-29735000D01*
X113065000Y-29735000D01*
X113065001Y-46744238D01*
X113059509Y-46800000D01*
X113081423Y-47022498D01*
X113146324Y-47236446D01*
X113163973Y-47269465D01*
X113251717Y-47433623D01*
X113393552Y-47606449D01*
X113436860Y-47641991D01*
X113765000Y-47970131D01*
X113765001Y-50729868D01*
X113729869Y-50765000D01*
X113355741Y-50765000D01*
X113299999Y-50759510D01*
X113244257Y-50765000D01*
X113244248Y-50765000D01*
X113077501Y-50781423D01*
X112863553Y-50846324D01*
X112666377Y-50951716D01*
X112493551Y-51093551D01*
X112458011Y-51136857D01*
X111860000Y-51734869D01*
X111860000Y-50703711D01*
X111903937Y-50659774D01*
X112017205Y-50490256D01*
X112095226Y-50301898D01*
X112135000Y-50101939D01*
X112135000Y-49898061D01*
X112095226Y-49698102D01*
X112017205Y-49509744D01*
X111903937Y-49340226D01*
X111759774Y-49196063D01*
X111590256Y-49082795D01*
X111401898Y-49004774D01*
X111201939Y-48965000D01*
X110998061Y-48965000D01*
X110798102Y-49004774D01*
X110609744Y-49082795D01*
X110571836Y-49108125D01*
X110509774Y-49046063D01*
X110340256Y-48932795D01*
X110151898Y-48854774D01*
X109951939Y-48815000D01*
X109748061Y-48815000D01*
X109548102Y-48854774D01*
X109359744Y-48932795D01*
X109190226Y-49046063D01*
X109096289Y-49140000D01*
X105403711Y-49140000D01*
X105359774Y-49096063D01*
X105190256Y-48982795D01*
X105001898Y-48904774D01*
X104801939Y-48865000D01*
X104598061Y-48865000D01*
X104398102Y-48904774D01*
X104209744Y-48982795D01*
X104040226Y-49096063D01*
X103896063Y-49240226D01*
X103782795Y-49409744D01*
X103704774Y-49598102D01*
X103665000Y-49798061D01*
X103665000Y-50001939D01*
X103704774Y-50201898D01*
X103782795Y-50390256D01*
X103896063Y-50559774D01*
X104040226Y-50703937D01*
X104209744Y-50817205D01*
X104398102Y-50895226D01*
X104598061Y-50935000D01*
X104801939Y-50935000D01*
X105001898Y-50895226D01*
X105190256Y-50817205D01*
X105359774Y-50703937D01*
X105403711Y-50660000D01*
X107620556Y-50660000D01*
X107604774Y-50698102D01*
X107565000Y-50898061D01*
X107565000Y-51101939D01*
X107604774Y-51301898D01*
X107682795Y-51490256D01*
X107796063Y-51659774D01*
X107840000Y-51703711D01*
X107840000Y-53259548D01*
X107750422Y-53169970D01*
X107634474Y-53285918D01*
X107550792Y-53031739D01*
X107278225Y-52900842D01*
X106985358Y-52825635D01*
X106683447Y-52809009D01*
X106384093Y-52851603D01*
X106098801Y-52951778D01*
X105949208Y-53031739D01*
X105865525Y-53285920D01*
X106750000Y-54170395D01*
X106764143Y-54156253D01*
X106943748Y-54335858D01*
X106929605Y-54350000D01*
X106943748Y-54364143D01*
X106764143Y-54543748D01*
X106750000Y-54529605D01*
X105865525Y-55414080D01*
X105949208Y-55668261D01*
X106221775Y-55799158D01*
X106514642Y-55874365D01*
X106816553Y-55890991D01*
X107115907Y-55848397D01*
X107401199Y-55748222D01*
X107550792Y-55668261D01*
X107634474Y-55414082D01*
X107750422Y-55530030D01*
X107840000Y-55440452D01*
X107840001Y-59769184D01*
X107728505Y-59657688D01*
X107477095Y-59489701D01*
X107197743Y-59373989D01*
X106901184Y-59315000D01*
X106598816Y-59315000D01*
X106302257Y-59373989D01*
X106022905Y-59489701D01*
X105771495Y-59657688D01*
X105557688Y-59871495D01*
X105389701Y-60122905D01*
X105273989Y-60402257D01*
X105215000Y-60698816D01*
X105215000Y-61001184D01*
X105273989Y-61297743D01*
X105389701Y-61577095D01*
X105557688Y-61828505D01*
X105771495Y-62042312D01*
X106022905Y-62210299D01*
X106302257Y-62326011D01*
X106598816Y-62385000D01*
X106901184Y-62385000D01*
X107197743Y-62326011D01*
X107477095Y-62210299D01*
X107728505Y-62042312D01*
X107840001Y-61930816D01*
X107840001Y-62596288D01*
X107796063Y-62640226D01*
X107682795Y-62809744D01*
X107604774Y-62998102D01*
X107565000Y-63198061D01*
X107565000Y-63401939D01*
X107604774Y-63601898D01*
X107682795Y-63790256D01*
X107738083Y-63873000D01*
X100560000Y-63873000D01*
X100560000Y-60698816D01*
X100715000Y-60698816D01*
X100715000Y-61001184D01*
X100773989Y-61297743D01*
X100889701Y-61577095D01*
X101057688Y-61828505D01*
X101271495Y-62042312D01*
X101522905Y-62210299D01*
X101802257Y-62326011D01*
X102098816Y-62385000D01*
X102401184Y-62385000D01*
X102697743Y-62326011D01*
X102977095Y-62210299D01*
X103228505Y-62042312D01*
X103442312Y-61828505D01*
X103610299Y-61577095D01*
X103726011Y-61297743D01*
X103785000Y-61001184D01*
X103785000Y-60698816D01*
X103726011Y-60402257D01*
X103610299Y-60122905D01*
X103442312Y-59871495D01*
X103228505Y-59657688D01*
X102977095Y-59489701D01*
X102697743Y-59373989D01*
X102401184Y-59315000D01*
X102098816Y-59315000D01*
X101802257Y-59373989D01*
X101522905Y-59489701D01*
X101271495Y-59657688D01*
X101057688Y-59871495D01*
X100889701Y-60122905D01*
X100773989Y-60402257D01*
X100715000Y-60698816D01*
X100560000Y-60698816D01*
X100560000Y-60337323D01*
X100563676Y-60300000D01*
X100560000Y-60262677D01*
X100560000Y-60262667D01*
X100549003Y-60151014D01*
X100505546Y-60007753D01*
X100434974Y-59875724D01*
X100340001Y-59759999D01*
X100311004Y-59736202D01*
X99169690Y-58594889D01*
X99197000Y-58457592D01*
X99197000Y-58182408D01*
X99143314Y-57912510D01*
X99038005Y-57658273D01*
X98885120Y-57429465D01*
X98690535Y-57234880D01*
X98461727Y-57081995D01*
X98384485Y-57050000D01*
X98461727Y-57018005D01*
X98690535Y-56865120D01*
X98885120Y-56670535D01*
X99038005Y-56441727D01*
X99143314Y-56187490D01*
X99197000Y-55917592D01*
X99197000Y-55642408D01*
X99143314Y-55372510D01*
X99040527Y-55124361D01*
X99052476Y-55117974D01*
X99168201Y-55023001D01*
X99192003Y-54993998D01*
X99825004Y-54360998D01*
X99854001Y-54337201D01*
X99948974Y-54221476D01*
X99961086Y-54198816D01*
X100715000Y-54198816D01*
X100715000Y-54501184D01*
X100773989Y-54797743D01*
X100889701Y-55077095D01*
X101057688Y-55328505D01*
X101271495Y-55542312D01*
X101522905Y-55710299D01*
X101802257Y-55826011D01*
X102098816Y-55885000D01*
X102401184Y-55885000D01*
X102697743Y-55826011D01*
X102977095Y-55710299D01*
X103228505Y-55542312D01*
X103442312Y-55328505D01*
X103610299Y-55077095D01*
X103726011Y-54797743D01*
X103785000Y-54501184D01*
X103785000Y-54416553D01*
X105209009Y-54416553D01*
X105251603Y-54715907D01*
X105351778Y-55001199D01*
X105431739Y-55150792D01*
X105685920Y-55234475D01*
X106570395Y-54350000D01*
X105685920Y-53465525D01*
X105431739Y-53549208D01*
X105300842Y-53821775D01*
X105225635Y-54114642D01*
X105209009Y-54416553D01*
X103785000Y-54416553D01*
X103785000Y-54198816D01*
X103726011Y-53902257D01*
X103610299Y-53622905D01*
X103442312Y-53371495D01*
X103228505Y-53157688D01*
X102977095Y-52989701D01*
X102697743Y-52873989D01*
X102401184Y-52815000D01*
X102098816Y-52815000D01*
X101802257Y-52873989D01*
X101522905Y-52989701D01*
X101271495Y-53157688D01*
X101057688Y-53371495D01*
X100889701Y-53622905D01*
X100773989Y-53902257D01*
X100715000Y-54198816D01*
X99961086Y-54198816D01*
X100019546Y-54089447D01*
X100063003Y-53946186D01*
X100074000Y-53834533D01*
X100074000Y-53834525D01*
X100077676Y-53797200D01*
X100074000Y-53759875D01*
X100074000Y-52740401D01*
X104154402Y-48660000D01*
X107196289Y-48660000D01*
X107240226Y-48703937D01*
X107409744Y-48817205D01*
X107598102Y-48895226D01*
X107798061Y-48935000D01*
X108001939Y-48935000D01*
X108201898Y-48895226D01*
X108390256Y-48817205D01*
X108559774Y-48703937D01*
X108703937Y-48559774D01*
X108817205Y-48390256D01*
X108895226Y-48201898D01*
X108935000Y-48001939D01*
X108935000Y-47798061D01*
X108895226Y-47598102D01*
X108817205Y-47409744D01*
X108703937Y-47240226D01*
X108559774Y-47096063D01*
X108390256Y-46982795D01*
X108201898Y-46904774D01*
X108001939Y-46865000D01*
X107798061Y-46865000D01*
X107598102Y-46904774D01*
X107409744Y-46982795D01*
X107240226Y-47096063D01*
X107196289Y-47140000D01*
X103876923Y-47140000D01*
X103839600Y-47136324D01*
X103802277Y-47140000D01*
X103802267Y-47140000D01*
X103690614Y-47150997D01*
X103547353Y-47194454D01*
X103415323Y-47265026D01*
X103354430Y-47315000D01*
X103299599Y-47359999D01*
X103275801Y-47388997D01*
X98802998Y-51861801D01*
X98774000Y-51885599D01*
X98750202Y-51914597D01*
X98750201Y-51914598D01*
X98679026Y-52001324D01*
X98621577Y-52108803D01*
X98461727Y-52001995D01*
X98384485Y-51970000D01*
X98461727Y-51938005D01*
X98690535Y-51785120D01*
X98885120Y-51590535D01*
X99038005Y-51361727D01*
X99143314Y-51107490D01*
X99197000Y-50837592D01*
X99197000Y-50562408D01*
X99143314Y-50292510D01*
X99038005Y-50038273D01*
X98885120Y-49809465D01*
X98690535Y-49614880D01*
X98461727Y-49461995D01*
X98384485Y-49430000D01*
X98461727Y-49398005D01*
X98690535Y-49245120D01*
X98885120Y-49050535D01*
X99038005Y-48821727D01*
X99143314Y-48567490D01*
X99197000Y-48297592D01*
X99197000Y-48022408D01*
X99143314Y-47752510D01*
X99038005Y-47498273D01*
X98885120Y-47269465D01*
X98690535Y-47074880D01*
X98461727Y-46921995D01*
X98384485Y-46890000D01*
X98461727Y-46858005D01*
X98690535Y-46705120D01*
X98885120Y-46510535D01*
X99038005Y-46281727D01*
X99143314Y-46027490D01*
X99197000Y-45757592D01*
X99197000Y-45482408D01*
X99143314Y-45212510D01*
X99038005Y-44958273D01*
X98885120Y-44729465D01*
X98690535Y-44534880D01*
X98461727Y-44381995D01*
X98384485Y-44350000D01*
X98461727Y-44318005D01*
X98690535Y-44165120D01*
X98885120Y-43970535D01*
X98972341Y-43840000D01*
X99182678Y-43840000D01*
X99220000Y-43843676D01*
X99257322Y-43840000D01*
X99257333Y-43840000D01*
X99368986Y-43829003D01*
X99512247Y-43785546D01*
X99644276Y-43714974D01*
X99760001Y-43620001D01*
X99783804Y-43590997D01*
X102114802Y-41260000D01*
X109596289Y-41260000D01*
X109640226Y-41303937D01*
X109809744Y-41417205D01*
X109998102Y-41495226D01*
X110198061Y-41535000D01*
X110401939Y-41535000D01*
X110601898Y-41495226D01*
X110790256Y-41417205D01*
X110889935Y-41350602D01*
X110896063Y-41359774D01*
X111040226Y-41503937D01*
X111209744Y-41617205D01*
X111398102Y-41695226D01*
X111598061Y-41735000D01*
X111801939Y-41735000D01*
X112001898Y-41695226D01*
X112190256Y-41617205D01*
X112359774Y-41503937D01*
X112503937Y-41359774D01*
X112617205Y-41190256D01*
X112695226Y-41001898D01*
X112735000Y-40801939D01*
X112735000Y-40598061D01*
X112695226Y-40398102D01*
X112617205Y-40209744D01*
X112503937Y-40040226D01*
X112359774Y-39896063D01*
X112190256Y-39782795D01*
X112001898Y-39704774D01*
X111801939Y-39665000D01*
X111739802Y-39665000D01*
X110863804Y-38789003D01*
X110840001Y-38759999D01*
X110724276Y-38665026D01*
X110592247Y-38594454D01*
X110448986Y-38550997D01*
X110337333Y-38540000D01*
X110337322Y-38540000D01*
X110300000Y-38536324D01*
X110262678Y-38540000D01*
X99088426Y-38540000D01*
X99143314Y-38407490D01*
X99197000Y-38137592D01*
X99197000Y-37914080D01*
X101365525Y-37914080D01*
X101449208Y-38168261D01*
X101721775Y-38299158D01*
X102014642Y-38374365D01*
X102316553Y-38390991D01*
X102615907Y-38348397D01*
X102901199Y-38248222D01*
X103050792Y-38168261D01*
X103134475Y-37914080D01*
X102250000Y-37029605D01*
X101365525Y-37914080D01*
X99197000Y-37914080D01*
X99197000Y-37862408D01*
X99143314Y-37592510D01*
X99038005Y-37338273D01*
X98935000Y-37184116D01*
X98935000Y-36916553D01*
X100709009Y-36916553D01*
X100751603Y-37215907D01*
X100851778Y-37501199D01*
X100931739Y-37650792D01*
X101185920Y-37734475D01*
X102070395Y-36850000D01*
X102429605Y-36850000D01*
X103314080Y-37734475D01*
X103568261Y-37650792D01*
X103699158Y-37378225D01*
X103774365Y-37085358D01*
X103790991Y-36783447D01*
X103778950Y-36698816D01*
X105215000Y-36698816D01*
X105215000Y-37001184D01*
X105273989Y-37297743D01*
X105389701Y-37577095D01*
X105557688Y-37828505D01*
X105771495Y-38042312D01*
X106022905Y-38210299D01*
X106302257Y-38326011D01*
X106598816Y-38385000D01*
X106901184Y-38385000D01*
X107197743Y-38326011D01*
X107477095Y-38210299D01*
X107728505Y-38042312D01*
X107942312Y-37828505D01*
X108110299Y-37577095D01*
X108226011Y-37297743D01*
X108285000Y-37001184D01*
X108285000Y-36698816D01*
X108226011Y-36402257D01*
X108110299Y-36122905D01*
X107942312Y-35871495D01*
X107728505Y-35657688D01*
X107477095Y-35489701D01*
X107197743Y-35373989D01*
X106901184Y-35315000D01*
X106598816Y-35315000D01*
X106302257Y-35373989D01*
X106022905Y-35489701D01*
X105771495Y-35657688D01*
X105557688Y-35871495D01*
X105389701Y-36122905D01*
X105273989Y-36402257D01*
X105215000Y-36698816D01*
X103778950Y-36698816D01*
X103748397Y-36484093D01*
X103648222Y-36198801D01*
X103568261Y-36049208D01*
X103314080Y-35965525D01*
X102429605Y-36850000D01*
X102070395Y-36850000D01*
X101185920Y-35965525D01*
X100931739Y-36049208D01*
X100800842Y-36321775D01*
X100725635Y-36614642D01*
X100709009Y-36916553D01*
X98935000Y-36916553D01*
X98935000Y-35785920D01*
X101365525Y-35785920D01*
X102250000Y-36670395D01*
X103134475Y-35785920D01*
X103050792Y-35531739D01*
X102778225Y-35400842D01*
X102485358Y-35325635D01*
X102183447Y-35309009D01*
X101884093Y-35351603D01*
X101598801Y-35451778D01*
X101449208Y-35531739D01*
X101365525Y-35785920D01*
X98935000Y-35785920D01*
X98935000Y-30870131D01*
X100070132Y-29735000D01*
X100843269Y-29735000D01*
X100773989Y-29902257D01*
G37*
%TD.AperFunction*%
D20*
X98945448Y-42279751D02*
X98885120Y-42189465D01*
X98690535Y-41994880D01*
X98461727Y-41841995D01*
X98390057Y-41812308D01*
X98403023Y-41807636D01*
X98518980Y-41745656D01*
X98585960Y-41505565D01*
X97800000Y-40719605D01*
X97014040Y-41505565D01*
X97081020Y-41745656D01*
X97216760Y-41809485D01*
X97138273Y-41841995D01*
X96909465Y-41994880D01*
X96714880Y-42189465D01*
X96561995Y-42418273D01*
X96456686Y-42672510D01*
X96403000Y-42942408D01*
X96403000Y-43217592D01*
X96456686Y-43487490D01*
X96561995Y-43741727D01*
X96714880Y-43970535D01*
X96909465Y-44165120D01*
X97138273Y-44318005D01*
X97215515Y-44350000D01*
X97138273Y-44381995D01*
X96909465Y-44534880D01*
X96714880Y-44729465D01*
X96561995Y-44958273D01*
X96456686Y-45212510D01*
X96403000Y-45482408D01*
X96403000Y-45688199D01*
X96260000Y-45545199D01*
X96260000Y-40614801D01*
X96404745Y-40470056D01*
X96398090Y-40612017D01*
X96439078Y-40884133D01*
X96532364Y-41143023D01*
X96594344Y-41258980D01*
X96834435Y-41325960D01*
X97620395Y-40540000D01*
X97606253Y-40525858D01*
X97785858Y-40346253D01*
X97800000Y-40360395D01*
X97814143Y-40346253D01*
X97993748Y-40525858D01*
X97979605Y-40540000D01*
X98765565Y-41325960D01*
X99005656Y-41258980D01*
X99122756Y-41009952D01*
X99189023Y-40742865D01*
X99201910Y-40467983D01*
X99160922Y-40195867D01*
X99111965Y-40060000D01*
X101165198Y-40060000D01*
X98945448Y-42279751D01*
%TA.AperFunction,Conductor*%
D21*
G36*
X98945448Y-42279751D02*
G01*
X98885120Y-42189465D01*
X98690535Y-41994880D01*
X98461727Y-41841995D01*
X98390057Y-41812308D01*
X98403023Y-41807636D01*
X98518980Y-41745656D01*
X98585960Y-41505565D01*
X97800000Y-40719605D01*
X97014040Y-41505565D01*
X97081020Y-41745656D01*
X97216760Y-41809485D01*
X97138273Y-41841995D01*
X96909465Y-41994880D01*
X96714880Y-42189465D01*
X96561995Y-42418273D01*
X96456686Y-42672510D01*
X96403000Y-42942408D01*
X96403000Y-43217592D01*
X96456686Y-43487490D01*
X96561995Y-43741727D01*
X96714880Y-43970535D01*
X96909465Y-44165120D01*
X97138273Y-44318005D01*
X97215515Y-44350000D01*
X97138273Y-44381995D01*
X96909465Y-44534880D01*
X96714880Y-44729465D01*
X96561995Y-44958273D01*
X96456686Y-45212510D01*
X96403000Y-45482408D01*
X96403000Y-45688199D01*
X96260000Y-45545199D01*
X96260000Y-40614801D01*
X96404745Y-40470056D01*
X96398090Y-40612017D01*
X96439078Y-40884133D01*
X96532364Y-41143023D01*
X96594344Y-41258980D01*
X96834435Y-41325960D01*
X97620395Y-40540000D01*
X97606253Y-40525858D01*
X97785858Y-40346253D01*
X97800000Y-40360395D01*
X97814143Y-40346253D01*
X97993748Y-40525858D01*
X97979605Y-40540000D01*
X98765565Y-41325960D01*
X99005656Y-41258980D01*
X99122756Y-41009952D01*
X99189023Y-40742865D01*
X99201910Y-40467983D01*
X99160922Y-40195867D01*
X99111965Y-40060000D01*
X101165198Y-40060000D01*
X98945448Y-42279751D01*
G37*
%TD.AperFunction*%
%TD*%
M02*
