M48
; DRILL file {KiCad 5.1.12-84ad8e8a86~92~ubuntu20.04.1} date 2022-04-21T21:58:36 CEST
; FORMAT={-:-/ absolute / inch / decimal}
; #@! TF.CreationDate,2022-04-21T21:58:36+02:00
; #@! TF.GenerationSoftware,Kicad,Pcbnew,5.1.12-84ad8e8a86~92~ubuntu20.04.1
; #@! TF.FileFunction,Plated,1,2,PTH
FMAT,2
INCH
T1C0.0157
T2C0.0300
T3C0.0354
T4C0.0394
T5C0.0591
%
G90
G05
T1
X3.72Y-2.465
X4.122Y-1.9646
X4.248Y-1.8858
X4.2756Y-2.0079
X4.2756Y-2.4921
X4.311Y-2.7638
X4.315Y-2.4252
X4.3248Y-1.9626
X4.3425Y-1.5945
X4.3661Y-1.126
X4.374Y-1.9685
X4.3976Y-1.6024
X4.4016Y-1.937
X4.4331Y-2.3819
X4.437Y-2.4843
X4.4567Y-1.9567
X4.4961Y-1.8425
X5.0744Y-1.4465
X5.0748Y-2.3898
X5.1516Y-1.7957
X5.1772Y-2.3083
X5.1909Y-2.6846
X5.2028Y-1.7945
X5.2283Y-1.3992
X5.2358Y-2.3398
X5.3543Y-1.622
X5.3543Y-2.5669
X5.3661Y-1.7047
X5.3661Y-2.6496
X5.7835Y-1.622
X5.7835Y-2.0906
X5.7835Y-2.5591
X5.7874Y-1.126
X6.2559Y-1.1496
X6.2559Y-1.6142
X6.2559Y-2.0906
X6.2559Y-2.5591
X6.7283Y-1.1417
X6.7283Y-1.6181
X6.7283Y-2.0945
X6.7283Y-2.563
X6.9035Y-2.4161
T2
X3.8504Y-1.4961
X3.8504Y-1.5961
X3.8504Y-1.6961
X3.8504Y-1.7961
X3.8504Y-1.8961
X3.8504Y-1.9961
X3.8504Y-2.0961
X3.8504Y-2.1961
X3.8504Y-2.2961
X3.8504Y-2.3961
X3.8504Y-2.4961
X3.8504Y-2.5961
X3.8504Y-2.6961
X3.8504Y-2.7961
X3.8504Y-2.8961
X4.8504Y-1.4961
X4.8504Y-1.5961
X4.8504Y-1.6961
X4.8504Y-1.7961
X4.8504Y-1.8961
X4.8504Y-1.9961
X4.8504Y-2.0961
X4.8504Y-2.1961
X4.8504Y-2.2961
X4.8504Y-2.3961
X4.8504Y-2.4961
X4.8504Y-2.5961
X4.8504Y-2.6961
X4.8504Y-2.7961
X4.8504Y-2.8961
T3
X3.6161Y-1.6024
X3.6161Y-1.6811
X3.6161Y-1.7598
T4
X4.0256Y-1.1949
X4.0256Y-1.4508
X4.0256Y-2.1398
X4.0256Y-2.3957
X4.0256Y-2.6122
X4.0256Y-2.8681
X4.2028Y-1.1949
X4.2028Y-1.4508
X4.2028Y-2.1398
X4.2028Y-2.3957
X4.2028Y-2.6122
X4.2028Y-2.8681
X4.498Y-2.1398
X4.498Y-2.3957
X4.498Y-2.6122
X4.498Y-2.8681
X4.6752Y-2.1398
X4.6752Y-2.3957
X4.6752Y-2.6122
X4.6752Y-2.8681
X5.4232Y-1.1949
X5.4232Y-1.4508
X5.4232Y-1.6673
X5.4232Y-1.9232
X5.4232Y-2.1398
X5.4232Y-2.3957
X5.4232Y-2.6122
X5.4232Y-2.8681
X5.6004Y-1.1949
X5.6004Y-1.4508
X5.6004Y-1.6673
X5.6004Y-1.9232
X5.6004Y-2.1398
X5.6004Y-2.3957
X5.6004Y-2.6122
X5.6004Y-2.8681
X5.7283Y-3.0315
X5.7283Y-3.1315
X5.8283Y-3.0315
X5.8283Y-3.1315
X5.8957Y-1.1949
X5.8957Y-1.4508
X5.8957Y-1.6673
X5.8957Y-1.9232
X5.8957Y-2.1398
X5.8957Y-2.3957
X5.8957Y-2.6122
X5.8957Y-2.8681
X5.9283Y-3.0315
X5.9283Y-3.1315
X6.0283Y-3.0315
X6.0283Y-3.1315
X6.0728Y-1.1949
X6.0728Y-1.4508
X6.0728Y-1.6673
X6.0728Y-1.9232
X6.0728Y-2.1398
X6.0728Y-2.3957
X6.0728Y-2.6122
X6.0728Y-2.8681
X6.1283Y-3.0315
X6.1283Y-3.1315
X6.2283Y-3.0315
X6.2283Y-3.1315
X6.3681Y-1.1949
X6.3681Y-1.4508
X6.3681Y-1.6673
X6.3681Y-1.9232
X6.3681Y-2.1398
X6.3681Y-2.3957
X6.3681Y-2.6122
X6.3681Y-2.8681
X6.5453Y-1.1949
X6.5453Y-1.4508
X6.5453Y-1.6673
X6.5453Y-1.9232
X6.5453Y-2.1398
X6.5453Y-2.3957
X6.5453Y-2.6122
X6.5453Y-2.8681
T5
X3.6161Y-1.5197
X3.6161Y-1.8425
T0
M30
