%TF.GenerationSoftware,KiCad,Pcbnew,5.1.12-84ad8e8a86~92~ubuntu20.04.1*%
%TF.CreationDate,2022-04-07T20:47:10+02:00*%
%TF.ProjectId,bkm-15r-mini,626b6d2d-3135-4722-9d6d-696e692e6b69,rev?*%
%TF.SameCoordinates,Original*%
%TF.FileFunction,Legend,Bot*%
%TF.FilePolarity,Positive*%
%FSLAX46Y46*%
G04 Gerber Fmt 4.6, Leading zero omitted, Abs format (unit mm)*
G04 Created by KiCad (PCBNEW 5.1.12-84ad8e8a86~92~ubuntu20.04.1) date 2022-04-07 20:47:10*
%MOMM*%
%LPD*%
G01*
G04 APERTURE LIST*
%ADD10C,0.300000*%
%ADD11C,0.200000*%
%ADD12C,0.100000*%
%ADD13C,0.150000*%
G04 APERTURE END LIST*
D10*
X127070291Y-37136828D02*
X125570291Y-37136828D01*
X126641720Y-37636828D01*
X125570291Y-38136828D01*
X127070291Y-38136828D01*
X125570291Y-39136828D02*
X125570291Y-39422542D01*
X125641720Y-39565400D01*
X125784577Y-39708257D01*
X126070291Y-39779685D01*
X126570291Y-39779685D01*
X126856005Y-39708257D01*
X126998862Y-39565400D01*
X127070291Y-39422542D01*
X127070291Y-39136828D01*
X126998862Y-38993971D01*
X126856005Y-38851114D01*
X126570291Y-38779685D01*
X126070291Y-38779685D01*
X125784577Y-38851114D01*
X125641720Y-38993971D01*
X125570291Y-39136828D01*
X125570291Y-40422542D02*
X126784577Y-40422542D01*
X126927434Y-40493971D01*
X126998862Y-40565400D01*
X127070291Y-40708257D01*
X127070291Y-40993971D01*
X126998862Y-41136828D01*
X126927434Y-41208257D01*
X126784577Y-41279685D01*
X125570291Y-41279685D01*
X127070291Y-41993971D02*
X125570291Y-41993971D01*
X127070291Y-42851114D01*
X125570291Y-42851114D01*
X125570291Y-43351114D02*
X125570291Y-44208257D01*
X127070291Y-43779685D02*
X125570291Y-43779685D01*
X126284577Y-46351114D02*
X126356005Y-46565400D01*
X126427434Y-46636828D01*
X126570291Y-46708257D01*
X126784577Y-46708257D01*
X126927434Y-46636828D01*
X126998862Y-46565400D01*
X127070291Y-46422542D01*
X127070291Y-45851114D01*
X125570291Y-45851114D01*
X125570291Y-46351114D01*
X125641720Y-46493971D01*
X125713148Y-46565400D01*
X125856005Y-46636828D01*
X125998862Y-46636828D01*
X126141720Y-46565400D01*
X126213148Y-46493971D01*
X126284577Y-46351114D01*
X126284577Y-45851114D01*
X125570291Y-47351114D02*
X126784577Y-47351114D01*
X126927434Y-47422542D01*
X126998862Y-47493971D01*
X127070291Y-47636828D01*
X127070291Y-47922542D01*
X126998862Y-48065400D01*
X126927434Y-48136828D01*
X126784577Y-48208257D01*
X125570291Y-48208257D01*
X125570291Y-48708257D02*
X125570291Y-49565400D01*
X127070291Y-49136828D02*
X125570291Y-49136828D01*
X125570291Y-49851114D02*
X125570291Y-50708257D01*
X127070291Y-50279685D02*
X125570291Y-50279685D01*
X125570291Y-51493971D02*
X125570291Y-51779685D01*
X125641720Y-51922542D01*
X125784577Y-52065400D01*
X126070291Y-52136828D01*
X126570291Y-52136828D01*
X126856005Y-52065400D01*
X126998862Y-51922542D01*
X127070291Y-51779685D01*
X127070291Y-51493971D01*
X126998862Y-51351114D01*
X126856005Y-51208257D01*
X126570291Y-51136828D01*
X126070291Y-51136828D01*
X125784577Y-51208257D01*
X125641720Y-51351114D01*
X125570291Y-51493971D01*
X127070291Y-52779685D02*
X125570291Y-52779685D01*
X127070291Y-53636828D01*
X125570291Y-53636828D01*
X126998862Y-54279685D02*
X127070291Y-54493971D01*
X127070291Y-54851114D01*
X126998862Y-54993971D01*
X126927434Y-55065400D01*
X126784577Y-55136828D01*
X126641720Y-55136828D01*
X126498862Y-55065400D01*
X126427434Y-54993971D01*
X126356005Y-54851114D01*
X126284577Y-54565400D01*
X126213148Y-54422542D01*
X126141720Y-54351114D01*
X125998862Y-54279685D01*
X125856005Y-54279685D01*
X125713148Y-54351114D01*
X125641720Y-54422542D01*
X125570291Y-54565400D01*
X125570291Y-54922542D01*
X125641720Y-55136828D01*
X125570291Y-57208257D02*
X125570291Y-57493971D01*
X125641720Y-57636828D01*
X125784577Y-57779685D01*
X126070291Y-57851114D01*
X126570291Y-57851114D01*
X126856005Y-57779685D01*
X126998862Y-57636828D01*
X127070291Y-57493971D01*
X127070291Y-57208257D01*
X126998862Y-57065400D01*
X126856005Y-56922542D01*
X126570291Y-56851114D01*
X126070291Y-56851114D01*
X125784577Y-56922542D01*
X125641720Y-57065400D01*
X125570291Y-57208257D01*
X127070291Y-58493971D02*
X125570291Y-58493971D01*
X127070291Y-59351114D01*
X125570291Y-59351114D01*
X125570291Y-60993971D02*
X125570291Y-61851114D01*
X127070291Y-61422542D02*
X125570291Y-61422542D01*
X127070291Y-62351114D02*
X125570291Y-62351114D01*
X126284577Y-62351114D02*
X126284577Y-63208257D01*
X127070291Y-63208257D02*
X125570291Y-63208257D01*
X127070291Y-63922542D02*
X125570291Y-63922542D01*
X126998862Y-64565399D02*
X127070291Y-64779685D01*
X127070291Y-65136828D01*
X126998862Y-65279685D01*
X126927434Y-65351114D01*
X126784577Y-65422542D01*
X126641720Y-65422542D01*
X126498862Y-65351114D01*
X126427434Y-65279685D01*
X126356005Y-65136828D01*
X126284577Y-64851114D01*
X126213148Y-64708257D01*
X126141720Y-64636828D01*
X125998862Y-64565399D01*
X125856005Y-64565399D01*
X125713148Y-64636828D01*
X125641720Y-64708257D01*
X125570291Y-64851114D01*
X125570291Y-65208257D01*
X125641720Y-65422542D01*
X126998862Y-67136828D02*
X127070291Y-67351114D01*
X127070291Y-67708257D01*
X126998862Y-67851114D01*
X126927434Y-67922542D01*
X126784577Y-67993971D01*
X126641720Y-67993971D01*
X126498862Y-67922542D01*
X126427434Y-67851114D01*
X126356005Y-67708257D01*
X126284577Y-67422542D01*
X126213148Y-67279685D01*
X126141720Y-67208257D01*
X125998862Y-67136828D01*
X125856005Y-67136828D01*
X125713148Y-67208257D01*
X125641720Y-67279685D01*
X125570291Y-67422542D01*
X125570291Y-67779685D01*
X125641720Y-67993971D01*
X127070291Y-68636828D02*
X125570291Y-68636828D01*
X127070291Y-69351114D02*
X125570291Y-69351114D01*
X125570291Y-69708257D01*
X125641720Y-69922542D01*
X125784577Y-70065399D01*
X125927434Y-70136828D01*
X126213148Y-70208257D01*
X126427434Y-70208257D01*
X126713148Y-70136828D01*
X126856005Y-70065399D01*
X126998862Y-69922542D01*
X127070291Y-69708257D01*
X127070291Y-69351114D01*
X126284577Y-70851114D02*
X126284577Y-71351114D01*
X127070291Y-71565399D02*
X127070291Y-70851114D01*
X125570291Y-70851114D01*
X125570291Y-71565399D01*
D11*
X166100935Y-82733180D02*
X166100935Y-81733180D01*
X165767601Y-82447466D01*
X165434268Y-81733180D01*
X165434268Y-82733180D01*
X164767601Y-81733180D02*
X164577125Y-81733180D01*
X164481887Y-81780800D01*
X164386649Y-81876038D01*
X164339030Y-82066514D01*
X164339030Y-82399847D01*
X164386649Y-82590323D01*
X164481887Y-82685561D01*
X164577125Y-82733180D01*
X164767601Y-82733180D01*
X164862840Y-82685561D01*
X164958078Y-82590323D01*
X165005697Y-82399847D01*
X165005697Y-82066514D01*
X164958078Y-81876038D01*
X164862840Y-81780800D01*
X164767601Y-81733180D01*
X163910459Y-81733180D02*
X163910459Y-82542704D01*
X163862840Y-82637942D01*
X163815220Y-82685561D01*
X163719982Y-82733180D01*
X163529506Y-82733180D01*
X163434268Y-82685561D01*
X163386649Y-82637942D01*
X163339030Y-82542704D01*
X163339030Y-81733180D01*
X162862840Y-82733180D02*
X162862840Y-81733180D01*
X162291411Y-82733180D01*
X162291411Y-81733180D01*
X161958078Y-81733180D02*
X161386649Y-81733180D01*
X161672363Y-82733180D02*
X161672363Y-81733180D01*
X160291411Y-82733180D02*
X160291411Y-81733180D01*
X159910459Y-81733180D01*
X159815220Y-81780800D01*
X159767601Y-81828419D01*
X159719982Y-81923657D01*
X159719982Y-82066514D01*
X159767601Y-82161752D01*
X159815220Y-82209371D01*
X159910459Y-82256990D01*
X160291411Y-82256990D01*
X159291411Y-82733180D02*
X159291411Y-81733180D01*
X158815220Y-82733180D02*
X158815220Y-81733180D01*
X158243792Y-82733180D01*
X158243792Y-81733180D01*
X157767601Y-82733180D02*
X157767601Y-81733180D01*
X157767601Y-82209371D02*
X157196173Y-82209371D01*
X157196173Y-82733180D02*
X157196173Y-81733180D01*
X156719982Y-82209371D02*
X156386649Y-82209371D01*
X156243792Y-82733180D02*
X156719982Y-82733180D01*
X156719982Y-81733180D01*
X156243792Y-81733180D01*
X155862840Y-82447466D02*
X155386649Y-82447466D01*
X155958078Y-82733180D02*
X155624744Y-81733180D01*
X155291411Y-82733180D01*
X154958078Y-82733180D02*
X154958078Y-81733180D01*
X154719982Y-81733180D01*
X154577125Y-81780800D01*
X154481887Y-81876038D01*
X154434268Y-81971276D01*
X154386649Y-82161752D01*
X154386649Y-82304609D01*
X154434268Y-82495085D01*
X154481887Y-82590323D01*
X154577125Y-82685561D01*
X154719982Y-82733180D01*
X154958078Y-82733180D01*
X153958078Y-82209371D02*
X153624744Y-82209371D01*
X153481887Y-82733180D02*
X153958078Y-82733180D01*
X153958078Y-81733180D01*
X153481887Y-81733180D01*
X152481887Y-82733180D02*
X152815220Y-82256990D01*
X153053316Y-82733180D02*
X153053316Y-81733180D01*
X152672363Y-81733180D01*
X152577125Y-81780800D01*
X152529506Y-81828419D01*
X152481887Y-81923657D01*
X152481887Y-82066514D01*
X152529506Y-82161752D01*
X152577125Y-82209371D01*
X152672363Y-82256990D01*
X153053316Y-82256990D01*
X151100935Y-81733180D02*
X150910459Y-81733180D01*
X150815220Y-81780800D01*
X150719982Y-81876038D01*
X150672363Y-82066514D01*
X150672363Y-82399847D01*
X150719982Y-82590323D01*
X150815220Y-82685561D01*
X150910459Y-82733180D01*
X151100935Y-82733180D01*
X151196173Y-82685561D01*
X151291411Y-82590323D01*
X151339030Y-82399847D01*
X151339030Y-82066514D01*
X151291411Y-81876038D01*
X151196173Y-81780800D01*
X151100935Y-81733180D01*
X150243792Y-82733180D02*
X150243792Y-81733180D01*
X149672363Y-82733180D01*
X149672363Y-81733180D01*
X148243792Y-81733180D02*
X148053316Y-81733180D01*
X147958078Y-81780800D01*
X147862840Y-81876038D01*
X147815220Y-82066514D01*
X147815220Y-82399847D01*
X147862840Y-82590323D01*
X147958078Y-82685561D01*
X148053316Y-82733180D01*
X148243792Y-82733180D01*
X148339030Y-82685561D01*
X148434268Y-82590323D01*
X148481887Y-82399847D01*
X148481887Y-82066514D01*
X148434268Y-81876038D01*
X148339030Y-81780800D01*
X148243792Y-81733180D01*
X147386649Y-82733180D02*
X147386649Y-81733180D01*
X147005697Y-81733180D01*
X146910459Y-81780800D01*
X146862840Y-81828419D01*
X146815220Y-81923657D01*
X146815220Y-82066514D01*
X146862840Y-82161752D01*
X146910459Y-82209371D01*
X147005697Y-82256990D01*
X147386649Y-82256990D01*
X146386649Y-82733180D02*
X146386649Y-81733180D01*
X146005697Y-81733180D01*
X145910459Y-81780800D01*
X145862840Y-81828419D01*
X145815220Y-81923657D01*
X145815220Y-82066514D01*
X145862840Y-82161752D01*
X145910459Y-82209371D01*
X146005697Y-82256990D01*
X146386649Y-82256990D01*
X145196173Y-81733180D02*
X145005697Y-81733180D01*
X144910459Y-81780800D01*
X144815220Y-81876038D01*
X144767601Y-82066514D01*
X144767601Y-82399847D01*
X144815220Y-82590323D01*
X144910459Y-82685561D01*
X145005697Y-82733180D01*
X145196173Y-82733180D01*
X145291411Y-82685561D01*
X145386649Y-82590323D01*
X145434268Y-82399847D01*
X145434268Y-82066514D01*
X145386649Y-81876038D01*
X145291411Y-81780800D01*
X145196173Y-81733180D01*
X144386649Y-82685561D02*
X144243792Y-82733180D01*
X144005697Y-82733180D01*
X143910459Y-82685561D01*
X143862840Y-82637942D01*
X143815220Y-82542704D01*
X143815220Y-82447466D01*
X143862840Y-82352228D01*
X143910459Y-82304609D01*
X144005697Y-82256990D01*
X144196173Y-82209371D01*
X144291411Y-82161752D01*
X144339030Y-82114133D01*
X144386649Y-82018895D01*
X144386649Y-81923657D01*
X144339030Y-81828419D01*
X144291411Y-81780800D01*
X144196173Y-81733180D01*
X143958078Y-81733180D01*
X143815220Y-81780800D01*
X143386649Y-82733180D02*
X143386649Y-81733180D01*
X143053316Y-81733180D02*
X142481887Y-81733180D01*
X142767601Y-82733180D02*
X142767601Y-81733180D01*
X142148554Y-82209371D02*
X141815220Y-82209371D01*
X141672363Y-82733180D02*
X142148554Y-82733180D01*
X142148554Y-81733180D01*
X141672363Y-81733180D01*
X140529506Y-82685561D02*
X140386649Y-82733180D01*
X140148554Y-82733180D01*
X140053316Y-82685561D01*
X140005697Y-82637942D01*
X139958078Y-82542704D01*
X139958078Y-82447466D01*
X140005697Y-82352228D01*
X140053316Y-82304609D01*
X140148554Y-82256990D01*
X140339030Y-82209371D01*
X140434268Y-82161752D01*
X140481887Y-82114133D01*
X140529506Y-82018895D01*
X140529506Y-81923657D01*
X140481887Y-81828419D01*
X140434268Y-81780800D01*
X140339030Y-81733180D01*
X140100935Y-81733180D01*
X139958078Y-81780800D01*
X139529506Y-82733180D02*
X139529506Y-81733180D01*
X139053316Y-82733180D02*
X139053316Y-81733180D01*
X138815220Y-81733180D01*
X138672363Y-81780800D01*
X138577125Y-81876038D01*
X138529506Y-81971276D01*
X138481887Y-82161752D01*
X138481887Y-82304609D01*
X138529506Y-82495085D01*
X138577125Y-82590323D01*
X138672363Y-82685561D01*
X138815220Y-82733180D01*
X139053316Y-82733180D01*
X138053316Y-82209371D02*
X137719982Y-82209371D01*
X137577125Y-82733180D02*
X138053316Y-82733180D01*
X138053316Y-81733180D01*
X137577125Y-81733180D01*
D12*
G36*
X96000000Y-37500000D02*
G01*
X95000000Y-37500000D01*
X95500000Y-36750000D01*
X96000000Y-37500000D01*
G37*
X96000000Y-37500000D02*
X95000000Y-37500000D01*
X95500000Y-36750000D01*
X96000000Y-37500000D01*
G36*
X95500000Y-64000000D02*
G01*
X95000000Y-63250000D01*
X96000000Y-63250000D01*
X95500000Y-64000000D01*
G37*
X95500000Y-64000000D02*
X95000000Y-63250000D01*
X96000000Y-63250000D01*
X95500000Y-64000000D01*
D11*
X173578571Y-40666666D02*
X173578571Y-40333333D01*
X174102380Y-40333333D02*
X173102380Y-40333333D01*
X173102380Y-40809523D01*
X173102380Y-41380952D02*
X173102380Y-41571428D01*
X173150000Y-41666666D01*
X173245238Y-41761904D01*
X173435714Y-41809523D01*
X173769047Y-41809523D01*
X173959523Y-41761904D01*
X174054761Y-41666666D01*
X174102380Y-41571428D01*
X174102380Y-41380952D01*
X174054761Y-41285714D01*
X173959523Y-41190476D01*
X173769047Y-41142857D01*
X173435714Y-41142857D01*
X173245238Y-41190476D01*
X173150000Y-41285714D01*
X173102380Y-41380952D01*
X174102380Y-42809523D02*
X173626190Y-42476190D01*
X174102380Y-42238095D02*
X173102380Y-42238095D01*
X173102380Y-42619047D01*
X173150000Y-42714285D01*
X173197619Y-42761904D01*
X173292857Y-42809523D01*
X173435714Y-42809523D01*
X173530952Y-42761904D01*
X173578571Y-42714285D01*
X173626190Y-42619047D01*
X173626190Y-42238095D01*
X174007142Y-43809523D02*
X174054761Y-43761904D01*
X174102380Y-43619047D01*
X174102380Y-43523809D01*
X174054761Y-43380952D01*
X173959523Y-43285714D01*
X173864285Y-43238095D01*
X173673809Y-43190476D01*
X173530952Y-43190476D01*
X173340476Y-43238095D01*
X173245238Y-43285714D01*
X173150000Y-43380952D01*
X173102380Y-43523809D01*
X173102380Y-43619047D01*
X173150000Y-43761904D01*
X173197619Y-43809523D01*
X173578571Y-44238095D02*
X173578571Y-44571428D01*
X174102380Y-44714285D02*
X174102380Y-44238095D01*
X173102380Y-44238095D01*
X173102380Y-44714285D01*
X175754761Y-40357142D02*
X175802380Y-40500000D01*
X175802380Y-40738095D01*
X175754761Y-40833333D01*
X175707142Y-40880952D01*
X175611904Y-40928571D01*
X175516666Y-40928571D01*
X175421428Y-40880952D01*
X175373809Y-40833333D01*
X175326190Y-40738095D01*
X175278571Y-40547619D01*
X175230952Y-40452380D01*
X175183333Y-40404761D01*
X175088095Y-40357142D01*
X174992857Y-40357142D01*
X174897619Y-40404761D01*
X174850000Y-40452380D01*
X174802380Y-40547619D01*
X174802380Y-40785714D01*
X174850000Y-40928571D01*
X175278571Y-41357142D02*
X175278571Y-41690476D01*
X175802380Y-41833333D02*
X175802380Y-41357142D01*
X174802380Y-41357142D01*
X174802380Y-41833333D01*
X174802380Y-42119047D02*
X174802380Y-42690476D01*
X175802380Y-42404761D02*
X174802380Y-42404761D01*
X174802380Y-43023809D02*
X175611904Y-43023809D01*
X175707142Y-43071428D01*
X175754761Y-43119047D01*
X175802380Y-43214285D01*
X175802380Y-43404761D01*
X175754761Y-43500000D01*
X175707142Y-43547619D01*
X175611904Y-43595238D01*
X174802380Y-43595238D01*
X175802380Y-44071428D02*
X174802380Y-44071428D01*
X174802380Y-44452380D01*
X174850000Y-44547619D01*
X174897619Y-44595238D01*
X174992857Y-44642857D01*
X175135714Y-44642857D01*
X175230952Y-44595238D01*
X175278571Y-44547619D01*
X175326190Y-44452380D01*
X175326190Y-44071428D01*
X175702380Y-53297619D02*
X175226190Y-52964285D01*
X175702380Y-52726190D02*
X174702380Y-52726190D01*
X174702380Y-53107142D01*
X174750000Y-53202380D01*
X174797619Y-53250000D01*
X174892857Y-53297619D01*
X175035714Y-53297619D01*
X175130952Y-53250000D01*
X175178571Y-53202380D01*
X175226190Y-53107142D01*
X175226190Y-52726190D01*
X175178571Y-53726190D02*
X175178571Y-54059523D01*
X175702380Y-54202380D02*
X175702380Y-53726190D01*
X174702380Y-53726190D01*
X174702380Y-54202380D01*
X175654761Y-54583333D02*
X175702380Y-54726190D01*
X175702380Y-54964285D01*
X175654761Y-55059523D01*
X175607142Y-55107142D01*
X175511904Y-55154761D01*
X175416666Y-55154761D01*
X175321428Y-55107142D01*
X175273809Y-55059523D01*
X175226190Y-54964285D01*
X175178571Y-54773809D01*
X175130952Y-54678571D01*
X175083333Y-54630952D01*
X174988095Y-54583333D01*
X174892857Y-54583333D01*
X174797619Y-54630952D01*
X174750000Y-54678571D01*
X174702380Y-54773809D01*
X174702380Y-55011904D01*
X174750000Y-55154761D01*
X175178571Y-55583333D02*
X175178571Y-55916666D01*
X175702380Y-56059523D02*
X175702380Y-55583333D01*
X174702380Y-55583333D01*
X174702380Y-56059523D01*
X174702380Y-56345238D02*
X174702380Y-56916666D01*
X175702380Y-56630952D02*
X174702380Y-56630952D01*
X95952380Y-38130952D02*
X94952380Y-38130952D01*
X94952380Y-38369047D01*
X95000000Y-38511904D01*
X95095238Y-38607142D01*
X95190476Y-38654761D01*
X95380952Y-38702380D01*
X95523809Y-38702380D01*
X95714285Y-38654761D01*
X95809523Y-38607142D01*
X95904761Y-38511904D01*
X95952380Y-38369047D01*
X95952380Y-38130952D01*
X95952380Y-39130952D02*
X94952380Y-39130952D01*
X95904761Y-39559523D02*
X95952380Y-39702380D01*
X95952380Y-39940476D01*
X95904761Y-40035714D01*
X95857142Y-40083333D01*
X95761904Y-40130952D01*
X95666666Y-40130952D01*
X95571428Y-40083333D01*
X95523809Y-40035714D01*
X95476190Y-39940476D01*
X95428571Y-39750000D01*
X95380952Y-39654761D01*
X95333333Y-39607142D01*
X95238095Y-39559523D01*
X95142857Y-39559523D01*
X95047619Y-39607142D01*
X95000000Y-39654761D01*
X94952380Y-39750000D01*
X94952380Y-39988095D01*
X95000000Y-40130952D01*
X95666666Y-40511904D02*
X95666666Y-40988095D01*
X95952380Y-40416666D02*
X94952380Y-40750000D01*
X95952380Y-41083333D01*
X95428571Y-41750000D02*
X95476190Y-41892857D01*
X95523809Y-41940476D01*
X95619047Y-41988095D01*
X95761904Y-41988095D01*
X95857142Y-41940476D01*
X95904761Y-41892857D01*
X95952380Y-41797619D01*
X95952380Y-41416666D01*
X94952380Y-41416666D01*
X94952380Y-41750000D01*
X95000000Y-41845238D01*
X95047619Y-41892857D01*
X95142857Y-41940476D01*
X95238095Y-41940476D01*
X95333333Y-41892857D01*
X95380952Y-41845238D01*
X95428571Y-41750000D01*
X95428571Y-41416666D01*
X95952380Y-42892857D02*
X95952380Y-42416666D01*
X94952380Y-42416666D01*
X95428571Y-43226190D02*
X95428571Y-43559523D01*
X95952380Y-43702380D02*
X95952380Y-43226190D01*
X94952380Y-43226190D01*
X94952380Y-43702380D01*
X94952380Y-44797619D02*
X95952380Y-45035714D01*
X95238095Y-45226190D01*
X95952380Y-45416666D01*
X94952380Y-45654761D01*
X95952380Y-46035714D02*
X94952380Y-46035714D01*
X95428571Y-46845238D02*
X95428571Y-46511904D01*
X95952380Y-46511904D02*
X94952380Y-46511904D01*
X94952380Y-46988095D01*
X95952380Y-47369047D02*
X94952380Y-47369047D01*
D10*
X125928571Y-76342857D02*
X125714285Y-76414285D01*
X125642857Y-76485714D01*
X125571428Y-76628571D01*
X125571428Y-76842857D01*
X125642857Y-76985714D01*
X125714285Y-77057142D01*
X125857142Y-77128571D01*
X126428571Y-77128571D01*
X126428571Y-75628571D01*
X125928571Y-75628571D01*
X125785714Y-75700000D01*
X125714285Y-75771428D01*
X125642857Y-75914285D01*
X125642857Y-76057142D01*
X125714285Y-76200000D01*
X125785714Y-76271428D01*
X125928571Y-76342857D01*
X126428571Y-76342857D01*
X124928571Y-77128571D02*
X124928571Y-75628571D01*
X124071428Y-77128571D02*
X124714285Y-76271428D01*
X124071428Y-75628571D02*
X124928571Y-76485714D01*
X123428571Y-77128571D02*
X123428571Y-75628571D01*
X122928571Y-76700000D01*
X122428571Y-75628571D01*
X122428571Y-77128571D01*
X121714285Y-76557142D02*
X120571428Y-76557142D01*
X119071428Y-77128571D02*
X119928571Y-77128571D01*
X119500000Y-77128571D02*
X119500000Y-75628571D01*
X119642857Y-75842857D01*
X119785714Y-75985714D01*
X119928571Y-76057142D01*
X117714285Y-75628571D02*
X118428571Y-75628571D01*
X118500000Y-76342857D01*
X118428571Y-76271428D01*
X118285714Y-76200000D01*
X117928571Y-76200000D01*
X117785714Y-76271428D01*
X117714285Y-76342857D01*
X117642857Y-76485714D01*
X117642857Y-76842857D01*
X117714285Y-76985714D01*
X117785714Y-77057142D01*
X117928571Y-77128571D01*
X118285714Y-77128571D01*
X118428571Y-77057142D01*
X118500000Y-76985714D01*
X116142857Y-77128571D02*
X116642857Y-76414285D01*
X117000000Y-77128571D02*
X117000000Y-75628571D01*
X116428571Y-75628571D01*
X116285714Y-75700000D01*
X116214285Y-75771428D01*
X116142857Y-75914285D01*
X116142857Y-76128571D01*
X116214285Y-76271428D01*
X116285714Y-76342857D01*
X116428571Y-76414285D01*
X117000000Y-76414285D01*
X115500000Y-76557142D02*
X114357142Y-76557142D01*
X113642857Y-77128571D02*
X113642857Y-76128571D01*
X113642857Y-76271428D02*
X113571428Y-76200000D01*
X113428571Y-76128571D01*
X113214285Y-76128571D01*
X113071428Y-76200000D01*
X113000000Y-76342857D01*
X113000000Y-77128571D01*
X113000000Y-76342857D02*
X112928571Y-76200000D01*
X112785714Y-76128571D01*
X112571428Y-76128571D01*
X112428571Y-76200000D01*
X112357142Y-76342857D01*
X112357142Y-77128571D01*
X111642857Y-77128571D02*
X111642857Y-76128571D01*
X111642857Y-75628571D02*
X111714285Y-75700000D01*
X111642857Y-75771428D01*
X111571428Y-75700000D01*
X111642857Y-75628571D01*
X111642857Y-75771428D01*
X110928571Y-76128571D02*
X110928571Y-77128571D01*
X110928571Y-76271428D02*
X110857142Y-76200000D01*
X110714285Y-76128571D01*
X110500000Y-76128571D01*
X110357142Y-76200000D01*
X110285714Y-76342857D01*
X110285714Y-77128571D01*
X109571428Y-77128571D02*
X109571428Y-76128571D01*
X109571428Y-75628571D02*
X109642857Y-75700000D01*
X109571428Y-75771428D01*
X109500000Y-75700000D01*
X109571428Y-75628571D01*
X109571428Y-75771428D01*
X130035714Y-80250000D02*
X130107142Y-80178571D01*
X130250000Y-79964285D01*
X130321428Y-79821428D01*
X130392857Y-79607142D01*
X130464285Y-79250000D01*
X130464285Y-78964285D01*
X130392857Y-78607142D01*
X130321428Y-78392857D01*
X130250000Y-78250000D01*
X130107142Y-78035714D01*
X130035714Y-77964285D01*
X129535714Y-78321428D02*
X129464285Y-78250000D01*
X129321428Y-78178571D01*
X128964285Y-78178571D01*
X128821428Y-78250000D01*
X128750000Y-78321428D01*
X128678571Y-78464285D01*
X128678571Y-78607142D01*
X128750000Y-78821428D01*
X129607142Y-79678571D01*
X128678571Y-79678571D01*
X127750000Y-78178571D02*
X127607142Y-78178571D01*
X127464285Y-78250000D01*
X127392857Y-78321428D01*
X127321428Y-78464285D01*
X127250000Y-78750000D01*
X127250000Y-79107142D01*
X127321428Y-79392857D01*
X127392857Y-79535714D01*
X127464285Y-79607142D01*
X127607142Y-79678571D01*
X127750000Y-79678571D01*
X127892857Y-79607142D01*
X127964285Y-79535714D01*
X128035714Y-79392857D01*
X128107142Y-79107142D01*
X128107142Y-78750000D01*
X128035714Y-78464285D01*
X127964285Y-78321428D01*
X127892857Y-78250000D01*
X127750000Y-78178571D01*
X126678571Y-78321428D02*
X126607142Y-78250000D01*
X126464285Y-78178571D01*
X126107142Y-78178571D01*
X125964285Y-78250000D01*
X125892857Y-78321428D01*
X125821428Y-78464285D01*
X125821428Y-78607142D01*
X125892857Y-78821428D01*
X126750000Y-79678571D01*
X125821428Y-79678571D01*
X125250000Y-78321428D02*
X125178571Y-78250000D01*
X125035714Y-78178571D01*
X124678571Y-78178571D01*
X124535714Y-78250000D01*
X124464285Y-78321428D01*
X124392857Y-78464285D01*
X124392857Y-78607142D01*
X124464285Y-78821428D01*
X125321428Y-79678571D01*
X124392857Y-79678571D01*
X123892857Y-80250000D02*
X123821428Y-80178571D01*
X123678571Y-79964285D01*
X123607142Y-79821428D01*
X123535714Y-79607142D01*
X123464285Y-79250000D01*
X123464285Y-78964285D01*
X123535714Y-78607142D01*
X123607142Y-78392857D01*
X123678571Y-78250000D01*
X123821428Y-78035714D01*
X123892857Y-77964285D01*
X121607142Y-79678571D02*
X121607142Y-78178571D01*
X121107142Y-79250000D01*
X120607142Y-78178571D01*
X120607142Y-79678571D01*
X119250000Y-79678571D02*
X119250000Y-78892857D01*
X119321428Y-78750000D01*
X119464285Y-78678571D01*
X119750000Y-78678571D01*
X119892857Y-78750000D01*
X119250000Y-79607142D02*
X119392857Y-79678571D01*
X119750000Y-79678571D01*
X119892857Y-79607142D01*
X119964285Y-79464285D01*
X119964285Y-79321428D01*
X119892857Y-79178571D01*
X119750000Y-79107142D01*
X119392857Y-79107142D01*
X119250000Y-79035714D01*
X118535714Y-79678571D02*
X118535714Y-78678571D01*
X118535714Y-78964285D02*
X118464285Y-78821428D01*
X118392857Y-78750000D01*
X118250000Y-78678571D01*
X118107142Y-78678571D01*
X117821428Y-78678571D02*
X117250000Y-78678571D01*
X117607142Y-78178571D02*
X117607142Y-79464285D01*
X117535714Y-79607142D01*
X117392857Y-79678571D01*
X117250000Y-79678571D01*
X116750000Y-79678571D02*
X116750000Y-78678571D01*
X116750000Y-78178571D02*
X116821428Y-78250000D01*
X116750000Y-78321428D01*
X116678571Y-78250000D01*
X116750000Y-78178571D01*
X116750000Y-78321428D01*
X116035714Y-78678571D02*
X116035714Y-79678571D01*
X116035714Y-78821428D02*
X115964285Y-78750000D01*
X115821428Y-78678571D01*
X115607142Y-78678571D01*
X115464285Y-78750000D01*
X115392857Y-78892857D01*
X115392857Y-79678571D01*
X113535714Y-79678571D02*
X113535714Y-78178571D01*
X113535714Y-78892857D02*
X112678571Y-78892857D01*
X112678571Y-79678571D02*
X112678571Y-78178571D01*
X111392857Y-79607142D02*
X111535714Y-79678571D01*
X111821428Y-79678571D01*
X111964285Y-79607142D01*
X112035714Y-79464285D01*
X112035714Y-78892857D01*
X111964285Y-78750000D01*
X111821428Y-78678571D01*
X111535714Y-78678571D01*
X111392857Y-78750000D01*
X111321428Y-78892857D01*
X111321428Y-79035714D01*
X112035714Y-79178571D01*
X110678571Y-78678571D02*
X110678571Y-79964285D01*
X110750000Y-80107142D01*
X110892857Y-80178571D01*
X110964285Y-80178571D01*
X110678571Y-78178571D02*
X110750000Y-78250000D01*
X110678571Y-78321428D01*
X110607142Y-78250000D01*
X110678571Y-78178571D01*
X110678571Y-78321428D01*
X109964285Y-78678571D02*
X109964285Y-79678571D01*
X109964285Y-78821428D02*
X109892857Y-78750000D01*
X109750000Y-78678571D01*
X109535714Y-78678571D01*
X109392857Y-78750000D01*
X109321428Y-78892857D01*
X109321428Y-79678571D01*
X108821428Y-78678571D02*
X108250000Y-78678571D01*
X108607142Y-79678571D02*
X108607142Y-78392857D01*
X108535714Y-78250000D01*
X108392857Y-78178571D01*
X108250000Y-78178571D01*
X107178571Y-79607142D02*
X107321428Y-79678571D01*
X107607142Y-79678571D01*
X107750000Y-79607142D01*
X107821428Y-79464285D01*
X107821428Y-78892857D01*
X107750000Y-78750000D01*
X107607142Y-78678571D01*
X107321428Y-78678571D01*
X107178571Y-78750000D01*
X107107142Y-78892857D01*
X107107142Y-79035714D01*
X107821428Y-79178571D01*
X106250000Y-79678571D02*
X106392857Y-79607142D01*
X106464285Y-79464285D01*
X106464285Y-78178571D01*
X105892857Y-78678571D02*
X105321428Y-78678571D01*
X105678571Y-78178571D02*
X105678571Y-79464285D01*
X105607142Y-79607142D01*
X105464285Y-79678571D01*
X105321428Y-79678571D01*
X128607142Y-81228571D02*
X128321428Y-82228571D01*
X128035714Y-81514285D01*
X127750000Y-82228571D01*
X127464285Y-81228571D01*
X127035714Y-81228571D02*
X126750000Y-82228571D01*
X126464285Y-81514285D01*
X126178571Y-82228571D01*
X125892857Y-81228571D01*
X125464285Y-81228571D02*
X125178571Y-82228571D01*
X124892857Y-81514285D01*
X124607142Y-82228571D01*
X124321428Y-81228571D01*
X123750000Y-82085714D02*
X123678571Y-82157142D01*
X123750000Y-82228571D01*
X123821428Y-82157142D01*
X123750000Y-82085714D01*
X123750000Y-82228571D01*
X123035714Y-82228571D02*
X123035714Y-81228571D01*
X123035714Y-80728571D02*
X123107142Y-80800000D01*
X123035714Y-80871428D01*
X122964285Y-80800000D01*
X123035714Y-80728571D01*
X123035714Y-80871428D01*
X122321428Y-82228571D02*
X122321428Y-81228571D01*
X122321428Y-81371428D02*
X122250000Y-81300000D01*
X122107142Y-81228571D01*
X121892857Y-81228571D01*
X121750000Y-81300000D01*
X121678571Y-81442857D01*
X121678571Y-82228571D01*
X121678571Y-81442857D02*
X121607142Y-81300000D01*
X121464285Y-81228571D01*
X121250000Y-81228571D01*
X121107142Y-81300000D01*
X121035714Y-81442857D01*
X121035714Y-82228571D01*
X120321428Y-82228571D02*
X120321428Y-81228571D01*
X120321428Y-81371428D02*
X120250000Y-81300000D01*
X120107142Y-81228571D01*
X119892857Y-81228571D01*
X119750000Y-81300000D01*
X119678571Y-81442857D01*
X119678571Y-82228571D01*
X119678571Y-81442857D02*
X119607142Y-81300000D01*
X119464285Y-81228571D01*
X119250000Y-81228571D01*
X119107142Y-81300000D01*
X119035714Y-81442857D01*
X119035714Y-82228571D01*
X117750000Y-82157142D02*
X117892857Y-82228571D01*
X118178571Y-82228571D01*
X118321428Y-82157142D01*
X118392857Y-82014285D01*
X118392857Y-81442857D01*
X118321428Y-81300000D01*
X118178571Y-81228571D01*
X117892857Y-81228571D01*
X117750000Y-81300000D01*
X117678571Y-81442857D01*
X117678571Y-81585714D01*
X118392857Y-81728571D01*
X117035714Y-82228571D02*
X117035714Y-81228571D01*
X117035714Y-81514285D02*
X116964285Y-81371428D01*
X116892857Y-81300000D01*
X116750000Y-81228571D01*
X116607142Y-81228571D01*
X116107142Y-82228571D02*
X116107142Y-80728571D01*
X115464285Y-82228571D02*
X115464285Y-81442857D01*
X115535714Y-81300000D01*
X115678571Y-81228571D01*
X115892857Y-81228571D01*
X116035714Y-81300000D01*
X116107142Y-81371428D01*
X114107142Y-82228571D02*
X114107142Y-81442857D01*
X114178571Y-81300000D01*
X114321428Y-81228571D01*
X114607142Y-81228571D01*
X114750000Y-81300000D01*
X114107142Y-82157142D02*
X114250000Y-82228571D01*
X114607142Y-82228571D01*
X114750000Y-82157142D01*
X114821428Y-82014285D01*
X114821428Y-81871428D01*
X114750000Y-81728571D01*
X114607142Y-81657142D01*
X114250000Y-81657142D01*
X114107142Y-81585714D01*
X113535714Y-82228571D02*
X112750000Y-81228571D01*
X113535714Y-81228571D02*
X112750000Y-82228571D01*
X112178571Y-82085714D02*
X112107142Y-82157142D01*
X112178571Y-82228571D01*
X112250000Y-82157142D01*
X112178571Y-82085714D01*
X112178571Y-82228571D01*
X110821428Y-82157142D02*
X110964285Y-82228571D01*
X111250000Y-82228571D01*
X111392857Y-82157142D01*
X111464285Y-82085714D01*
X111535714Y-81942857D01*
X111535714Y-81514285D01*
X111464285Y-81371428D01*
X111392857Y-81300000D01*
X111250000Y-81228571D01*
X110964285Y-81228571D01*
X110821428Y-81300000D01*
X109964285Y-82228571D02*
X110107142Y-82157142D01*
X110178571Y-82085714D01*
X110250000Y-81942857D01*
X110250000Y-81514285D01*
X110178571Y-81371428D01*
X110107142Y-81300000D01*
X109964285Y-81228571D01*
X109750000Y-81228571D01*
X109607142Y-81300000D01*
X109535714Y-81371428D01*
X109464285Y-81514285D01*
X109464285Y-81942857D01*
X109535714Y-82085714D01*
X109607142Y-82157142D01*
X109750000Y-82228571D01*
X109964285Y-82228571D01*
X108821428Y-82228571D02*
X108821428Y-81228571D01*
X108821428Y-81371428D02*
X108750000Y-81300000D01*
X108607142Y-81228571D01*
X108392857Y-81228571D01*
X108250000Y-81300000D01*
X108178571Y-81442857D01*
X108178571Y-82228571D01*
X108178571Y-81442857D02*
X108107142Y-81300000D01*
X107964285Y-81228571D01*
X107750000Y-81228571D01*
X107607142Y-81300000D01*
X107535714Y-81442857D01*
X107535714Y-82228571D01*
X141678571Y-63992857D02*
X141178571Y-63992857D01*
X140964285Y-64778571D02*
X141678571Y-64778571D01*
X141678571Y-63278571D01*
X140964285Y-63278571D01*
X140321428Y-64778571D02*
X140321428Y-63278571D01*
X139464285Y-64778571D01*
X139464285Y-63278571D01*
X138964285Y-63278571D02*
X138107142Y-63278571D01*
X138535714Y-64778571D02*
X138535714Y-63278571D01*
X152071428Y-63278571D02*
X151928571Y-63278571D01*
X151785714Y-63350000D01*
X151714285Y-63421428D01*
X151642857Y-63564285D01*
X151571428Y-63850000D01*
X151571428Y-64207142D01*
X151642857Y-64492857D01*
X151714285Y-64635714D01*
X151785714Y-64707142D01*
X151928571Y-64778571D01*
X152071428Y-64778571D01*
X152214285Y-64707142D01*
X152285714Y-64635714D01*
X152357142Y-64492857D01*
X152428571Y-64207142D01*
X152428571Y-63850000D01*
X152357142Y-63564285D01*
X152285714Y-63421428D01*
X152214285Y-63350000D01*
X152071428Y-63278571D01*
X165678571Y-64778571D02*
X165678571Y-63278571D01*
X165321428Y-63278571D01*
X165107142Y-63350000D01*
X164964285Y-63492857D01*
X164892857Y-63635714D01*
X164821428Y-63921428D01*
X164821428Y-64135714D01*
X164892857Y-64421428D01*
X164964285Y-64564285D01*
X165107142Y-64707142D01*
X165321428Y-64778571D01*
X165678571Y-64778571D01*
X164178571Y-63992857D02*
X163678571Y-63992857D01*
X163464285Y-64778571D02*
X164178571Y-64778571D01*
X164178571Y-63278571D01*
X163464285Y-63278571D01*
X162107142Y-64778571D02*
X162821428Y-64778571D01*
X162821428Y-63278571D01*
X164500000Y-50778571D02*
X163500000Y-50778571D01*
X164142857Y-52278571D01*
X152142857Y-51421428D02*
X152285714Y-51350000D01*
X152357142Y-51278571D01*
X152428571Y-51135714D01*
X152428571Y-51064285D01*
X152357142Y-50921428D01*
X152285714Y-50850000D01*
X152142857Y-50778571D01*
X151857142Y-50778571D01*
X151714285Y-50850000D01*
X151642857Y-50921428D01*
X151571428Y-51064285D01*
X151571428Y-51135714D01*
X151642857Y-51278571D01*
X151714285Y-51350000D01*
X151857142Y-51421428D01*
X152142857Y-51421428D01*
X152285714Y-51492857D01*
X152357142Y-51564285D01*
X152428571Y-51707142D01*
X152428571Y-51992857D01*
X152357142Y-52135714D01*
X152285714Y-52207142D01*
X152142857Y-52278571D01*
X151857142Y-52278571D01*
X151714285Y-52207142D01*
X151642857Y-52135714D01*
X151571428Y-51992857D01*
X151571428Y-51707142D01*
X151642857Y-51564285D01*
X151714285Y-51492857D01*
X151857142Y-51421428D01*
X140285714Y-52278571D02*
X140000000Y-52278571D01*
X139857142Y-52207142D01*
X139785714Y-52135714D01*
X139642857Y-51921428D01*
X139571428Y-51635714D01*
X139571428Y-51064285D01*
X139642857Y-50921428D01*
X139714285Y-50850000D01*
X139857142Y-50778571D01*
X140142857Y-50778571D01*
X140285714Y-50850000D01*
X140357142Y-50921428D01*
X140428571Y-51064285D01*
X140428571Y-51421428D01*
X140357142Y-51564285D01*
X140285714Y-51635714D01*
X140142857Y-51707142D01*
X139857142Y-51707142D01*
X139714285Y-51635714D01*
X139642857Y-51564285D01*
X139571428Y-51421428D01*
X139714285Y-38778571D02*
X140000000Y-38778571D01*
X140142857Y-38850000D01*
X140214285Y-38921428D01*
X140357142Y-39135714D01*
X140428571Y-39421428D01*
X140428571Y-39992857D01*
X140357142Y-40135714D01*
X140285714Y-40207142D01*
X140142857Y-40278571D01*
X139857142Y-40278571D01*
X139714285Y-40207142D01*
X139642857Y-40135714D01*
X139571428Y-39992857D01*
X139571428Y-39635714D01*
X139642857Y-39492857D01*
X139714285Y-39421428D01*
X139857142Y-39350000D01*
X140142857Y-39350000D01*
X140285714Y-39421428D01*
X140357142Y-39492857D01*
X140428571Y-39635714D01*
X151642857Y-38778571D02*
X152357142Y-38778571D01*
X152428571Y-39492857D01*
X152357142Y-39421428D01*
X152214285Y-39350000D01*
X151857142Y-39350000D01*
X151714285Y-39421428D01*
X151642857Y-39492857D01*
X151571428Y-39635714D01*
X151571428Y-39992857D01*
X151642857Y-40135714D01*
X151714285Y-40207142D01*
X151857142Y-40278571D01*
X152214285Y-40278571D01*
X152357142Y-40207142D01*
X152428571Y-40135714D01*
X163714285Y-39278571D02*
X163714285Y-40278571D01*
X164071428Y-38707142D02*
X164428571Y-39778571D01*
X163500000Y-39778571D01*
X163571428Y-28778571D02*
X164428571Y-28778571D01*
X164000000Y-28778571D02*
X164000000Y-27278571D01*
X164142857Y-27492857D01*
X164285714Y-27635714D01*
X164428571Y-27707142D01*
X152428571Y-27421428D02*
X152357142Y-27350000D01*
X152214285Y-27278571D01*
X151857142Y-27278571D01*
X151714285Y-27350000D01*
X151642857Y-27421428D01*
X151571428Y-27564285D01*
X151571428Y-27707142D01*
X151642857Y-27921428D01*
X152500000Y-28778571D01*
X151571428Y-28778571D01*
X140500000Y-27278571D02*
X139571428Y-27278571D01*
X140071428Y-27850000D01*
X139857142Y-27850000D01*
X139714285Y-27921428D01*
X139642857Y-27992857D01*
X139571428Y-28135714D01*
X139571428Y-28492857D01*
X139642857Y-28635714D01*
X139714285Y-28707142D01*
X139857142Y-28778571D01*
X140285714Y-28778571D01*
X140428571Y-28707142D01*
X140500000Y-28635714D01*
X107250000Y-52278571D02*
X107250000Y-50778571D01*
X106750000Y-51850000D01*
X106250000Y-50778571D01*
X106250000Y-52278571D01*
X105535714Y-51492857D02*
X105035714Y-51492857D01*
X104821428Y-52278571D02*
X105535714Y-52278571D01*
X105535714Y-50778571D01*
X104821428Y-50778571D01*
X104178571Y-52278571D02*
X104178571Y-50778571D01*
X103321428Y-52278571D01*
X103321428Y-50778571D01*
X102607142Y-50778571D02*
X102607142Y-51992857D01*
X102535714Y-52135714D01*
X102464285Y-52207142D01*
X102321428Y-52278571D01*
X102035714Y-52278571D01*
X101892857Y-52207142D01*
X101821428Y-52135714D01*
X101750000Y-51992857D01*
X101750000Y-50778571D01*
X107607142Y-63492857D02*
X107107142Y-63492857D01*
X106892857Y-64278571D02*
X107607142Y-64278571D01*
X107607142Y-62778571D01*
X106892857Y-62778571D01*
X106250000Y-64278571D02*
X106250000Y-62778571D01*
X105392857Y-64278571D01*
X105392857Y-62778571D01*
X104892857Y-62778571D02*
X104035714Y-62778571D01*
X104464285Y-64278571D02*
X104464285Y-62778571D01*
X103535714Y-63492857D02*
X103035714Y-63492857D01*
X102821428Y-64278571D02*
X103535714Y-64278571D01*
X103535714Y-62778571D01*
X102821428Y-62778571D01*
X101321428Y-64278571D02*
X101821428Y-63564285D01*
X102178571Y-64278571D02*
X102178571Y-62778571D01*
X101607142Y-62778571D01*
X101464285Y-62850000D01*
X101392857Y-62921428D01*
X101321428Y-63064285D01*
X101321428Y-63278571D01*
X101392857Y-63421428D01*
X101464285Y-63492857D01*
X101607142Y-63564285D01*
X102178571Y-63564285D01*
X119321428Y-64278571D02*
X119321428Y-62778571D01*
X118964285Y-62778571D01*
X118750000Y-62850000D01*
X118607142Y-62992857D01*
X118535714Y-63135714D01*
X118464285Y-63421428D01*
X118464285Y-63635714D01*
X118535714Y-63921428D01*
X118607142Y-64064285D01*
X118750000Y-64207142D01*
X118964285Y-64278571D01*
X119321428Y-64278571D01*
X117535714Y-62778571D02*
X117250000Y-62778571D01*
X117107142Y-62850000D01*
X116964285Y-62992857D01*
X116892857Y-63278571D01*
X116892857Y-63778571D01*
X116964285Y-64064285D01*
X117107142Y-64207142D01*
X117250000Y-64278571D01*
X117535714Y-64278571D01*
X117678571Y-64207142D01*
X117821428Y-64064285D01*
X117892857Y-63778571D01*
X117892857Y-63278571D01*
X117821428Y-62992857D01*
X117678571Y-62850000D01*
X117535714Y-62778571D01*
X116392857Y-62778571D02*
X116035714Y-64278571D01*
X115750000Y-63207142D01*
X115464285Y-64278571D01*
X115107142Y-62778571D01*
X114535714Y-64278571D02*
X114535714Y-62778571D01*
X113678571Y-64278571D01*
X113678571Y-62778571D01*
X117678571Y-50778571D02*
X117678571Y-51992857D01*
X117607142Y-52135714D01*
X117535714Y-52207142D01*
X117392857Y-52278571D01*
X117107142Y-52278571D01*
X116964285Y-52207142D01*
X116892857Y-52135714D01*
X116821428Y-51992857D01*
X116821428Y-50778571D01*
X116107142Y-52278571D02*
X116107142Y-50778571D01*
X115535714Y-50778571D01*
X115392857Y-50850000D01*
X115321428Y-50921428D01*
X115250000Y-51064285D01*
X115250000Y-51278571D01*
X115321428Y-51421428D01*
X115392857Y-51492857D01*
X115535714Y-51564285D01*
X116107142Y-51564285D01*
X107964285Y-39778571D02*
X107964285Y-38278571D01*
X107392857Y-38278571D01*
X107250000Y-38350000D01*
X107178571Y-38421428D01*
X107107142Y-38564285D01*
X107107142Y-38778571D01*
X107178571Y-38921428D01*
X107250000Y-38992857D01*
X107392857Y-39064285D01*
X107964285Y-39064285D01*
X106178571Y-38278571D02*
X105892857Y-38278571D01*
X105750000Y-38350000D01*
X105607142Y-38492857D01*
X105535714Y-38778571D01*
X105535714Y-39278571D01*
X105607142Y-39564285D01*
X105750000Y-39707142D01*
X105892857Y-39778571D01*
X106178571Y-39778571D01*
X106321428Y-39707142D01*
X106464285Y-39564285D01*
X106535714Y-39278571D01*
X106535714Y-38778571D01*
X106464285Y-38492857D01*
X106321428Y-38350000D01*
X106178571Y-38278571D01*
X105035714Y-38278571D02*
X104678571Y-39778571D01*
X104392857Y-38707142D01*
X104107142Y-39778571D01*
X103750000Y-38278571D01*
X103178571Y-38992857D02*
X102678571Y-38992857D01*
X102464285Y-39778571D02*
X103178571Y-39778571D01*
X103178571Y-38278571D01*
X102464285Y-38278571D01*
X100964285Y-39778571D02*
X101464285Y-39064285D01*
X101821428Y-39778571D02*
X101821428Y-38278571D01*
X101250000Y-38278571D01*
X101107142Y-38350000D01*
X101035714Y-38421428D01*
X100964285Y-38564285D01*
X100964285Y-38778571D01*
X101035714Y-38921428D01*
X101107142Y-38992857D01*
X101250000Y-39064285D01*
X101821428Y-39064285D01*
D12*
%TO.C,SW101*%
G36*
X165000000Y-32600000D02*
G01*
X163000000Y-32600000D01*
X163000000Y-34600000D01*
X165000000Y-34600000D01*
X165000000Y-32600000D01*
G37*
X165000000Y-32600000D02*
X163000000Y-32600000D01*
X163000000Y-34600000D01*
X165000000Y-34600000D01*
X165000000Y-32600000D01*
D11*
X161000000Y-35600000D02*
X161000000Y-31600000D01*
X163000000Y-36600000D02*
X165000000Y-36600000D01*
X167000000Y-35600000D02*
X167000000Y-31600000D01*
X163000000Y-30600000D02*
X165000000Y-30600000D01*
D12*
%TO.C,SW102*%
G36*
X153000000Y-32600000D02*
G01*
X151000000Y-32600000D01*
X151000000Y-34600000D01*
X153000000Y-34600000D01*
X153000000Y-32600000D01*
G37*
X153000000Y-32600000D02*
X151000000Y-32600000D01*
X151000000Y-34600000D01*
X153000000Y-34600000D01*
X153000000Y-32600000D01*
D11*
X149000000Y-35600000D02*
X149000000Y-31600000D01*
X151000000Y-36600000D02*
X153000000Y-36600000D01*
X155000000Y-35600000D02*
X155000000Y-31600000D01*
X151000000Y-30600000D02*
X153000000Y-30600000D01*
%TO.C,SW103*%
X139000000Y-30600000D02*
X141000000Y-30600000D01*
X143000000Y-35600000D02*
X143000000Y-31600000D01*
X139000000Y-36600000D02*
X141000000Y-36600000D01*
X137000000Y-35600000D02*
X137000000Y-31600000D01*
D12*
G36*
X141000000Y-32600000D02*
G01*
X139000000Y-32600000D01*
X139000000Y-34600000D01*
X141000000Y-34600000D01*
X141000000Y-32600000D01*
G37*
X141000000Y-32600000D02*
X139000000Y-32600000D01*
X139000000Y-34600000D01*
X141000000Y-34600000D01*
X141000000Y-32600000D01*
D11*
%TO.C,SW104*%
X163000000Y-42600000D02*
X165000000Y-42600000D01*
X167000000Y-47600000D02*
X167000000Y-43600000D01*
X163000000Y-48600000D02*
X165000000Y-48600000D01*
X161000000Y-47600000D02*
X161000000Y-43600000D01*
D12*
G36*
X165000000Y-44600000D02*
G01*
X163000000Y-44600000D01*
X163000000Y-46600000D01*
X165000000Y-46600000D01*
X165000000Y-44600000D01*
G37*
X165000000Y-44600000D02*
X163000000Y-44600000D01*
X163000000Y-46600000D01*
X165000000Y-46600000D01*
X165000000Y-44600000D01*
D11*
%TO.C,SW105*%
X151000000Y-42600000D02*
X153000000Y-42600000D01*
X155000000Y-47600000D02*
X155000000Y-43600000D01*
X151000000Y-48600000D02*
X153000000Y-48600000D01*
X149000000Y-47600000D02*
X149000000Y-43600000D01*
D12*
G36*
X153000000Y-44600000D02*
G01*
X151000000Y-44600000D01*
X151000000Y-46600000D01*
X153000000Y-46600000D01*
X153000000Y-44600000D01*
G37*
X153000000Y-44600000D02*
X151000000Y-44600000D01*
X151000000Y-46600000D01*
X153000000Y-46600000D01*
X153000000Y-44600000D01*
D11*
%TO.C,SW106*%
X139000000Y-42600000D02*
X141000000Y-42600000D01*
X143000000Y-47600000D02*
X143000000Y-43600000D01*
X139000000Y-48600000D02*
X141000000Y-48600000D01*
X137000000Y-47600000D02*
X137000000Y-43600000D01*
D12*
G36*
X141000000Y-44600000D02*
G01*
X139000000Y-44600000D01*
X139000000Y-46600000D01*
X141000000Y-46600000D01*
X141000000Y-44600000D01*
G37*
X141000000Y-44600000D02*
X139000000Y-44600000D01*
X139000000Y-46600000D01*
X141000000Y-46600000D01*
X141000000Y-44600000D01*
D11*
%TO.C,SW107*%
X163000000Y-54600000D02*
X165000000Y-54600000D01*
X167000000Y-59600000D02*
X167000000Y-55600000D01*
X163000000Y-60600000D02*
X165000000Y-60600000D01*
X161000000Y-59600000D02*
X161000000Y-55600000D01*
D12*
G36*
X165000000Y-56600000D02*
G01*
X163000000Y-56600000D01*
X163000000Y-58600000D01*
X165000000Y-58600000D01*
X165000000Y-56600000D01*
G37*
X165000000Y-56600000D02*
X163000000Y-56600000D01*
X163000000Y-58600000D01*
X165000000Y-58600000D01*
X165000000Y-56600000D01*
%TO.C,SW108*%
G36*
X153000000Y-56600000D02*
G01*
X151000000Y-56600000D01*
X151000000Y-58600000D01*
X153000000Y-58600000D01*
X153000000Y-56600000D01*
G37*
X153000000Y-56600000D02*
X151000000Y-56600000D01*
X151000000Y-58600000D01*
X153000000Y-58600000D01*
X153000000Y-56600000D01*
D11*
X149000000Y-59600000D02*
X149000000Y-55600000D01*
X151000000Y-60600000D02*
X153000000Y-60600000D01*
X155000000Y-59600000D02*
X155000000Y-55600000D01*
X151000000Y-54600000D02*
X153000000Y-54600000D01*
D12*
%TO.C,SW109*%
G36*
X141000000Y-56600000D02*
G01*
X139000000Y-56600000D01*
X139000000Y-58600000D01*
X141000000Y-58600000D01*
X141000000Y-56600000D01*
G37*
X141000000Y-56600000D02*
X139000000Y-56600000D01*
X139000000Y-58600000D01*
X141000000Y-58600000D01*
X141000000Y-56600000D01*
D11*
X137000000Y-59600000D02*
X137000000Y-55600000D01*
X139000000Y-60600000D02*
X141000000Y-60600000D01*
X143000000Y-59600000D02*
X143000000Y-55600000D01*
X139000000Y-54600000D02*
X141000000Y-54600000D01*
%TO.C,SW110*%
X163000000Y-66600000D02*
X165000000Y-66600000D01*
X167000000Y-71600000D02*
X167000000Y-67600000D01*
X163000000Y-72600000D02*
X165000000Y-72600000D01*
X161000000Y-71600000D02*
X161000000Y-67600000D01*
D12*
G36*
X165000000Y-68600000D02*
G01*
X163000000Y-68600000D01*
X163000000Y-70600000D01*
X165000000Y-70600000D01*
X165000000Y-68600000D01*
G37*
X165000000Y-68600000D02*
X163000000Y-68600000D01*
X163000000Y-70600000D01*
X165000000Y-70600000D01*
X165000000Y-68600000D01*
%TO.C,SW111*%
G36*
X153000000Y-68600000D02*
G01*
X151000000Y-68600000D01*
X151000000Y-70600000D01*
X153000000Y-70600000D01*
X153000000Y-68600000D01*
G37*
X153000000Y-68600000D02*
X151000000Y-68600000D01*
X151000000Y-70600000D01*
X153000000Y-70600000D01*
X153000000Y-68600000D01*
D11*
X149000000Y-71600000D02*
X149000000Y-67600000D01*
X151000000Y-72600000D02*
X153000000Y-72600000D01*
X155000000Y-71600000D02*
X155000000Y-67600000D01*
X151000000Y-66600000D02*
X153000000Y-66600000D01*
%TO.C,SW112*%
X139000000Y-66600000D02*
X141000000Y-66600000D01*
X143000000Y-71600000D02*
X143000000Y-67600000D01*
X139000000Y-72600000D02*
X141000000Y-72600000D01*
X137000000Y-71600000D02*
X137000000Y-67600000D01*
D12*
G36*
X141000000Y-68600000D02*
G01*
X139000000Y-68600000D01*
X139000000Y-70600000D01*
X141000000Y-70600000D01*
X141000000Y-68600000D01*
G37*
X141000000Y-68600000D02*
X139000000Y-68600000D01*
X139000000Y-70600000D01*
X141000000Y-70600000D01*
X141000000Y-68600000D01*
%TO.C,SW201*%
G36*
X115500000Y-58600000D02*
G01*
X117500000Y-58600000D01*
X117500000Y-56600000D01*
X115500000Y-56600000D01*
X115500000Y-58600000D01*
G37*
X115500000Y-58600000D02*
X117500000Y-58600000D01*
X117500000Y-56600000D01*
X115500000Y-56600000D01*
X115500000Y-58600000D01*
D11*
X119500000Y-55600000D02*
X119500000Y-59600000D01*
X117500000Y-54600000D02*
X115500000Y-54600000D01*
X113500000Y-55600000D02*
X113500000Y-59600000D01*
X117500000Y-60600000D02*
X115500000Y-60600000D01*
D12*
%TO.C,SW202*%
G36*
X103500000Y-58600000D02*
G01*
X105500000Y-58600000D01*
X105500000Y-56600000D01*
X103500000Y-56600000D01*
X103500000Y-58600000D01*
G37*
X103500000Y-58600000D02*
X105500000Y-58600000D01*
X105500000Y-56600000D01*
X103500000Y-56600000D01*
X103500000Y-58600000D01*
D11*
X107500000Y-55600000D02*
X107500000Y-59600000D01*
X105500000Y-54600000D02*
X103500000Y-54600000D01*
X101500000Y-55600000D02*
X101500000Y-59600000D01*
X105500000Y-60600000D02*
X103500000Y-60600000D01*
D12*
%TO.C,SW203*%
G36*
X115500000Y-70600000D02*
G01*
X117500000Y-70600000D01*
X117500000Y-68600000D01*
X115500000Y-68600000D01*
X115500000Y-70600000D01*
G37*
X115500000Y-70600000D02*
X117500000Y-70600000D01*
X117500000Y-68600000D01*
X115500000Y-68600000D01*
X115500000Y-70600000D01*
D11*
X119500000Y-67600000D02*
X119500000Y-71600000D01*
X117500000Y-66600000D02*
X115500000Y-66600000D01*
X113500000Y-67600000D02*
X113500000Y-71600000D01*
X117500000Y-72600000D02*
X115500000Y-72600000D01*
%TO.C,SW204*%
X105500000Y-72600000D02*
X103500000Y-72600000D01*
X101500000Y-67600000D02*
X101500000Y-71600000D01*
X105500000Y-66600000D02*
X103500000Y-66600000D01*
X107500000Y-67600000D02*
X107500000Y-71600000D01*
D12*
G36*
X103500000Y-70600000D02*
G01*
X105500000Y-70600000D01*
X105500000Y-68600000D01*
X103500000Y-68600000D01*
X103500000Y-70600000D01*
G37*
X103500000Y-70600000D02*
X105500000Y-70600000D01*
X105500000Y-68600000D01*
X103500000Y-68600000D01*
X103500000Y-70600000D01*
%TO.C,SW205*%
G36*
X105500000Y-32600000D02*
G01*
X103500000Y-32600000D01*
X103500000Y-34600000D01*
X105500000Y-34600000D01*
X105500000Y-32600000D01*
G37*
X105500000Y-32600000D02*
X103500000Y-32600000D01*
X103500000Y-34600000D01*
X105500000Y-34600000D01*
X105500000Y-32600000D01*
D11*
X101500000Y-35600000D02*
X101500000Y-31600000D01*
X103500000Y-36600000D02*
X105500000Y-36600000D01*
X107500000Y-35600000D02*
X107500000Y-31600000D01*
X103500000Y-30600000D02*
X105500000Y-30600000D01*
%TO.C,SW101*%
D13*
X168904761Y-31314285D02*
X168952380Y-31457142D01*
X168952380Y-31695238D01*
X168904761Y-31790476D01*
X168857142Y-31838095D01*
X168761904Y-31885714D01*
X168666666Y-31885714D01*
X168571428Y-31838095D01*
X168523809Y-31790476D01*
X168476190Y-31695238D01*
X168428571Y-31504761D01*
X168380952Y-31409523D01*
X168333333Y-31361904D01*
X168238095Y-31314285D01*
X168142857Y-31314285D01*
X168047619Y-31361904D01*
X168000000Y-31409523D01*
X167952380Y-31504761D01*
X167952380Y-31742857D01*
X168000000Y-31885714D01*
X167952380Y-32219047D02*
X168952380Y-32457142D01*
X168238095Y-32647619D01*
X168952380Y-32838095D01*
X167952380Y-33076190D01*
X168952380Y-33980952D02*
X168952380Y-33409523D01*
X168952380Y-33695238D02*
X167952380Y-33695238D01*
X168095238Y-33600000D01*
X168190476Y-33504761D01*
X168238095Y-33409523D01*
X167952380Y-34600000D02*
X167952380Y-34695238D01*
X168000000Y-34790476D01*
X168047619Y-34838095D01*
X168142857Y-34885714D01*
X168333333Y-34933333D01*
X168571428Y-34933333D01*
X168761904Y-34885714D01*
X168857142Y-34838095D01*
X168904761Y-34790476D01*
X168952380Y-34695238D01*
X168952380Y-34600000D01*
X168904761Y-34504761D01*
X168857142Y-34457142D01*
X168761904Y-34409523D01*
X168571428Y-34361904D01*
X168333333Y-34361904D01*
X168142857Y-34409523D01*
X168047619Y-34457142D01*
X168000000Y-34504761D01*
X167952380Y-34600000D01*
X168952380Y-35885714D02*
X168952380Y-35314285D01*
X168952380Y-35600000D02*
X167952380Y-35600000D01*
X168095238Y-35504761D01*
X168190476Y-35409523D01*
X168238095Y-35314285D01*
%TO.C,SW102*%
X156904761Y-31314285D02*
X156952380Y-31457142D01*
X156952380Y-31695238D01*
X156904761Y-31790476D01*
X156857142Y-31838095D01*
X156761904Y-31885714D01*
X156666666Y-31885714D01*
X156571428Y-31838095D01*
X156523809Y-31790476D01*
X156476190Y-31695238D01*
X156428571Y-31504761D01*
X156380952Y-31409523D01*
X156333333Y-31361904D01*
X156238095Y-31314285D01*
X156142857Y-31314285D01*
X156047619Y-31361904D01*
X156000000Y-31409523D01*
X155952380Y-31504761D01*
X155952380Y-31742857D01*
X156000000Y-31885714D01*
X155952380Y-32219047D02*
X156952380Y-32457142D01*
X156238095Y-32647619D01*
X156952380Y-32838095D01*
X155952380Y-33076190D01*
X156952380Y-33980952D02*
X156952380Y-33409523D01*
X156952380Y-33695238D02*
X155952380Y-33695238D01*
X156095238Y-33600000D01*
X156190476Y-33504761D01*
X156238095Y-33409523D01*
X155952380Y-34600000D02*
X155952380Y-34695238D01*
X156000000Y-34790476D01*
X156047619Y-34838095D01*
X156142857Y-34885714D01*
X156333333Y-34933333D01*
X156571428Y-34933333D01*
X156761904Y-34885714D01*
X156857142Y-34838095D01*
X156904761Y-34790476D01*
X156952380Y-34695238D01*
X156952380Y-34600000D01*
X156904761Y-34504761D01*
X156857142Y-34457142D01*
X156761904Y-34409523D01*
X156571428Y-34361904D01*
X156333333Y-34361904D01*
X156142857Y-34409523D01*
X156047619Y-34457142D01*
X156000000Y-34504761D01*
X155952380Y-34600000D01*
X156047619Y-35314285D02*
X156000000Y-35361904D01*
X155952380Y-35457142D01*
X155952380Y-35695238D01*
X156000000Y-35790476D01*
X156047619Y-35838095D01*
X156142857Y-35885714D01*
X156238095Y-35885714D01*
X156380952Y-35838095D01*
X156952380Y-35266666D01*
X156952380Y-35885714D01*
%TO.C,SW103*%
X144904761Y-31314285D02*
X144952380Y-31457142D01*
X144952380Y-31695238D01*
X144904761Y-31790476D01*
X144857142Y-31838095D01*
X144761904Y-31885714D01*
X144666666Y-31885714D01*
X144571428Y-31838095D01*
X144523809Y-31790476D01*
X144476190Y-31695238D01*
X144428571Y-31504761D01*
X144380952Y-31409523D01*
X144333333Y-31361904D01*
X144238095Y-31314285D01*
X144142857Y-31314285D01*
X144047619Y-31361904D01*
X144000000Y-31409523D01*
X143952380Y-31504761D01*
X143952380Y-31742857D01*
X144000000Y-31885714D01*
X143952380Y-32219047D02*
X144952380Y-32457142D01*
X144238095Y-32647619D01*
X144952380Y-32838095D01*
X143952380Y-33076190D01*
X144952380Y-33980952D02*
X144952380Y-33409523D01*
X144952380Y-33695238D02*
X143952380Y-33695238D01*
X144095238Y-33600000D01*
X144190476Y-33504761D01*
X144238095Y-33409523D01*
X143952380Y-34600000D02*
X143952380Y-34695238D01*
X144000000Y-34790476D01*
X144047619Y-34838095D01*
X144142857Y-34885714D01*
X144333333Y-34933333D01*
X144571428Y-34933333D01*
X144761904Y-34885714D01*
X144857142Y-34838095D01*
X144904761Y-34790476D01*
X144952380Y-34695238D01*
X144952380Y-34600000D01*
X144904761Y-34504761D01*
X144857142Y-34457142D01*
X144761904Y-34409523D01*
X144571428Y-34361904D01*
X144333333Y-34361904D01*
X144142857Y-34409523D01*
X144047619Y-34457142D01*
X144000000Y-34504761D01*
X143952380Y-34600000D01*
X143952380Y-35266666D02*
X143952380Y-35885714D01*
X144333333Y-35552380D01*
X144333333Y-35695238D01*
X144380952Y-35790476D01*
X144428571Y-35838095D01*
X144523809Y-35885714D01*
X144761904Y-35885714D01*
X144857142Y-35838095D01*
X144904761Y-35790476D01*
X144952380Y-35695238D01*
X144952380Y-35409523D01*
X144904761Y-35314285D01*
X144857142Y-35266666D01*
%TO.C,SW104*%
X168904761Y-43314285D02*
X168952380Y-43457142D01*
X168952380Y-43695238D01*
X168904761Y-43790476D01*
X168857142Y-43838095D01*
X168761904Y-43885714D01*
X168666666Y-43885714D01*
X168571428Y-43838095D01*
X168523809Y-43790476D01*
X168476190Y-43695238D01*
X168428571Y-43504761D01*
X168380952Y-43409523D01*
X168333333Y-43361904D01*
X168238095Y-43314285D01*
X168142857Y-43314285D01*
X168047619Y-43361904D01*
X168000000Y-43409523D01*
X167952380Y-43504761D01*
X167952380Y-43742857D01*
X168000000Y-43885714D01*
X167952380Y-44219047D02*
X168952380Y-44457142D01*
X168238095Y-44647619D01*
X168952380Y-44838095D01*
X167952380Y-45076190D01*
X168952380Y-45980952D02*
X168952380Y-45409523D01*
X168952380Y-45695238D02*
X167952380Y-45695238D01*
X168095238Y-45600000D01*
X168190476Y-45504761D01*
X168238095Y-45409523D01*
X167952380Y-46600000D02*
X167952380Y-46695238D01*
X168000000Y-46790476D01*
X168047619Y-46838095D01*
X168142857Y-46885714D01*
X168333333Y-46933333D01*
X168571428Y-46933333D01*
X168761904Y-46885714D01*
X168857142Y-46838095D01*
X168904761Y-46790476D01*
X168952380Y-46695238D01*
X168952380Y-46600000D01*
X168904761Y-46504761D01*
X168857142Y-46457142D01*
X168761904Y-46409523D01*
X168571428Y-46361904D01*
X168333333Y-46361904D01*
X168142857Y-46409523D01*
X168047619Y-46457142D01*
X168000000Y-46504761D01*
X167952380Y-46600000D01*
X168285714Y-47790476D02*
X168952380Y-47790476D01*
X167904761Y-47552380D02*
X168619047Y-47314285D01*
X168619047Y-47933333D01*
%TO.C,SW105*%
X156904761Y-43314285D02*
X156952380Y-43457142D01*
X156952380Y-43695238D01*
X156904761Y-43790476D01*
X156857142Y-43838095D01*
X156761904Y-43885714D01*
X156666666Y-43885714D01*
X156571428Y-43838095D01*
X156523809Y-43790476D01*
X156476190Y-43695238D01*
X156428571Y-43504761D01*
X156380952Y-43409523D01*
X156333333Y-43361904D01*
X156238095Y-43314285D01*
X156142857Y-43314285D01*
X156047619Y-43361904D01*
X156000000Y-43409523D01*
X155952380Y-43504761D01*
X155952380Y-43742857D01*
X156000000Y-43885714D01*
X155952380Y-44219047D02*
X156952380Y-44457142D01*
X156238095Y-44647619D01*
X156952380Y-44838095D01*
X155952380Y-45076190D01*
X156952380Y-45980952D02*
X156952380Y-45409523D01*
X156952380Y-45695238D02*
X155952380Y-45695238D01*
X156095238Y-45600000D01*
X156190476Y-45504761D01*
X156238095Y-45409523D01*
X155952380Y-46600000D02*
X155952380Y-46695238D01*
X156000000Y-46790476D01*
X156047619Y-46838095D01*
X156142857Y-46885714D01*
X156333333Y-46933333D01*
X156571428Y-46933333D01*
X156761904Y-46885714D01*
X156857142Y-46838095D01*
X156904761Y-46790476D01*
X156952380Y-46695238D01*
X156952380Y-46600000D01*
X156904761Y-46504761D01*
X156857142Y-46457142D01*
X156761904Y-46409523D01*
X156571428Y-46361904D01*
X156333333Y-46361904D01*
X156142857Y-46409523D01*
X156047619Y-46457142D01*
X156000000Y-46504761D01*
X155952380Y-46600000D01*
X155952380Y-47838095D02*
X155952380Y-47361904D01*
X156428571Y-47314285D01*
X156380952Y-47361904D01*
X156333333Y-47457142D01*
X156333333Y-47695238D01*
X156380952Y-47790476D01*
X156428571Y-47838095D01*
X156523809Y-47885714D01*
X156761904Y-47885714D01*
X156857142Y-47838095D01*
X156904761Y-47790476D01*
X156952380Y-47695238D01*
X156952380Y-47457142D01*
X156904761Y-47361904D01*
X156857142Y-47314285D01*
%TO.C,SW106*%
X144904761Y-43314285D02*
X144952380Y-43457142D01*
X144952380Y-43695238D01*
X144904761Y-43790476D01*
X144857142Y-43838095D01*
X144761904Y-43885714D01*
X144666666Y-43885714D01*
X144571428Y-43838095D01*
X144523809Y-43790476D01*
X144476190Y-43695238D01*
X144428571Y-43504761D01*
X144380952Y-43409523D01*
X144333333Y-43361904D01*
X144238095Y-43314285D01*
X144142857Y-43314285D01*
X144047619Y-43361904D01*
X144000000Y-43409523D01*
X143952380Y-43504761D01*
X143952380Y-43742857D01*
X144000000Y-43885714D01*
X143952380Y-44219047D02*
X144952380Y-44457142D01*
X144238095Y-44647619D01*
X144952380Y-44838095D01*
X143952380Y-45076190D01*
X144952380Y-45980952D02*
X144952380Y-45409523D01*
X144952380Y-45695238D02*
X143952380Y-45695238D01*
X144095238Y-45600000D01*
X144190476Y-45504761D01*
X144238095Y-45409523D01*
X143952380Y-46600000D02*
X143952380Y-46695238D01*
X144000000Y-46790476D01*
X144047619Y-46838095D01*
X144142857Y-46885714D01*
X144333333Y-46933333D01*
X144571428Y-46933333D01*
X144761904Y-46885714D01*
X144857142Y-46838095D01*
X144904761Y-46790476D01*
X144952380Y-46695238D01*
X144952380Y-46600000D01*
X144904761Y-46504761D01*
X144857142Y-46457142D01*
X144761904Y-46409523D01*
X144571428Y-46361904D01*
X144333333Y-46361904D01*
X144142857Y-46409523D01*
X144047619Y-46457142D01*
X144000000Y-46504761D01*
X143952380Y-46600000D01*
X143952380Y-47790476D02*
X143952380Y-47600000D01*
X144000000Y-47504761D01*
X144047619Y-47457142D01*
X144190476Y-47361904D01*
X144380952Y-47314285D01*
X144761904Y-47314285D01*
X144857142Y-47361904D01*
X144904761Y-47409523D01*
X144952380Y-47504761D01*
X144952380Y-47695238D01*
X144904761Y-47790476D01*
X144857142Y-47838095D01*
X144761904Y-47885714D01*
X144523809Y-47885714D01*
X144428571Y-47838095D01*
X144380952Y-47790476D01*
X144333333Y-47695238D01*
X144333333Y-47504761D01*
X144380952Y-47409523D01*
X144428571Y-47361904D01*
X144523809Y-47314285D01*
%TO.C,SW107*%
X168904761Y-55314285D02*
X168952380Y-55457142D01*
X168952380Y-55695238D01*
X168904761Y-55790476D01*
X168857142Y-55838095D01*
X168761904Y-55885714D01*
X168666666Y-55885714D01*
X168571428Y-55838095D01*
X168523809Y-55790476D01*
X168476190Y-55695238D01*
X168428571Y-55504761D01*
X168380952Y-55409523D01*
X168333333Y-55361904D01*
X168238095Y-55314285D01*
X168142857Y-55314285D01*
X168047619Y-55361904D01*
X168000000Y-55409523D01*
X167952380Y-55504761D01*
X167952380Y-55742857D01*
X168000000Y-55885714D01*
X167952380Y-56219047D02*
X168952380Y-56457142D01*
X168238095Y-56647619D01*
X168952380Y-56838095D01*
X167952380Y-57076190D01*
X168952380Y-57980952D02*
X168952380Y-57409523D01*
X168952380Y-57695238D02*
X167952380Y-57695238D01*
X168095238Y-57600000D01*
X168190476Y-57504761D01*
X168238095Y-57409523D01*
X167952380Y-58600000D02*
X167952380Y-58695238D01*
X168000000Y-58790476D01*
X168047619Y-58838095D01*
X168142857Y-58885714D01*
X168333333Y-58933333D01*
X168571428Y-58933333D01*
X168761904Y-58885714D01*
X168857142Y-58838095D01*
X168904761Y-58790476D01*
X168952380Y-58695238D01*
X168952380Y-58600000D01*
X168904761Y-58504761D01*
X168857142Y-58457142D01*
X168761904Y-58409523D01*
X168571428Y-58361904D01*
X168333333Y-58361904D01*
X168142857Y-58409523D01*
X168047619Y-58457142D01*
X168000000Y-58504761D01*
X167952380Y-58600000D01*
X167952380Y-59266666D02*
X167952380Y-59933333D01*
X168952380Y-59504761D01*
%TO.C,SW108*%
X156904761Y-55314285D02*
X156952380Y-55457142D01*
X156952380Y-55695238D01*
X156904761Y-55790476D01*
X156857142Y-55838095D01*
X156761904Y-55885714D01*
X156666666Y-55885714D01*
X156571428Y-55838095D01*
X156523809Y-55790476D01*
X156476190Y-55695238D01*
X156428571Y-55504761D01*
X156380952Y-55409523D01*
X156333333Y-55361904D01*
X156238095Y-55314285D01*
X156142857Y-55314285D01*
X156047619Y-55361904D01*
X156000000Y-55409523D01*
X155952380Y-55504761D01*
X155952380Y-55742857D01*
X156000000Y-55885714D01*
X155952380Y-56219047D02*
X156952380Y-56457142D01*
X156238095Y-56647619D01*
X156952380Y-56838095D01*
X155952380Y-57076190D01*
X156952380Y-57980952D02*
X156952380Y-57409523D01*
X156952380Y-57695238D02*
X155952380Y-57695238D01*
X156095238Y-57600000D01*
X156190476Y-57504761D01*
X156238095Y-57409523D01*
X155952380Y-58600000D02*
X155952380Y-58695238D01*
X156000000Y-58790476D01*
X156047619Y-58838095D01*
X156142857Y-58885714D01*
X156333333Y-58933333D01*
X156571428Y-58933333D01*
X156761904Y-58885714D01*
X156857142Y-58838095D01*
X156904761Y-58790476D01*
X156952380Y-58695238D01*
X156952380Y-58600000D01*
X156904761Y-58504761D01*
X156857142Y-58457142D01*
X156761904Y-58409523D01*
X156571428Y-58361904D01*
X156333333Y-58361904D01*
X156142857Y-58409523D01*
X156047619Y-58457142D01*
X156000000Y-58504761D01*
X155952380Y-58600000D01*
X156380952Y-59504761D02*
X156333333Y-59409523D01*
X156285714Y-59361904D01*
X156190476Y-59314285D01*
X156142857Y-59314285D01*
X156047619Y-59361904D01*
X156000000Y-59409523D01*
X155952380Y-59504761D01*
X155952380Y-59695238D01*
X156000000Y-59790476D01*
X156047619Y-59838095D01*
X156142857Y-59885714D01*
X156190476Y-59885714D01*
X156285714Y-59838095D01*
X156333333Y-59790476D01*
X156380952Y-59695238D01*
X156380952Y-59504761D01*
X156428571Y-59409523D01*
X156476190Y-59361904D01*
X156571428Y-59314285D01*
X156761904Y-59314285D01*
X156857142Y-59361904D01*
X156904761Y-59409523D01*
X156952380Y-59504761D01*
X156952380Y-59695238D01*
X156904761Y-59790476D01*
X156857142Y-59838095D01*
X156761904Y-59885714D01*
X156571428Y-59885714D01*
X156476190Y-59838095D01*
X156428571Y-59790476D01*
X156380952Y-59695238D01*
%TO.C,SW109*%
X144904761Y-55314285D02*
X144952380Y-55457142D01*
X144952380Y-55695238D01*
X144904761Y-55790476D01*
X144857142Y-55838095D01*
X144761904Y-55885714D01*
X144666666Y-55885714D01*
X144571428Y-55838095D01*
X144523809Y-55790476D01*
X144476190Y-55695238D01*
X144428571Y-55504761D01*
X144380952Y-55409523D01*
X144333333Y-55361904D01*
X144238095Y-55314285D01*
X144142857Y-55314285D01*
X144047619Y-55361904D01*
X144000000Y-55409523D01*
X143952380Y-55504761D01*
X143952380Y-55742857D01*
X144000000Y-55885714D01*
X143952380Y-56219047D02*
X144952380Y-56457142D01*
X144238095Y-56647619D01*
X144952380Y-56838095D01*
X143952380Y-57076190D01*
X144952380Y-57980952D02*
X144952380Y-57409523D01*
X144952380Y-57695238D02*
X143952380Y-57695238D01*
X144095238Y-57600000D01*
X144190476Y-57504761D01*
X144238095Y-57409523D01*
X143952380Y-58600000D02*
X143952380Y-58695238D01*
X144000000Y-58790476D01*
X144047619Y-58838095D01*
X144142857Y-58885714D01*
X144333333Y-58933333D01*
X144571428Y-58933333D01*
X144761904Y-58885714D01*
X144857142Y-58838095D01*
X144904761Y-58790476D01*
X144952380Y-58695238D01*
X144952380Y-58600000D01*
X144904761Y-58504761D01*
X144857142Y-58457142D01*
X144761904Y-58409523D01*
X144571428Y-58361904D01*
X144333333Y-58361904D01*
X144142857Y-58409523D01*
X144047619Y-58457142D01*
X144000000Y-58504761D01*
X143952380Y-58600000D01*
X144952380Y-59409523D02*
X144952380Y-59600000D01*
X144904761Y-59695238D01*
X144857142Y-59742857D01*
X144714285Y-59838095D01*
X144523809Y-59885714D01*
X144142857Y-59885714D01*
X144047619Y-59838095D01*
X144000000Y-59790476D01*
X143952380Y-59695238D01*
X143952380Y-59504761D01*
X144000000Y-59409523D01*
X144047619Y-59361904D01*
X144142857Y-59314285D01*
X144380952Y-59314285D01*
X144476190Y-59361904D01*
X144523809Y-59409523D01*
X144571428Y-59504761D01*
X144571428Y-59695238D01*
X144523809Y-59790476D01*
X144476190Y-59838095D01*
X144380952Y-59885714D01*
%TO.C,SW110*%
X168904761Y-67314285D02*
X168952380Y-67457142D01*
X168952380Y-67695238D01*
X168904761Y-67790476D01*
X168857142Y-67838095D01*
X168761904Y-67885714D01*
X168666666Y-67885714D01*
X168571428Y-67838095D01*
X168523809Y-67790476D01*
X168476190Y-67695238D01*
X168428571Y-67504761D01*
X168380952Y-67409523D01*
X168333333Y-67361904D01*
X168238095Y-67314285D01*
X168142857Y-67314285D01*
X168047619Y-67361904D01*
X168000000Y-67409523D01*
X167952380Y-67504761D01*
X167952380Y-67742857D01*
X168000000Y-67885714D01*
X167952380Y-68219047D02*
X168952380Y-68457142D01*
X168238095Y-68647619D01*
X168952380Y-68838095D01*
X167952380Y-69076190D01*
X168952380Y-69980952D02*
X168952380Y-69409523D01*
X168952380Y-69695238D02*
X167952380Y-69695238D01*
X168095238Y-69600000D01*
X168190476Y-69504761D01*
X168238095Y-69409523D01*
X168952380Y-70933333D02*
X168952380Y-70361904D01*
X168952380Y-70647619D02*
X167952380Y-70647619D01*
X168095238Y-70552380D01*
X168190476Y-70457142D01*
X168238095Y-70361904D01*
X167952380Y-71552380D02*
X167952380Y-71647619D01*
X168000000Y-71742857D01*
X168047619Y-71790476D01*
X168142857Y-71838095D01*
X168333333Y-71885714D01*
X168571428Y-71885714D01*
X168761904Y-71838095D01*
X168857142Y-71790476D01*
X168904761Y-71742857D01*
X168952380Y-71647619D01*
X168952380Y-71552380D01*
X168904761Y-71457142D01*
X168857142Y-71409523D01*
X168761904Y-71361904D01*
X168571428Y-71314285D01*
X168333333Y-71314285D01*
X168142857Y-71361904D01*
X168047619Y-71409523D01*
X168000000Y-71457142D01*
X167952380Y-71552380D01*
%TO.C,SW111*%
X156904761Y-67314285D02*
X156952380Y-67457142D01*
X156952380Y-67695238D01*
X156904761Y-67790476D01*
X156857142Y-67838095D01*
X156761904Y-67885714D01*
X156666666Y-67885714D01*
X156571428Y-67838095D01*
X156523809Y-67790476D01*
X156476190Y-67695238D01*
X156428571Y-67504761D01*
X156380952Y-67409523D01*
X156333333Y-67361904D01*
X156238095Y-67314285D01*
X156142857Y-67314285D01*
X156047619Y-67361904D01*
X156000000Y-67409523D01*
X155952380Y-67504761D01*
X155952380Y-67742857D01*
X156000000Y-67885714D01*
X155952380Y-68219047D02*
X156952380Y-68457142D01*
X156238095Y-68647619D01*
X156952380Y-68838095D01*
X155952380Y-69076190D01*
X156952380Y-69980952D02*
X156952380Y-69409523D01*
X156952380Y-69695238D02*
X155952380Y-69695238D01*
X156095238Y-69600000D01*
X156190476Y-69504761D01*
X156238095Y-69409523D01*
X156952380Y-70933333D02*
X156952380Y-70361904D01*
X156952380Y-70647619D02*
X155952380Y-70647619D01*
X156095238Y-70552380D01*
X156190476Y-70457142D01*
X156238095Y-70361904D01*
X156952380Y-71885714D02*
X156952380Y-71314285D01*
X156952380Y-71600000D02*
X155952380Y-71600000D01*
X156095238Y-71504761D01*
X156190476Y-71409523D01*
X156238095Y-71314285D01*
%TO.C,SW112*%
X144904761Y-67314285D02*
X144952380Y-67457142D01*
X144952380Y-67695238D01*
X144904761Y-67790476D01*
X144857142Y-67838095D01*
X144761904Y-67885714D01*
X144666666Y-67885714D01*
X144571428Y-67838095D01*
X144523809Y-67790476D01*
X144476190Y-67695238D01*
X144428571Y-67504761D01*
X144380952Y-67409523D01*
X144333333Y-67361904D01*
X144238095Y-67314285D01*
X144142857Y-67314285D01*
X144047619Y-67361904D01*
X144000000Y-67409523D01*
X143952380Y-67504761D01*
X143952380Y-67742857D01*
X144000000Y-67885714D01*
X143952380Y-68219047D02*
X144952380Y-68457142D01*
X144238095Y-68647619D01*
X144952380Y-68838095D01*
X143952380Y-69076190D01*
X144952380Y-69980952D02*
X144952380Y-69409523D01*
X144952380Y-69695238D02*
X143952380Y-69695238D01*
X144095238Y-69600000D01*
X144190476Y-69504761D01*
X144238095Y-69409523D01*
X144952380Y-70933333D02*
X144952380Y-70361904D01*
X144952380Y-70647619D02*
X143952380Y-70647619D01*
X144095238Y-70552380D01*
X144190476Y-70457142D01*
X144238095Y-70361904D01*
X144047619Y-71314285D02*
X144000000Y-71361904D01*
X143952380Y-71457142D01*
X143952380Y-71695238D01*
X144000000Y-71790476D01*
X144047619Y-71838095D01*
X144142857Y-71885714D01*
X144238095Y-71885714D01*
X144380952Y-71838095D01*
X144952380Y-71266666D01*
X144952380Y-71885714D01*
%TO.C,SW201*%
X112404761Y-55314285D02*
X112452380Y-55457142D01*
X112452380Y-55695238D01*
X112404761Y-55790476D01*
X112357142Y-55838095D01*
X112261904Y-55885714D01*
X112166666Y-55885714D01*
X112071428Y-55838095D01*
X112023809Y-55790476D01*
X111976190Y-55695238D01*
X111928571Y-55504761D01*
X111880952Y-55409523D01*
X111833333Y-55361904D01*
X111738095Y-55314285D01*
X111642857Y-55314285D01*
X111547619Y-55361904D01*
X111500000Y-55409523D01*
X111452380Y-55504761D01*
X111452380Y-55742857D01*
X111500000Y-55885714D01*
X111452380Y-56219047D02*
X112452380Y-56457142D01*
X111738095Y-56647619D01*
X112452380Y-56838095D01*
X111452380Y-57076190D01*
X111547619Y-57409523D02*
X111500000Y-57457142D01*
X111452380Y-57552380D01*
X111452380Y-57790476D01*
X111500000Y-57885714D01*
X111547619Y-57933333D01*
X111642857Y-57980952D01*
X111738095Y-57980952D01*
X111880952Y-57933333D01*
X112452380Y-57361904D01*
X112452380Y-57980952D01*
X111452380Y-58600000D02*
X111452380Y-58695238D01*
X111500000Y-58790476D01*
X111547619Y-58838095D01*
X111642857Y-58885714D01*
X111833333Y-58933333D01*
X112071428Y-58933333D01*
X112261904Y-58885714D01*
X112357142Y-58838095D01*
X112404761Y-58790476D01*
X112452380Y-58695238D01*
X112452380Y-58600000D01*
X112404761Y-58504761D01*
X112357142Y-58457142D01*
X112261904Y-58409523D01*
X112071428Y-58361904D01*
X111833333Y-58361904D01*
X111642857Y-58409523D01*
X111547619Y-58457142D01*
X111500000Y-58504761D01*
X111452380Y-58600000D01*
X112452380Y-59885714D02*
X112452380Y-59314285D01*
X112452380Y-59600000D02*
X111452380Y-59600000D01*
X111595238Y-59504761D01*
X111690476Y-59409523D01*
X111738095Y-59314285D01*
%TO.C,SW202*%
X100404761Y-55314285D02*
X100452380Y-55457142D01*
X100452380Y-55695238D01*
X100404761Y-55790476D01*
X100357142Y-55838095D01*
X100261904Y-55885714D01*
X100166666Y-55885714D01*
X100071428Y-55838095D01*
X100023809Y-55790476D01*
X99976190Y-55695238D01*
X99928571Y-55504761D01*
X99880952Y-55409523D01*
X99833333Y-55361904D01*
X99738095Y-55314285D01*
X99642857Y-55314285D01*
X99547619Y-55361904D01*
X99500000Y-55409523D01*
X99452380Y-55504761D01*
X99452380Y-55742857D01*
X99500000Y-55885714D01*
X99452380Y-56219047D02*
X100452380Y-56457142D01*
X99738095Y-56647619D01*
X100452380Y-56838095D01*
X99452380Y-57076190D01*
X99547619Y-57409523D02*
X99500000Y-57457142D01*
X99452380Y-57552380D01*
X99452380Y-57790476D01*
X99500000Y-57885714D01*
X99547619Y-57933333D01*
X99642857Y-57980952D01*
X99738095Y-57980952D01*
X99880952Y-57933333D01*
X100452380Y-57361904D01*
X100452380Y-57980952D01*
X99452380Y-58600000D02*
X99452380Y-58695238D01*
X99500000Y-58790476D01*
X99547619Y-58838095D01*
X99642857Y-58885714D01*
X99833333Y-58933333D01*
X100071428Y-58933333D01*
X100261904Y-58885714D01*
X100357142Y-58838095D01*
X100404761Y-58790476D01*
X100452380Y-58695238D01*
X100452380Y-58600000D01*
X100404761Y-58504761D01*
X100357142Y-58457142D01*
X100261904Y-58409523D01*
X100071428Y-58361904D01*
X99833333Y-58361904D01*
X99642857Y-58409523D01*
X99547619Y-58457142D01*
X99500000Y-58504761D01*
X99452380Y-58600000D01*
X99547619Y-59314285D02*
X99500000Y-59361904D01*
X99452380Y-59457142D01*
X99452380Y-59695238D01*
X99500000Y-59790476D01*
X99547619Y-59838095D01*
X99642857Y-59885714D01*
X99738095Y-59885714D01*
X99880952Y-59838095D01*
X100452380Y-59266666D01*
X100452380Y-59885714D01*
%TO.C,SW203*%
X112404761Y-67314285D02*
X112452380Y-67457142D01*
X112452380Y-67695238D01*
X112404761Y-67790476D01*
X112357142Y-67838095D01*
X112261904Y-67885714D01*
X112166666Y-67885714D01*
X112071428Y-67838095D01*
X112023809Y-67790476D01*
X111976190Y-67695238D01*
X111928571Y-67504761D01*
X111880952Y-67409523D01*
X111833333Y-67361904D01*
X111738095Y-67314285D01*
X111642857Y-67314285D01*
X111547619Y-67361904D01*
X111500000Y-67409523D01*
X111452380Y-67504761D01*
X111452380Y-67742857D01*
X111500000Y-67885714D01*
X111452380Y-68219047D02*
X112452380Y-68457142D01*
X111738095Y-68647619D01*
X112452380Y-68838095D01*
X111452380Y-69076190D01*
X111547619Y-69409523D02*
X111500000Y-69457142D01*
X111452380Y-69552380D01*
X111452380Y-69790476D01*
X111500000Y-69885714D01*
X111547619Y-69933333D01*
X111642857Y-69980952D01*
X111738095Y-69980952D01*
X111880952Y-69933333D01*
X112452380Y-69361904D01*
X112452380Y-69980952D01*
X111452380Y-70600000D02*
X111452380Y-70695238D01*
X111500000Y-70790476D01*
X111547619Y-70838095D01*
X111642857Y-70885714D01*
X111833333Y-70933333D01*
X112071428Y-70933333D01*
X112261904Y-70885714D01*
X112357142Y-70838095D01*
X112404761Y-70790476D01*
X112452380Y-70695238D01*
X112452380Y-70600000D01*
X112404761Y-70504761D01*
X112357142Y-70457142D01*
X112261904Y-70409523D01*
X112071428Y-70361904D01*
X111833333Y-70361904D01*
X111642857Y-70409523D01*
X111547619Y-70457142D01*
X111500000Y-70504761D01*
X111452380Y-70600000D01*
X111452380Y-71266666D02*
X111452380Y-71885714D01*
X111833333Y-71552380D01*
X111833333Y-71695238D01*
X111880952Y-71790476D01*
X111928571Y-71838095D01*
X112023809Y-71885714D01*
X112261904Y-71885714D01*
X112357142Y-71838095D01*
X112404761Y-71790476D01*
X112452380Y-71695238D01*
X112452380Y-71409523D01*
X112404761Y-71314285D01*
X112357142Y-71266666D01*
%TO.C,SW204*%
X100404761Y-67314285D02*
X100452380Y-67457142D01*
X100452380Y-67695238D01*
X100404761Y-67790476D01*
X100357142Y-67838095D01*
X100261904Y-67885714D01*
X100166666Y-67885714D01*
X100071428Y-67838095D01*
X100023809Y-67790476D01*
X99976190Y-67695238D01*
X99928571Y-67504761D01*
X99880952Y-67409523D01*
X99833333Y-67361904D01*
X99738095Y-67314285D01*
X99642857Y-67314285D01*
X99547619Y-67361904D01*
X99500000Y-67409523D01*
X99452380Y-67504761D01*
X99452380Y-67742857D01*
X99500000Y-67885714D01*
X99452380Y-68219047D02*
X100452380Y-68457142D01*
X99738095Y-68647619D01*
X100452380Y-68838095D01*
X99452380Y-69076190D01*
X99547619Y-69409523D02*
X99500000Y-69457142D01*
X99452380Y-69552380D01*
X99452380Y-69790476D01*
X99500000Y-69885714D01*
X99547619Y-69933333D01*
X99642857Y-69980952D01*
X99738095Y-69980952D01*
X99880952Y-69933333D01*
X100452380Y-69361904D01*
X100452380Y-69980952D01*
X99452380Y-70600000D02*
X99452380Y-70695238D01*
X99500000Y-70790476D01*
X99547619Y-70838095D01*
X99642857Y-70885714D01*
X99833333Y-70933333D01*
X100071428Y-70933333D01*
X100261904Y-70885714D01*
X100357142Y-70838095D01*
X100404761Y-70790476D01*
X100452380Y-70695238D01*
X100452380Y-70600000D01*
X100404761Y-70504761D01*
X100357142Y-70457142D01*
X100261904Y-70409523D01*
X100071428Y-70361904D01*
X99833333Y-70361904D01*
X99642857Y-70409523D01*
X99547619Y-70457142D01*
X99500000Y-70504761D01*
X99452380Y-70600000D01*
X99785714Y-71790476D02*
X100452380Y-71790476D01*
X99404761Y-71552380D02*
X100119047Y-71314285D01*
X100119047Y-71933333D01*
%TO.C,SW205*%
X106785714Y-28754761D02*
X106642857Y-28802380D01*
X106404761Y-28802380D01*
X106309523Y-28754761D01*
X106261904Y-28707142D01*
X106214285Y-28611904D01*
X106214285Y-28516666D01*
X106261904Y-28421428D01*
X106309523Y-28373809D01*
X106404761Y-28326190D01*
X106595238Y-28278571D01*
X106690476Y-28230952D01*
X106738095Y-28183333D01*
X106785714Y-28088095D01*
X106785714Y-27992857D01*
X106738095Y-27897619D01*
X106690476Y-27850000D01*
X106595238Y-27802380D01*
X106357142Y-27802380D01*
X106214285Y-27850000D01*
X105880952Y-27802380D02*
X105642857Y-28802380D01*
X105452380Y-28088095D01*
X105261904Y-28802380D01*
X105023809Y-27802380D01*
X104690476Y-27897619D02*
X104642857Y-27850000D01*
X104547619Y-27802380D01*
X104309523Y-27802380D01*
X104214285Y-27850000D01*
X104166666Y-27897619D01*
X104119047Y-27992857D01*
X104119047Y-28088095D01*
X104166666Y-28230952D01*
X104738095Y-28802380D01*
X104119047Y-28802380D01*
X103500000Y-27802380D02*
X103404761Y-27802380D01*
X103309523Y-27850000D01*
X103261904Y-27897619D01*
X103214285Y-27992857D01*
X103166666Y-28183333D01*
X103166666Y-28421428D01*
X103214285Y-28611904D01*
X103261904Y-28707142D01*
X103309523Y-28754761D01*
X103404761Y-28802380D01*
X103500000Y-28802380D01*
X103595238Y-28754761D01*
X103642857Y-28707142D01*
X103690476Y-28611904D01*
X103738095Y-28421428D01*
X103738095Y-28183333D01*
X103690476Y-27992857D01*
X103642857Y-27897619D01*
X103595238Y-27850000D01*
X103500000Y-27802380D01*
X102261904Y-27802380D02*
X102738095Y-27802380D01*
X102785714Y-28278571D01*
X102738095Y-28230952D01*
X102642857Y-28183333D01*
X102404761Y-28183333D01*
X102309523Y-28230952D01*
X102261904Y-28278571D01*
X102214285Y-28373809D01*
X102214285Y-28611904D01*
X102261904Y-28707142D01*
X102309523Y-28754761D01*
X102404761Y-28802380D01*
X102642857Y-28802380D01*
X102738095Y-28754761D01*
X102785714Y-28707142D01*
%TD*%
M02*
