%TF.GenerationSoftware,KiCad,Pcbnew,5.1.12-84ad8e8a86~92~ubuntu20.04.1*%
%TF.CreationDate,2022-04-21T21:58:34+02:00*%
%TF.ProjectId,bkm-15r-mini,626b6d2d-3135-4722-9d6d-696e692e6b69,rev?*%
%TF.SameCoordinates,Original*%
%TF.FileFunction,AssemblyDrawing,Top*%
%FSLAX46Y46*%
G04 Gerber Fmt 4.6, Leading zero omitted, Abs format (unit mm)*
G04 Created by KiCad (PCBNEW 5.1.12-84ad8e8a86~92~ubuntu20.04.1) date 2022-04-21 21:58:34*
%MOMM*%
%LPD*%
G01*
G04 APERTURE LIST*
%ADD10C,0.100000*%
%ADD11C,0.150000*%
G04 APERTURE END LIST*
D10*
%TO.C,C102*%
X157200000Y-35000000D02*
X157200000Y-34200000D01*
X157200000Y-34200000D02*
X158800000Y-34200000D01*
X158800000Y-34200000D02*
X158800000Y-35000000D01*
X158800000Y-35000000D02*
X157200000Y-35000000D01*
%TO.C,C103*%
X146800000Y-35000000D02*
X145200000Y-35000000D01*
X146800000Y-34200000D02*
X146800000Y-35000000D01*
X145200000Y-34200000D02*
X146800000Y-34200000D01*
X145200000Y-35000000D02*
X145200000Y-34200000D01*
%TO.C,C101*%
X170800000Y-35000000D02*
X169200000Y-35000000D01*
X170800000Y-34200000D02*
X170800000Y-35000000D01*
X169200000Y-34200000D02*
X170800000Y-34200000D01*
X169200000Y-35000000D02*
X169200000Y-34200000D01*
%TO.C,C106*%
X146800000Y-47000000D02*
X145200000Y-47000000D01*
X146800000Y-46200000D02*
X146800000Y-47000000D01*
X145200000Y-46200000D02*
X146800000Y-46200000D01*
X145200000Y-47000000D02*
X145200000Y-46200000D01*
%TO.C,C104*%
X169200000Y-47000000D02*
X169200000Y-46200000D01*
X169200000Y-46200000D02*
X170800000Y-46200000D01*
X170800000Y-46200000D02*
X170800000Y-47000000D01*
X170800000Y-47000000D02*
X169200000Y-47000000D01*
%TO.C,C105*%
X158800000Y-47000000D02*
X157200000Y-47000000D01*
X158800000Y-46200000D02*
X158800000Y-47000000D01*
X157200000Y-46200000D02*
X158800000Y-46200000D01*
X157200000Y-47000000D02*
X157200000Y-46200000D01*
%TO.C,C109*%
X145200000Y-59000000D02*
X145200000Y-58200000D01*
X145200000Y-58200000D02*
X146800000Y-58200000D01*
X146800000Y-58200000D02*
X146800000Y-59000000D01*
X146800000Y-59000000D02*
X145200000Y-59000000D01*
%TO.C,C107*%
X169200000Y-59000000D02*
X169200000Y-58200000D01*
X169200000Y-58200000D02*
X170800000Y-58200000D01*
X170800000Y-58200000D02*
X170800000Y-59000000D01*
X170800000Y-59000000D02*
X169200000Y-59000000D01*
%TO.C,C108*%
X158800000Y-59000000D02*
X157200000Y-59000000D01*
X158800000Y-58200000D02*
X158800000Y-59000000D01*
X157200000Y-58200000D02*
X158800000Y-58200000D01*
X157200000Y-59000000D02*
X157200000Y-58200000D01*
%TO.C,C110*%
X169200000Y-71000000D02*
X169200000Y-70200000D01*
X169200000Y-70200000D02*
X170800000Y-70200000D01*
X170800000Y-70200000D02*
X170800000Y-71000000D01*
X170800000Y-71000000D02*
X169200000Y-71000000D01*
%TO.C,C111*%
X157200000Y-71000000D02*
X157200000Y-70200000D01*
X157200000Y-70200000D02*
X158800000Y-70200000D01*
X158800000Y-70200000D02*
X158800000Y-71000000D01*
X158800000Y-71000000D02*
X157200000Y-71000000D01*
%TO.C,C112*%
X145200000Y-71000000D02*
X145200000Y-70200000D01*
X145200000Y-70200000D02*
X146800000Y-70200000D01*
X146800000Y-70200000D02*
X146800000Y-71000000D01*
X146800000Y-71000000D02*
X145200000Y-71000000D01*
%TO.C,C113*%
X134600000Y-42900000D02*
X134600000Y-41300000D01*
X135400000Y-42900000D02*
X134600000Y-42900000D01*
X135400000Y-41300000D02*
X135400000Y-42900000D01*
X134600000Y-41300000D02*
X135400000Y-41300000D01*
%TO.C,C114*%
X134600000Y-65300000D02*
X135400000Y-65300000D01*
X135400000Y-65300000D02*
X135400000Y-66900000D01*
X135400000Y-66900000D02*
X134600000Y-66900000D01*
X134600000Y-66900000D02*
X134600000Y-65300000D01*
%TO.C,C201*%
X111100000Y-56400000D02*
X111100000Y-54800000D01*
X111900000Y-56400000D02*
X111100000Y-56400000D01*
X111900000Y-54800000D02*
X111900000Y-56400000D01*
X111100000Y-54800000D02*
X111900000Y-54800000D01*
%TO.C,C202*%
X109100000Y-56400000D02*
X109100000Y-54800000D01*
X109900000Y-56400000D02*
X109100000Y-56400000D01*
X109900000Y-54800000D02*
X109900000Y-56400000D01*
X109100000Y-54800000D02*
X109900000Y-54800000D01*
%TO.C,C203*%
X111100000Y-68900000D02*
X111100000Y-67300000D01*
X111900000Y-68900000D02*
X111100000Y-68900000D01*
X111900000Y-67300000D02*
X111900000Y-68900000D01*
X111100000Y-67300000D02*
X111900000Y-67300000D01*
%TO.C,C204*%
X109100000Y-67300000D02*
X109900000Y-67300000D01*
X109900000Y-67300000D02*
X109900000Y-68900000D01*
X109900000Y-68900000D02*
X109100000Y-68900000D01*
X109100000Y-68900000D02*
X109100000Y-67300000D01*
%TO.C,C205*%
X111800000Y-37000000D02*
X111800000Y-38600000D01*
X111000000Y-37000000D02*
X111800000Y-37000000D01*
X111000000Y-38600000D02*
X111000000Y-37000000D01*
X111800000Y-38600000D02*
X111000000Y-38600000D01*
%TO.C,C206*%
X114600000Y-49600000D02*
X113800000Y-49600000D01*
X113800000Y-49600000D02*
X113800000Y-48000000D01*
X113800000Y-48000000D02*
X114600000Y-48000000D01*
X114600000Y-48000000D02*
X114600000Y-49600000D01*
%TO.C,J301*%
X159470000Y-80810000D02*
X144230000Y-80810000D01*
X159470000Y-75730000D02*
X159470000Y-80810000D01*
X145230000Y-75730000D02*
X159470000Y-75730000D01*
X144230000Y-76730000D02*
X145230000Y-75730000D01*
X144230000Y-80810000D02*
X144230000Y-76730000D01*
%TO.C,R102*%
X158800000Y-29687500D02*
X158800000Y-30512500D01*
X158800000Y-30512500D02*
X157200000Y-30512500D01*
X157200000Y-30512500D02*
X157200000Y-29687500D01*
X157200000Y-29687500D02*
X158800000Y-29687500D01*
%TO.C,R103*%
X146800000Y-29687500D02*
X146800000Y-30512500D01*
X146800000Y-30512500D02*
X145200000Y-30512500D01*
X145200000Y-30512500D02*
X145200000Y-29687500D01*
X145200000Y-29687500D02*
X146800000Y-29687500D01*
%TO.C,R101*%
X169200000Y-29687500D02*
X170800000Y-29687500D01*
X169200000Y-30512500D02*
X169200000Y-29687500D01*
X170800000Y-30512500D02*
X169200000Y-30512500D01*
X170800000Y-29687500D02*
X170800000Y-30512500D01*
%TO.C,R105*%
X157200000Y-36687500D02*
X158800000Y-36687500D01*
X157200000Y-37512500D02*
X157200000Y-36687500D01*
X158800000Y-37512500D02*
X157200000Y-37512500D01*
X158800000Y-36687500D02*
X158800000Y-37512500D01*
%TO.C,R106*%
X145200000Y-36687500D02*
X146800000Y-36687500D01*
X145200000Y-37512500D02*
X145200000Y-36687500D01*
X146800000Y-37512500D02*
X145200000Y-37512500D01*
X146800000Y-36687500D02*
X146800000Y-37512500D01*
%TO.C,R104*%
X169200000Y-36687500D02*
X170800000Y-36687500D01*
X169200000Y-37512500D02*
X169200000Y-36687500D01*
X170800000Y-37512500D02*
X169200000Y-37512500D01*
X170800000Y-36687500D02*
X170800000Y-37512500D01*
%TO.C,R109*%
X145200000Y-41687500D02*
X146800000Y-41687500D01*
X145200000Y-42512500D02*
X145200000Y-41687500D01*
X146800000Y-42512500D02*
X145200000Y-42512500D01*
X146800000Y-41687500D02*
X146800000Y-42512500D01*
%TO.C,R107*%
X170800000Y-41687500D02*
X170800000Y-42512500D01*
X170800000Y-42512500D02*
X169200000Y-42512500D01*
X169200000Y-42512500D02*
X169200000Y-41687500D01*
X169200000Y-41687500D02*
X170800000Y-41687500D01*
%TO.C,R108*%
X158800000Y-41687500D02*
X158800000Y-42512500D01*
X158800000Y-42512500D02*
X157200000Y-42512500D01*
X157200000Y-42512500D02*
X157200000Y-41687500D01*
X157200000Y-41687500D02*
X158800000Y-41687500D01*
%TO.C,R112*%
X146800000Y-48687500D02*
X146800000Y-49512500D01*
X146800000Y-49512500D02*
X145200000Y-49512500D01*
X145200000Y-49512500D02*
X145200000Y-48687500D01*
X145200000Y-48687500D02*
X146800000Y-48687500D01*
%TO.C,R110*%
X170800000Y-48687500D02*
X170800000Y-49512500D01*
X170800000Y-49512500D02*
X169200000Y-49512500D01*
X169200000Y-49512500D02*
X169200000Y-48687500D01*
X169200000Y-48687500D02*
X170800000Y-48687500D01*
%TO.C,R111*%
X157200000Y-48687500D02*
X158800000Y-48687500D01*
X157200000Y-49512500D02*
X157200000Y-48687500D01*
X158800000Y-49512500D02*
X157200000Y-49512500D01*
X158800000Y-48687500D02*
X158800000Y-49512500D01*
%TO.C,R115*%
X145200000Y-53687500D02*
X146800000Y-53687500D01*
X145200000Y-54512500D02*
X145200000Y-53687500D01*
X146800000Y-54512500D02*
X145200000Y-54512500D01*
X146800000Y-53687500D02*
X146800000Y-54512500D01*
%TO.C,R113*%
X169200000Y-53687500D02*
X170800000Y-53687500D01*
X169200000Y-54512500D02*
X169200000Y-53687500D01*
X170800000Y-54512500D02*
X169200000Y-54512500D01*
X170800000Y-53687500D02*
X170800000Y-54512500D01*
%TO.C,R114*%
X158800000Y-53687500D02*
X158800000Y-54512500D01*
X158800000Y-54512500D02*
X157200000Y-54512500D01*
X157200000Y-54512500D02*
X157200000Y-53687500D01*
X157200000Y-53687500D02*
X158800000Y-53687500D01*
%TO.C,R118*%
X146800000Y-60687500D02*
X146800000Y-61512500D01*
X146800000Y-61512500D02*
X145200000Y-61512500D01*
X145200000Y-61512500D02*
X145200000Y-60687500D01*
X145200000Y-60687500D02*
X146800000Y-60687500D01*
%TO.C,R116*%
X170800000Y-60687500D02*
X170800000Y-61512500D01*
X170800000Y-61512500D02*
X169200000Y-61512500D01*
X169200000Y-61512500D02*
X169200000Y-60687500D01*
X169200000Y-60687500D02*
X170800000Y-60687500D01*
%TO.C,R117*%
X158800000Y-60687500D02*
X158800000Y-61512500D01*
X158800000Y-61512500D02*
X157200000Y-61512500D01*
X157200000Y-61512500D02*
X157200000Y-60687500D01*
X157200000Y-60687500D02*
X158800000Y-60687500D01*
%TO.C,R119*%
X169200000Y-65687500D02*
X170800000Y-65687500D01*
X169200000Y-66512500D02*
X169200000Y-65687500D01*
X170800000Y-66512500D02*
X169200000Y-66512500D01*
X170800000Y-65687500D02*
X170800000Y-66512500D01*
%TO.C,R120*%
X157200000Y-65687500D02*
X158800000Y-65687500D01*
X157200000Y-66512500D02*
X157200000Y-65687500D01*
X158800000Y-66512500D02*
X157200000Y-66512500D01*
X158800000Y-65687500D02*
X158800000Y-66512500D01*
%TO.C,R121*%
X145200000Y-65687500D02*
X146800000Y-65687500D01*
X145200000Y-66512500D02*
X145200000Y-65687500D01*
X146800000Y-66512500D02*
X145200000Y-66512500D01*
X146800000Y-65687500D02*
X146800000Y-66512500D01*
%TO.C,R122*%
X170800000Y-72687500D02*
X170800000Y-73512500D01*
X170800000Y-73512500D02*
X169200000Y-73512500D01*
X169200000Y-73512500D02*
X169200000Y-72687500D01*
X169200000Y-72687500D02*
X170800000Y-72687500D01*
%TO.C,R123*%
X158800000Y-72687500D02*
X158800000Y-73512500D01*
X158800000Y-73512500D02*
X157200000Y-73512500D01*
X157200000Y-73512500D02*
X157200000Y-72687500D01*
X157200000Y-72687500D02*
X158800000Y-72687500D01*
%TO.C,R124*%
X145200000Y-72687500D02*
X146800000Y-72687500D01*
X145200000Y-73512500D02*
X145200000Y-72687500D01*
X146800000Y-73512500D02*
X145200000Y-73512500D01*
X146800000Y-72687500D02*
X146800000Y-73512500D01*
%TO.C,R201*%
X111912500Y-60400000D02*
X111087500Y-60400000D01*
X111087500Y-60400000D02*
X111087500Y-58800000D01*
X111087500Y-58800000D02*
X111912500Y-58800000D01*
X111912500Y-58800000D02*
X111912500Y-60400000D01*
%TO.C,R202*%
X109912500Y-60400000D02*
X109087500Y-60400000D01*
X109087500Y-60400000D02*
X109087500Y-58800000D01*
X109087500Y-58800000D02*
X109912500Y-58800000D01*
X109912500Y-58800000D02*
X109912500Y-60400000D01*
%TO.C,R203*%
X115300000Y-52512500D02*
X113700000Y-52512500D01*
X115300000Y-51687500D02*
X115300000Y-52512500D01*
X113700000Y-51687500D02*
X115300000Y-51687500D01*
X113700000Y-52512500D02*
X113700000Y-51687500D01*
%TO.C,R204*%
X106200000Y-51687500D02*
X107800000Y-51687500D01*
X106200000Y-52512500D02*
X106200000Y-51687500D01*
X107800000Y-52512500D02*
X106200000Y-52512500D01*
X107800000Y-51687500D02*
X107800000Y-52512500D01*
%TO.C,R205*%
X111087500Y-72900000D02*
X111087500Y-71300000D01*
X111912500Y-72900000D02*
X111087500Y-72900000D01*
X111912500Y-71300000D02*
X111912500Y-72900000D01*
X111087500Y-71300000D02*
X111912500Y-71300000D01*
%TO.C,R206*%
X109087500Y-72900000D02*
X109087500Y-71300000D01*
X109912500Y-72900000D02*
X109087500Y-72900000D01*
X109912500Y-71300000D02*
X109912500Y-72900000D01*
X109087500Y-71300000D02*
X109912500Y-71300000D01*
%TO.C,R207*%
X113700000Y-64512500D02*
X113700000Y-63687500D01*
X113700000Y-63687500D02*
X115300000Y-63687500D01*
X115300000Y-63687500D02*
X115300000Y-64512500D01*
X115300000Y-64512500D02*
X113700000Y-64512500D01*
%TO.C,R208*%
X106200000Y-63687500D02*
X107800000Y-63687500D01*
X106200000Y-64512500D02*
X106200000Y-63687500D01*
X107800000Y-64512500D02*
X106200000Y-64512500D01*
X107800000Y-63687500D02*
X107800000Y-64512500D01*
%TO.C,R209*%
X110800000Y-29687500D02*
X110800000Y-30512500D01*
X110800000Y-30512500D02*
X109200000Y-30512500D01*
X109200000Y-30512500D02*
X109200000Y-29687500D01*
X109200000Y-29687500D02*
X110800000Y-29687500D01*
%TO.C,R210*%
X109912500Y-38600000D02*
X109087500Y-38600000D01*
X109087500Y-38600000D02*
X109087500Y-37000000D01*
X109087500Y-37000000D02*
X109912500Y-37000000D01*
X109912500Y-37000000D02*
X109912500Y-38600000D01*
%TO.C,U101*%
X133000000Y-37400000D02*
X134000000Y-38400000D01*
X129000000Y-37400000D02*
X133000000Y-37400000D01*
X129000000Y-41800000D02*
X129000000Y-37400000D01*
X134000000Y-41800000D02*
X129000000Y-41800000D01*
X134000000Y-38400000D02*
X134000000Y-41800000D01*
%TO.C,U201*%
X113000000Y-43900000D02*
X113000000Y-47300000D01*
X113000000Y-47300000D02*
X108000000Y-47300000D01*
X108000000Y-47300000D02*
X108000000Y-42900000D01*
X108000000Y-42900000D02*
X112000000Y-42900000D01*
X112000000Y-42900000D02*
X113000000Y-43900000D01*
%TO.C,U102*%
X133000000Y-61400000D02*
X134000000Y-62400000D01*
X129000000Y-61400000D02*
X133000000Y-61400000D01*
X129000000Y-65800000D02*
X129000000Y-61400000D01*
X134000000Y-65800000D02*
X129000000Y-65800000D01*
X134000000Y-62400000D02*
X134000000Y-65800000D01*
%TO.C,SW301*%
X179250000Y-44168000D02*
X176400000Y-44168000D01*
X179250000Y-40668000D02*
X179250000Y-44168000D01*
X176350000Y-40668000D02*
X179250000Y-40668000D01*
X176350000Y-44168000D02*
X176350000Y-40668000D01*
X179900000Y-43268000D02*
X179250000Y-43268000D01*
X179900000Y-41568000D02*
X179250000Y-41568000D01*
X179900000Y-43268000D02*
X179900000Y-41568000D01*
%TO.C,SW302*%
X179900000Y-55714000D02*
X179900000Y-54014000D01*
X179900000Y-54014000D02*
X179250000Y-54014000D01*
X179900000Y-55714000D02*
X179250000Y-55714000D01*
X176350000Y-56614000D02*
X176350000Y-53114000D01*
X176350000Y-53114000D02*
X179250000Y-53114000D01*
X179250000Y-53114000D02*
X179250000Y-56614000D01*
X179250000Y-56614000D02*
X176400000Y-56614000D01*
%TO.C,SW303*%
X94050000Y-38400000D02*
X94050000Y-47000000D01*
X94050000Y-38400000D02*
X89650000Y-38400000D01*
X89650000Y-38400000D02*
X89650000Y-47000000D01*
X89650000Y-47000000D02*
X94050000Y-47000000D01*
X89650000Y-42700000D02*
X85650000Y-42700000D01*
X85650000Y-42700000D02*
X85650000Y-40700000D01*
X85650000Y-40700000D02*
X89650000Y-40700000D01*
%TD*%
%TO.C,C102*%
D11*
X156928571Y-36482380D02*
X156357142Y-36482380D01*
X156642857Y-36482380D02*
X156642857Y-35482380D01*
X156547619Y-35625238D01*
X156452380Y-35720476D01*
X156357142Y-35768095D01*
X157547619Y-35482380D02*
X157642857Y-35482380D01*
X157738095Y-35530000D01*
X157785714Y-35577619D01*
X157833333Y-35672857D01*
X157880952Y-35863333D01*
X157880952Y-36101428D01*
X157833333Y-36291904D01*
X157785714Y-36387142D01*
X157738095Y-36434761D01*
X157642857Y-36482380D01*
X157547619Y-36482380D01*
X157452380Y-36434761D01*
X157404761Y-36387142D01*
X157357142Y-36291904D01*
X157309523Y-36101428D01*
X157309523Y-35863333D01*
X157357142Y-35672857D01*
X157404761Y-35577619D01*
X157452380Y-35530000D01*
X157547619Y-35482380D01*
X158309523Y-35815714D02*
X158309523Y-36482380D01*
X158309523Y-35910952D02*
X158357142Y-35863333D01*
X158452380Y-35815714D01*
X158595238Y-35815714D01*
X158690476Y-35863333D01*
X158738095Y-35958571D01*
X158738095Y-36482380D01*
X159547619Y-35958571D02*
X159214285Y-35958571D01*
X159214285Y-36482380D02*
X159214285Y-35482380D01*
X159690476Y-35482380D01*
X157160714Y-34867857D02*
X157125000Y-34903571D01*
X157017857Y-34939285D01*
X156946428Y-34939285D01*
X156839285Y-34903571D01*
X156767857Y-34832142D01*
X156732142Y-34760714D01*
X156696428Y-34617857D01*
X156696428Y-34510714D01*
X156732142Y-34367857D01*
X156767857Y-34296428D01*
X156839285Y-34225000D01*
X156946428Y-34189285D01*
X157017857Y-34189285D01*
X157125000Y-34225000D01*
X157160714Y-34260714D01*
X157875000Y-34939285D02*
X157446428Y-34939285D01*
X157660714Y-34939285D02*
X157660714Y-34189285D01*
X157589285Y-34296428D01*
X157517857Y-34367857D01*
X157446428Y-34403571D01*
X158339285Y-34189285D02*
X158410714Y-34189285D01*
X158482142Y-34225000D01*
X158517857Y-34260714D01*
X158553571Y-34332142D01*
X158589285Y-34475000D01*
X158589285Y-34653571D01*
X158553571Y-34796428D01*
X158517857Y-34867857D01*
X158482142Y-34903571D01*
X158410714Y-34939285D01*
X158339285Y-34939285D01*
X158267857Y-34903571D01*
X158232142Y-34867857D01*
X158196428Y-34796428D01*
X158160714Y-34653571D01*
X158160714Y-34475000D01*
X158196428Y-34332142D01*
X158232142Y-34260714D01*
X158267857Y-34225000D01*
X158339285Y-34189285D01*
X158875000Y-34260714D02*
X158910714Y-34225000D01*
X158982142Y-34189285D01*
X159160714Y-34189285D01*
X159232142Y-34225000D01*
X159267857Y-34260714D01*
X159303571Y-34332142D01*
X159303571Y-34403571D01*
X159267857Y-34510714D01*
X158839285Y-34939285D01*
X159303571Y-34939285D01*
%TO.C,C103*%
X144928571Y-36482380D02*
X144357142Y-36482380D01*
X144642857Y-36482380D02*
X144642857Y-35482380D01*
X144547619Y-35625238D01*
X144452380Y-35720476D01*
X144357142Y-35768095D01*
X145547619Y-35482380D02*
X145642857Y-35482380D01*
X145738095Y-35530000D01*
X145785714Y-35577619D01*
X145833333Y-35672857D01*
X145880952Y-35863333D01*
X145880952Y-36101428D01*
X145833333Y-36291904D01*
X145785714Y-36387142D01*
X145738095Y-36434761D01*
X145642857Y-36482380D01*
X145547619Y-36482380D01*
X145452380Y-36434761D01*
X145404761Y-36387142D01*
X145357142Y-36291904D01*
X145309523Y-36101428D01*
X145309523Y-35863333D01*
X145357142Y-35672857D01*
X145404761Y-35577619D01*
X145452380Y-35530000D01*
X145547619Y-35482380D01*
X146309523Y-35815714D02*
X146309523Y-36482380D01*
X146309523Y-35910952D02*
X146357142Y-35863333D01*
X146452380Y-35815714D01*
X146595238Y-35815714D01*
X146690476Y-35863333D01*
X146738095Y-35958571D01*
X146738095Y-36482380D01*
X147547619Y-35958571D02*
X147214285Y-35958571D01*
X147214285Y-36482380D02*
X147214285Y-35482380D01*
X147690476Y-35482380D01*
X145160714Y-34867857D02*
X145125000Y-34903571D01*
X145017857Y-34939285D01*
X144946428Y-34939285D01*
X144839285Y-34903571D01*
X144767857Y-34832142D01*
X144732142Y-34760714D01*
X144696428Y-34617857D01*
X144696428Y-34510714D01*
X144732142Y-34367857D01*
X144767857Y-34296428D01*
X144839285Y-34225000D01*
X144946428Y-34189285D01*
X145017857Y-34189285D01*
X145125000Y-34225000D01*
X145160714Y-34260714D01*
X145875000Y-34939285D02*
X145446428Y-34939285D01*
X145660714Y-34939285D02*
X145660714Y-34189285D01*
X145589285Y-34296428D01*
X145517857Y-34367857D01*
X145446428Y-34403571D01*
X146339285Y-34189285D02*
X146410714Y-34189285D01*
X146482142Y-34225000D01*
X146517857Y-34260714D01*
X146553571Y-34332142D01*
X146589285Y-34475000D01*
X146589285Y-34653571D01*
X146553571Y-34796428D01*
X146517857Y-34867857D01*
X146482142Y-34903571D01*
X146410714Y-34939285D01*
X146339285Y-34939285D01*
X146267857Y-34903571D01*
X146232142Y-34867857D01*
X146196428Y-34796428D01*
X146160714Y-34653571D01*
X146160714Y-34475000D01*
X146196428Y-34332142D01*
X146232142Y-34260714D01*
X146267857Y-34225000D01*
X146339285Y-34189285D01*
X146839285Y-34189285D02*
X147303571Y-34189285D01*
X147053571Y-34475000D01*
X147160714Y-34475000D01*
X147232142Y-34510714D01*
X147267857Y-34546428D01*
X147303571Y-34617857D01*
X147303571Y-34796428D01*
X147267857Y-34867857D01*
X147232142Y-34903571D01*
X147160714Y-34939285D01*
X146946428Y-34939285D01*
X146875000Y-34903571D01*
X146839285Y-34867857D01*
%TO.C,C101*%
X168928571Y-36482380D02*
X168357142Y-36482380D01*
X168642857Y-36482380D02*
X168642857Y-35482380D01*
X168547619Y-35625238D01*
X168452380Y-35720476D01*
X168357142Y-35768095D01*
X169547619Y-35482380D02*
X169642857Y-35482380D01*
X169738095Y-35530000D01*
X169785714Y-35577619D01*
X169833333Y-35672857D01*
X169880952Y-35863333D01*
X169880952Y-36101428D01*
X169833333Y-36291904D01*
X169785714Y-36387142D01*
X169738095Y-36434761D01*
X169642857Y-36482380D01*
X169547619Y-36482380D01*
X169452380Y-36434761D01*
X169404761Y-36387142D01*
X169357142Y-36291904D01*
X169309523Y-36101428D01*
X169309523Y-35863333D01*
X169357142Y-35672857D01*
X169404761Y-35577619D01*
X169452380Y-35530000D01*
X169547619Y-35482380D01*
X170309523Y-35815714D02*
X170309523Y-36482380D01*
X170309523Y-35910952D02*
X170357142Y-35863333D01*
X170452380Y-35815714D01*
X170595238Y-35815714D01*
X170690476Y-35863333D01*
X170738095Y-35958571D01*
X170738095Y-36482380D01*
X171547619Y-35958571D02*
X171214285Y-35958571D01*
X171214285Y-36482380D02*
X171214285Y-35482380D01*
X171690476Y-35482380D01*
X169160714Y-34867857D02*
X169125000Y-34903571D01*
X169017857Y-34939285D01*
X168946428Y-34939285D01*
X168839285Y-34903571D01*
X168767857Y-34832142D01*
X168732142Y-34760714D01*
X168696428Y-34617857D01*
X168696428Y-34510714D01*
X168732142Y-34367857D01*
X168767857Y-34296428D01*
X168839285Y-34225000D01*
X168946428Y-34189285D01*
X169017857Y-34189285D01*
X169125000Y-34225000D01*
X169160714Y-34260714D01*
X169875000Y-34939285D02*
X169446428Y-34939285D01*
X169660714Y-34939285D02*
X169660714Y-34189285D01*
X169589285Y-34296428D01*
X169517857Y-34367857D01*
X169446428Y-34403571D01*
X170339285Y-34189285D02*
X170410714Y-34189285D01*
X170482142Y-34225000D01*
X170517857Y-34260714D01*
X170553571Y-34332142D01*
X170589285Y-34475000D01*
X170589285Y-34653571D01*
X170553571Y-34796428D01*
X170517857Y-34867857D01*
X170482142Y-34903571D01*
X170410714Y-34939285D01*
X170339285Y-34939285D01*
X170267857Y-34903571D01*
X170232142Y-34867857D01*
X170196428Y-34796428D01*
X170160714Y-34653571D01*
X170160714Y-34475000D01*
X170196428Y-34332142D01*
X170232142Y-34260714D01*
X170267857Y-34225000D01*
X170339285Y-34189285D01*
X171303571Y-34939285D02*
X170875000Y-34939285D01*
X171089285Y-34939285D02*
X171089285Y-34189285D01*
X171017857Y-34296428D01*
X170946428Y-34367857D01*
X170875000Y-34403571D01*
%TO.C,C106*%
X144928571Y-48482380D02*
X144357142Y-48482380D01*
X144642857Y-48482380D02*
X144642857Y-47482380D01*
X144547619Y-47625238D01*
X144452380Y-47720476D01*
X144357142Y-47768095D01*
X145547619Y-47482380D02*
X145642857Y-47482380D01*
X145738095Y-47530000D01*
X145785714Y-47577619D01*
X145833333Y-47672857D01*
X145880952Y-47863333D01*
X145880952Y-48101428D01*
X145833333Y-48291904D01*
X145785714Y-48387142D01*
X145738095Y-48434761D01*
X145642857Y-48482380D01*
X145547619Y-48482380D01*
X145452380Y-48434761D01*
X145404761Y-48387142D01*
X145357142Y-48291904D01*
X145309523Y-48101428D01*
X145309523Y-47863333D01*
X145357142Y-47672857D01*
X145404761Y-47577619D01*
X145452380Y-47530000D01*
X145547619Y-47482380D01*
X146309523Y-47815714D02*
X146309523Y-48482380D01*
X146309523Y-47910952D02*
X146357142Y-47863333D01*
X146452380Y-47815714D01*
X146595238Y-47815714D01*
X146690476Y-47863333D01*
X146738095Y-47958571D01*
X146738095Y-48482380D01*
X147547619Y-47958571D02*
X147214285Y-47958571D01*
X147214285Y-48482380D02*
X147214285Y-47482380D01*
X147690476Y-47482380D01*
X145160714Y-46867857D02*
X145125000Y-46903571D01*
X145017857Y-46939285D01*
X144946428Y-46939285D01*
X144839285Y-46903571D01*
X144767857Y-46832142D01*
X144732142Y-46760714D01*
X144696428Y-46617857D01*
X144696428Y-46510714D01*
X144732142Y-46367857D01*
X144767857Y-46296428D01*
X144839285Y-46225000D01*
X144946428Y-46189285D01*
X145017857Y-46189285D01*
X145125000Y-46225000D01*
X145160714Y-46260714D01*
X145875000Y-46939285D02*
X145446428Y-46939285D01*
X145660714Y-46939285D02*
X145660714Y-46189285D01*
X145589285Y-46296428D01*
X145517857Y-46367857D01*
X145446428Y-46403571D01*
X146339285Y-46189285D02*
X146410714Y-46189285D01*
X146482142Y-46225000D01*
X146517857Y-46260714D01*
X146553571Y-46332142D01*
X146589285Y-46475000D01*
X146589285Y-46653571D01*
X146553571Y-46796428D01*
X146517857Y-46867857D01*
X146482142Y-46903571D01*
X146410714Y-46939285D01*
X146339285Y-46939285D01*
X146267857Y-46903571D01*
X146232142Y-46867857D01*
X146196428Y-46796428D01*
X146160714Y-46653571D01*
X146160714Y-46475000D01*
X146196428Y-46332142D01*
X146232142Y-46260714D01*
X146267857Y-46225000D01*
X146339285Y-46189285D01*
X147232142Y-46189285D02*
X147089285Y-46189285D01*
X147017857Y-46225000D01*
X146982142Y-46260714D01*
X146910714Y-46367857D01*
X146875000Y-46510714D01*
X146875000Y-46796428D01*
X146910714Y-46867857D01*
X146946428Y-46903571D01*
X147017857Y-46939285D01*
X147160714Y-46939285D01*
X147232142Y-46903571D01*
X147267857Y-46867857D01*
X147303571Y-46796428D01*
X147303571Y-46617857D01*
X147267857Y-46546428D01*
X147232142Y-46510714D01*
X147160714Y-46475000D01*
X147017857Y-46475000D01*
X146946428Y-46510714D01*
X146910714Y-46546428D01*
X146875000Y-46617857D01*
%TO.C,C104*%
X168928571Y-48482380D02*
X168357142Y-48482380D01*
X168642857Y-48482380D02*
X168642857Y-47482380D01*
X168547619Y-47625238D01*
X168452380Y-47720476D01*
X168357142Y-47768095D01*
X169547619Y-47482380D02*
X169642857Y-47482380D01*
X169738095Y-47530000D01*
X169785714Y-47577619D01*
X169833333Y-47672857D01*
X169880952Y-47863333D01*
X169880952Y-48101428D01*
X169833333Y-48291904D01*
X169785714Y-48387142D01*
X169738095Y-48434761D01*
X169642857Y-48482380D01*
X169547619Y-48482380D01*
X169452380Y-48434761D01*
X169404761Y-48387142D01*
X169357142Y-48291904D01*
X169309523Y-48101428D01*
X169309523Y-47863333D01*
X169357142Y-47672857D01*
X169404761Y-47577619D01*
X169452380Y-47530000D01*
X169547619Y-47482380D01*
X170309523Y-47815714D02*
X170309523Y-48482380D01*
X170309523Y-47910952D02*
X170357142Y-47863333D01*
X170452380Y-47815714D01*
X170595238Y-47815714D01*
X170690476Y-47863333D01*
X170738095Y-47958571D01*
X170738095Y-48482380D01*
X171547619Y-47958571D02*
X171214285Y-47958571D01*
X171214285Y-48482380D02*
X171214285Y-47482380D01*
X171690476Y-47482380D01*
X169160714Y-46867857D02*
X169125000Y-46903571D01*
X169017857Y-46939285D01*
X168946428Y-46939285D01*
X168839285Y-46903571D01*
X168767857Y-46832142D01*
X168732142Y-46760714D01*
X168696428Y-46617857D01*
X168696428Y-46510714D01*
X168732142Y-46367857D01*
X168767857Y-46296428D01*
X168839285Y-46225000D01*
X168946428Y-46189285D01*
X169017857Y-46189285D01*
X169125000Y-46225000D01*
X169160714Y-46260714D01*
X169875000Y-46939285D02*
X169446428Y-46939285D01*
X169660714Y-46939285D02*
X169660714Y-46189285D01*
X169589285Y-46296428D01*
X169517857Y-46367857D01*
X169446428Y-46403571D01*
X170339285Y-46189285D02*
X170410714Y-46189285D01*
X170482142Y-46225000D01*
X170517857Y-46260714D01*
X170553571Y-46332142D01*
X170589285Y-46475000D01*
X170589285Y-46653571D01*
X170553571Y-46796428D01*
X170517857Y-46867857D01*
X170482142Y-46903571D01*
X170410714Y-46939285D01*
X170339285Y-46939285D01*
X170267857Y-46903571D01*
X170232142Y-46867857D01*
X170196428Y-46796428D01*
X170160714Y-46653571D01*
X170160714Y-46475000D01*
X170196428Y-46332142D01*
X170232142Y-46260714D01*
X170267857Y-46225000D01*
X170339285Y-46189285D01*
X171232142Y-46439285D02*
X171232142Y-46939285D01*
X171053571Y-46153571D02*
X170875000Y-46689285D01*
X171339285Y-46689285D01*
%TO.C,C105*%
X156928571Y-48482380D02*
X156357142Y-48482380D01*
X156642857Y-48482380D02*
X156642857Y-47482380D01*
X156547619Y-47625238D01*
X156452380Y-47720476D01*
X156357142Y-47768095D01*
X157547619Y-47482380D02*
X157642857Y-47482380D01*
X157738095Y-47530000D01*
X157785714Y-47577619D01*
X157833333Y-47672857D01*
X157880952Y-47863333D01*
X157880952Y-48101428D01*
X157833333Y-48291904D01*
X157785714Y-48387142D01*
X157738095Y-48434761D01*
X157642857Y-48482380D01*
X157547619Y-48482380D01*
X157452380Y-48434761D01*
X157404761Y-48387142D01*
X157357142Y-48291904D01*
X157309523Y-48101428D01*
X157309523Y-47863333D01*
X157357142Y-47672857D01*
X157404761Y-47577619D01*
X157452380Y-47530000D01*
X157547619Y-47482380D01*
X158309523Y-47815714D02*
X158309523Y-48482380D01*
X158309523Y-47910952D02*
X158357142Y-47863333D01*
X158452380Y-47815714D01*
X158595238Y-47815714D01*
X158690476Y-47863333D01*
X158738095Y-47958571D01*
X158738095Y-48482380D01*
X159547619Y-47958571D02*
X159214285Y-47958571D01*
X159214285Y-48482380D02*
X159214285Y-47482380D01*
X159690476Y-47482380D01*
X157160714Y-46867857D02*
X157125000Y-46903571D01*
X157017857Y-46939285D01*
X156946428Y-46939285D01*
X156839285Y-46903571D01*
X156767857Y-46832142D01*
X156732142Y-46760714D01*
X156696428Y-46617857D01*
X156696428Y-46510714D01*
X156732142Y-46367857D01*
X156767857Y-46296428D01*
X156839285Y-46225000D01*
X156946428Y-46189285D01*
X157017857Y-46189285D01*
X157125000Y-46225000D01*
X157160714Y-46260714D01*
X157875000Y-46939285D02*
X157446428Y-46939285D01*
X157660714Y-46939285D02*
X157660714Y-46189285D01*
X157589285Y-46296428D01*
X157517857Y-46367857D01*
X157446428Y-46403571D01*
X158339285Y-46189285D02*
X158410714Y-46189285D01*
X158482142Y-46225000D01*
X158517857Y-46260714D01*
X158553571Y-46332142D01*
X158589285Y-46475000D01*
X158589285Y-46653571D01*
X158553571Y-46796428D01*
X158517857Y-46867857D01*
X158482142Y-46903571D01*
X158410714Y-46939285D01*
X158339285Y-46939285D01*
X158267857Y-46903571D01*
X158232142Y-46867857D01*
X158196428Y-46796428D01*
X158160714Y-46653571D01*
X158160714Y-46475000D01*
X158196428Y-46332142D01*
X158232142Y-46260714D01*
X158267857Y-46225000D01*
X158339285Y-46189285D01*
X159267857Y-46189285D02*
X158910714Y-46189285D01*
X158875000Y-46546428D01*
X158910714Y-46510714D01*
X158982142Y-46475000D01*
X159160714Y-46475000D01*
X159232142Y-46510714D01*
X159267857Y-46546428D01*
X159303571Y-46617857D01*
X159303571Y-46796428D01*
X159267857Y-46867857D01*
X159232142Y-46903571D01*
X159160714Y-46939285D01*
X158982142Y-46939285D01*
X158910714Y-46903571D01*
X158875000Y-46867857D01*
%TO.C,C109*%
X144928571Y-60482380D02*
X144357142Y-60482380D01*
X144642857Y-60482380D02*
X144642857Y-59482380D01*
X144547619Y-59625238D01*
X144452380Y-59720476D01*
X144357142Y-59768095D01*
X145547619Y-59482380D02*
X145642857Y-59482380D01*
X145738095Y-59530000D01*
X145785714Y-59577619D01*
X145833333Y-59672857D01*
X145880952Y-59863333D01*
X145880952Y-60101428D01*
X145833333Y-60291904D01*
X145785714Y-60387142D01*
X145738095Y-60434761D01*
X145642857Y-60482380D01*
X145547619Y-60482380D01*
X145452380Y-60434761D01*
X145404761Y-60387142D01*
X145357142Y-60291904D01*
X145309523Y-60101428D01*
X145309523Y-59863333D01*
X145357142Y-59672857D01*
X145404761Y-59577619D01*
X145452380Y-59530000D01*
X145547619Y-59482380D01*
X146309523Y-59815714D02*
X146309523Y-60482380D01*
X146309523Y-59910952D02*
X146357142Y-59863333D01*
X146452380Y-59815714D01*
X146595238Y-59815714D01*
X146690476Y-59863333D01*
X146738095Y-59958571D01*
X146738095Y-60482380D01*
X147547619Y-59958571D02*
X147214285Y-59958571D01*
X147214285Y-60482380D02*
X147214285Y-59482380D01*
X147690476Y-59482380D01*
X145160714Y-58867857D02*
X145125000Y-58903571D01*
X145017857Y-58939285D01*
X144946428Y-58939285D01*
X144839285Y-58903571D01*
X144767857Y-58832142D01*
X144732142Y-58760714D01*
X144696428Y-58617857D01*
X144696428Y-58510714D01*
X144732142Y-58367857D01*
X144767857Y-58296428D01*
X144839285Y-58225000D01*
X144946428Y-58189285D01*
X145017857Y-58189285D01*
X145125000Y-58225000D01*
X145160714Y-58260714D01*
X145875000Y-58939285D02*
X145446428Y-58939285D01*
X145660714Y-58939285D02*
X145660714Y-58189285D01*
X145589285Y-58296428D01*
X145517857Y-58367857D01*
X145446428Y-58403571D01*
X146339285Y-58189285D02*
X146410714Y-58189285D01*
X146482142Y-58225000D01*
X146517857Y-58260714D01*
X146553571Y-58332142D01*
X146589285Y-58475000D01*
X146589285Y-58653571D01*
X146553571Y-58796428D01*
X146517857Y-58867857D01*
X146482142Y-58903571D01*
X146410714Y-58939285D01*
X146339285Y-58939285D01*
X146267857Y-58903571D01*
X146232142Y-58867857D01*
X146196428Y-58796428D01*
X146160714Y-58653571D01*
X146160714Y-58475000D01*
X146196428Y-58332142D01*
X146232142Y-58260714D01*
X146267857Y-58225000D01*
X146339285Y-58189285D01*
X146946428Y-58939285D02*
X147089285Y-58939285D01*
X147160714Y-58903571D01*
X147196428Y-58867857D01*
X147267857Y-58760714D01*
X147303571Y-58617857D01*
X147303571Y-58332142D01*
X147267857Y-58260714D01*
X147232142Y-58225000D01*
X147160714Y-58189285D01*
X147017857Y-58189285D01*
X146946428Y-58225000D01*
X146910714Y-58260714D01*
X146875000Y-58332142D01*
X146875000Y-58510714D01*
X146910714Y-58582142D01*
X146946428Y-58617857D01*
X147017857Y-58653571D01*
X147160714Y-58653571D01*
X147232142Y-58617857D01*
X147267857Y-58582142D01*
X147303571Y-58510714D01*
%TO.C,C107*%
X168928571Y-60482380D02*
X168357142Y-60482380D01*
X168642857Y-60482380D02*
X168642857Y-59482380D01*
X168547619Y-59625238D01*
X168452380Y-59720476D01*
X168357142Y-59768095D01*
X169547619Y-59482380D02*
X169642857Y-59482380D01*
X169738095Y-59530000D01*
X169785714Y-59577619D01*
X169833333Y-59672857D01*
X169880952Y-59863333D01*
X169880952Y-60101428D01*
X169833333Y-60291904D01*
X169785714Y-60387142D01*
X169738095Y-60434761D01*
X169642857Y-60482380D01*
X169547619Y-60482380D01*
X169452380Y-60434761D01*
X169404761Y-60387142D01*
X169357142Y-60291904D01*
X169309523Y-60101428D01*
X169309523Y-59863333D01*
X169357142Y-59672857D01*
X169404761Y-59577619D01*
X169452380Y-59530000D01*
X169547619Y-59482380D01*
X170309523Y-59815714D02*
X170309523Y-60482380D01*
X170309523Y-59910952D02*
X170357142Y-59863333D01*
X170452380Y-59815714D01*
X170595238Y-59815714D01*
X170690476Y-59863333D01*
X170738095Y-59958571D01*
X170738095Y-60482380D01*
X171547619Y-59958571D02*
X171214285Y-59958571D01*
X171214285Y-60482380D02*
X171214285Y-59482380D01*
X171690476Y-59482380D01*
X169160714Y-58867857D02*
X169125000Y-58903571D01*
X169017857Y-58939285D01*
X168946428Y-58939285D01*
X168839285Y-58903571D01*
X168767857Y-58832142D01*
X168732142Y-58760714D01*
X168696428Y-58617857D01*
X168696428Y-58510714D01*
X168732142Y-58367857D01*
X168767857Y-58296428D01*
X168839285Y-58225000D01*
X168946428Y-58189285D01*
X169017857Y-58189285D01*
X169125000Y-58225000D01*
X169160714Y-58260714D01*
X169875000Y-58939285D02*
X169446428Y-58939285D01*
X169660714Y-58939285D02*
X169660714Y-58189285D01*
X169589285Y-58296428D01*
X169517857Y-58367857D01*
X169446428Y-58403571D01*
X170339285Y-58189285D02*
X170410714Y-58189285D01*
X170482142Y-58225000D01*
X170517857Y-58260714D01*
X170553571Y-58332142D01*
X170589285Y-58475000D01*
X170589285Y-58653571D01*
X170553571Y-58796428D01*
X170517857Y-58867857D01*
X170482142Y-58903571D01*
X170410714Y-58939285D01*
X170339285Y-58939285D01*
X170267857Y-58903571D01*
X170232142Y-58867857D01*
X170196428Y-58796428D01*
X170160714Y-58653571D01*
X170160714Y-58475000D01*
X170196428Y-58332142D01*
X170232142Y-58260714D01*
X170267857Y-58225000D01*
X170339285Y-58189285D01*
X170839285Y-58189285D02*
X171339285Y-58189285D01*
X171017857Y-58939285D01*
%TO.C,C108*%
X156928571Y-60482380D02*
X156357142Y-60482380D01*
X156642857Y-60482380D02*
X156642857Y-59482380D01*
X156547619Y-59625238D01*
X156452380Y-59720476D01*
X156357142Y-59768095D01*
X157547619Y-59482380D02*
X157642857Y-59482380D01*
X157738095Y-59530000D01*
X157785714Y-59577619D01*
X157833333Y-59672857D01*
X157880952Y-59863333D01*
X157880952Y-60101428D01*
X157833333Y-60291904D01*
X157785714Y-60387142D01*
X157738095Y-60434761D01*
X157642857Y-60482380D01*
X157547619Y-60482380D01*
X157452380Y-60434761D01*
X157404761Y-60387142D01*
X157357142Y-60291904D01*
X157309523Y-60101428D01*
X157309523Y-59863333D01*
X157357142Y-59672857D01*
X157404761Y-59577619D01*
X157452380Y-59530000D01*
X157547619Y-59482380D01*
X158309523Y-59815714D02*
X158309523Y-60482380D01*
X158309523Y-59910952D02*
X158357142Y-59863333D01*
X158452380Y-59815714D01*
X158595238Y-59815714D01*
X158690476Y-59863333D01*
X158738095Y-59958571D01*
X158738095Y-60482380D01*
X159547619Y-59958571D02*
X159214285Y-59958571D01*
X159214285Y-60482380D02*
X159214285Y-59482380D01*
X159690476Y-59482380D01*
X157160714Y-58867857D02*
X157125000Y-58903571D01*
X157017857Y-58939285D01*
X156946428Y-58939285D01*
X156839285Y-58903571D01*
X156767857Y-58832142D01*
X156732142Y-58760714D01*
X156696428Y-58617857D01*
X156696428Y-58510714D01*
X156732142Y-58367857D01*
X156767857Y-58296428D01*
X156839285Y-58225000D01*
X156946428Y-58189285D01*
X157017857Y-58189285D01*
X157125000Y-58225000D01*
X157160714Y-58260714D01*
X157875000Y-58939285D02*
X157446428Y-58939285D01*
X157660714Y-58939285D02*
X157660714Y-58189285D01*
X157589285Y-58296428D01*
X157517857Y-58367857D01*
X157446428Y-58403571D01*
X158339285Y-58189285D02*
X158410714Y-58189285D01*
X158482142Y-58225000D01*
X158517857Y-58260714D01*
X158553571Y-58332142D01*
X158589285Y-58475000D01*
X158589285Y-58653571D01*
X158553571Y-58796428D01*
X158517857Y-58867857D01*
X158482142Y-58903571D01*
X158410714Y-58939285D01*
X158339285Y-58939285D01*
X158267857Y-58903571D01*
X158232142Y-58867857D01*
X158196428Y-58796428D01*
X158160714Y-58653571D01*
X158160714Y-58475000D01*
X158196428Y-58332142D01*
X158232142Y-58260714D01*
X158267857Y-58225000D01*
X158339285Y-58189285D01*
X159017857Y-58510714D02*
X158946428Y-58475000D01*
X158910714Y-58439285D01*
X158875000Y-58367857D01*
X158875000Y-58332142D01*
X158910714Y-58260714D01*
X158946428Y-58225000D01*
X159017857Y-58189285D01*
X159160714Y-58189285D01*
X159232142Y-58225000D01*
X159267857Y-58260714D01*
X159303571Y-58332142D01*
X159303571Y-58367857D01*
X159267857Y-58439285D01*
X159232142Y-58475000D01*
X159160714Y-58510714D01*
X159017857Y-58510714D01*
X158946428Y-58546428D01*
X158910714Y-58582142D01*
X158875000Y-58653571D01*
X158875000Y-58796428D01*
X158910714Y-58867857D01*
X158946428Y-58903571D01*
X159017857Y-58939285D01*
X159160714Y-58939285D01*
X159232142Y-58903571D01*
X159267857Y-58867857D01*
X159303571Y-58796428D01*
X159303571Y-58653571D01*
X159267857Y-58582142D01*
X159232142Y-58546428D01*
X159160714Y-58510714D01*
%TO.C,C110*%
X168928571Y-72482380D02*
X168357142Y-72482380D01*
X168642857Y-72482380D02*
X168642857Y-71482380D01*
X168547619Y-71625238D01*
X168452380Y-71720476D01*
X168357142Y-71768095D01*
X169547619Y-71482380D02*
X169642857Y-71482380D01*
X169738095Y-71530000D01*
X169785714Y-71577619D01*
X169833333Y-71672857D01*
X169880952Y-71863333D01*
X169880952Y-72101428D01*
X169833333Y-72291904D01*
X169785714Y-72387142D01*
X169738095Y-72434761D01*
X169642857Y-72482380D01*
X169547619Y-72482380D01*
X169452380Y-72434761D01*
X169404761Y-72387142D01*
X169357142Y-72291904D01*
X169309523Y-72101428D01*
X169309523Y-71863333D01*
X169357142Y-71672857D01*
X169404761Y-71577619D01*
X169452380Y-71530000D01*
X169547619Y-71482380D01*
X170309523Y-71815714D02*
X170309523Y-72482380D01*
X170309523Y-71910952D02*
X170357142Y-71863333D01*
X170452380Y-71815714D01*
X170595238Y-71815714D01*
X170690476Y-71863333D01*
X170738095Y-71958571D01*
X170738095Y-72482380D01*
X171547619Y-71958571D02*
X171214285Y-71958571D01*
X171214285Y-72482380D02*
X171214285Y-71482380D01*
X171690476Y-71482380D01*
X169160714Y-70867857D02*
X169125000Y-70903571D01*
X169017857Y-70939285D01*
X168946428Y-70939285D01*
X168839285Y-70903571D01*
X168767857Y-70832142D01*
X168732142Y-70760714D01*
X168696428Y-70617857D01*
X168696428Y-70510714D01*
X168732142Y-70367857D01*
X168767857Y-70296428D01*
X168839285Y-70225000D01*
X168946428Y-70189285D01*
X169017857Y-70189285D01*
X169125000Y-70225000D01*
X169160714Y-70260714D01*
X169875000Y-70939285D02*
X169446428Y-70939285D01*
X169660714Y-70939285D02*
X169660714Y-70189285D01*
X169589285Y-70296428D01*
X169517857Y-70367857D01*
X169446428Y-70403571D01*
X170589285Y-70939285D02*
X170160714Y-70939285D01*
X170375000Y-70939285D02*
X170375000Y-70189285D01*
X170303571Y-70296428D01*
X170232142Y-70367857D01*
X170160714Y-70403571D01*
X171053571Y-70189285D02*
X171125000Y-70189285D01*
X171196428Y-70225000D01*
X171232142Y-70260714D01*
X171267857Y-70332142D01*
X171303571Y-70475000D01*
X171303571Y-70653571D01*
X171267857Y-70796428D01*
X171232142Y-70867857D01*
X171196428Y-70903571D01*
X171125000Y-70939285D01*
X171053571Y-70939285D01*
X170982142Y-70903571D01*
X170946428Y-70867857D01*
X170910714Y-70796428D01*
X170875000Y-70653571D01*
X170875000Y-70475000D01*
X170910714Y-70332142D01*
X170946428Y-70260714D01*
X170982142Y-70225000D01*
X171053571Y-70189285D01*
%TO.C,C111*%
X156928571Y-72482380D02*
X156357142Y-72482380D01*
X156642857Y-72482380D02*
X156642857Y-71482380D01*
X156547619Y-71625238D01*
X156452380Y-71720476D01*
X156357142Y-71768095D01*
X157547619Y-71482380D02*
X157642857Y-71482380D01*
X157738095Y-71530000D01*
X157785714Y-71577619D01*
X157833333Y-71672857D01*
X157880952Y-71863333D01*
X157880952Y-72101428D01*
X157833333Y-72291904D01*
X157785714Y-72387142D01*
X157738095Y-72434761D01*
X157642857Y-72482380D01*
X157547619Y-72482380D01*
X157452380Y-72434761D01*
X157404761Y-72387142D01*
X157357142Y-72291904D01*
X157309523Y-72101428D01*
X157309523Y-71863333D01*
X157357142Y-71672857D01*
X157404761Y-71577619D01*
X157452380Y-71530000D01*
X157547619Y-71482380D01*
X158309523Y-71815714D02*
X158309523Y-72482380D01*
X158309523Y-71910952D02*
X158357142Y-71863333D01*
X158452380Y-71815714D01*
X158595238Y-71815714D01*
X158690476Y-71863333D01*
X158738095Y-71958571D01*
X158738095Y-72482380D01*
X159547619Y-71958571D02*
X159214285Y-71958571D01*
X159214285Y-72482380D02*
X159214285Y-71482380D01*
X159690476Y-71482380D01*
X157160714Y-70867857D02*
X157125000Y-70903571D01*
X157017857Y-70939285D01*
X156946428Y-70939285D01*
X156839285Y-70903571D01*
X156767857Y-70832142D01*
X156732142Y-70760714D01*
X156696428Y-70617857D01*
X156696428Y-70510714D01*
X156732142Y-70367857D01*
X156767857Y-70296428D01*
X156839285Y-70225000D01*
X156946428Y-70189285D01*
X157017857Y-70189285D01*
X157125000Y-70225000D01*
X157160714Y-70260714D01*
X157875000Y-70939285D02*
X157446428Y-70939285D01*
X157660714Y-70939285D02*
X157660714Y-70189285D01*
X157589285Y-70296428D01*
X157517857Y-70367857D01*
X157446428Y-70403571D01*
X158589285Y-70939285D02*
X158160714Y-70939285D01*
X158375000Y-70939285D02*
X158375000Y-70189285D01*
X158303571Y-70296428D01*
X158232142Y-70367857D01*
X158160714Y-70403571D01*
X159303571Y-70939285D02*
X158875000Y-70939285D01*
X159089285Y-70939285D02*
X159089285Y-70189285D01*
X159017857Y-70296428D01*
X158946428Y-70367857D01*
X158875000Y-70403571D01*
%TO.C,C112*%
X144928571Y-72482380D02*
X144357142Y-72482380D01*
X144642857Y-72482380D02*
X144642857Y-71482380D01*
X144547619Y-71625238D01*
X144452380Y-71720476D01*
X144357142Y-71768095D01*
X145547619Y-71482380D02*
X145642857Y-71482380D01*
X145738095Y-71530000D01*
X145785714Y-71577619D01*
X145833333Y-71672857D01*
X145880952Y-71863333D01*
X145880952Y-72101428D01*
X145833333Y-72291904D01*
X145785714Y-72387142D01*
X145738095Y-72434761D01*
X145642857Y-72482380D01*
X145547619Y-72482380D01*
X145452380Y-72434761D01*
X145404761Y-72387142D01*
X145357142Y-72291904D01*
X145309523Y-72101428D01*
X145309523Y-71863333D01*
X145357142Y-71672857D01*
X145404761Y-71577619D01*
X145452380Y-71530000D01*
X145547619Y-71482380D01*
X146309523Y-71815714D02*
X146309523Y-72482380D01*
X146309523Y-71910952D02*
X146357142Y-71863333D01*
X146452380Y-71815714D01*
X146595238Y-71815714D01*
X146690476Y-71863333D01*
X146738095Y-71958571D01*
X146738095Y-72482380D01*
X147547619Y-71958571D02*
X147214285Y-71958571D01*
X147214285Y-72482380D02*
X147214285Y-71482380D01*
X147690476Y-71482380D01*
X145160714Y-70867857D02*
X145125000Y-70903571D01*
X145017857Y-70939285D01*
X144946428Y-70939285D01*
X144839285Y-70903571D01*
X144767857Y-70832142D01*
X144732142Y-70760714D01*
X144696428Y-70617857D01*
X144696428Y-70510714D01*
X144732142Y-70367857D01*
X144767857Y-70296428D01*
X144839285Y-70225000D01*
X144946428Y-70189285D01*
X145017857Y-70189285D01*
X145125000Y-70225000D01*
X145160714Y-70260714D01*
X145875000Y-70939285D02*
X145446428Y-70939285D01*
X145660714Y-70939285D02*
X145660714Y-70189285D01*
X145589285Y-70296428D01*
X145517857Y-70367857D01*
X145446428Y-70403571D01*
X146589285Y-70939285D02*
X146160714Y-70939285D01*
X146375000Y-70939285D02*
X146375000Y-70189285D01*
X146303571Y-70296428D01*
X146232142Y-70367857D01*
X146160714Y-70403571D01*
X146875000Y-70260714D02*
X146910714Y-70225000D01*
X146982142Y-70189285D01*
X147160714Y-70189285D01*
X147232142Y-70225000D01*
X147267857Y-70260714D01*
X147303571Y-70332142D01*
X147303571Y-70403571D01*
X147267857Y-70510714D01*
X146839285Y-70939285D01*
X147303571Y-70939285D01*
%TO.C,C113*%
X134022380Y-43647619D02*
X134022380Y-44219047D01*
X134022380Y-43933333D02*
X133022380Y-43933333D01*
X133165238Y-44028571D01*
X133260476Y-44123809D01*
X133308095Y-44219047D01*
X133022380Y-43028571D02*
X133022380Y-42933333D01*
X133070000Y-42838095D01*
X133117619Y-42790476D01*
X133212857Y-42742857D01*
X133403333Y-42695238D01*
X133641428Y-42695238D01*
X133831904Y-42742857D01*
X133927142Y-42790476D01*
X133974761Y-42838095D01*
X134022380Y-42933333D01*
X134022380Y-43028571D01*
X133974761Y-43123809D01*
X133927142Y-43171428D01*
X133831904Y-43219047D01*
X133641428Y-43266666D01*
X133403333Y-43266666D01*
X133212857Y-43219047D01*
X133117619Y-43171428D01*
X133070000Y-43123809D01*
X133022380Y-43028571D01*
X133022380Y-42076190D02*
X133022380Y-41980952D01*
X133070000Y-41885714D01*
X133117619Y-41838095D01*
X133212857Y-41790476D01*
X133403333Y-41742857D01*
X133641428Y-41742857D01*
X133831904Y-41790476D01*
X133927142Y-41838095D01*
X133974761Y-41885714D01*
X134022380Y-41980952D01*
X134022380Y-42076190D01*
X133974761Y-42171428D01*
X133927142Y-42219047D01*
X133831904Y-42266666D01*
X133641428Y-42314285D01*
X133403333Y-42314285D01*
X133212857Y-42266666D01*
X133117619Y-42219047D01*
X133070000Y-42171428D01*
X133022380Y-42076190D01*
X133355714Y-41314285D02*
X134022380Y-41314285D01*
X133450952Y-41314285D02*
X133403333Y-41266666D01*
X133355714Y-41171428D01*
X133355714Y-41028571D01*
X133403333Y-40933333D01*
X133498571Y-40885714D01*
X134022380Y-40885714D01*
X133498571Y-40076190D02*
X133498571Y-40409523D01*
X134022380Y-40409523D02*
X133022380Y-40409523D01*
X133022380Y-39933333D01*
X135267857Y-42939285D02*
X135303571Y-42975000D01*
X135339285Y-43082142D01*
X135339285Y-43153571D01*
X135303571Y-43260714D01*
X135232142Y-43332142D01*
X135160714Y-43367857D01*
X135017857Y-43403571D01*
X134910714Y-43403571D01*
X134767857Y-43367857D01*
X134696428Y-43332142D01*
X134625000Y-43260714D01*
X134589285Y-43153571D01*
X134589285Y-43082142D01*
X134625000Y-42975000D01*
X134660714Y-42939285D01*
X135339285Y-42225000D02*
X135339285Y-42653571D01*
X135339285Y-42439285D02*
X134589285Y-42439285D01*
X134696428Y-42510714D01*
X134767857Y-42582142D01*
X134803571Y-42653571D01*
X135339285Y-41510714D02*
X135339285Y-41939285D01*
X135339285Y-41725000D02*
X134589285Y-41725000D01*
X134696428Y-41796428D01*
X134767857Y-41867857D01*
X134803571Y-41939285D01*
X134589285Y-41260714D02*
X134589285Y-40796428D01*
X134875000Y-41046428D01*
X134875000Y-40939285D01*
X134910714Y-40867857D01*
X134946428Y-40832142D01*
X135017857Y-40796428D01*
X135196428Y-40796428D01*
X135267857Y-40832142D01*
X135303571Y-40867857D01*
X135339285Y-40939285D01*
X135339285Y-41153571D01*
X135303571Y-41225000D01*
X135267857Y-41260714D01*
%TO.C,C114*%
X134022380Y-67647619D02*
X134022380Y-68219047D01*
X134022380Y-67933333D02*
X133022380Y-67933333D01*
X133165238Y-68028571D01*
X133260476Y-68123809D01*
X133308095Y-68219047D01*
X133022380Y-67028571D02*
X133022380Y-66933333D01*
X133070000Y-66838095D01*
X133117619Y-66790476D01*
X133212857Y-66742857D01*
X133403333Y-66695238D01*
X133641428Y-66695238D01*
X133831904Y-66742857D01*
X133927142Y-66790476D01*
X133974761Y-66838095D01*
X134022380Y-66933333D01*
X134022380Y-67028571D01*
X133974761Y-67123809D01*
X133927142Y-67171428D01*
X133831904Y-67219047D01*
X133641428Y-67266666D01*
X133403333Y-67266666D01*
X133212857Y-67219047D01*
X133117619Y-67171428D01*
X133070000Y-67123809D01*
X133022380Y-67028571D01*
X133022380Y-66076190D02*
X133022380Y-65980952D01*
X133070000Y-65885714D01*
X133117619Y-65838095D01*
X133212857Y-65790476D01*
X133403333Y-65742857D01*
X133641428Y-65742857D01*
X133831904Y-65790476D01*
X133927142Y-65838095D01*
X133974761Y-65885714D01*
X134022380Y-65980952D01*
X134022380Y-66076190D01*
X133974761Y-66171428D01*
X133927142Y-66219047D01*
X133831904Y-66266666D01*
X133641428Y-66314285D01*
X133403333Y-66314285D01*
X133212857Y-66266666D01*
X133117619Y-66219047D01*
X133070000Y-66171428D01*
X133022380Y-66076190D01*
X133355714Y-65314285D02*
X134022380Y-65314285D01*
X133450952Y-65314285D02*
X133403333Y-65266666D01*
X133355714Y-65171428D01*
X133355714Y-65028571D01*
X133403333Y-64933333D01*
X133498571Y-64885714D01*
X134022380Y-64885714D01*
X133498571Y-64076190D02*
X133498571Y-64409523D01*
X134022380Y-64409523D02*
X133022380Y-64409523D01*
X133022380Y-63933333D01*
X135267857Y-66939285D02*
X135303571Y-66975000D01*
X135339285Y-67082142D01*
X135339285Y-67153571D01*
X135303571Y-67260714D01*
X135232142Y-67332142D01*
X135160714Y-67367857D01*
X135017857Y-67403571D01*
X134910714Y-67403571D01*
X134767857Y-67367857D01*
X134696428Y-67332142D01*
X134625000Y-67260714D01*
X134589285Y-67153571D01*
X134589285Y-67082142D01*
X134625000Y-66975000D01*
X134660714Y-66939285D01*
X135339285Y-66225000D02*
X135339285Y-66653571D01*
X135339285Y-66439285D02*
X134589285Y-66439285D01*
X134696428Y-66510714D01*
X134767857Y-66582142D01*
X134803571Y-66653571D01*
X135339285Y-65510714D02*
X135339285Y-65939285D01*
X135339285Y-65725000D02*
X134589285Y-65725000D01*
X134696428Y-65796428D01*
X134767857Y-65867857D01*
X134803571Y-65939285D01*
X134839285Y-64867857D02*
X135339285Y-64867857D01*
X134553571Y-65046428D02*
X135089285Y-65225000D01*
X135089285Y-64760714D01*
%TO.C,C201*%
X110522380Y-56671428D02*
X110522380Y-57242857D01*
X110522380Y-56957142D02*
X109522380Y-56957142D01*
X109665238Y-57052380D01*
X109760476Y-57147619D01*
X109808095Y-57242857D01*
X109522380Y-56052380D02*
X109522380Y-55957142D01*
X109570000Y-55861904D01*
X109617619Y-55814285D01*
X109712857Y-55766666D01*
X109903333Y-55719047D01*
X110141428Y-55719047D01*
X110331904Y-55766666D01*
X110427142Y-55814285D01*
X110474761Y-55861904D01*
X110522380Y-55957142D01*
X110522380Y-56052380D01*
X110474761Y-56147619D01*
X110427142Y-56195238D01*
X110331904Y-56242857D01*
X110141428Y-56290476D01*
X109903333Y-56290476D01*
X109712857Y-56242857D01*
X109617619Y-56195238D01*
X109570000Y-56147619D01*
X109522380Y-56052380D01*
X109855714Y-55290476D02*
X110522380Y-55290476D01*
X109950952Y-55290476D02*
X109903333Y-55242857D01*
X109855714Y-55147619D01*
X109855714Y-55004761D01*
X109903333Y-54909523D01*
X109998571Y-54861904D01*
X110522380Y-54861904D01*
X109998571Y-54052380D02*
X109998571Y-54385714D01*
X110522380Y-54385714D02*
X109522380Y-54385714D01*
X109522380Y-53909523D01*
X111767857Y-56439285D02*
X111803571Y-56475000D01*
X111839285Y-56582142D01*
X111839285Y-56653571D01*
X111803571Y-56760714D01*
X111732142Y-56832142D01*
X111660714Y-56867857D01*
X111517857Y-56903571D01*
X111410714Y-56903571D01*
X111267857Y-56867857D01*
X111196428Y-56832142D01*
X111125000Y-56760714D01*
X111089285Y-56653571D01*
X111089285Y-56582142D01*
X111125000Y-56475000D01*
X111160714Y-56439285D01*
X111160714Y-56153571D02*
X111125000Y-56117857D01*
X111089285Y-56046428D01*
X111089285Y-55867857D01*
X111125000Y-55796428D01*
X111160714Y-55760714D01*
X111232142Y-55725000D01*
X111303571Y-55725000D01*
X111410714Y-55760714D01*
X111839285Y-56189285D01*
X111839285Y-55725000D01*
X111089285Y-55260714D02*
X111089285Y-55189285D01*
X111125000Y-55117857D01*
X111160714Y-55082142D01*
X111232142Y-55046428D01*
X111375000Y-55010714D01*
X111553571Y-55010714D01*
X111696428Y-55046428D01*
X111767857Y-55082142D01*
X111803571Y-55117857D01*
X111839285Y-55189285D01*
X111839285Y-55260714D01*
X111803571Y-55332142D01*
X111767857Y-55367857D01*
X111696428Y-55403571D01*
X111553571Y-55439285D01*
X111375000Y-55439285D01*
X111232142Y-55403571D01*
X111160714Y-55367857D01*
X111125000Y-55332142D01*
X111089285Y-55260714D01*
X111839285Y-54296428D02*
X111839285Y-54725000D01*
X111839285Y-54510714D02*
X111089285Y-54510714D01*
X111196428Y-54582142D01*
X111267857Y-54653571D01*
X111303571Y-54725000D01*
%TO.C,C202*%
X108522380Y-56671428D02*
X108522380Y-57242857D01*
X108522380Y-56957142D02*
X107522380Y-56957142D01*
X107665238Y-57052380D01*
X107760476Y-57147619D01*
X107808095Y-57242857D01*
X107522380Y-56052380D02*
X107522380Y-55957142D01*
X107570000Y-55861904D01*
X107617619Y-55814285D01*
X107712857Y-55766666D01*
X107903333Y-55719047D01*
X108141428Y-55719047D01*
X108331904Y-55766666D01*
X108427142Y-55814285D01*
X108474761Y-55861904D01*
X108522380Y-55957142D01*
X108522380Y-56052380D01*
X108474761Y-56147619D01*
X108427142Y-56195238D01*
X108331904Y-56242857D01*
X108141428Y-56290476D01*
X107903333Y-56290476D01*
X107712857Y-56242857D01*
X107617619Y-56195238D01*
X107570000Y-56147619D01*
X107522380Y-56052380D01*
X107855714Y-55290476D02*
X108522380Y-55290476D01*
X107950952Y-55290476D02*
X107903333Y-55242857D01*
X107855714Y-55147619D01*
X107855714Y-55004761D01*
X107903333Y-54909523D01*
X107998571Y-54861904D01*
X108522380Y-54861904D01*
X107998571Y-54052380D02*
X107998571Y-54385714D01*
X108522380Y-54385714D02*
X107522380Y-54385714D01*
X107522380Y-53909523D01*
X109767857Y-56439285D02*
X109803571Y-56475000D01*
X109839285Y-56582142D01*
X109839285Y-56653571D01*
X109803571Y-56760714D01*
X109732142Y-56832142D01*
X109660714Y-56867857D01*
X109517857Y-56903571D01*
X109410714Y-56903571D01*
X109267857Y-56867857D01*
X109196428Y-56832142D01*
X109125000Y-56760714D01*
X109089285Y-56653571D01*
X109089285Y-56582142D01*
X109125000Y-56475000D01*
X109160714Y-56439285D01*
X109160714Y-56153571D02*
X109125000Y-56117857D01*
X109089285Y-56046428D01*
X109089285Y-55867857D01*
X109125000Y-55796428D01*
X109160714Y-55760714D01*
X109232142Y-55725000D01*
X109303571Y-55725000D01*
X109410714Y-55760714D01*
X109839285Y-56189285D01*
X109839285Y-55725000D01*
X109089285Y-55260714D02*
X109089285Y-55189285D01*
X109125000Y-55117857D01*
X109160714Y-55082142D01*
X109232142Y-55046428D01*
X109375000Y-55010714D01*
X109553571Y-55010714D01*
X109696428Y-55046428D01*
X109767857Y-55082142D01*
X109803571Y-55117857D01*
X109839285Y-55189285D01*
X109839285Y-55260714D01*
X109803571Y-55332142D01*
X109767857Y-55367857D01*
X109696428Y-55403571D01*
X109553571Y-55439285D01*
X109375000Y-55439285D01*
X109232142Y-55403571D01*
X109160714Y-55367857D01*
X109125000Y-55332142D01*
X109089285Y-55260714D01*
X109160714Y-54725000D02*
X109125000Y-54689285D01*
X109089285Y-54617857D01*
X109089285Y-54439285D01*
X109125000Y-54367857D01*
X109160714Y-54332142D01*
X109232142Y-54296428D01*
X109303571Y-54296428D01*
X109410714Y-54332142D01*
X109839285Y-54760714D01*
X109839285Y-54296428D01*
%TO.C,C203*%
X110522380Y-69171428D02*
X110522380Y-69742857D01*
X110522380Y-69457142D02*
X109522380Y-69457142D01*
X109665238Y-69552380D01*
X109760476Y-69647619D01*
X109808095Y-69742857D01*
X109522380Y-68552380D02*
X109522380Y-68457142D01*
X109570000Y-68361904D01*
X109617619Y-68314285D01*
X109712857Y-68266666D01*
X109903333Y-68219047D01*
X110141428Y-68219047D01*
X110331904Y-68266666D01*
X110427142Y-68314285D01*
X110474761Y-68361904D01*
X110522380Y-68457142D01*
X110522380Y-68552380D01*
X110474761Y-68647619D01*
X110427142Y-68695238D01*
X110331904Y-68742857D01*
X110141428Y-68790476D01*
X109903333Y-68790476D01*
X109712857Y-68742857D01*
X109617619Y-68695238D01*
X109570000Y-68647619D01*
X109522380Y-68552380D01*
X109855714Y-67790476D02*
X110522380Y-67790476D01*
X109950952Y-67790476D02*
X109903333Y-67742857D01*
X109855714Y-67647619D01*
X109855714Y-67504761D01*
X109903333Y-67409523D01*
X109998571Y-67361904D01*
X110522380Y-67361904D01*
X109998571Y-66552380D02*
X109998571Y-66885714D01*
X110522380Y-66885714D02*
X109522380Y-66885714D01*
X109522380Y-66409523D01*
X111767857Y-68939285D02*
X111803571Y-68975000D01*
X111839285Y-69082142D01*
X111839285Y-69153571D01*
X111803571Y-69260714D01*
X111732142Y-69332142D01*
X111660714Y-69367857D01*
X111517857Y-69403571D01*
X111410714Y-69403571D01*
X111267857Y-69367857D01*
X111196428Y-69332142D01*
X111125000Y-69260714D01*
X111089285Y-69153571D01*
X111089285Y-69082142D01*
X111125000Y-68975000D01*
X111160714Y-68939285D01*
X111160714Y-68653571D02*
X111125000Y-68617857D01*
X111089285Y-68546428D01*
X111089285Y-68367857D01*
X111125000Y-68296428D01*
X111160714Y-68260714D01*
X111232142Y-68225000D01*
X111303571Y-68225000D01*
X111410714Y-68260714D01*
X111839285Y-68689285D01*
X111839285Y-68225000D01*
X111089285Y-67760714D02*
X111089285Y-67689285D01*
X111125000Y-67617857D01*
X111160714Y-67582142D01*
X111232142Y-67546428D01*
X111375000Y-67510714D01*
X111553571Y-67510714D01*
X111696428Y-67546428D01*
X111767857Y-67582142D01*
X111803571Y-67617857D01*
X111839285Y-67689285D01*
X111839285Y-67760714D01*
X111803571Y-67832142D01*
X111767857Y-67867857D01*
X111696428Y-67903571D01*
X111553571Y-67939285D01*
X111375000Y-67939285D01*
X111232142Y-67903571D01*
X111160714Y-67867857D01*
X111125000Y-67832142D01*
X111089285Y-67760714D01*
X111089285Y-67260714D02*
X111089285Y-66796428D01*
X111375000Y-67046428D01*
X111375000Y-66939285D01*
X111410714Y-66867857D01*
X111446428Y-66832142D01*
X111517857Y-66796428D01*
X111696428Y-66796428D01*
X111767857Y-66832142D01*
X111803571Y-66867857D01*
X111839285Y-66939285D01*
X111839285Y-67153571D01*
X111803571Y-67225000D01*
X111767857Y-67260714D01*
%TO.C,C204*%
X108522380Y-69171428D02*
X108522380Y-69742857D01*
X108522380Y-69457142D02*
X107522380Y-69457142D01*
X107665238Y-69552380D01*
X107760476Y-69647619D01*
X107808095Y-69742857D01*
X107522380Y-68552380D02*
X107522380Y-68457142D01*
X107570000Y-68361904D01*
X107617619Y-68314285D01*
X107712857Y-68266666D01*
X107903333Y-68219047D01*
X108141428Y-68219047D01*
X108331904Y-68266666D01*
X108427142Y-68314285D01*
X108474761Y-68361904D01*
X108522380Y-68457142D01*
X108522380Y-68552380D01*
X108474761Y-68647619D01*
X108427142Y-68695238D01*
X108331904Y-68742857D01*
X108141428Y-68790476D01*
X107903333Y-68790476D01*
X107712857Y-68742857D01*
X107617619Y-68695238D01*
X107570000Y-68647619D01*
X107522380Y-68552380D01*
X107855714Y-67790476D02*
X108522380Y-67790476D01*
X107950952Y-67790476D02*
X107903333Y-67742857D01*
X107855714Y-67647619D01*
X107855714Y-67504761D01*
X107903333Y-67409523D01*
X107998571Y-67361904D01*
X108522380Y-67361904D01*
X107998571Y-66552380D02*
X107998571Y-66885714D01*
X108522380Y-66885714D02*
X107522380Y-66885714D01*
X107522380Y-66409523D01*
X109767857Y-68939285D02*
X109803571Y-68975000D01*
X109839285Y-69082142D01*
X109839285Y-69153571D01*
X109803571Y-69260714D01*
X109732142Y-69332142D01*
X109660714Y-69367857D01*
X109517857Y-69403571D01*
X109410714Y-69403571D01*
X109267857Y-69367857D01*
X109196428Y-69332142D01*
X109125000Y-69260714D01*
X109089285Y-69153571D01*
X109089285Y-69082142D01*
X109125000Y-68975000D01*
X109160714Y-68939285D01*
X109160714Y-68653571D02*
X109125000Y-68617857D01*
X109089285Y-68546428D01*
X109089285Y-68367857D01*
X109125000Y-68296428D01*
X109160714Y-68260714D01*
X109232142Y-68225000D01*
X109303571Y-68225000D01*
X109410714Y-68260714D01*
X109839285Y-68689285D01*
X109839285Y-68225000D01*
X109089285Y-67760714D02*
X109089285Y-67689285D01*
X109125000Y-67617857D01*
X109160714Y-67582142D01*
X109232142Y-67546428D01*
X109375000Y-67510714D01*
X109553571Y-67510714D01*
X109696428Y-67546428D01*
X109767857Y-67582142D01*
X109803571Y-67617857D01*
X109839285Y-67689285D01*
X109839285Y-67760714D01*
X109803571Y-67832142D01*
X109767857Y-67867857D01*
X109696428Y-67903571D01*
X109553571Y-67939285D01*
X109375000Y-67939285D01*
X109232142Y-67903571D01*
X109160714Y-67867857D01*
X109125000Y-67832142D01*
X109089285Y-67760714D01*
X109339285Y-66867857D02*
X109839285Y-66867857D01*
X109053571Y-67046428D02*
X109589285Y-67225000D01*
X109589285Y-66760714D01*
%TO.C,C205*%
X113282380Y-38871428D02*
X113282380Y-39442857D01*
X113282380Y-39157142D02*
X112282380Y-39157142D01*
X112425238Y-39252380D01*
X112520476Y-39347619D01*
X112568095Y-39442857D01*
X112282380Y-38252380D02*
X112282380Y-38157142D01*
X112330000Y-38061904D01*
X112377619Y-38014285D01*
X112472857Y-37966666D01*
X112663333Y-37919047D01*
X112901428Y-37919047D01*
X113091904Y-37966666D01*
X113187142Y-38014285D01*
X113234761Y-38061904D01*
X113282380Y-38157142D01*
X113282380Y-38252380D01*
X113234761Y-38347619D01*
X113187142Y-38395238D01*
X113091904Y-38442857D01*
X112901428Y-38490476D01*
X112663333Y-38490476D01*
X112472857Y-38442857D01*
X112377619Y-38395238D01*
X112330000Y-38347619D01*
X112282380Y-38252380D01*
X112615714Y-37490476D02*
X113282380Y-37490476D01*
X112710952Y-37490476D02*
X112663333Y-37442857D01*
X112615714Y-37347619D01*
X112615714Y-37204761D01*
X112663333Y-37109523D01*
X112758571Y-37061904D01*
X113282380Y-37061904D01*
X112758571Y-36252380D02*
X112758571Y-36585714D01*
X113282380Y-36585714D02*
X112282380Y-36585714D01*
X112282380Y-36109523D01*
X111667857Y-38639285D02*
X111703571Y-38675000D01*
X111739285Y-38782142D01*
X111739285Y-38853571D01*
X111703571Y-38960714D01*
X111632142Y-39032142D01*
X111560714Y-39067857D01*
X111417857Y-39103571D01*
X111310714Y-39103571D01*
X111167857Y-39067857D01*
X111096428Y-39032142D01*
X111025000Y-38960714D01*
X110989285Y-38853571D01*
X110989285Y-38782142D01*
X111025000Y-38675000D01*
X111060714Y-38639285D01*
X111060714Y-38353571D02*
X111025000Y-38317857D01*
X110989285Y-38246428D01*
X110989285Y-38067857D01*
X111025000Y-37996428D01*
X111060714Y-37960714D01*
X111132142Y-37925000D01*
X111203571Y-37925000D01*
X111310714Y-37960714D01*
X111739285Y-38389285D01*
X111739285Y-37925000D01*
X110989285Y-37460714D02*
X110989285Y-37389285D01*
X111025000Y-37317857D01*
X111060714Y-37282142D01*
X111132142Y-37246428D01*
X111275000Y-37210714D01*
X111453571Y-37210714D01*
X111596428Y-37246428D01*
X111667857Y-37282142D01*
X111703571Y-37317857D01*
X111739285Y-37389285D01*
X111739285Y-37460714D01*
X111703571Y-37532142D01*
X111667857Y-37567857D01*
X111596428Y-37603571D01*
X111453571Y-37639285D01*
X111275000Y-37639285D01*
X111132142Y-37603571D01*
X111060714Y-37567857D01*
X111025000Y-37532142D01*
X110989285Y-37460714D01*
X110989285Y-36532142D02*
X110989285Y-36889285D01*
X111346428Y-36925000D01*
X111310714Y-36889285D01*
X111275000Y-36817857D01*
X111275000Y-36639285D01*
X111310714Y-36567857D01*
X111346428Y-36532142D01*
X111417857Y-36496428D01*
X111596428Y-36496428D01*
X111667857Y-36532142D01*
X111703571Y-36567857D01*
X111739285Y-36639285D01*
X111739285Y-36817857D01*
X111703571Y-36889285D01*
X111667857Y-36925000D01*
%TO.C,C206*%
X116082380Y-50347619D02*
X116082380Y-50919047D01*
X116082380Y-50633333D02*
X115082380Y-50633333D01*
X115225238Y-50728571D01*
X115320476Y-50823809D01*
X115368095Y-50919047D01*
X115082380Y-49728571D02*
X115082380Y-49633333D01*
X115130000Y-49538095D01*
X115177619Y-49490476D01*
X115272857Y-49442857D01*
X115463333Y-49395238D01*
X115701428Y-49395238D01*
X115891904Y-49442857D01*
X115987142Y-49490476D01*
X116034761Y-49538095D01*
X116082380Y-49633333D01*
X116082380Y-49728571D01*
X116034761Y-49823809D01*
X115987142Y-49871428D01*
X115891904Y-49919047D01*
X115701428Y-49966666D01*
X115463333Y-49966666D01*
X115272857Y-49919047D01*
X115177619Y-49871428D01*
X115130000Y-49823809D01*
X115082380Y-49728571D01*
X115082380Y-48776190D02*
X115082380Y-48680952D01*
X115130000Y-48585714D01*
X115177619Y-48538095D01*
X115272857Y-48490476D01*
X115463333Y-48442857D01*
X115701428Y-48442857D01*
X115891904Y-48490476D01*
X115987142Y-48538095D01*
X116034761Y-48585714D01*
X116082380Y-48680952D01*
X116082380Y-48776190D01*
X116034761Y-48871428D01*
X115987142Y-48919047D01*
X115891904Y-48966666D01*
X115701428Y-49014285D01*
X115463333Y-49014285D01*
X115272857Y-48966666D01*
X115177619Y-48919047D01*
X115130000Y-48871428D01*
X115082380Y-48776190D01*
X115415714Y-48014285D02*
X116082380Y-48014285D01*
X115510952Y-48014285D02*
X115463333Y-47966666D01*
X115415714Y-47871428D01*
X115415714Y-47728571D01*
X115463333Y-47633333D01*
X115558571Y-47585714D01*
X116082380Y-47585714D01*
X115558571Y-46776190D02*
X115558571Y-47109523D01*
X116082380Y-47109523D02*
X115082380Y-47109523D01*
X115082380Y-46633333D01*
X114467857Y-49639285D02*
X114503571Y-49675000D01*
X114539285Y-49782142D01*
X114539285Y-49853571D01*
X114503571Y-49960714D01*
X114432142Y-50032142D01*
X114360714Y-50067857D01*
X114217857Y-50103571D01*
X114110714Y-50103571D01*
X113967857Y-50067857D01*
X113896428Y-50032142D01*
X113825000Y-49960714D01*
X113789285Y-49853571D01*
X113789285Y-49782142D01*
X113825000Y-49675000D01*
X113860714Y-49639285D01*
X113860714Y-49353571D02*
X113825000Y-49317857D01*
X113789285Y-49246428D01*
X113789285Y-49067857D01*
X113825000Y-48996428D01*
X113860714Y-48960714D01*
X113932142Y-48925000D01*
X114003571Y-48925000D01*
X114110714Y-48960714D01*
X114539285Y-49389285D01*
X114539285Y-48925000D01*
X113789285Y-48460714D02*
X113789285Y-48389285D01*
X113825000Y-48317857D01*
X113860714Y-48282142D01*
X113932142Y-48246428D01*
X114075000Y-48210714D01*
X114253571Y-48210714D01*
X114396428Y-48246428D01*
X114467857Y-48282142D01*
X114503571Y-48317857D01*
X114539285Y-48389285D01*
X114539285Y-48460714D01*
X114503571Y-48532142D01*
X114467857Y-48567857D01*
X114396428Y-48603571D01*
X114253571Y-48639285D01*
X114075000Y-48639285D01*
X113932142Y-48603571D01*
X113860714Y-48567857D01*
X113825000Y-48532142D01*
X113789285Y-48460714D01*
X113789285Y-47567857D02*
X113789285Y-47710714D01*
X113825000Y-47782142D01*
X113860714Y-47817857D01*
X113967857Y-47889285D01*
X114110714Y-47925000D01*
X114396428Y-47925000D01*
X114467857Y-47889285D01*
X114503571Y-47853571D01*
X114539285Y-47782142D01*
X114539285Y-47639285D01*
X114503571Y-47567857D01*
X114467857Y-47532142D01*
X114396428Y-47496428D01*
X114217857Y-47496428D01*
X114146428Y-47532142D01*
X114110714Y-47567857D01*
X114075000Y-47639285D01*
X114075000Y-47782142D01*
X114110714Y-47853571D01*
X114146428Y-47889285D01*
X114217857Y-47925000D01*
%TO.C,J301*%
X160898571Y-81793809D02*
X160898571Y-81460476D01*
X161422380Y-81317619D02*
X161422380Y-81793809D01*
X160422380Y-81793809D01*
X160422380Y-81317619D01*
X161422380Y-80889047D02*
X160422380Y-80889047D01*
X161422380Y-80317619D01*
X160422380Y-80317619D01*
X161327142Y-79270000D02*
X161374761Y-79317619D01*
X161422380Y-79460476D01*
X161422380Y-79555714D01*
X161374761Y-79698571D01*
X161279523Y-79793809D01*
X161184285Y-79841428D01*
X160993809Y-79889047D01*
X160850952Y-79889047D01*
X160660476Y-79841428D01*
X160565238Y-79793809D01*
X160470000Y-79698571D01*
X160422380Y-79555714D01*
X160422380Y-79460476D01*
X160470000Y-79317619D01*
X160517619Y-79270000D01*
X160517619Y-78889047D02*
X160470000Y-78841428D01*
X160422380Y-78746190D01*
X160422380Y-78508095D01*
X160470000Y-78412857D01*
X160517619Y-78365238D01*
X160612857Y-78317619D01*
X160708095Y-78317619D01*
X160850952Y-78365238D01*
X161422380Y-78936666D01*
X161422380Y-78317619D01*
X160850952Y-77746190D02*
X160803333Y-77841428D01*
X160755714Y-77889047D01*
X160660476Y-77936666D01*
X160612857Y-77936666D01*
X160517619Y-77889047D01*
X160470000Y-77841428D01*
X160422380Y-77746190D01*
X160422380Y-77555714D01*
X160470000Y-77460476D01*
X160517619Y-77412857D01*
X160612857Y-77365238D01*
X160660476Y-77365238D01*
X160755714Y-77412857D01*
X160803333Y-77460476D01*
X160850952Y-77555714D01*
X160850952Y-77746190D01*
X160898571Y-77841428D01*
X160946190Y-77889047D01*
X161041428Y-77936666D01*
X161231904Y-77936666D01*
X161327142Y-77889047D01*
X161374761Y-77841428D01*
X161422380Y-77746190D01*
X161422380Y-77555714D01*
X161374761Y-77460476D01*
X161327142Y-77412857D01*
X161231904Y-77365238D01*
X161041428Y-77365238D01*
X160946190Y-77412857D01*
X160898571Y-77460476D01*
X160850952Y-77555714D01*
X160422380Y-76650952D02*
X161136666Y-76650952D01*
X161279523Y-76698571D01*
X161374761Y-76793809D01*
X161422380Y-76936666D01*
X161422380Y-77031904D01*
X160422380Y-75746190D02*
X160422380Y-75936666D01*
X160470000Y-76031904D01*
X160517619Y-76079523D01*
X160660476Y-76174761D01*
X160850952Y-76222380D01*
X161231904Y-76222380D01*
X161327142Y-76174761D01*
X161374761Y-76127142D01*
X161422380Y-76031904D01*
X161422380Y-75841428D01*
X161374761Y-75746190D01*
X161327142Y-75698571D01*
X161231904Y-75650952D01*
X160993809Y-75650952D01*
X160898571Y-75698571D01*
X160850952Y-75746190D01*
X160803333Y-75841428D01*
X160803333Y-76031904D01*
X160850952Y-76127142D01*
X160898571Y-76174761D01*
X160993809Y-76222380D01*
X160422380Y-75031904D02*
X160422380Y-74936666D01*
X160470000Y-74841428D01*
X160517619Y-74793809D01*
X160612857Y-74746190D01*
X160803333Y-74698571D01*
X161041428Y-74698571D01*
X161231904Y-74746190D01*
X161327142Y-74793809D01*
X161374761Y-74841428D01*
X161422380Y-74936666D01*
X161422380Y-75031904D01*
X161374761Y-75127142D01*
X161327142Y-75174761D01*
X161231904Y-75222380D01*
X161041428Y-75270000D01*
X160803333Y-75270000D01*
X160612857Y-75222380D01*
X160517619Y-75174761D01*
X160470000Y-75127142D01*
X160422380Y-75031904D01*
X150885714Y-77859285D02*
X150885714Y-78395000D01*
X150850000Y-78502142D01*
X150778571Y-78573571D01*
X150671428Y-78609285D01*
X150600000Y-78609285D01*
X151171428Y-77859285D02*
X151635714Y-77859285D01*
X151385714Y-78145000D01*
X151492857Y-78145000D01*
X151564285Y-78180714D01*
X151600000Y-78216428D01*
X151635714Y-78287857D01*
X151635714Y-78466428D01*
X151600000Y-78537857D01*
X151564285Y-78573571D01*
X151492857Y-78609285D01*
X151278571Y-78609285D01*
X151207142Y-78573571D01*
X151171428Y-78537857D01*
X152100000Y-77859285D02*
X152171428Y-77859285D01*
X152242857Y-77895000D01*
X152278571Y-77930714D01*
X152314285Y-78002142D01*
X152350000Y-78145000D01*
X152350000Y-78323571D01*
X152314285Y-78466428D01*
X152278571Y-78537857D01*
X152242857Y-78573571D01*
X152171428Y-78609285D01*
X152100000Y-78609285D01*
X152028571Y-78573571D01*
X151992857Y-78537857D01*
X151957142Y-78466428D01*
X151921428Y-78323571D01*
X151921428Y-78145000D01*
X151957142Y-78002142D01*
X151992857Y-77930714D01*
X152028571Y-77895000D01*
X152100000Y-77859285D01*
X153064285Y-78609285D02*
X152635714Y-78609285D01*
X152850000Y-78609285D02*
X152850000Y-77859285D01*
X152778571Y-77966428D01*
X152707142Y-78037857D01*
X152635714Y-78073571D01*
%TO.C,R102*%
X157309523Y-29122380D02*
X156738095Y-29122380D01*
X157023809Y-29122380D02*
X157023809Y-28122380D01*
X156928571Y-28265238D01*
X156833333Y-28360476D01*
X156738095Y-28408095D01*
X157928571Y-28122380D02*
X158023809Y-28122380D01*
X158119047Y-28170000D01*
X158166666Y-28217619D01*
X158214285Y-28312857D01*
X158261904Y-28503333D01*
X158261904Y-28741428D01*
X158214285Y-28931904D01*
X158166666Y-29027142D01*
X158119047Y-29074761D01*
X158023809Y-29122380D01*
X157928571Y-29122380D01*
X157833333Y-29074761D01*
X157785714Y-29027142D01*
X157738095Y-28931904D01*
X157690476Y-28741428D01*
X157690476Y-28503333D01*
X157738095Y-28312857D01*
X157785714Y-28217619D01*
X157833333Y-28170000D01*
X157928571Y-28122380D01*
X158690476Y-29122380D02*
X158690476Y-28122380D01*
X159261904Y-29122380D02*
X158833333Y-28550952D01*
X159261904Y-28122380D02*
X158690476Y-28693809D01*
X157160714Y-30439285D02*
X156910714Y-30082142D01*
X156732142Y-30439285D02*
X156732142Y-29689285D01*
X157017857Y-29689285D01*
X157089285Y-29725000D01*
X157125000Y-29760714D01*
X157160714Y-29832142D01*
X157160714Y-29939285D01*
X157125000Y-30010714D01*
X157089285Y-30046428D01*
X157017857Y-30082142D01*
X156732142Y-30082142D01*
X157875000Y-30439285D02*
X157446428Y-30439285D01*
X157660714Y-30439285D02*
X157660714Y-29689285D01*
X157589285Y-29796428D01*
X157517857Y-29867857D01*
X157446428Y-29903571D01*
X158339285Y-29689285D02*
X158410714Y-29689285D01*
X158482142Y-29725000D01*
X158517857Y-29760714D01*
X158553571Y-29832142D01*
X158589285Y-29975000D01*
X158589285Y-30153571D01*
X158553571Y-30296428D01*
X158517857Y-30367857D01*
X158482142Y-30403571D01*
X158410714Y-30439285D01*
X158339285Y-30439285D01*
X158267857Y-30403571D01*
X158232142Y-30367857D01*
X158196428Y-30296428D01*
X158160714Y-30153571D01*
X158160714Y-29975000D01*
X158196428Y-29832142D01*
X158232142Y-29760714D01*
X158267857Y-29725000D01*
X158339285Y-29689285D01*
X158875000Y-29760714D02*
X158910714Y-29725000D01*
X158982142Y-29689285D01*
X159160714Y-29689285D01*
X159232142Y-29725000D01*
X159267857Y-29760714D01*
X159303571Y-29832142D01*
X159303571Y-29903571D01*
X159267857Y-30010714D01*
X158839285Y-30439285D01*
X159303571Y-30439285D01*
%TO.C,R103*%
X145309523Y-29122380D02*
X144738095Y-29122380D01*
X145023809Y-29122380D02*
X145023809Y-28122380D01*
X144928571Y-28265238D01*
X144833333Y-28360476D01*
X144738095Y-28408095D01*
X145928571Y-28122380D02*
X146023809Y-28122380D01*
X146119047Y-28170000D01*
X146166666Y-28217619D01*
X146214285Y-28312857D01*
X146261904Y-28503333D01*
X146261904Y-28741428D01*
X146214285Y-28931904D01*
X146166666Y-29027142D01*
X146119047Y-29074761D01*
X146023809Y-29122380D01*
X145928571Y-29122380D01*
X145833333Y-29074761D01*
X145785714Y-29027142D01*
X145738095Y-28931904D01*
X145690476Y-28741428D01*
X145690476Y-28503333D01*
X145738095Y-28312857D01*
X145785714Y-28217619D01*
X145833333Y-28170000D01*
X145928571Y-28122380D01*
X146690476Y-29122380D02*
X146690476Y-28122380D01*
X147261904Y-29122380D02*
X146833333Y-28550952D01*
X147261904Y-28122380D02*
X146690476Y-28693809D01*
X145160714Y-30439285D02*
X144910714Y-30082142D01*
X144732142Y-30439285D02*
X144732142Y-29689285D01*
X145017857Y-29689285D01*
X145089285Y-29725000D01*
X145125000Y-29760714D01*
X145160714Y-29832142D01*
X145160714Y-29939285D01*
X145125000Y-30010714D01*
X145089285Y-30046428D01*
X145017857Y-30082142D01*
X144732142Y-30082142D01*
X145875000Y-30439285D02*
X145446428Y-30439285D01*
X145660714Y-30439285D02*
X145660714Y-29689285D01*
X145589285Y-29796428D01*
X145517857Y-29867857D01*
X145446428Y-29903571D01*
X146339285Y-29689285D02*
X146410714Y-29689285D01*
X146482142Y-29725000D01*
X146517857Y-29760714D01*
X146553571Y-29832142D01*
X146589285Y-29975000D01*
X146589285Y-30153571D01*
X146553571Y-30296428D01*
X146517857Y-30367857D01*
X146482142Y-30403571D01*
X146410714Y-30439285D01*
X146339285Y-30439285D01*
X146267857Y-30403571D01*
X146232142Y-30367857D01*
X146196428Y-30296428D01*
X146160714Y-30153571D01*
X146160714Y-29975000D01*
X146196428Y-29832142D01*
X146232142Y-29760714D01*
X146267857Y-29725000D01*
X146339285Y-29689285D01*
X146839285Y-29689285D02*
X147303571Y-29689285D01*
X147053571Y-29975000D01*
X147160714Y-29975000D01*
X147232142Y-30010714D01*
X147267857Y-30046428D01*
X147303571Y-30117857D01*
X147303571Y-30296428D01*
X147267857Y-30367857D01*
X147232142Y-30403571D01*
X147160714Y-30439285D01*
X146946428Y-30439285D01*
X146875000Y-30403571D01*
X146839285Y-30367857D01*
%TO.C,R101*%
X169309523Y-29122380D02*
X168738095Y-29122380D01*
X169023809Y-29122380D02*
X169023809Y-28122380D01*
X168928571Y-28265238D01*
X168833333Y-28360476D01*
X168738095Y-28408095D01*
X169928571Y-28122380D02*
X170023809Y-28122380D01*
X170119047Y-28170000D01*
X170166666Y-28217619D01*
X170214285Y-28312857D01*
X170261904Y-28503333D01*
X170261904Y-28741428D01*
X170214285Y-28931904D01*
X170166666Y-29027142D01*
X170119047Y-29074761D01*
X170023809Y-29122380D01*
X169928571Y-29122380D01*
X169833333Y-29074761D01*
X169785714Y-29027142D01*
X169738095Y-28931904D01*
X169690476Y-28741428D01*
X169690476Y-28503333D01*
X169738095Y-28312857D01*
X169785714Y-28217619D01*
X169833333Y-28170000D01*
X169928571Y-28122380D01*
X170690476Y-29122380D02*
X170690476Y-28122380D01*
X171261904Y-29122380D02*
X170833333Y-28550952D01*
X171261904Y-28122380D02*
X170690476Y-28693809D01*
X169160714Y-30439285D02*
X168910714Y-30082142D01*
X168732142Y-30439285D02*
X168732142Y-29689285D01*
X169017857Y-29689285D01*
X169089285Y-29725000D01*
X169125000Y-29760714D01*
X169160714Y-29832142D01*
X169160714Y-29939285D01*
X169125000Y-30010714D01*
X169089285Y-30046428D01*
X169017857Y-30082142D01*
X168732142Y-30082142D01*
X169875000Y-30439285D02*
X169446428Y-30439285D01*
X169660714Y-30439285D02*
X169660714Y-29689285D01*
X169589285Y-29796428D01*
X169517857Y-29867857D01*
X169446428Y-29903571D01*
X170339285Y-29689285D02*
X170410714Y-29689285D01*
X170482142Y-29725000D01*
X170517857Y-29760714D01*
X170553571Y-29832142D01*
X170589285Y-29975000D01*
X170589285Y-30153571D01*
X170553571Y-30296428D01*
X170517857Y-30367857D01*
X170482142Y-30403571D01*
X170410714Y-30439285D01*
X170339285Y-30439285D01*
X170267857Y-30403571D01*
X170232142Y-30367857D01*
X170196428Y-30296428D01*
X170160714Y-30153571D01*
X170160714Y-29975000D01*
X170196428Y-29832142D01*
X170232142Y-29760714D01*
X170267857Y-29725000D01*
X170339285Y-29689285D01*
X171303571Y-30439285D02*
X170875000Y-30439285D01*
X171089285Y-30439285D02*
X171089285Y-29689285D01*
X171017857Y-29796428D01*
X170946428Y-29867857D01*
X170875000Y-29903571D01*
%TO.C,R105*%
X157309523Y-36122380D02*
X156738095Y-36122380D01*
X157023809Y-36122380D02*
X157023809Y-35122380D01*
X156928571Y-35265238D01*
X156833333Y-35360476D01*
X156738095Y-35408095D01*
X157928571Y-35122380D02*
X158023809Y-35122380D01*
X158119047Y-35170000D01*
X158166666Y-35217619D01*
X158214285Y-35312857D01*
X158261904Y-35503333D01*
X158261904Y-35741428D01*
X158214285Y-35931904D01*
X158166666Y-36027142D01*
X158119047Y-36074761D01*
X158023809Y-36122380D01*
X157928571Y-36122380D01*
X157833333Y-36074761D01*
X157785714Y-36027142D01*
X157738095Y-35931904D01*
X157690476Y-35741428D01*
X157690476Y-35503333D01*
X157738095Y-35312857D01*
X157785714Y-35217619D01*
X157833333Y-35170000D01*
X157928571Y-35122380D01*
X158690476Y-36122380D02*
X158690476Y-35122380D01*
X159261904Y-36122380D02*
X158833333Y-35550952D01*
X159261904Y-35122380D02*
X158690476Y-35693809D01*
X157160714Y-37439285D02*
X156910714Y-37082142D01*
X156732142Y-37439285D02*
X156732142Y-36689285D01*
X157017857Y-36689285D01*
X157089285Y-36725000D01*
X157125000Y-36760714D01*
X157160714Y-36832142D01*
X157160714Y-36939285D01*
X157125000Y-37010714D01*
X157089285Y-37046428D01*
X157017857Y-37082142D01*
X156732142Y-37082142D01*
X157875000Y-37439285D02*
X157446428Y-37439285D01*
X157660714Y-37439285D02*
X157660714Y-36689285D01*
X157589285Y-36796428D01*
X157517857Y-36867857D01*
X157446428Y-36903571D01*
X158339285Y-36689285D02*
X158410714Y-36689285D01*
X158482142Y-36725000D01*
X158517857Y-36760714D01*
X158553571Y-36832142D01*
X158589285Y-36975000D01*
X158589285Y-37153571D01*
X158553571Y-37296428D01*
X158517857Y-37367857D01*
X158482142Y-37403571D01*
X158410714Y-37439285D01*
X158339285Y-37439285D01*
X158267857Y-37403571D01*
X158232142Y-37367857D01*
X158196428Y-37296428D01*
X158160714Y-37153571D01*
X158160714Y-36975000D01*
X158196428Y-36832142D01*
X158232142Y-36760714D01*
X158267857Y-36725000D01*
X158339285Y-36689285D01*
X159267857Y-36689285D02*
X158910714Y-36689285D01*
X158875000Y-37046428D01*
X158910714Y-37010714D01*
X158982142Y-36975000D01*
X159160714Y-36975000D01*
X159232142Y-37010714D01*
X159267857Y-37046428D01*
X159303571Y-37117857D01*
X159303571Y-37296428D01*
X159267857Y-37367857D01*
X159232142Y-37403571D01*
X159160714Y-37439285D01*
X158982142Y-37439285D01*
X158910714Y-37403571D01*
X158875000Y-37367857D01*
%TO.C,R106*%
X145309523Y-36122380D02*
X144738095Y-36122380D01*
X145023809Y-36122380D02*
X145023809Y-35122380D01*
X144928571Y-35265238D01*
X144833333Y-35360476D01*
X144738095Y-35408095D01*
X145928571Y-35122380D02*
X146023809Y-35122380D01*
X146119047Y-35170000D01*
X146166666Y-35217619D01*
X146214285Y-35312857D01*
X146261904Y-35503333D01*
X146261904Y-35741428D01*
X146214285Y-35931904D01*
X146166666Y-36027142D01*
X146119047Y-36074761D01*
X146023809Y-36122380D01*
X145928571Y-36122380D01*
X145833333Y-36074761D01*
X145785714Y-36027142D01*
X145738095Y-35931904D01*
X145690476Y-35741428D01*
X145690476Y-35503333D01*
X145738095Y-35312857D01*
X145785714Y-35217619D01*
X145833333Y-35170000D01*
X145928571Y-35122380D01*
X146690476Y-36122380D02*
X146690476Y-35122380D01*
X147261904Y-36122380D02*
X146833333Y-35550952D01*
X147261904Y-35122380D02*
X146690476Y-35693809D01*
X145160714Y-37439285D02*
X144910714Y-37082142D01*
X144732142Y-37439285D02*
X144732142Y-36689285D01*
X145017857Y-36689285D01*
X145089285Y-36725000D01*
X145125000Y-36760714D01*
X145160714Y-36832142D01*
X145160714Y-36939285D01*
X145125000Y-37010714D01*
X145089285Y-37046428D01*
X145017857Y-37082142D01*
X144732142Y-37082142D01*
X145875000Y-37439285D02*
X145446428Y-37439285D01*
X145660714Y-37439285D02*
X145660714Y-36689285D01*
X145589285Y-36796428D01*
X145517857Y-36867857D01*
X145446428Y-36903571D01*
X146339285Y-36689285D02*
X146410714Y-36689285D01*
X146482142Y-36725000D01*
X146517857Y-36760714D01*
X146553571Y-36832142D01*
X146589285Y-36975000D01*
X146589285Y-37153571D01*
X146553571Y-37296428D01*
X146517857Y-37367857D01*
X146482142Y-37403571D01*
X146410714Y-37439285D01*
X146339285Y-37439285D01*
X146267857Y-37403571D01*
X146232142Y-37367857D01*
X146196428Y-37296428D01*
X146160714Y-37153571D01*
X146160714Y-36975000D01*
X146196428Y-36832142D01*
X146232142Y-36760714D01*
X146267857Y-36725000D01*
X146339285Y-36689285D01*
X147232142Y-36689285D02*
X147089285Y-36689285D01*
X147017857Y-36725000D01*
X146982142Y-36760714D01*
X146910714Y-36867857D01*
X146875000Y-37010714D01*
X146875000Y-37296428D01*
X146910714Y-37367857D01*
X146946428Y-37403571D01*
X147017857Y-37439285D01*
X147160714Y-37439285D01*
X147232142Y-37403571D01*
X147267857Y-37367857D01*
X147303571Y-37296428D01*
X147303571Y-37117857D01*
X147267857Y-37046428D01*
X147232142Y-37010714D01*
X147160714Y-36975000D01*
X147017857Y-36975000D01*
X146946428Y-37010714D01*
X146910714Y-37046428D01*
X146875000Y-37117857D01*
%TO.C,R104*%
X169309523Y-36122380D02*
X168738095Y-36122380D01*
X169023809Y-36122380D02*
X169023809Y-35122380D01*
X168928571Y-35265238D01*
X168833333Y-35360476D01*
X168738095Y-35408095D01*
X169928571Y-35122380D02*
X170023809Y-35122380D01*
X170119047Y-35170000D01*
X170166666Y-35217619D01*
X170214285Y-35312857D01*
X170261904Y-35503333D01*
X170261904Y-35741428D01*
X170214285Y-35931904D01*
X170166666Y-36027142D01*
X170119047Y-36074761D01*
X170023809Y-36122380D01*
X169928571Y-36122380D01*
X169833333Y-36074761D01*
X169785714Y-36027142D01*
X169738095Y-35931904D01*
X169690476Y-35741428D01*
X169690476Y-35503333D01*
X169738095Y-35312857D01*
X169785714Y-35217619D01*
X169833333Y-35170000D01*
X169928571Y-35122380D01*
X170690476Y-36122380D02*
X170690476Y-35122380D01*
X171261904Y-36122380D02*
X170833333Y-35550952D01*
X171261904Y-35122380D02*
X170690476Y-35693809D01*
X169160714Y-37439285D02*
X168910714Y-37082142D01*
X168732142Y-37439285D02*
X168732142Y-36689285D01*
X169017857Y-36689285D01*
X169089285Y-36725000D01*
X169125000Y-36760714D01*
X169160714Y-36832142D01*
X169160714Y-36939285D01*
X169125000Y-37010714D01*
X169089285Y-37046428D01*
X169017857Y-37082142D01*
X168732142Y-37082142D01*
X169875000Y-37439285D02*
X169446428Y-37439285D01*
X169660714Y-37439285D02*
X169660714Y-36689285D01*
X169589285Y-36796428D01*
X169517857Y-36867857D01*
X169446428Y-36903571D01*
X170339285Y-36689285D02*
X170410714Y-36689285D01*
X170482142Y-36725000D01*
X170517857Y-36760714D01*
X170553571Y-36832142D01*
X170589285Y-36975000D01*
X170589285Y-37153571D01*
X170553571Y-37296428D01*
X170517857Y-37367857D01*
X170482142Y-37403571D01*
X170410714Y-37439285D01*
X170339285Y-37439285D01*
X170267857Y-37403571D01*
X170232142Y-37367857D01*
X170196428Y-37296428D01*
X170160714Y-37153571D01*
X170160714Y-36975000D01*
X170196428Y-36832142D01*
X170232142Y-36760714D01*
X170267857Y-36725000D01*
X170339285Y-36689285D01*
X171232142Y-36939285D02*
X171232142Y-37439285D01*
X171053571Y-36653571D02*
X170875000Y-37189285D01*
X171339285Y-37189285D01*
%TO.C,R109*%
X145309523Y-41122380D02*
X144738095Y-41122380D01*
X145023809Y-41122380D02*
X145023809Y-40122380D01*
X144928571Y-40265238D01*
X144833333Y-40360476D01*
X144738095Y-40408095D01*
X145928571Y-40122380D02*
X146023809Y-40122380D01*
X146119047Y-40170000D01*
X146166666Y-40217619D01*
X146214285Y-40312857D01*
X146261904Y-40503333D01*
X146261904Y-40741428D01*
X146214285Y-40931904D01*
X146166666Y-41027142D01*
X146119047Y-41074761D01*
X146023809Y-41122380D01*
X145928571Y-41122380D01*
X145833333Y-41074761D01*
X145785714Y-41027142D01*
X145738095Y-40931904D01*
X145690476Y-40741428D01*
X145690476Y-40503333D01*
X145738095Y-40312857D01*
X145785714Y-40217619D01*
X145833333Y-40170000D01*
X145928571Y-40122380D01*
X146690476Y-41122380D02*
X146690476Y-40122380D01*
X147261904Y-41122380D02*
X146833333Y-40550952D01*
X147261904Y-40122380D02*
X146690476Y-40693809D01*
X145160714Y-42439285D02*
X144910714Y-42082142D01*
X144732142Y-42439285D02*
X144732142Y-41689285D01*
X145017857Y-41689285D01*
X145089285Y-41725000D01*
X145125000Y-41760714D01*
X145160714Y-41832142D01*
X145160714Y-41939285D01*
X145125000Y-42010714D01*
X145089285Y-42046428D01*
X145017857Y-42082142D01*
X144732142Y-42082142D01*
X145875000Y-42439285D02*
X145446428Y-42439285D01*
X145660714Y-42439285D02*
X145660714Y-41689285D01*
X145589285Y-41796428D01*
X145517857Y-41867857D01*
X145446428Y-41903571D01*
X146339285Y-41689285D02*
X146410714Y-41689285D01*
X146482142Y-41725000D01*
X146517857Y-41760714D01*
X146553571Y-41832142D01*
X146589285Y-41975000D01*
X146589285Y-42153571D01*
X146553571Y-42296428D01*
X146517857Y-42367857D01*
X146482142Y-42403571D01*
X146410714Y-42439285D01*
X146339285Y-42439285D01*
X146267857Y-42403571D01*
X146232142Y-42367857D01*
X146196428Y-42296428D01*
X146160714Y-42153571D01*
X146160714Y-41975000D01*
X146196428Y-41832142D01*
X146232142Y-41760714D01*
X146267857Y-41725000D01*
X146339285Y-41689285D01*
X146946428Y-42439285D02*
X147089285Y-42439285D01*
X147160714Y-42403571D01*
X147196428Y-42367857D01*
X147267857Y-42260714D01*
X147303571Y-42117857D01*
X147303571Y-41832142D01*
X147267857Y-41760714D01*
X147232142Y-41725000D01*
X147160714Y-41689285D01*
X147017857Y-41689285D01*
X146946428Y-41725000D01*
X146910714Y-41760714D01*
X146875000Y-41832142D01*
X146875000Y-42010714D01*
X146910714Y-42082142D01*
X146946428Y-42117857D01*
X147017857Y-42153571D01*
X147160714Y-42153571D01*
X147232142Y-42117857D01*
X147267857Y-42082142D01*
X147303571Y-42010714D01*
%TO.C,R107*%
X169309523Y-41122380D02*
X168738095Y-41122380D01*
X169023809Y-41122380D02*
X169023809Y-40122380D01*
X168928571Y-40265238D01*
X168833333Y-40360476D01*
X168738095Y-40408095D01*
X169928571Y-40122380D02*
X170023809Y-40122380D01*
X170119047Y-40170000D01*
X170166666Y-40217619D01*
X170214285Y-40312857D01*
X170261904Y-40503333D01*
X170261904Y-40741428D01*
X170214285Y-40931904D01*
X170166666Y-41027142D01*
X170119047Y-41074761D01*
X170023809Y-41122380D01*
X169928571Y-41122380D01*
X169833333Y-41074761D01*
X169785714Y-41027142D01*
X169738095Y-40931904D01*
X169690476Y-40741428D01*
X169690476Y-40503333D01*
X169738095Y-40312857D01*
X169785714Y-40217619D01*
X169833333Y-40170000D01*
X169928571Y-40122380D01*
X170690476Y-41122380D02*
X170690476Y-40122380D01*
X171261904Y-41122380D02*
X170833333Y-40550952D01*
X171261904Y-40122380D02*
X170690476Y-40693809D01*
X169160714Y-42439285D02*
X168910714Y-42082142D01*
X168732142Y-42439285D02*
X168732142Y-41689285D01*
X169017857Y-41689285D01*
X169089285Y-41725000D01*
X169125000Y-41760714D01*
X169160714Y-41832142D01*
X169160714Y-41939285D01*
X169125000Y-42010714D01*
X169089285Y-42046428D01*
X169017857Y-42082142D01*
X168732142Y-42082142D01*
X169875000Y-42439285D02*
X169446428Y-42439285D01*
X169660714Y-42439285D02*
X169660714Y-41689285D01*
X169589285Y-41796428D01*
X169517857Y-41867857D01*
X169446428Y-41903571D01*
X170339285Y-41689285D02*
X170410714Y-41689285D01*
X170482142Y-41725000D01*
X170517857Y-41760714D01*
X170553571Y-41832142D01*
X170589285Y-41975000D01*
X170589285Y-42153571D01*
X170553571Y-42296428D01*
X170517857Y-42367857D01*
X170482142Y-42403571D01*
X170410714Y-42439285D01*
X170339285Y-42439285D01*
X170267857Y-42403571D01*
X170232142Y-42367857D01*
X170196428Y-42296428D01*
X170160714Y-42153571D01*
X170160714Y-41975000D01*
X170196428Y-41832142D01*
X170232142Y-41760714D01*
X170267857Y-41725000D01*
X170339285Y-41689285D01*
X170839285Y-41689285D02*
X171339285Y-41689285D01*
X171017857Y-42439285D01*
%TO.C,R108*%
X157309523Y-41122380D02*
X156738095Y-41122380D01*
X157023809Y-41122380D02*
X157023809Y-40122380D01*
X156928571Y-40265238D01*
X156833333Y-40360476D01*
X156738095Y-40408095D01*
X157928571Y-40122380D02*
X158023809Y-40122380D01*
X158119047Y-40170000D01*
X158166666Y-40217619D01*
X158214285Y-40312857D01*
X158261904Y-40503333D01*
X158261904Y-40741428D01*
X158214285Y-40931904D01*
X158166666Y-41027142D01*
X158119047Y-41074761D01*
X158023809Y-41122380D01*
X157928571Y-41122380D01*
X157833333Y-41074761D01*
X157785714Y-41027142D01*
X157738095Y-40931904D01*
X157690476Y-40741428D01*
X157690476Y-40503333D01*
X157738095Y-40312857D01*
X157785714Y-40217619D01*
X157833333Y-40170000D01*
X157928571Y-40122380D01*
X158690476Y-41122380D02*
X158690476Y-40122380D01*
X159261904Y-41122380D02*
X158833333Y-40550952D01*
X159261904Y-40122380D02*
X158690476Y-40693809D01*
X157160714Y-42439285D02*
X156910714Y-42082142D01*
X156732142Y-42439285D02*
X156732142Y-41689285D01*
X157017857Y-41689285D01*
X157089285Y-41725000D01*
X157125000Y-41760714D01*
X157160714Y-41832142D01*
X157160714Y-41939285D01*
X157125000Y-42010714D01*
X157089285Y-42046428D01*
X157017857Y-42082142D01*
X156732142Y-42082142D01*
X157875000Y-42439285D02*
X157446428Y-42439285D01*
X157660714Y-42439285D02*
X157660714Y-41689285D01*
X157589285Y-41796428D01*
X157517857Y-41867857D01*
X157446428Y-41903571D01*
X158339285Y-41689285D02*
X158410714Y-41689285D01*
X158482142Y-41725000D01*
X158517857Y-41760714D01*
X158553571Y-41832142D01*
X158589285Y-41975000D01*
X158589285Y-42153571D01*
X158553571Y-42296428D01*
X158517857Y-42367857D01*
X158482142Y-42403571D01*
X158410714Y-42439285D01*
X158339285Y-42439285D01*
X158267857Y-42403571D01*
X158232142Y-42367857D01*
X158196428Y-42296428D01*
X158160714Y-42153571D01*
X158160714Y-41975000D01*
X158196428Y-41832142D01*
X158232142Y-41760714D01*
X158267857Y-41725000D01*
X158339285Y-41689285D01*
X159017857Y-42010714D02*
X158946428Y-41975000D01*
X158910714Y-41939285D01*
X158875000Y-41867857D01*
X158875000Y-41832142D01*
X158910714Y-41760714D01*
X158946428Y-41725000D01*
X159017857Y-41689285D01*
X159160714Y-41689285D01*
X159232142Y-41725000D01*
X159267857Y-41760714D01*
X159303571Y-41832142D01*
X159303571Y-41867857D01*
X159267857Y-41939285D01*
X159232142Y-41975000D01*
X159160714Y-42010714D01*
X159017857Y-42010714D01*
X158946428Y-42046428D01*
X158910714Y-42082142D01*
X158875000Y-42153571D01*
X158875000Y-42296428D01*
X158910714Y-42367857D01*
X158946428Y-42403571D01*
X159017857Y-42439285D01*
X159160714Y-42439285D01*
X159232142Y-42403571D01*
X159267857Y-42367857D01*
X159303571Y-42296428D01*
X159303571Y-42153571D01*
X159267857Y-42082142D01*
X159232142Y-42046428D01*
X159160714Y-42010714D01*
%TO.C,R112*%
X145309523Y-48122380D02*
X144738095Y-48122380D01*
X145023809Y-48122380D02*
X145023809Y-47122380D01*
X144928571Y-47265238D01*
X144833333Y-47360476D01*
X144738095Y-47408095D01*
X145928571Y-47122380D02*
X146023809Y-47122380D01*
X146119047Y-47170000D01*
X146166666Y-47217619D01*
X146214285Y-47312857D01*
X146261904Y-47503333D01*
X146261904Y-47741428D01*
X146214285Y-47931904D01*
X146166666Y-48027142D01*
X146119047Y-48074761D01*
X146023809Y-48122380D01*
X145928571Y-48122380D01*
X145833333Y-48074761D01*
X145785714Y-48027142D01*
X145738095Y-47931904D01*
X145690476Y-47741428D01*
X145690476Y-47503333D01*
X145738095Y-47312857D01*
X145785714Y-47217619D01*
X145833333Y-47170000D01*
X145928571Y-47122380D01*
X146690476Y-48122380D02*
X146690476Y-47122380D01*
X147261904Y-48122380D02*
X146833333Y-47550952D01*
X147261904Y-47122380D02*
X146690476Y-47693809D01*
X145160714Y-49439285D02*
X144910714Y-49082142D01*
X144732142Y-49439285D02*
X144732142Y-48689285D01*
X145017857Y-48689285D01*
X145089285Y-48725000D01*
X145125000Y-48760714D01*
X145160714Y-48832142D01*
X145160714Y-48939285D01*
X145125000Y-49010714D01*
X145089285Y-49046428D01*
X145017857Y-49082142D01*
X144732142Y-49082142D01*
X145875000Y-49439285D02*
X145446428Y-49439285D01*
X145660714Y-49439285D02*
X145660714Y-48689285D01*
X145589285Y-48796428D01*
X145517857Y-48867857D01*
X145446428Y-48903571D01*
X146589285Y-49439285D02*
X146160714Y-49439285D01*
X146375000Y-49439285D02*
X146375000Y-48689285D01*
X146303571Y-48796428D01*
X146232142Y-48867857D01*
X146160714Y-48903571D01*
X146875000Y-48760714D02*
X146910714Y-48725000D01*
X146982142Y-48689285D01*
X147160714Y-48689285D01*
X147232142Y-48725000D01*
X147267857Y-48760714D01*
X147303571Y-48832142D01*
X147303571Y-48903571D01*
X147267857Y-49010714D01*
X146839285Y-49439285D01*
X147303571Y-49439285D01*
%TO.C,R110*%
X169309523Y-48122380D02*
X168738095Y-48122380D01*
X169023809Y-48122380D02*
X169023809Y-47122380D01*
X168928571Y-47265238D01*
X168833333Y-47360476D01*
X168738095Y-47408095D01*
X169928571Y-47122380D02*
X170023809Y-47122380D01*
X170119047Y-47170000D01*
X170166666Y-47217619D01*
X170214285Y-47312857D01*
X170261904Y-47503333D01*
X170261904Y-47741428D01*
X170214285Y-47931904D01*
X170166666Y-48027142D01*
X170119047Y-48074761D01*
X170023809Y-48122380D01*
X169928571Y-48122380D01*
X169833333Y-48074761D01*
X169785714Y-48027142D01*
X169738095Y-47931904D01*
X169690476Y-47741428D01*
X169690476Y-47503333D01*
X169738095Y-47312857D01*
X169785714Y-47217619D01*
X169833333Y-47170000D01*
X169928571Y-47122380D01*
X170690476Y-48122380D02*
X170690476Y-47122380D01*
X171261904Y-48122380D02*
X170833333Y-47550952D01*
X171261904Y-47122380D02*
X170690476Y-47693809D01*
X169160714Y-49439285D02*
X168910714Y-49082142D01*
X168732142Y-49439285D02*
X168732142Y-48689285D01*
X169017857Y-48689285D01*
X169089285Y-48725000D01*
X169125000Y-48760714D01*
X169160714Y-48832142D01*
X169160714Y-48939285D01*
X169125000Y-49010714D01*
X169089285Y-49046428D01*
X169017857Y-49082142D01*
X168732142Y-49082142D01*
X169875000Y-49439285D02*
X169446428Y-49439285D01*
X169660714Y-49439285D02*
X169660714Y-48689285D01*
X169589285Y-48796428D01*
X169517857Y-48867857D01*
X169446428Y-48903571D01*
X170589285Y-49439285D02*
X170160714Y-49439285D01*
X170375000Y-49439285D02*
X170375000Y-48689285D01*
X170303571Y-48796428D01*
X170232142Y-48867857D01*
X170160714Y-48903571D01*
X171053571Y-48689285D02*
X171125000Y-48689285D01*
X171196428Y-48725000D01*
X171232142Y-48760714D01*
X171267857Y-48832142D01*
X171303571Y-48975000D01*
X171303571Y-49153571D01*
X171267857Y-49296428D01*
X171232142Y-49367857D01*
X171196428Y-49403571D01*
X171125000Y-49439285D01*
X171053571Y-49439285D01*
X170982142Y-49403571D01*
X170946428Y-49367857D01*
X170910714Y-49296428D01*
X170875000Y-49153571D01*
X170875000Y-48975000D01*
X170910714Y-48832142D01*
X170946428Y-48760714D01*
X170982142Y-48725000D01*
X171053571Y-48689285D01*
%TO.C,R111*%
X157309523Y-48122380D02*
X156738095Y-48122380D01*
X157023809Y-48122380D02*
X157023809Y-47122380D01*
X156928571Y-47265238D01*
X156833333Y-47360476D01*
X156738095Y-47408095D01*
X157928571Y-47122380D02*
X158023809Y-47122380D01*
X158119047Y-47170000D01*
X158166666Y-47217619D01*
X158214285Y-47312857D01*
X158261904Y-47503333D01*
X158261904Y-47741428D01*
X158214285Y-47931904D01*
X158166666Y-48027142D01*
X158119047Y-48074761D01*
X158023809Y-48122380D01*
X157928571Y-48122380D01*
X157833333Y-48074761D01*
X157785714Y-48027142D01*
X157738095Y-47931904D01*
X157690476Y-47741428D01*
X157690476Y-47503333D01*
X157738095Y-47312857D01*
X157785714Y-47217619D01*
X157833333Y-47170000D01*
X157928571Y-47122380D01*
X158690476Y-48122380D02*
X158690476Y-47122380D01*
X159261904Y-48122380D02*
X158833333Y-47550952D01*
X159261904Y-47122380D02*
X158690476Y-47693809D01*
X157160714Y-49439285D02*
X156910714Y-49082142D01*
X156732142Y-49439285D02*
X156732142Y-48689285D01*
X157017857Y-48689285D01*
X157089285Y-48725000D01*
X157125000Y-48760714D01*
X157160714Y-48832142D01*
X157160714Y-48939285D01*
X157125000Y-49010714D01*
X157089285Y-49046428D01*
X157017857Y-49082142D01*
X156732142Y-49082142D01*
X157875000Y-49439285D02*
X157446428Y-49439285D01*
X157660714Y-49439285D02*
X157660714Y-48689285D01*
X157589285Y-48796428D01*
X157517857Y-48867857D01*
X157446428Y-48903571D01*
X158589285Y-49439285D02*
X158160714Y-49439285D01*
X158375000Y-49439285D02*
X158375000Y-48689285D01*
X158303571Y-48796428D01*
X158232142Y-48867857D01*
X158160714Y-48903571D01*
X159303571Y-49439285D02*
X158875000Y-49439285D01*
X159089285Y-49439285D02*
X159089285Y-48689285D01*
X159017857Y-48796428D01*
X158946428Y-48867857D01*
X158875000Y-48903571D01*
%TO.C,R115*%
X145309523Y-53122380D02*
X144738095Y-53122380D01*
X145023809Y-53122380D02*
X145023809Y-52122380D01*
X144928571Y-52265238D01*
X144833333Y-52360476D01*
X144738095Y-52408095D01*
X145928571Y-52122380D02*
X146023809Y-52122380D01*
X146119047Y-52170000D01*
X146166666Y-52217619D01*
X146214285Y-52312857D01*
X146261904Y-52503333D01*
X146261904Y-52741428D01*
X146214285Y-52931904D01*
X146166666Y-53027142D01*
X146119047Y-53074761D01*
X146023809Y-53122380D01*
X145928571Y-53122380D01*
X145833333Y-53074761D01*
X145785714Y-53027142D01*
X145738095Y-52931904D01*
X145690476Y-52741428D01*
X145690476Y-52503333D01*
X145738095Y-52312857D01*
X145785714Y-52217619D01*
X145833333Y-52170000D01*
X145928571Y-52122380D01*
X146690476Y-53122380D02*
X146690476Y-52122380D01*
X147261904Y-53122380D02*
X146833333Y-52550952D01*
X147261904Y-52122380D02*
X146690476Y-52693809D01*
X145160714Y-54439285D02*
X144910714Y-54082142D01*
X144732142Y-54439285D02*
X144732142Y-53689285D01*
X145017857Y-53689285D01*
X145089285Y-53725000D01*
X145125000Y-53760714D01*
X145160714Y-53832142D01*
X145160714Y-53939285D01*
X145125000Y-54010714D01*
X145089285Y-54046428D01*
X145017857Y-54082142D01*
X144732142Y-54082142D01*
X145875000Y-54439285D02*
X145446428Y-54439285D01*
X145660714Y-54439285D02*
X145660714Y-53689285D01*
X145589285Y-53796428D01*
X145517857Y-53867857D01*
X145446428Y-53903571D01*
X146589285Y-54439285D02*
X146160714Y-54439285D01*
X146375000Y-54439285D02*
X146375000Y-53689285D01*
X146303571Y-53796428D01*
X146232142Y-53867857D01*
X146160714Y-53903571D01*
X147267857Y-53689285D02*
X146910714Y-53689285D01*
X146875000Y-54046428D01*
X146910714Y-54010714D01*
X146982142Y-53975000D01*
X147160714Y-53975000D01*
X147232142Y-54010714D01*
X147267857Y-54046428D01*
X147303571Y-54117857D01*
X147303571Y-54296428D01*
X147267857Y-54367857D01*
X147232142Y-54403571D01*
X147160714Y-54439285D01*
X146982142Y-54439285D01*
X146910714Y-54403571D01*
X146875000Y-54367857D01*
%TO.C,R113*%
X169309523Y-53122380D02*
X168738095Y-53122380D01*
X169023809Y-53122380D02*
X169023809Y-52122380D01*
X168928571Y-52265238D01*
X168833333Y-52360476D01*
X168738095Y-52408095D01*
X169928571Y-52122380D02*
X170023809Y-52122380D01*
X170119047Y-52170000D01*
X170166666Y-52217619D01*
X170214285Y-52312857D01*
X170261904Y-52503333D01*
X170261904Y-52741428D01*
X170214285Y-52931904D01*
X170166666Y-53027142D01*
X170119047Y-53074761D01*
X170023809Y-53122380D01*
X169928571Y-53122380D01*
X169833333Y-53074761D01*
X169785714Y-53027142D01*
X169738095Y-52931904D01*
X169690476Y-52741428D01*
X169690476Y-52503333D01*
X169738095Y-52312857D01*
X169785714Y-52217619D01*
X169833333Y-52170000D01*
X169928571Y-52122380D01*
X170690476Y-53122380D02*
X170690476Y-52122380D01*
X171261904Y-53122380D02*
X170833333Y-52550952D01*
X171261904Y-52122380D02*
X170690476Y-52693809D01*
X169160714Y-54439285D02*
X168910714Y-54082142D01*
X168732142Y-54439285D02*
X168732142Y-53689285D01*
X169017857Y-53689285D01*
X169089285Y-53725000D01*
X169125000Y-53760714D01*
X169160714Y-53832142D01*
X169160714Y-53939285D01*
X169125000Y-54010714D01*
X169089285Y-54046428D01*
X169017857Y-54082142D01*
X168732142Y-54082142D01*
X169875000Y-54439285D02*
X169446428Y-54439285D01*
X169660714Y-54439285D02*
X169660714Y-53689285D01*
X169589285Y-53796428D01*
X169517857Y-53867857D01*
X169446428Y-53903571D01*
X170589285Y-54439285D02*
X170160714Y-54439285D01*
X170375000Y-54439285D02*
X170375000Y-53689285D01*
X170303571Y-53796428D01*
X170232142Y-53867857D01*
X170160714Y-53903571D01*
X170839285Y-53689285D02*
X171303571Y-53689285D01*
X171053571Y-53975000D01*
X171160714Y-53975000D01*
X171232142Y-54010714D01*
X171267857Y-54046428D01*
X171303571Y-54117857D01*
X171303571Y-54296428D01*
X171267857Y-54367857D01*
X171232142Y-54403571D01*
X171160714Y-54439285D01*
X170946428Y-54439285D01*
X170875000Y-54403571D01*
X170839285Y-54367857D01*
%TO.C,R114*%
X157309523Y-53122380D02*
X156738095Y-53122380D01*
X157023809Y-53122380D02*
X157023809Y-52122380D01*
X156928571Y-52265238D01*
X156833333Y-52360476D01*
X156738095Y-52408095D01*
X157928571Y-52122380D02*
X158023809Y-52122380D01*
X158119047Y-52170000D01*
X158166666Y-52217619D01*
X158214285Y-52312857D01*
X158261904Y-52503333D01*
X158261904Y-52741428D01*
X158214285Y-52931904D01*
X158166666Y-53027142D01*
X158119047Y-53074761D01*
X158023809Y-53122380D01*
X157928571Y-53122380D01*
X157833333Y-53074761D01*
X157785714Y-53027142D01*
X157738095Y-52931904D01*
X157690476Y-52741428D01*
X157690476Y-52503333D01*
X157738095Y-52312857D01*
X157785714Y-52217619D01*
X157833333Y-52170000D01*
X157928571Y-52122380D01*
X158690476Y-53122380D02*
X158690476Y-52122380D01*
X159261904Y-53122380D02*
X158833333Y-52550952D01*
X159261904Y-52122380D02*
X158690476Y-52693809D01*
X157160714Y-54439285D02*
X156910714Y-54082142D01*
X156732142Y-54439285D02*
X156732142Y-53689285D01*
X157017857Y-53689285D01*
X157089285Y-53725000D01*
X157125000Y-53760714D01*
X157160714Y-53832142D01*
X157160714Y-53939285D01*
X157125000Y-54010714D01*
X157089285Y-54046428D01*
X157017857Y-54082142D01*
X156732142Y-54082142D01*
X157875000Y-54439285D02*
X157446428Y-54439285D01*
X157660714Y-54439285D02*
X157660714Y-53689285D01*
X157589285Y-53796428D01*
X157517857Y-53867857D01*
X157446428Y-53903571D01*
X158589285Y-54439285D02*
X158160714Y-54439285D01*
X158375000Y-54439285D02*
X158375000Y-53689285D01*
X158303571Y-53796428D01*
X158232142Y-53867857D01*
X158160714Y-53903571D01*
X159232142Y-53939285D02*
X159232142Y-54439285D01*
X159053571Y-53653571D02*
X158875000Y-54189285D01*
X159339285Y-54189285D01*
%TO.C,R118*%
X145309523Y-60122380D02*
X144738095Y-60122380D01*
X145023809Y-60122380D02*
X145023809Y-59122380D01*
X144928571Y-59265238D01*
X144833333Y-59360476D01*
X144738095Y-59408095D01*
X145928571Y-59122380D02*
X146023809Y-59122380D01*
X146119047Y-59170000D01*
X146166666Y-59217619D01*
X146214285Y-59312857D01*
X146261904Y-59503333D01*
X146261904Y-59741428D01*
X146214285Y-59931904D01*
X146166666Y-60027142D01*
X146119047Y-60074761D01*
X146023809Y-60122380D01*
X145928571Y-60122380D01*
X145833333Y-60074761D01*
X145785714Y-60027142D01*
X145738095Y-59931904D01*
X145690476Y-59741428D01*
X145690476Y-59503333D01*
X145738095Y-59312857D01*
X145785714Y-59217619D01*
X145833333Y-59170000D01*
X145928571Y-59122380D01*
X146690476Y-60122380D02*
X146690476Y-59122380D01*
X147261904Y-60122380D02*
X146833333Y-59550952D01*
X147261904Y-59122380D02*
X146690476Y-59693809D01*
X145160714Y-61439285D02*
X144910714Y-61082142D01*
X144732142Y-61439285D02*
X144732142Y-60689285D01*
X145017857Y-60689285D01*
X145089285Y-60725000D01*
X145125000Y-60760714D01*
X145160714Y-60832142D01*
X145160714Y-60939285D01*
X145125000Y-61010714D01*
X145089285Y-61046428D01*
X145017857Y-61082142D01*
X144732142Y-61082142D01*
X145875000Y-61439285D02*
X145446428Y-61439285D01*
X145660714Y-61439285D02*
X145660714Y-60689285D01*
X145589285Y-60796428D01*
X145517857Y-60867857D01*
X145446428Y-60903571D01*
X146589285Y-61439285D02*
X146160714Y-61439285D01*
X146375000Y-61439285D02*
X146375000Y-60689285D01*
X146303571Y-60796428D01*
X146232142Y-60867857D01*
X146160714Y-60903571D01*
X147017857Y-61010714D02*
X146946428Y-60975000D01*
X146910714Y-60939285D01*
X146875000Y-60867857D01*
X146875000Y-60832142D01*
X146910714Y-60760714D01*
X146946428Y-60725000D01*
X147017857Y-60689285D01*
X147160714Y-60689285D01*
X147232142Y-60725000D01*
X147267857Y-60760714D01*
X147303571Y-60832142D01*
X147303571Y-60867857D01*
X147267857Y-60939285D01*
X147232142Y-60975000D01*
X147160714Y-61010714D01*
X147017857Y-61010714D01*
X146946428Y-61046428D01*
X146910714Y-61082142D01*
X146875000Y-61153571D01*
X146875000Y-61296428D01*
X146910714Y-61367857D01*
X146946428Y-61403571D01*
X147017857Y-61439285D01*
X147160714Y-61439285D01*
X147232142Y-61403571D01*
X147267857Y-61367857D01*
X147303571Y-61296428D01*
X147303571Y-61153571D01*
X147267857Y-61082142D01*
X147232142Y-61046428D01*
X147160714Y-61010714D01*
%TO.C,R116*%
X169309523Y-60122380D02*
X168738095Y-60122380D01*
X169023809Y-60122380D02*
X169023809Y-59122380D01*
X168928571Y-59265238D01*
X168833333Y-59360476D01*
X168738095Y-59408095D01*
X169928571Y-59122380D02*
X170023809Y-59122380D01*
X170119047Y-59170000D01*
X170166666Y-59217619D01*
X170214285Y-59312857D01*
X170261904Y-59503333D01*
X170261904Y-59741428D01*
X170214285Y-59931904D01*
X170166666Y-60027142D01*
X170119047Y-60074761D01*
X170023809Y-60122380D01*
X169928571Y-60122380D01*
X169833333Y-60074761D01*
X169785714Y-60027142D01*
X169738095Y-59931904D01*
X169690476Y-59741428D01*
X169690476Y-59503333D01*
X169738095Y-59312857D01*
X169785714Y-59217619D01*
X169833333Y-59170000D01*
X169928571Y-59122380D01*
X170690476Y-60122380D02*
X170690476Y-59122380D01*
X171261904Y-60122380D02*
X170833333Y-59550952D01*
X171261904Y-59122380D02*
X170690476Y-59693809D01*
X169160714Y-61439285D02*
X168910714Y-61082142D01*
X168732142Y-61439285D02*
X168732142Y-60689285D01*
X169017857Y-60689285D01*
X169089285Y-60725000D01*
X169125000Y-60760714D01*
X169160714Y-60832142D01*
X169160714Y-60939285D01*
X169125000Y-61010714D01*
X169089285Y-61046428D01*
X169017857Y-61082142D01*
X168732142Y-61082142D01*
X169875000Y-61439285D02*
X169446428Y-61439285D01*
X169660714Y-61439285D02*
X169660714Y-60689285D01*
X169589285Y-60796428D01*
X169517857Y-60867857D01*
X169446428Y-60903571D01*
X170589285Y-61439285D02*
X170160714Y-61439285D01*
X170375000Y-61439285D02*
X170375000Y-60689285D01*
X170303571Y-60796428D01*
X170232142Y-60867857D01*
X170160714Y-60903571D01*
X171232142Y-60689285D02*
X171089285Y-60689285D01*
X171017857Y-60725000D01*
X170982142Y-60760714D01*
X170910714Y-60867857D01*
X170875000Y-61010714D01*
X170875000Y-61296428D01*
X170910714Y-61367857D01*
X170946428Y-61403571D01*
X171017857Y-61439285D01*
X171160714Y-61439285D01*
X171232142Y-61403571D01*
X171267857Y-61367857D01*
X171303571Y-61296428D01*
X171303571Y-61117857D01*
X171267857Y-61046428D01*
X171232142Y-61010714D01*
X171160714Y-60975000D01*
X171017857Y-60975000D01*
X170946428Y-61010714D01*
X170910714Y-61046428D01*
X170875000Y-61117857D01*
%TO.C,R117*%
X157309523Y-60122380D02*
X156738095Y-60122380D01*
X157023809Y-60122380D02*
X157023809Y-59122380D01*
X156928571Y-59265238D01*
X156833333Y-59360476D01*
X156738095Y-59408095D01*
X157928571Y-59122380D02*
X158023809Y-59122380D01*
X158119047Y-59170000D01*
X158166666Y-59217619D01*
X158214285Y-59312857D01*
X158261904Y-59503333D01*
X158261904Y-59741428D01*
X158214285Y-59931904D01*
X158166666Y-60027142D01*
X158119047Y-60074761D01*
X158023809Y-60122380D01*
X157928571Y-60122380D01*
X157833333Y-60074761D01*
X157785714Y-60027142D01*
X157738095Y-59931904D01*
X157690476Y-59741428D01*
X157690476Y-59503333D01*
X157738095Y-59312857D01*
X157785714Y-59217619D01*
X157833333Y-59170000D01*
X157928571Y-59122380D01*
X158690476Y-60122380D02*
X158690476Y-59122380D01*
X159261904Y-60122380D02*
X158833333Y-59550952D01*
X159261904Y-59122380D02*
X158690476Y-59693809D01*
X157160714Y-61439285D02*
X156910714Y-61082142D01*
X156732142Y-61439285D02*
X156732142Y-60689285D01*
X157017857Y-60689285D01*
X157089285Y-60725000D01*
X157125000Y-60760714D01*
X157160714Y-60832142D01*
X157160714Y-60939285D01*
X157125000Y-61010714D01*
X157089285Y-61046428D01*
X157017857Y-61082142D01*
X156732142Y-61082142D01*
X157875000Y-61439285D02*
X157446428Y-61439285D01*
X157660714Y-61439285D02*
X157660714Y-60689285D01*
X157589285Y-60796428D01*
X157517857Y-60867857D01*
X157446428Y-60903571D01*
X158589285Y-61439285D02*
X158160714Y-61439285D01*
X158375000Y-61439285D02*
X158375000Y-60689285D01*
X158303571Y-60796428D01*
X158232142Y-60867857D01*
X158160714Y-60903571D01*
X158839285Y-60689285D02*
X159339285Y-60689285D01*
X159017857Y-61439285D01*
%TO.C,R119*%
X169309523Y-65122380D02*
X168738095Y-65122380D01*
X169023809Y-65122380D02*
X169023809Y-64122380D01*
X168928571Y-64265238D01*
X168833333Y-64360476D01*
X168738095Y-64408095D01*
X169928571Y-64122380D02*
X170023809Y-64122380D01*
X170119047Y-64170000D01*
X170166666Y-64217619D01*
X170214285Y-64312857D01*
X170261904Y-64503333D01*
X170261904Y-64741428D01*
X170214285Y-64931904D01*
X170166666Y-65027142D01*
X170119047Y-65074761D01*
X170023809Y-65122380D01*
X169928571Y-65122380D01*
X169833333Y-65074761D01*
X169785714Y-65027142D01*
X169738095Y-64931904D01*
X169690476Y-64741428D01*
X169690476Y-64503333D01*
X169738095Y-64312857D01*
X169785714Y-64217619D01*
X169833333Y-64170000D01*
X169928571Y-64122380D01*
X170690476Y-65122380D02*
X170690476Y-64122380D01*
X171261904Y-65122380D02*
X170833333Y-64550952D01*
X171261904Y-64122380D02*
X170690476Y-64693809D01*
X169160714Y-66439285D02*
X168910714Y-66082142D01*
X168732142Y-66439285D02*
X168732142Y-65689285D01*
X169017857Y-65689285D01*
X169089285Y-65725000D01*
X169125000Y-65760714D01*
X169160714Y-65832142D01*
X169160714Y-65939285D01*
X169125000Y-66010714D01*
X169089285Y-66046428D01*
X169017857Y-66082142D01*
X168732142Y-66082142D01*
X169875000Y-66439285D02*
X169446428Y-66439285D01*
X169660714Y-66439285D02*
X169660714Y-65689285D01*
X169589285Y-65796428D01*
X169517857Y-65867857D01*
X169446428Y-65903571D01*
X170589285Y-66439285D02*
X170160714Y-66439285D01*
X170375000Y-66439285D02*
X170375000Y-65689285D01*
X170303571Y-65796428D01*
X170232142Y-65867857D01*
X170160714Y-65903571D01*
X170946428Y-66439285D02*
X171089285Y-66439285D01*
X171160714Y-66403571D01*
X171196428Y-66367857D01*
X171267857Y-66260714D01*
X171303571Y-66117857D01*
X171303571Y-65832142D01*
X171267857Y-65760714D01*
X171232142Y-65725000D01*
X171160714Y-65689285D01*
X171017857Y-65689285D01*
X170946428Y-65725000D01*
X170910714Y-65760714D01*
X170875000Y-65832142D01*
X170875000Y-66010714D01*
X170910714Y-66082142D01*
X170946428Y-66117857D01*
X171017857Y-66153571D01*
X171160714Y-66153571D01*
X171232142Y-66117857D01*
X171267857Y-66082142D01*
X171303571Y-66010714D01*
%TO.C,R120*%
X157309523Y-65122380D02*
X156738095Y-65122380D01*
X157023809Y-65122380D02*
X157023809Y-64122380D01*
X156928571Y-64265238D01*
X156833333Y-64360476D01*
X156738095Y-64408095D01*
X157928571Y-64122380D02*
X158023809Y-64122380D01*
X158119047Y-64170000D01*
X158166666Y-64217619D01*
X158214285Y-64312857D01*
X158261904Y-64503333D01*
X158261904Y-64741428D01*
X158214285Y-64931904D01*
X158166666Y-65027142D01*
X158119047Y-65074761D01*
X158023809Y-65122380D01*
X157928571Y-65122380D01*
X157833333Y-65074761D01*
X157785714Y-65027142D01*
X157738095Y-64931904D01*
X157690476Y-64741428D01*
X157690476Y-64503333D01*
X157738095Y-64312857D01*
X157785714Y-64217619D01*
X157833333Y-64170000D01*
X157928571Y-64122380D01*
X158690476Y-65122380D02*
X158690476Y-64122380D01*
X159261904Y-65122380D02*
X158833333Y-64550952D01*
X159261904Y-64122380D02*
X158690476Y-64693809D01*
X157160714Y-66439285D02*
X156910714Y-66082142D01*
X156732142Y-66439285D02*
X156732142Y-65689285D01*
X157017857Y-65689285D01*
X157089285Y-65725000D01*
X157125000Y-65760714D01*
X157160714Y-65832142D01*
X157160714Y-65939285D01*
X157125000Y-66010714D01*
X157089285Y-66046428D01*
X157017857Y-66082142D01*
X156732142Y-66082142D01*
X157875000Y-66439285D02*
X157446428Y-66439285D01*
X157660714Y-66439285D02*
X157660714Y-65689285D01*
X157589285Y-65796428D01*
X157517857Y-65867857D01*
X157446428Y-65903571D01*
X158160714Y-65760714D02*
X158196428Y-65725000D01*
X158267857Y-65689285D01*
X158446428Y-65689285D01*
X158517857Y-65725000D01*
X158553571Y-65760714D01*
X158589285Y-65832142D01*
X158589285Y-65903571D01*
X158553571Y-66010714D01*
X158125000Y-66439285D01*
X158589285Y-66439285D01*
X159053571Y-65689285D02*
X159125000Y-65689285D01*
X159196428Y-65725000D01*
X159232142Y-65760714D01*
X159267857Y-65832142D01*
X159303571Y-65975000D01*
X159303571Y-66153571D01*
X159267857Y-66296428D01*
X159232142Y-66367857D01*
X159196428Y-66403571D01*
X159125000Y-66439285D01*
X159053571Y-66439285D01*
X158982142Y-66403571D01*
X158946428Y-66367857D01*
X158910714Y-66296428D01*
X158875000Y-66153571D01*
X158875000Y-65975000D01*
X158910714Y-65832142D01*
X158946428Y-65760714D01*
X158982142Y-65725000D01*
X159053571Y-65689285D01*
%TO.C,R121*%
X145309523Y-65122380D02*
X144738095Y-65122380D01*
X145023809Y-65122380D02*
X145023809Y-64122380D01*
X144928571Y-64265238D01*
X144833333Y-64360476D01*
X144738095Y-64408095D01*
X145928571Y-64122380D02*
X146023809Y-64122380D01*
X146119047Y-64170000D01*
X146166666Y-64217619D01*
X146214285Y-64312857D01*
X146261904Y-64503333D01*
X146261904Y-64741428D01*
X146214285Y-64931904D01*
X146166666Y-65027142D01*
X146119047Y-65074761D01*
X146023809Y-65122380D01*
X145928571Y-65122380D01*
X145833333Y-65074761D01*
X145785714Y-65027142D01*
X145738095Y-64931904D01*
X145690476Y-64741428D01*
X145690476Y-64503333D01*
X145738095Y-64312857D01*
X145785714Y-64217619D01*
X145833333Y-64170000D01*
X145928571Y-64122380D01*
X146690476Y-65122380D02*
X146690476Y-64122380D01*
X147261904Y-65122380D02*
X146833333Y-64550952D01*
X147261904Y-64122380D02*
X146690476Y-64693809D01*
X145160714Y-66439285D02*
X144910714Y-66082142D01*
X144732142Y-66439285D02*
X144732142Y-65689285D01*
X145017857Y-65689285D01*
X145089285Y-65725000D01*
X145125000Y-65760714D01*
X145160714Y-65832142D01*
X145160714Y-65939285D01*
X145125000Y-66010714D01*
X145089285Y-66046428D01*
X145017857Y-66082142D01*
X144732142Y-66082142D01*
X145875000Y-66439285D02*
X145446428Y-66439285D01*
X145660714Y-66439285D02*
X145660714Y-65689285D01*
X145589285Y-65796428D01*
X145517857Y-65867857D01*
X145446428Y-65903571D01*
X146160714Y-65760714D02*
X146196428Y-65725000D01*
X146267857Y-65689285D01*
X146446428Y-65689285D01*
X146517857Y-65725000D01*
X146553571Y-65760714D01*
X146589285Y-65832142D01*
X146589285Y-65903571D01*
X146553571Y-66010714D01*
X146125000Y-66439285D01*
X146589285Y-66439285D01*
X147303571Y-66439285D02*
X146875000Y-66439285D01*
X147089285Y-66439285D02*
X147089285Y-65689285D01*
X147017857Y-65796428D01*
X146946428Y-65867857D01*
X146875000Y-65903571D01*
%TO.C,R122*%
X169309523Y-72122380D02*
X168738095Y-72122380D01*
X169023809Y-72122380D02*
X169023809Y-71122380D01*
X168928571Y-71265238D01*
X168833333Y-71360476D01*
X168738095Y-71408095D01*
X169928571Y-71122380D02*
X170023809Y-71122380D01*
X170119047Y-71170000D01*
X170166666Y-71217619D01*
X170214285Y-71312857D01*
X170261904Y-71503333D01*
X170261904Y-71741428D01*
X170214285Y-71931904D01*
X170166666Y-72027142D01*
X170119047Y-72074761D01*
X170023809Y-72122380D01*
X169928571Y-72122380D01*
X169833333Y-72074761D01*
X169785714Y-72027142D01*
X169738095Y-71931904D01*
X169690476Y-71741428D01*
X169690476Y-71503333D01*
X169738095Y-71312857D01*
X169785714Y-71217619D01*
X169833333Y-71170000D01*
X169928571Y-71122380D01*
X170690476Y-72122380D02*
X170690476Y-71122380D01*
X171261904Y-72122380D02*
X170833333Y-71550952D01*
X171261904Y-71122380D02*
X170690476Y-71693809D01*
X169160714Y-73439285D02*
X168910714Y-73082142D01*
X168732142Y-73439285D02*
X168732142Y-72689285D01*
X169017857Y-72689285D01*
X169089285Y-72725000D01*
X169125000Y-72760714D01*
X169160714Y-72832142D01*
X169160714Y-72939285D01*
X169125000Y-73010714D01*
X169089285Y-73046428D01*
X169017857Y-73082142D01*
X168732142Y-73082142D01*
X169875000Y-73439285D02*
X169446428Y-73439285D01*
X169660714Y-73439285D02*
X169660714Y-72689285D01*
X169589285Y-72796428D01*
X169517857Y-72867857D01*
X169446428Y-72903571D01*
X170160714Y-72760714D02*
X170196428Y-72725000D01*
X170267857Y-72689285D01*
X170446428Y-72689285D01*
X170517857Y-72725000D01*
X170553571Y-72760714D01*
X170589285Y-72832142D01*
X170589285Y-72903571D01*
X170553571Y-73010714D01*
X170125000Y-73439285D01*
X170589285Y-73439285D01*
X170875000Y-72760714D02*
X170910714Y-72725000D01*
X170982142Y-72689285D01*
X171160714Y-72689285D01*
X171232142Y-72725000D01*
X171267857Y-72760714D01*
X171303571Y-72832142D01*
X171303571Y-72903571D01*
X171267857Y-73010714D01*
X170839285Y-73439285D01*
X171303571Y-73439285D01*
%TO.C,R123*%
X157309523Y-72122380D02*
X156738095Y-72122380D01*
X157023809Y-72122380D02*
X157023809Y-71122380D01*
X156928571Y-71265238D01*
X156833333Y-71360476D01*
X156738095Y-71408095D01*
X157928571Y-71122380D02*
X158023809Y-71122380D01*
X158119047Y-71170000D01*
X158166666Y-71217619D01*
X158214285Y-71312857D01*
X158261904Y-71503333D01*
X158261904Y-71741428D01*
X158214285Y-71931904D01*
X158166666Y-72027142D01*
X158119047Y-72074761D01*
X158023809Y-72122380D01*
X157928571Y-72122380D01*
X157833333Y-72074761D01*
X157785714Y-72027142D01*
X157738095Y-71931904D01*
X157690476Y-71741428D01*
X157690476Y-71503333D01*
X157738095Y-71312857D01*
X157785714Y-71217619D01*
X157833333Y-71170000D01*
X157928571Y-71122380D01*
X158690476Y-72122380D02*
X158690476Y-71122380D01*
X159261904Y-72122380D02*
X158833333Y-71550952D01*
X159261904Y-71122380D02*
X158690476Y-71693809D01*
X157160714Y-73439285D02*
X156910714Y-73082142D01*
X156732142Y-73439285D02*
X156732142Y-72689285D01*
X157017857Y-72689285D01*
X157089285Y-72725000D01*
X157125000Y-72760714D01*
X157160714Y-72832142D01*
X157160714Y-72939285D01*
X157125000Y-73010714D01*
X157089285Y-73046428D01*
X157017857Y-73082142D01*
X156732142Y-73082142D01*
X157875000Y-73439285D02*
X157446428Y-73439285D01*
X157660714Y-73439285D02*
X157660714Y-72689285D01*
X157589285Y-72796428D01*
X157517857Y-72867857D01*
X157446428Y-72903571D01*
X158160714Y-72760714D02*
X158196428Y-72725000D01*
X158267857Y-72689285D01*
X158446428Y-72689285D01*
X158517857Y-72725000D01*
X158553571Y-72760714D01*
X158589285Y-72832142D01*
X158589285Y-72903571D01*
X158553571Y-73010714D01*
X158125000Y-73439285D01*
X158589285Y-73439285D01*
X158839285Y-72689285D02*
X159303571Y-72689285D01*
X159053571Y-72975000D01*
X159160714Y-72975000D01*
X159232142Y-73010714D01*
X159267857Y-73046428D01*
X159303571Y-73117857D01*
X159303571Y-73296428D01*
X159267857Y-73367857D01*
X159232142Y-73403571D01*
X159160714Y-73439285D01*
X158946428Y-73439285D01*
X158875000Y-73403571D01*
X158839285Y-73367857D01*
%TO.C,R124*%
X145309523Y-72122380D02*
X144738095Y-72122380D01*
X145023809Y-72122380D02*
X145023809Y-71122380D01*
X144928571Y-71265238D01*
X144833333Y-71360476D01*
X144738095Y-71408095D01*
X145928571Y-71122380D02*
X146023809Y-71122380D01*
X146119047Y-71170000D01*
X146166666Y-71217619D01*
X146214285Y-71312857D01*
X146261904Y-71503333D01*
X146261904Y-71741428D01*
X146214285Y-71931904D01*
X146166666Y-72027142D01*
X146119047Y-72074761D01*
X146023809Y-72122380D01*
X145928571Y-72122380D01*
X145833333Y-72074761D01*
X145785714Y-72027142D01*
X145738095Y-71931904D01*
X145690476Y-71741428D01*
X145690476Y-71503333D01*
X145738095Y-71312857D01*
X145785714Y-71217619D01*
X145833333Y-71170000D01*
X145928571Y-71122380D01*
X146690476Y-72122380D02*
X146690476Y-71122380D01*
X147261904Y-72122380D02*
X146833333Y-71550952D01*
X147261904Y-71122380D02*
X146690476Y-71693809D01*
X145160714Y-73439285D02*
X144910714Y-73082142D01*
X144732142Y-73439285D02*
X144732142Y-72689285D01*
X145017857Y-72689285D01*
X145089285Y-72725000D01*
X145125000Y-72760714D01*
X145160714Y-72832142D01*
X145160714Y-72939285D01*
X145125000Y-73010714D01*
X145089285Y-73046428D01*
X145017857Y-73082142D01*
X144732142Y-73082142D01*
X145875000Y-73439285D02*
X145446428Y-73439285D01*
X145660714Y-73439285D02*
X145660714Y-72689285D01*
X145589285Y-72796428D01*
X145517857Y-72867857D01*
X145446428Y-72903571D01*
X146160714Y-72760714D02*
X146196428Y-72725000D01*
X146267857Y-72689285D01*
X146446428Y-72689285D01*
X146517857Y-72725000D01*
X146553571Y-72760714D01*
X146589285Y-72832142D01*
X146589285Y-72903571D01*
X146553571Y-73010714D01*
X146125000Y-73439285D01*
X146589285Y-73439285D01*
X147232142Y-72939285D02*
X147232142Y-73439285D01*
X147053571Y-72653571D02*
X146875000Y-73189285D01*
X147339285Y-73189285D01*
%TO.C,R201*%
X113382380Y-60290476D02*
X113382380Y-60861904D01*
X113382380Y-60576190D02*
X112382380Y-60576190D01*
X112525238Y-60671428D01*
X112620476Y-60766666D01*
X112668095Y-60861904D01*
X112382380Y-59671428D02*
X112382380Y-59576190D01*
X112430000Y-59480952D01*
X112477619Y-59433333D01*
X112572857Y-59385714D01*
X112763333Y-59338095D01*
X113001428Y-59338095D01*
X113191904Y-59385714D01*
X113287142Y-59433333D01*
X113334761Y-59480952D01*
X113382380Y-59576190D01*
X113382380Y-59671428D01*
X113334761Y-59766666D01*
X113287142Y-59814285D01*
X113191904Y-59861904D01*
X113001428Y-59909523D01*
X112763333Y-59909523D01*
X112572857Y-59861904D01*
X112477619Y-59814285D01*
X112430000Y-59766666D01*
X112382380Y-59671428D01*
X113382380Y-58909523D02*
X112382380Y-58909523D01*
X113382380Y-58338095D02*
X112810952Y-58766666D01*
X112382380Y-58338095D02*
X112953809Y-58909523D01*
X111839285Y-60439285D02*
X111482142Y-60689285D01*
X111839285Y-60867857D02*
X111089285Y-60867857D01*
X111089285Y-60582142D01*
X111125000Y-60510714D01*
X111160714Y-60475000D01*
X111232142Y-60439285D01*
X111339285Y-60439285D01*
X111410714Y-60475000D01*
X111446428Y-60510714D01*
X111482142Y-60582142D01*
X111482142Y-60867857D01*
X111160714Y-60153571D02*
X111125000Y-60117857D01*
X111089285Y-60046428D01*
X111089285Y-59867857D01*
X111125000Y-59796428D01*
X111160714Y-59760714D01*
X111232142Y-59725000D01*
X111303571Y-59725000D01*
X111410714Y-59760714D01*
X111839285Y-60189285D01*
X111839285Y-59725000D01*
X111089285Y-59260714D02*
X111089285Y-59189285D01*
X111125000Y-59117857D01*
X111160714Y-59082142D01*
X111232142Y-59046428D01*
X111375000Y-59010714D01*
X111553571Y-59010714D01*
X111696428Y-59046428D01*
X111767857Y-59082142D01*
X111803571Y-59117857D01*
X111839285Y-59189285D01*
X111839285Y-59260714D01*
X111803571Y-59332142D01*
X111767857Y-59367857D01*
X111696428Y-59403571D01*
X111553571Y-59439285D01*
X111375000Y-59439285D01*
X111232142Y-59403571D01*
X111160714Y-59367857D01*
X111125000Y-59332142D01*
X111089285Y-59260714D01*
X111839285Y-58296428D02*
X111839285Y-58725000D01*
X111839285Y-58510714D02*
X111089285Y-58510714D01*
X111196428Y-58582142D01*
X111267857Y-58653571D01*
X111303571Y-58725000D01*
%TO.C,R202*%
X111382380Y-60290476D02*
X111382380Y-60861904D01*
X111382380Y-60576190D02*
X110382380Y-60576190D01*
X110525238Y-60671428D01*
X110620476Y-60766666D01*
X110668095Y-60861904D01*
X110382380Y-59671428D02*
X110382380Y-59576190D01*
X110430000Y-59480952D01*
X110477619Y-59433333D01*
X110572857Y-59385714D01*
X110763333Y-59338095D01*
X111001428Y-59338095D01*
X111191904Y-59385714D01*
X111287142Y-59433333D01*
X111334761Y-59480952D01*
X111382380Y-59576190D01*
X111382380Y-59671428D01*
X111334761Y-59766666D01*
X111287142Y-59814285D01*
X111191904Y-59861904D01*
X111001428Y-59909523D01*
X110763333Y-59909523D01*
X110572857Y-59861904D01*
X110477619Y-59814285D01*
X110430000Y-59766666D01*
X110382380Y-59671428D01*
X111382380Y-58909523D02*
X110382380Y-58909523D01*
X111382380Y-58338095D02*
X110810952Y-58766666D01*
X110382380Y-58338095D02*
X110953809Y-58909523D01*
X109839285Y-60439285D02*
X109482142Y-60689285D01*
X109839285Y-60867857D02*
X109089285Y-60867857D01*
X109089285Y-60582142D01*
X109125000Y-60510714D01*
X109160714Y-60475000D01*
X109232142Y-60439285D01*
X109339285Y-60439285D01*
X109410714Y-60475000D01*
X109446428Y-60510714D01*
X109482142Y-60582142D01*
X109482142Y-60867857D01*
X109160714Y-60153571D02*
X109125000Y-60117857D01*
X109089285Y-60046428D01*
X109089285Y-59867857D01*
X109125000Y-59796428D01*
X109160714Y-59760714D01*
X109232142Y-59725000D01*
X109303571Y-59725000D01*
X109410714Y-59760714D01*
X109839285Y-60189285D01*
X109839285Y-59725000D01*
X109089285Y-59260714D02*
X109089285Y-59189285D01*
X109125000Y-59117857D01*
X109160714Y-59082142D01*
X109232142Y-59046428D01*
X109375000Y-59010714D01*
X109553571Y-59010714D01*
X109696428Y-59046428D01*
X109767857Y-59082142D01*
X109803571Y-59117857D01*
X109839285Y-59189285D01*
X109839285Y-59260714D01*
X109803571Y-59332142D01*
X109767857Y-59367857D01*
X109696428Y-59403571D01*
X109553571Y-59439285D01*
X109375000Y-59439285D01*
X109232142Y-59403571D01*
X109160714Y-59367857D01*
X109125000Y-59332142D01*
X109089285Y-59260714D01*
X109160714Y-58725000D02*
X109125000Y-58689285D01*
X109089285Y-58617857D01*
X109089285Y-58439285D01*
X109125000Y-58367857D01*
X109160714Y-58332142D01*
X109232142Y-58296428D01*
X109303571Y-58296428D01*
X109410714Y-58332142D01*
X109839285Y-58760714D01*
X109839285Y-58296428D01*
%TO.C,R203*%
X113809523Y-53982380D02*
X113238095Y-53982380D01*
X113523809Y-53982380D02*
X113523809Y-52982380D01*
X113428571Y-53125238D01*
X113333333Y-53220476D01*
X113238095Y-53268095D01*
X114428571Y-52982380D02*
X114523809Y-52982380D01*
X114619047Y-53030000D01*
X114666666Y-53077619D01*
X114714285Y-53172857D01*
X114761904Y-53363333D01*
X114761904Y-53601428D01*
X114714285Y-53791904D01*
X114666666Y-53887142D01*
X114619047Y-53934761D01*
X114523809Y-53982380D01*
X114428571Y-53982380D01*
X114333333Y-53934761D01*
X114285714Y-53887142D01*
X114238095Y-53791904D01*
X114190476Y-53601428D01*
X114190476Y-53363333D01*
X114238095Y-53172857D01*
X114285714Y-53077619D01*
X114333333Y-53030000D01*
X114428571Y-52982380D01*
X115190476Y-53982380D02*
X115190476Y-52982380D01*
X115761904Y-53982380D02*
X115333333Y-53410952D01*
X115761904Y-52982380D02*
X115190476Y-53553809D01*
X113660714Y-52439285D02*
X113410714Y-52082142D01*
X113232142Y-52439285D02*
X113232142Y-51689285D01*
X113517857Y-51689285D01*
X113589285Y-51725000D01*
X113625000Y-51760714D01*
X113660714Y-51832142D01*
X113660714Y-51939285D01*
X113625000Y-52010714D01*
X113589285Y-52046428D01*
X113517857Y-52082142D01*
X113232142Y-52082142D01*
X113946428Y-51760714D02*
X113982142Y-51725000D01*
X114053571Y-51689285D01*
X114232142Y-51689285D01*
X114303571Y-51725000D01*
X114339285Y-51760714D01*
X114375000Y-51832142D01*
X114375000Y-51903571D01*
X114339285Y-52010714D01*
X113910714Y-52439285D01*
X114375000Y-52439285D01*
X114839285Y-51689285D02*
X114910714Y-51689285D01*
X114982142Y-51725000D01*
X115017857Y-51760714D01*
X115053571Y-51832142D01*
X115089285Y-51975000D01*
X115089285Y-52153571D01*
X115053571Y-52296428D01*
X115017857Y-52367857D01*
X114982142Y-52403571D01*
X114910714Y-52439285D01*
X114839285Y-52439285D01*
X114767857Y-52403571D01*
X114732142Y-52367857D01*
X114696428Y-52296428D01*
X114660714Y-52153571D01*
X114660714Y-51975000D01*
X114696428Y-51832142D01*
X114732142Y-51760714D01*
X114767857Y-51725000D01*
X114839285Y-51689285D01*
X115339285Y-51689285D02*
X115803571Y-51689285D01*
X115553571Y-51975000D01*
X115660714Y-51975000D01*
X115732142Y-52010714D01*
X115767857Y-52046428D01*
X115803571Y-52117857D01*
X115803571Y-52296428D01*
X115767857Y-52367857D01*
X115732142Y-52403571D01*
X115660714Y-52439285D01*
X115446428Y-52439285D01*
X115375000Y-52403571D01*
X115339285Y-52367857D01*
%TO.C,R204*%
X106309523Y-51122380D02*
X105738095Y-51122380D01*
X106023809Y-51122380D02*
X106023809Y-50122380D01*
X105928571Y-50265238D01*
X105833333Y-50360476D01*
X105738095Y-50408095D01*
X106928571Y-50122380D02*
X107023809Y-50122380D01*
X107119047Y-50170000D01*
X107166666Y-50217619D01*
X107214285Y-50312857D01*
X107261904Y-50503333D01*
X107261904Y-50741428D01*
X107214285Y-50931904D01*
X107166666Y-51027142D01*
X107119047Y-51074761D01*
X107023809Y-51122380D01*
X106928571Y-51122380D01*
X106833333Y-51074761D01*
X106785714Y-51027142D01*
X106738095Y-50931904D01*
X106690476Y-50741428D01*
X106690476Y-50503333D01*
X106738095Y-50312857D01*
X106785714Y-50217619D01*
X106833333Y-50170000D01*
X106928571Y-50122380D01*
X107690476Y-51122380D02*
X107690476Y-50122380D01*
X108261904Y-51122380D02*
X107833333Y-50550952D01*
X108261904Y-50122380D02*
X107690476Y-50693809D01*
X106160714Y-52439285D02*
X105910714Y-52082142D01*
X105732142Y-52439285D02*
X105732142Y-51689285D01*
X106017857Y-51689285D01*
X106089285Y-51725000D01*
X106125000Y-51760714D01*
X106160714Y-51832142D01*
X106160714Y-51939285D01*
X106125000Y-52010714D01*
X106089285Y-52046428D01*
X106017857Y-52082142D01*
X105732142Y-52082142D01*
X106446428Y-51760714D02*
X106482142Y-51725000D01*
X106553571Y-51689285D01*
X106732142Y-51689285D01*
X106803571Y-51725000D01*
X106839285Y-51760714D01*
X106875000Y-51832142D01*
X106875000Y-51903571D01*
X106839285Y-52010714D01*
X106410714Y-52439285D01*
X106875000Y-52439285D01*
X107339285Y-51689285D02*
X107410714Y-51689285D01*
X107482142Y-51725000D01*
X107517857Y-51760714D01*
X107553571Y-51832142D01*
X107589285Y-51975000D01*
X107589285Y-52153571D01*
X107553571Y-52296428D01*
X107517857Y-52367857D01*
X107482142Y-52403571D01*
X107410714Y-52439285D01*
X107339285Y-52439285D01*
X107267857Y-52403571D01*
X107232142Y-52367857D01*
X107196428Y-52296428D01*
X107160714Y-52153571D01*
X107160714Y-51975000D01*
X107196428Y-51832142D01*
X107232142Y-51760714D01*
X107267857Y-51725000D01*
X107339285Y-51689285D01*
X108232142Y-51939285D02*
X108232142Y-52439285D01*
X108053571Y-51653571D02*
X107875000Y-52189285D01*
X108339285Y-52189285D01*
%TO.C,R205*%
X110522380Y-72790476D02*
X110522380Y-73361904D01*
X110522380Y-73076190D02*
X109522380Y-73076190D01*
X109665238Y-73171428D01*
X109760476Y-73266666D01*
X109808095Y-73361904D01*
X109522380Y-72171428D02*
X109522380Y-72076190D01*
X109570000Y-71980952D01*
X109617619Y-71933333D01*
X109712857Y-71885714D01*
X109903333Y-71838095D01*
X110141428Y-71838095D01*
X110331904Y-71885714D01*
X110427142Y-71933333D01*
X110474761Y-71980952D01*
X110522380Y-72076190D01*
X110522380Y-72171428D01*
X110474761Y-72266666D01*
X110427142Y-72314285D01*
X110331904Y-72361904D01*
X110141428Y-72409523D01*
X109903333Y-72409523D01*
X109712857Y-72361904D01*
X109617619Y-72314285D01*
X109570000Y-72266666D01*
X109522380Y-72171428D01*
X110522380Y-71409523D02*
X109522380Y-71409523D01*
X110522380Y-70838095D02*
X109950952Y-71266666D01*
X109522380Y-70838095D02*
X110093809Y-71409523D01*
X111839285Y-72939285D02*
X111482142Y-73189285D01*
X111839285Y-73367857D02*
X111089285Y-73367857D01*
X111089285Y-73082142D01*
X111125000Y-73010714D01*
X111160714Y-72975000D01*
X111232142Y-72939285D01*
X111339285Y-72939285D01*
X111410714Y-72975000D01*
X111446428Y-73010714D01*
X111482142Y-73082142D01*
X111482142Y-73367857D01*
X111160714Y-72653571D02*
X111125000Y-72617857D01*
X111089285Y-72546428D01*
X111089285Y-72367857D01*
X111125000Y-72296428D01*
X111160714Y-72260714D01*
X111232142Y-72225000D01*
X111303571Y-72225000D01*
X111410714Y-72260714D01*
X111839285Y-72689285D01*
X111839285Y-72225000D01*
X111089285Y-71760714D02*
X111089285Y-71689285D01*
X111125000Y-71617857D01*
X111160714Y-71582142D01*
X111232142Y-71546428D01*
X111375000Y-71510714D01*
X111553571Y-71510714D01*
X111696428Y-71546428D01*
X111767857Y-71582142D01*
X111803571Y-71617857D01*
X111839285Y-71689285D01*
X111839285Y-71760714D01*
X111803571Y-71832142D01*
X111767857Y-71867857D01*
X111696428Y-71903571D01*
X111553571Y-71939285D01*
X111375000Y-71939285D01*
X111232142Y-71903571D01*
X111160714Y-71867857D01*
X111125000Y-71832142D01*
X111089285Y-71760714D01*
X111089285Y-70832142D02*
X111089285Y-71189285D01*
X111446428Y-71225000D01*
X111410714Y-71189285D01*
X111375000Y-71117857D01*
X111375000Y-70939285D01*
X111410714Y-70867857D01*
X111446428Y-70832142D01*
X111517857Y-70796428D01*
X111696428Y-70796428D01*
X111767857Y-70832142D01*
X111803571Y-70867857D01*
X111839285Y-70939285D01*
X111839285Y-71117857D01*
X111803571Y-71189285D01*
X111767857Y-71225000D01*
%TO.C,R206*%
X108522380Y-72790476D02*
X108522380Y-73361904D01*
X108522380Y-73076190D02*
X107522380Y-73076190D01*
X107665238Y-73171428D01*
X107760476Y-73266666D01*
X107808095Y-73361904D01*
X107522380Y-72171428D02*
X107522380Y-72076190D01*
X107570000Y-71980952D01*
X107617619Y-71933333D01*
X107712857Y-71885714D01*
X107903333Y-71838095D01*
X108141428Y-71838095D01*
X108331904Y-71885714D01*
X108427142Y-71933333D01*
X108474761Y-71980952D01*
X108522380Y-72076190D01*
X108522380Y-72171428D01*
X108474761Y-72266666D01*
X108427142Y-72314285D01*
X108331904Y-72361904D01*
X108141428Y-72409523D01*
X107903333Y-72409523D01*
X107712857Y-72361904D01*
X107617619Y-72314285D01*
X107570000Y-72266666D01*
X107522380Y-72171428D01*
X108522380Y-71409523D02*
X107522380Y-71409523D01*
X108522380Y-70838095D02*
X107950952Y-71266666D01*
X107522380Y-70838095D02*
X108093809Y-71409523D01*
X109839285Y-72939285D02*
X109482142Y-73189285D01*
X109839285Y-73367857D02*
X109089285Y-73367857D01*
X109089285Y-73082142D01*
X109125000Y-73010714D01*
X109160714Y-72975000D01*
X109232142Y-72939285D01*
X109339285Y-72939285D01*
X109410714Y-72975000D01*
X109446428Y-73010714D01*
X109482142Y-73082142D01*
X109482142Y-73367857D01*
X109160714Y-72653571D02*
X109125000Y-72617857D01*
X109089285Y-72546428D01*
X109089285Y-72367857D01*
X109125000Y-72296428D01*
X109160714Y-72260714D01*
X109232142Y-72225000D01*
X109303571Y-72225000D01*
X109410714Y-72260714D01*
X109839285Y-72689285D01*
X109839285Y-72225000D01*
X109089285Y-71760714D02*
X109089285Y-71689285D01*
X109125000Y-71617857D01*
X109160714Y-71582142D01*
X109232142Y-71546428D01*
X109375000Y-71510714D01*
X109553571Y-71510714D01*
X109696428Y-71546428D01*
X109767857Y-71582142D01*
X109803571Y-71617857D01*
X109839285Y-71689285D01*
X109839285Y-71760714D01*
X109803571Y-71832142D01*
X109767857Y-71867857D01*
X109696428Y-71903571D01*
X109553571Y-71939285D01*
X109375000Y-71939285D01*
X109232142Y-71903571D01*
X109160714Y-71867857D01*
X109125000Y-71832142D01*
X109089285Y-71760714D01*
X109089285Y-70867857D02*
X109089285Y-71010714D01*
X109125000Y-71082142D01*
X109160714Y-71117857D01*
X109267857Y-71189285D01*
X109410714Y-71225000D01*
X109696428Y-71225000D01*
X109767857Y-71189285D01*
X109803571Y-71153571D01*
X109839285Y-71082142D01*
X109839285Y-70939285D01*
X109803571Y-70867857D01*
X109767857Y-70832142D01*
X109696428Y-70796428D01*
X109517857Y-70796428D01*
X109446428Y-70832142D01*
X109410714Y-70867857D01*
X109375000Y-70939285D01*
X109375000Y-71082142D01*
X109410714Y-71153571D01*
X109446428Y-71189285D01*
X109517857Y-71225000D01*
%TO.C,R207*%
X113809523Y-65982380D02*
X113238095Y-65982380D01*
X113523809Y-65982380D02*
X113523809Y-64982380D01*
X113428571Y-65125238D01*
X113333333Y-65220476D01*
X113238095Y-65268095D01*
X114428571Y-64982380D02*
X114523809Y-64982380D01*
X114619047Y-65030000D01*
X114666666Y-65077619D01*
X114714285Y-65172857D01*
X114761904Y-65363333D01*
X114761904Y-65601428D01*
X114714285Y-65791904D01*
X114666666Y-65887142D01*
X114619047Y-65934761D01*
X114523809Y-65982380D01*
X114428571Y-65982380D01*
X114333333Y-65934761D01*
X114285714Y-65887142D01*
X114238095Y-65791904D01*
X114190476Y-65601428D01*
X114190476Y-65363333D01*
X114238095Y-65172857D01*
X114285714Y-65077619D01*
X114333333Y-65030000D01*
X114428571Y-64982380D01*
X115190476Y-65982380D02*
X115190476Y-64982380D01*
X115761904Y-65982380D02*
X115333333Y-65410952D01*
X115761904Y-64982380D02*
X115190476Y-65553809D01*
X113660714Y-64439285D02*
X113410714Y-64082142D01*
X113232142Y-64439285D02*
X113232142Y-63689285D01*
X113517857Y-63689285D01*
X113589285Y-63725000D01*
X113625000Y-63760714D01*
X113660714Y-63832142D01*
X113660714Y-63939285D01*
X113625000Y-64010714D01*
X113589285Y-64046428D01*
X113517857Y-64082142D01*
X113232142Y-64082142D01*
X113946428Y-63760714D02*
X113982142Y-63725000D01*
X114053571Y-63689285D01*
X114232142Y-63689285D01*
X114303571Y-63725000D01*
X114339285Y-63760714D01*
X114375000Y-63832142D01*
X114375000Y-63903571D01*
X114339285Y-64010714D01*
X113910714Y-64439285D01*
X114375000Y-64439285D01*
X114839285Y-63689285D02*
X114910714Y-63689285D01*
X114982142Y-63725000D01*
X115017857Y-63760714D01*
X115053571Y-63832142D01*
X115089285Y-63975000D01*
X115089285Y-64153571D01*
X115053571Y-64296428D01*
X115017857Y-64367857D01*
X114982142Y-64403571D01*
X114910714Y-64439285D01*
X114839285Y-64439285D01*
X114767857Y-64403571D01*
X114732142Y-64367857D01*
X114696428Y-64296428D01*
X114660714Y-64153571D01*
X114660714Y-63975000D01*
X114696428Y-63832142D01*
X114732142Y-63760714D01*
X114767857Y-63725000D01*
X114839285Y-63689285D01*
X115339285Y-63689285D02*
X115839285Y-63689285D01*
X115517857Y-64439285D01*
%TO.C,R208*%
X106309523Y-63122380D02*
X105738095Y-63122380D01*
X106023809Y-63122380D02*
X106023809Y-62122380D01*
X105928571Y-62265238D01*
X105833333Y-62360476D01*
X105738095Y-62408095D01*
X106928571Y-62122380D02*
X107023809Y-62122380D01*
X107119047Y-62170000D01*
X107166666Y-62217619D01*
X107214285Y-62312857D01*
X107261904Y-62503333D01*
X107261904Y-62741428D01*
X107214285Y-62931904D01*
X107166666Y-63027142D01*
X107119047Y-63074761D01*
X107023809Y-63122380D01*
X106928571Y-63122380D01*
X106833333Y-63074761D01*
X106785714Y-63027142D01*
X106738095Y-62931904D01*
X106690476Y-62741428D01*
X106690476Y-62503333D01*
X106738095Y-62312857D01*
X106785714Y-62217619D01*
X106833333Y-62170000D01*
X106928571Y-62122380D01*
X107690476Y-63122380D02*
X107690476Y-62122380D01*
X108261904Y-63122380D02*
X107833333Y-62550952D01*
X108261904Y-62122380D02*
X107690476Y-62693809D01*
X106160714Y-64439285D02*
X105910714Y-64082142D01*
X105732142Y-64439285D02*
X105732142Y-63689285D01*
X106017857Y-63689285D01*
X106089285Y-63725000D01*
X106125000Y-63760714D01*
X106160714Y-63832142D01*
X106160714Y-63939285D01*
X106125000Y-64010714D01*
X106089285Y-64046428D01*
X106017857Y-64082142D01*
X105732142Y-64082142D01*
X106446428Y-63760714D02*
X106482142Y-63725000D01*
X106553571Y-63689285D01*
X106732142Y-63689285D01*
X106803571Y-63725000D01*
X106839285Y-63760714D01*
X106875000Y-63832142D01*
X106875000Y-63903571D01*
X106839285Y-64010714D01*
X106410714Y-64439285D01*
X106875000Y-64439285D01*
X107339285Y-63689285D02*
X107410714Y-63689285D01*
X107482142Y-63725000D01*
X107517857Y-63760714D01*
X107553571Y-63832142D01*
X107589285Y-63975000D01*
X107589285Y-64153571D01*
X107553571Y-64296428D01*
X107517857Y-64367857D01*
X107482142Y-64403571D01*
X107410714Y-64439285D01*
X107339285Y-64439285D01*
X107267857Y-64403571D01*
X107232142Y-64367857D01*
X107196428Y-64296428D01*
X107160714Y-64153571D01*
X107160714Y-63975000D01*
X107196428Y-63832142D01*
X107232142Y-63760714D01*
X107267857Y-63725000D01*
X107339285Y-63689285D01*
X108017857Y-64010714D02*
X107946428Y-63975000D01*
X107910714Y-63939285D01*
X107875000Y-63867857D01*
X107875000Y-63832142D01*
X107910714Y-63760714D01*
X107946428Y-63725000D01*
X108017857Y-63689285D01*
X108160714Y-63689285D01*
X108232142Y-63725000D01*
X108267857Y-63760714D01*
X108303571Y-63832142D01*
X108303571Y-63867857D01*
X108267857Y-63939285D01*
X108232142Y-63975000D01*
X108160714Y-64010714D01*
X108017857Y-64010714D01*
X107946428Y-64046428D01*
X107910714Y-64082142D01*
X107875000Y-64153571D01*
X107875000Y-64296428D01*
X107910714Y-64367857D01*
X107946428Y-64403571D01*
X108017857Y-64439285D01*
X108160714Y-64439285D01*
X108232142Y-64403571D01*
X108267857Y-64367857D01*
X108303571Y-64296428D01*
X108303571Y-64153571D01*
X108267857Y-64082142D01*
X108232142Y-64046428D01*
X108160714Y-64010714D01*
%TO.C,R209*%
X109309523Y-29122380D02*
X108738095Y-29122380D01*
X109023809Y-29122380D02*
X109023809Y-28122380D01*
X108928571Y-28265238D01*
X108833333Y-28360476D01*
X108738095Y-28408095D01*
X109928571Y-28122380D02*
X110023809Y-28122380D01*
X110119047Y-28170000D01*
X110166666Y-28217619D01*
X110214285Y-28312857D01*
X110261904Y-28503333D01*
X110261904Y-28741428D01*
X110214285Y-28931904D01*
X110166666Y-29027142D01*
X110119047Y-29074761D01*
X110023809Y-29122380D01*
X109928571Y-29122380D01*
X109833333Y-29074761D01*
X109785714Y-29027142D01*
X109738095Y-28931904D01*
X109690476Y-28741428D01*
X109690476Y-28503333D01*
X109738095Y-28312857D01*
X109785714Y-28217619D01*
X109833333Y-28170000D01*
X109928571Y-28122380D01*
X110690476Y-29122380D02*
X110690476Y-28122380D01*
X111261904Y-29122380D02*
X110833333Y-28550952D01*
X111261904Y-28122380D02*
X110690476Y-28693809D01*
X109160714Y-30439285D02*
X108910714Y-30082142D01*
X108732142Y-30439285D02*
X108732142Y-29689285D01*
X109017857Y-29689285D01*
X109089285Y-29725000D01*
X109125000Y-29760714D01*
X109160714Y-29832142D01*
X109160714Y-29939285D01*
X109125000Y-30010714D01*
X109089285Y-30046428D01*
X109017857Y-30082142D01*
X108732142Y-30082142D01*
X109446428Y-29760714D02*
X109482142Y-29725000D01*
X109553571Y-29689285D01*
X109732142Y-29689285D01*
X109803571Y-29725000D01*
X109839285Y-29760714D01*
X109875000Y-29832142D01*
X109875000Y-29903571D01*
X109839285Y-30010714D01*
X109410714Y-30439285D01*
X109875000Y-30439285D01*
X110339285Y-29689285D02*
X110410714Y-29689285D01*
X110482142Y-29725000D01*
X110517857Y-29760714D01*
X110553571Y-29832142D01*
X110589285Y-29975000D01*
X110589285Y-30153571D01*
X110553571Y-30296428D01*
X110517857Y-30367857D01*
X110482142Y-30403571D01*
X110410714Y-30439285D01*
X110339285Y-30439285D01*
X110267857Y-30403571D01*
X110232142Y-30367857D01*
X110196428Y-30296428D01*
X110160714Y-30153571D01*
X110160714Y-29975000D01*
X110196428Y-29832142D01*
X110232142Y-29760714D01*
X110267857Y-29725000D01*
X110339285Y-29689285D01*
X110946428Y-30439285D02*
X111089285Y-30439285D01*
X111160714Y-30403571D01*
X111196428Y-30367857D01*
X111267857Y-30260714D01*
X111303571Y-30117857D01*
X111303571Y-29832142D01*
X111267857Y-29760714D01*
X111232142Y-29725000D01*
X111160714Y-29689285D01*
X111017857Y-29689285D01*
X110946428Y-29725000D01*
X110910714Y-29760714D01*
X110875000Y-29832142D01*
X110875000Y-30010714D01*
X110910714Y-30082142D01*
X110946428Y-30117857D01*
X111017857Y-30153571D01*
X111160714Y-30153571D01*
X111232142Y-30117857D01*
X111267857Y-30082142D01*
X111303571Y-30010714D01*
%TO.C,R210*%
X111382380Y-38490476D02*
X111382380Y-39061904D01*
X111382380Y-38776190D02*
X110382380Y-38776190D01*
X110525238Y-38871428D01*
X110620476Y-38966666D01*
X110668095Y-39061904D01*
X110382380Y-37871428D02*
X110382380Y-37776190D01*
X110430000Y-37680952D01*
X110477619Y-37633333D01*
X110572857Y-37585714D01*
X110763333Y-37538095D01*
X111001428Y-37538095D01*
X111191904Y-37585714D01*
X111287142Y-37633333D01*
X111334761Y-37680952D01*
X111382380Y-37776190D01*
X111382380Y-37871428D01*
X111334761Y-37966666D01*
X111287142Y-38014285D01*
X111191904Y-38061904D01*
X111001428Y-38109523D01*
X110763333Y-38109523D01*
X110572857Y-38061904D01*
X110477619Y-38014285D01*
X110430000Y-37966666D01*
X110382380Y-37871428D01*
X111382380Y-37109523D02*
X110382380Y-37109523D01*
X111382380Y-36538095D02*
X110810952Y-36966666D01*
X110382380Y-36538095D02*
X110953809Y-37109523D01*
X109839285Y-38639285D02*
X109482142Y-38889285D01*
X109839285Y-39067857D02*
X109089285Y-39067857D01*
X109089285Y-38782142D01*
X109125000Y-38710714D01*
X109160714Y-38675000D01*
X109232142Y-38639285D01*
X109339285Y-38639285D01*
X109410714Y-38675000D01*
X109446428Y-38710714D01*
X109482142Y-38782142D01*
X109482142Y-39067857D01*
X109160714Y-38353571D02*
X109125000Y-38317857D01*
X109089285Y-38246428D01*
X109089285Y-38067857D01*
X109125000Y-37996428D01*
X109160714Y-37960714D01*
X109232142Y-37925000D01*
X109303571Y-37925000D01*
X109410714Y-37960714D01*
X109839285Y-38389285D01*
X109839285Y-37925000D01*
X109839285Y-37210714D02*
X109839285Y-37639285D01*
X109839285Y-37425000D02*
X109089285Y-37425000D01*
X109196428Y-37496428D01*
X109267857Y-37567857D01*
X109303571Y-37639285D01*
X109089285Y-36746428D02*
X109089285Y-36675000D01*
X109125000Y-36603571D01*
X109160714Y-36567857D01*
X109232142Y-36532142D01*
X109375000Y-36496428D01*
X109553571Y-36496428D01*
X109696428Y-36532142D01*
X109767857Y-36567857D01*
X109803571Y-36603571D01*
X109839285Y-36675000D01*
X109839285Y-36746428D01*
X109803571Y-36817857D01*
X109767857Y-36853571D01*
X109696428Y-36889285D01*
X109553571Y-36925000D01*
X109375000Y-36925000D01*
X109232142Y-36889285D01*
X109160714Y-36853571D01*
X109125000Y-36817857D01*
X109089285Y-36746428D01*
%TO.C,U101*%
X127502380Y-42385714D02*
X127502380Y-41719047D01*
X128502380Y-42147619D01*
X127835714Y-40909523D02*
X128502380Y-40909523D01*
X127454761Y-41147619D02*
X128169047Y-41385714D01*
X128169047Y-40766666D01*
X128502380Y-40385714D02*
X127502380Y-40385714D01*
X127978571Y-40385714D02*
X127978571Y-39814285D01*
X128502380Y-39814285D02*
X127502380Y-39814285D01*
X128407142Y-38766666D02*
X128454761Y-38814285D01*
X128502380Y-38957142D01*
X128502380Y-39052380D01*
X128454761Y-39195238D01*
X128359523Y-39290476D01*
X128264285Y-39338095D01*
X128073809Y-39385714D01*
X127930952Y-39385714D01*
X127740476Y-39338095D01*
X127645238Y-39290476D01*
X127550000Y-39195238D01*
X127502380Y-39052380D01*
X127502380Y-38957142D01*
X127550000Y-38814285D01*
X127597619Y-38766666D01*
X128502380Y-37814285D02*
X128502380Y-38385714D01*
X128502380Y-38100000D02*
X127502380Y-38100000D01*
X127645238Y-38195238D01*
X127740476Y-38290476D01*
X127788095Y-38385714D01*
X127835714Y-36957142D02*
X128502380Y-36957142D01*
X127454761Y-37195238D02*
X128169047Y-37433333D01*
X128169047Y-36814285D01*
X131089285Y-40885714D02*
X131696428Y-40885714D01*
X131767857Y-40850000D01*
X131803571Y-40814285D01*
X131839285Y-40742857D01*
X131839285Y-40600000D01*
X131803571Y-40528571D01*
X131767857Y-40492857D01*
X131696428Y-40457142D01*
X131089285Y-40457142D01*
X131839285Y-39707142D02*
X131839285Y-40135714D01*
X131839285Y-39921428D02*
X131089285Y-39921428D01*
X131196428Y-39992857D01*
X131267857Y-40064285D01*
X131303571Y-40135714D01*
X131089285Y-39242857D02*
X131089285Y-39171428D01*
X131125000Y-39100000D01*
X131160714Y-39064285D01*
X131232142Y-39028571D01*
X131375000Y-38992857D01*
X131553571Y-38992857D01*
X131696428Y-39028571D01*
X131767857Y-39064285D01*
X131803571Y-39100000D01*
X131839285Y-39171428D01*
X131839285Y-39242857D01*
X131803571Y-39314285D01*
X131767857Y-39350000D01*
X131696428Y-39385714D01*
X131553571Y-39421428D01*
X131375000Y-39421428D01*
X131232142Y-39385714D01*
X131160714Y-39350000D01*
X131125000Y-39314285D01*
X131089285Y-39242857D01*
X131839285Y-38278571D02*
X131839285Y-38707142D01*
X131839285Y-38492857D02*
X131089285Y-38492857D01*
X131196428Y-38564285D01*
X131267857Y-38635714D01*
X131303571Y-38707142D01*
%TO.C,U201*%
X106502380Y-47885714D02*
X106502380Y-47219047D01*
X107502380Y-47647619D01*
X106835714Y-46409523D02*
X107502380Y-46409523D01*
X106454761Y-46647619D02*
X107169047Y-46885714D01*
X107169047Y-46266666D01*
X107502380Y-45885714D02*
X106502380Y-45885714D01*
X106978571Y-45885714D02*
X106978571Y-45314285D01*
X107502380Y-45314285D02*
X106502380Y-45314285D01*
X107407142Y-44266666D02*
X107454761Y-44314285D01*
X107502380Y-44457142D01*
X107502380Y-44552380D01*
X107454761Y-44695238D01*
X107359523Y-44790476D01*
X107264285Y-44838095D01*
X107073809Y-44885714D01*
X106930952Y-44885714D01*
X106740476Y-44838095D01*
X106645238Y-44790476D01*
X106550000Y-44695238D01*
X106502380Y-44552380D01*
X106502380Y-44457142D01*
X106550000Y-44314285D01*
X106597619Y-44266666D01*
X107502380Y-43314285D02*
X107502380Y-43885714D01*
X107502380Y-43600000D02*
X106502380Y-43600000D01*
X106645238Y-43695238D01*
X106740476Y-43790476D01*
X106788095Y-43885714D01*
X106835714Y-42457142D02*
X107502380Y-42457142D01*
X106454761Y-42695238D02*
X107169047Y-42933333D01*
X107169047Y-42314285D01*
X110089285Y-46385714D02*
X110696428Y-46385714D01*
X110767857Y-46350000D01*
X110803571Y-46314285D01*
X110839285Y-46242857D01*
X110839285Y-46100000D01*
X110803571Y-46028571D01*
X110767857Y-45992857D01*
X110696428Y-45957142D01*
X110089285Y-45957142D01*
X110160714Y-45635714D02*
X110125000Y-45600000D01*
X110089285Y-45528571D01*
X110089285Y-45350000D01*
X110125000Y-45278571D01*
X110160714Y-45242857D01*
X110232142Y-45207142D01*
X110303571Y-45207142D01*
X110410714Y-45242857D01*
X110839285Y-45671428D01*
X110839285Y-45207142D01*
X110089285Y-44742857D02*
X110089285Y-44671428D01*
X110125000Y-44600000D01*
X110160714Y-44564285D01*
X110232142Y-44528571D01*
X110375000Y-44492857D01*
X110553571Y-44492857D01*
X110696428Y-44528571D01*
X110767857Y-44564285D01*
X110803571Y-44600000D01*
X110839285Y-44671428D01*
X110839285Y-44742857D01*
X110803571Y-44814285D01*
X110767857Y-44850000D01*
X110696428Y-44885714D01*
X110553571Y-44921428D01*
X110375000Y-44921428D01*
X110232142Y-44885714D01*
X110160714Y-44850000D01*
X110125000Y-44814285D01*
X110089285Y-44742857D01*
X110839285Y-43778571D02*
X110839285Y-44207142D01*
X110839285Y-43992857D02*
X110089285Y-43992857D01*
X110196428Y-44064285D01*
X110267857Y-44135714D01*
X110303571Y-44207142D01*
%TO.C,U102*%
X127502380Y-66385714D02*
X127502380Y-65719047D01*
X128502380Y-66147619D01*
X127835714Y-64909523D02*
X128502380Y-64909523D01*
X127454761Y-65147619D02*
X128169047Y-65385714D01*
X128169047Y-64766666D01*
X128502380Y-64385714D02*
X127502380Y-64385714D01*
X127978571Y-64385714D02*
X127978571Y-63814285D01*
X128502380Y-63814285D02*
X127502380Y-63814285D01*
X128407142Y-62766666D02*
X128454761Y-62814285D01*
X128502380Y-62957142D01*
X128502380Y-63052380D01*
X128454761Y-63195238D01*
X128359523Y-63290476D01*
X128264285Y-63338095D01*
X128073809Y-63385714D01*
X127930952Y-63385714D01*
X127740476Y-63338095D01*
X127645238Y-63290476D01*
X127550000Y-63195238D01*
X127502380Y-63052380D01*
X127502380Y-62957142D01*
X127550000Y-62814285D01*
X127597619Y-62766666D01*
X128502380Y-61814285D02*
X128502380Y-62385714D01*
X128502380Y-62100000D02*
X127502380Y-62100000D01*
X127645238Y-62195238D01*
X127740476Y-62290476D01*
X127788095Y-62385714D01*
X127835714Y-60957142D02*
X128502380Y-60957142D01*
X127454761Y-61195238D02*
X128169047Y-61433333D01*
X128169047Y-60814285D01*
X131089285Y-64885714D02*
X131696428Y-64885714D01*
X131767857Y-64850000D01*
X131803571Y-64814285D01*
X131839285Y-64742857D01*
X131839285Y-64600000D01*
X131803571Y-64528571D01*
X131767857Y-64492857D01*
X131696428Y-64457142D01*
X131089285Y-64457142D01*
X131839285Y-63707142D02*
X131839285Y-64135714D01*
X131839285Y-63921428D02*
X131089285Y-63921428D01*
X131196428Y-63992857D01*
X131267857Y-64064285D01*
X131303571Y-64135714D01*
X131089285Y-63242857D02*
X131089285Y-63171428D01*
X131125000Y-63100000D01*
X131160714Y-63064285D01*
X131232142Y-63028571D01*
X131375000Y-62992857D01*
X131553571Y-62992857D01*
X131696428Y-63028571D01*
X131767857Y-63064285D01*
X131803571Y-63100000D01*
X131839285Y-63171428D01*
X131839285Y-63242857D01*
X131803571Y-63314285D01*
X131767857Y-63350000D01*
X131696428Y-63385714D01*
X131553571Y-63421428D01*
X131375000Y-63421428D01*
X131232142Y-63385714D01*
X131160714Y-63350000D01*
X131125000Y-63314285D01*
X131089285Y-63242857D01*
X131160714Y-62707142D02*
X131125000Y-62671428D01*
X131089285Y-62600000D01*
X131089285Y-62421428D01*
X131125000Y-62350000D01*
X131160714Y-62314285D01*
X131232142Y-62278571D01*
X131303571Y-62278571D01*
X131410714Y-62314285D01*
X131839285Y-62742857D01*
X131839285Y-62278571D01*
%TO.C,H1*%
X87714285Y-35152380D02*
X87714285Y-34152380D01*
X88047619Y-34866666D01*
X88380952Y-34152380D01*
X88380952Y-35152380D01*
X89000000Y-35152380D02*
X88904761Y-35104761D01*
X88857142Y-35057142D01*
X88809523Y-34961904D01*
X88809523Y-34676190D01*
X88857142Y-34580952D01*
X88904761Y-34533333D01*
X89000000Y-34485714D01*
X89142857Y-34485714D01*
X89238095Y-34533333D01*
X89285714Y-34580952D01*
X89333333Y-34676190D01*
X89333333Y-34961904D01*
X89285714Y-35057142D01*
X89238095Y-35104761D01*
X89142857Y-35152380D01*
X89000000Y-35152380D01*
X90190476Y-34485714D02*
X90190476Y-35152380D01*
X89761904Y-34485714D02*
X89761904Y-35009523D01*
X89809523Y-35104761D01*
X89904761Y-35152380D01*
X90047619Y-35152380D01*
X90142857Y-35104761D01*
X90190476Y-35057142D01*
X90666666Y-34485714D02*
X90666666Y-35152380D01*
X90666666Y-34580952D02*
X90714285Y-34533333D01*
X90809523Y-34485714D01*
X90952380Y-34485714D01*
X91047619Y-34533333D01*
X91095238Y-34628571D01*
X91095238Y-35152380D01*
X91428571Y-34485714D02*
X91809523Y-34485714D01*
X91571428Y-34152380D02*
X91571428Y-35009523D01*
X91619047Y-35104761D01*
X91714285Y-35152380D01*
X91809523Y-35152380D01*
X92142857Y-35152380D02*
X92142857Y-34485714D01*
X92142857Y-34152380D02*
X92095238Y-34200000D01*
X92142857Y-34247619D01*
X92190476Y-34200000D01*
X92142857Y-34152380D01*
X92142857Y-34247619D01*
X92619047Y-34485714D02*
X92619047Y-35152380D01*
X92619047Y-34580952D02*
X92666666Y-34533333D01*
X92761904Y-34485714D01*
X92904761Y-34485714D01*
X93000000Y-34533333D01*
X93047619Y-34628571D01*
X93047619Y-35152380D01*
X93952380Y-34485714D02*
X93952380Y-35295238D01*
X93904761Y-35390476D01*
X93857142Y-35438095D01*
X93761904Y-35485714D01*
X93619047Y-35485714D01*
X93523809Y-35438095D01*
X93952380Y-35104761D02*
X93857142Y-35152380D01*
X93666666Y-35152380D01*
X93571428Y-35104761D01*
X93523809Y-35057142D01*
X93476190Y-34961904D01*
X93476190Y-34676190D01*
X93523809Y-34580952D01*
X93571428Y-34533333D01*
X93666666Y-34485714D01*
X93857142Y-34485714D01*
X93952380Y-34533333D01*
X94428571Y-35152380D02*
X94428571Y-34152380D01*
X94428571Y-34628571D02*
X95000000Y-34628571D01*
X95000000Y-35152380D02*
X95000000Y-34152380D01*
X95619047Y-35152380D02*
X95523809Y-35104761D01*
X95476190Y-35057142D01*
X95428571Y-34961904D01*
X95428571Y-34676190D01*
X95476190Y-34580952D01*
X95523809Y-34533333D01*
X95619047Y-34485714D01*
X95761904Y-34485714D01*
X95857142Y-34533333D01*
X95904761Y-34580952D01*
X95952380Y-34676190D01*
X95952380Y-34961904D01*
X95904761Y-35057142D01*
X95857142Y-35104761D01*
X95761904Y-35152380D01*
X95619047Y-35152380D01*
X96523809Y-35152380D02*
X96428571Y-35104761D01*
X96380952Y-35009523D01*
X96380952Y-34152380D01*
X97285714Y-35104761D02*
X97190476Y-35152380D01*
X97000000Y-35152380D01*
X96904761Y-35104761D01*
X96857142Y-35009523D01*
X96857142Y-34628571D01*
X96904761Y-34533333D01*
X97000000Y-34485714D01*
X97190476Y-34485714D01*
X97285714Y-34533333D01*
X97333333Y-34628571D01*
X97333333Y-34723809D01*
X96857142Y-34819047D01*
X92228571Y-31339285D02*
X92228571Y-30589285D01*
X92228571Y-30946428D02*
X92657142Y-30946428D01*
X92657142Y-31339285D02*
X92657142Y-30589285D01*
X93407142Y-31339285D02*
X92978571Y-31339285D01*
X93192857Y-31339285D02*
X93192857Y-30589285D01*
X93121428Y-30696428D01*
X93050000Y-30767857D01*
X92978571Y-30803571D01*
%TO.C,H2*%
X87714285Y-83152380D02*
X87714285Y-82152380D01*
X88047619Y-82866666D01*
X88380952Y-82152380D01*
X88380952Y-83152380D01*
X89000000Y-83152380D02*
X88904761Y-83104761D01*
X88857142Y-83057142D01*
X88809523Y-82961904D01*
X88809523Y-82676190D01*
X88857142Y-82580952D01*
X88904761Y-82533333D01*
X89000000Y-82485714D01*
X89142857Y-82485714D01*
X89238095Y-82533333D01*
X89285714Y-82580952D01*
X89333333Y-82676190D01*
X89333333Y-82961904D01*
X89285714Y-83057142D01*
X89238095Y-83104761D01*
X89142857Y-83152380D01*
X89000000Y-83152380D01*
X90190476Y-82485714D02*
X90190476Y-83152380D01*
X89761904Y-82485714D02*
X89761904Y-83009523D01*
X89809523Y-83104761D01*
X89904761Y-83152380D01*
X90047619Y-83152380D01*
X90142857Y-83104761D01*
X90190476Y-83057142D01*
X90666666Y-82485714D02*
X90666666Y-83152380D01*
X90666666Y-82580952D02*
X90714285Y-82533333D01*
X90809523Y-82485714D01*
X90952380Y-82485714D01*
X91047619Y-82533333D01*
X91095238Y-82628571D01*
X91095238Y-83152380D01*
X91428571Y-82485714D02*
X91809523Y-82485714D01*
X91571428Y-82152380D02*
X91571428Y-83009523D01*
X91619047Y-83104761D01*
X91714285Y-83152380D01*
X91809523Y-83152380D01*
X92142857Y-83152380D02*
X92142857Y-82485714D01*
X92142857Y-82152380D02*
X92095238Y-82200000D01*
X92142857Y-82247619D01*
X92190476Y-82200000D01*
X92142857Y-82152380D01*
X92142857Y-82247619D01*
X92619047Y-82485714D02*
X92619047Y-83152380D01*
X92619047Y-82580952D02*
X92666666Y-82533333D01*
X92761904Y-82485714D01*
X92904761Y-82485714D01*
X93000000Y-82533333D01*
X93047619Y-82628571D01*
X93047619Y-83152380D01*
X93952380Y-82485714D02*
X93952380Y-83295238D01*
X93904761Y-83390476D01*
X93857142Y-83438095D01*
X93761904Y-83485714D01*
X93619047Y-83485714D01*
X93523809Y-83438095D01*
X93952380Y-83104761D02*
X93857142Y-83152380D01*
X93666666Y-83152380D01*
X93571428Y-83104761D01*
X93523809Y-83057142D01*
X93476190Y-82961904D01*
X93476190Y-82676190D01*
X93523809Y-82580952D01*
X93571428Y-82533333D01*
X93666666Y-82485714D01*
X93857142Y-82485714D01*
X93952380Y-82533333D01*
X94428571Y-83152380D02*
X94428571Y-82152380D01*
X94428571Y-82628571D02*
X95000000Y-82628571D01*
X95000000Y-83152380D02*
X95000000Y-82152380D01*
X95619047Y-83152380D02*
X95523809Y-83104761D01*
X95476190Y-83057142D01*
X95428571Y-82961904D01*
X95428571Y-82676190D01*
X95476190Y-82580952D01*
X95523809Y-82533333D01*
X95619047Y-82485714D01*
X95761904Y-82485714D01*
X95857142Y-82533333D01*
X95904761Y-82580952D01*
X95952380Y-82676190D01*
X95952380Y-82961904D01*
X95904761Y-83057142D01*
X95857142Y-83104761D01*
X95761904Y-83152380D01*
X95619047Y-83152380D01*
X96523809Y-83152380D02*
X96428571Y-83104761D01*
X96380952Y-83009523D01*
X96380952Y-82152380D01*
X97285714Y-83104761D02*
X97190476Y-83152380D01*
X97000000Y-83152380D01*
X96904761Y-83104761D01*
X96857142Y-83009523D01*
X96857142Y-82628571D01*
X96904761Y-82533333D01*
X97000000Y-82485714D01*
X97190476Y-82485714D01*
X97285714Y-82533333D01*
X97333333Y-82628571D01*
X97333333Y-82723809D01*
X96857142Y-82819047D01*
X92228571Y-79339285D02*
X92228571Y-78589285D01*
X92228571Y-78946428D02*
X92657142Y-78946428D01*
X92657142Y-79339285D02*
X92657142Y-78589285D01*
X92978571Y-78660714D02*
X93014285Y-78625000D01*
X93085714Y-78589285D01*
X93264285Y-78589285D01*
X93335714Y-78625000D01*
X93371428Y-78660714D01*
X93407142Y-78732142D01*
X93407142Y-78803571D01*
X93371428Y-78910714D01*
X92942857Y-79339285D01*
X93407142Y-79339285D01*
%TO.C,H3*%
X170214285Y-35152380D02*
X170214285Y-34152380D01*
X170547619Y-34866666D01*
X170880952Y-34152380D01*
X170880952Y-35152380D01*
X171500000Y-35152380D02*
X171404761Y-35104761D01*
X171357142Y-35057142D01*
X171309523Y-34961904D01*
X171309523Y-34676190D01*
X171357142Y-34580952D01*
X171404761Y-34533333D01*
X171500000Y-34485714D01*
X171642857Y-34485714D01*
X171738095Y-34533333D01*
X171785714Y-34580952D01*
X171833333Y-34676190D01*
X171833333Y-34961904D01*
X171785714Y-35057142D01*
X171738095Y-35104761D01*
X171642857Y-35152380D01*
X171500000Y-35152380D01*
X172690476Y-34485714D02*
X172690476Y-35152380D01*
X172261904Y-34485714D02*
X172261904Y-35009523D01*
X172309523Y-35104761D01*
X172404761Y-35152380D01*
X172547619Y-35152380D01*
X172642857Y-35104761D01*
X172690476Y-35057142D01*
X173166666Y-34485714D02*
X173166666Y-35152380D01*
X173166666Y-34580952D02*
X173214285Y-34533333D01*
X173309523Y-34485714D01*
X173452380Y-34485714D01*
X173547619Y-34533333D01*
X173595238Y-34628571D01*
X173595238Y-35152380D01*
X173928571Y-34485714D02*
X174309523Y-34485714D01*
X174071428Y-34152380D02*
X174071428Y-35009523D01*
X174119047Y-35104761D01*
X174214285Y-35152380D01*
X174309523Y-35152380D01*
X174642857Y-35152380D02*
X174642857Y-34485714D01*
X174642857Y-34152380D02*
X174595238Y-34200000D01*
X174642857Y-34247619D01*
X174690476Y-34200000D01*
X174642857Y-34152380D01*
X174642857Y-34247619D01*
X175119047Y-34485714D02*
X175119047Y-35152380D01*
X175119047Y-34580952D02*
X175166666Y-34533333D01*
X175261904Y-34485714D01*
X175404761Y-34485714D01*
X175500000Y-34533333D01*
X175547619Y-34628571D01*
X175547619Y-35152380D01*
X176452380Y-34485714D02*
X176452380Y-35295238D01*
X176404761Y-35390476D01*
X176357142Y-35438095D01*
X176261904Y-35485714D01*
X176119047Y-35485714D01*
X176023809Y-35438095D01*
X176452380Y-35104761D02*
X176357142Y-35152380D01*
X176166666Y-35152380D01*
X176071428Y-35104761D01*
X176023809Y-35057142D01*
X175976190Y-34961904D01*
X175976190Y-34676190D01*
X176023809Y-34580952D01*
X176071428Y-34533333D01*
X176166666Y-34485714D01*
X176357142Y-34485714D01*
X176452380Y-34533333D01*
X176928571Y-35152380D02*
X176928571Y-34152380D01*
X176928571Y-34628571D02*
X177500000Y-34628571D01*
X177500000Y-35152380D02*
X177500000Y-34152380D01*
X178119047Y-35152380D02*
X178023809Y-35104761D01*
X177976190Y-35057142D01*
X177928571Y-34961904D01*
X177928571Y-34676190D01*
X177976190Y-34580952D01*
X178023809Y-34533333D01*
X178119047Y-34485714D01*
X178261904Y-34485714D01*
X178357142Y-34533333D01*
X178404761Y-34580952D01*
X178452380Y-34676190D01*
X178452380Y-34961904D01*
X178404761Y-35057142D01*
X178357142Y-35104761D01*
X178261904Y-35152380D01*
X178119047Y-35152380D01*
X179023809Y-35152380D02*
X178928571Y-35104761D01*
X178880952Y-35009523D01*
X178880952Y-34152380D01*
X179785714Y-35104761D02*
X179690476Y-35152380D01*
X179500000Y-35152380D01*
X179404761Y-35104761D01*
X179357142Y-35009523D01*
X179357142Y-34628571D01*
X179404761Y-34533333D01*
X179500000Y-34485714D01*
X179690476Y-34485714D01*
X179785714Y-34533333D01*
X179833333Y-34628571D01*
X179833333Y-34723809D01*
X179357142Y-34819047D01*
X174728571Y-31339285D02*
X174728571Y-30589285D01*
X174728571Y-30946428D02*
X175157142Y-30946428D01*
X175157142Y-31339285D02*
X175157142Y-30589285D01*
X175442857Y-30589285D02*
X175907142Y-30589285D01*
X175657142Y-30875000D01*
X175764285Y-30875000D01*
X175835714Y-30910714D01*
X175871428Y-30946428D01*
X175907142Y-31017857D01*
X175907142Y-31196428D01*
X175871428Y-31267857D01*
X175835714Y-31303571D01*
X175764285Y-31339285D01*
X175550000Y-31339285D01*
X175478571Y-31303571D01*
X175442857Y-31267857D01*
%TO.C,H4*%
X170214285Y-83152380D02*
X170214285Y-82152380D01*
X170547619Y-82866666D01*
X170880952Y-82152380D01*
X170880952Y-83152380D01*
X171500000Y-83152380D02*
X171404761Y-83104761D01*
X171357142Y-83057142D01*
X171309523Y-82961904D01*
X171309523Y-82676190D01*
X171357142Y-82580952D01*
X171404761Y-82533333D01*
X171500000Y-82485714D01*
X171642857Y-82485714D01*
X171738095Y-82533333D01*
X171785714Y-82580952D01*
X171833333Y-82676190D01*
X171833333Y-82961904D01*
X171785714Y-83057142D01*
X171738095Y-83104761D01*
X171642857Y-83152380D01*
X171500000Y-83152380D01*
X172690476Y-82485714D02*
X172690476Y-83152380D01*
X172261904Y-82485714D02*
X172261904Y-83009523D01*
X172309523Y-83104761D01*
X172404761Y-83152380D01*
X172547619Y-83152380D01*
X172642857Y-83104761D01*
X172690476Y-83057142D01*
X173166666Y-82485714D02*
X173166666Y-83152380D01*
X173166666Y-82580952D02*
X173214285Y-82533333D01*
X173309523Y-82485714D01*
X173452380Y-82485714D01*
X173547619Y-82533333D01*
X173595238Y-82628571D01*
X173595238Y-83152380D01*
X173928571Y-82485714D02*
X174309523Y-82485714D01*
X174071428Y-82152380D02*
X174071428Y-83009523D01*
X174119047Y-83104761D01*
X174214285Y-83152380D01*
X174309523Y-83152380D01*
X174642857Y-83152380D02*
X174642857Y-82485714D01*
X174642857Y-82152380D02*
X174595238Y-82200000D01*
X174642857Y-82247619D01*
X174690476Y-82200000D01*
X174642857Y-82152380D01*
X174642857Y-82247619D01*
X175119047Y-82485714D02*
X175119047Y-83152380D01*
X175119047Y-82580952D02*
X175166666Y-82533333D01*
X175261904Y-82485714D01*
X175404761Y-82485714D01*
X175500000Y-82533333D01*
X175547619Y-82628571D01*
X175547619Y-83152380D01*
X176452380Y-82485714D02*
X176452380Y-83295238D01*
X176404761Y-83390476D01*
X176357142Y-83438095D01*
X176261904Y-83485714D01*
X176119047Y-83485714D01*
X176023809Y-83438095D01*
X176452380Y-83104761D02*
X176357142Y-83152380D01*
X176166666Y-83152380D01*
X176071428Y-83104761D01*
X176023809Y-83057142D01*
X175976190Y-82961904D01*
X175976190Y-82676190D01*
X176023809Y-82580952D01*
X176071428Y-82533333D01*
X176166666Y-82485714D01*
X176357142Y-82485714D01*
X176452380Y-82533333D01*
X176928571Y-83152380D02*
X176928571Y-82152380D01*
X176928571Y-82628571D02*
X177500000Y-82628571D01*
X177500000Y-83152380D02*
X177500000Y-82152380D01*
X178119047Y-83152380D02*
X178023809Y-83104761D01*
X177976190Y-83057142D01*
X177928571Y-82961904D01*
X177928571Y-82676190D01*
X177976190Y-82580952D01*
X178023809Y-82533333D01*
X178119047Y-82485714D01*
X178261904Y-82485714D01*
X178357142Y-82533333D01*
X178404761Y-82580952D01*
X178452380Y-82676190D01*
X178452380Y-82961904D01*
X178404761Y-83057142D01*
X178357142Y-83104761D01*
X178261904Y-83152380D01*
X178119047Y-83152380D01*
X179023809Y-83152380D02*
X178928571Y-83104761D01*
X178880952Y-83009523D01*
X178880952Y-82152380D01*
X179785714Y-83104761D02*
X179690476Y-83152380D01*
X179500000Y-83152380D01*
X179404761Y-83104761D01*
X179357142Y-83009523D01*
X179357142Y-82628571D01*
X179404761Y-82533333D01*
X179500000Y-82485714D01*
X179690476Y-82485714D01*
X179785714Y-82533333D01*
X179833333Y-82628571D01*
X179833333Y-82723809D01*
X179357142Y-82819047D01*
X174728571Y-79339285D02*
X174728571Y-78589285D01*
X174728571Y-78946428D02*
X175157142Y-78946428D01*
X175157142Y-79339285D02*
X175157142Y-78589285D01*
X175835714Y-78839285D02*
X175835714Y-79339285D01*
X175657142Y-78553571D02*
X175478571Y-79089285D01*
X175942857Y-79089285D01*
%TO.C,H5*%
X125714285Y-57752380D02*
X125714285Y-56752380D01*
X126047619Y-57466666D01*
X126380952Y-56752380D01*
X126380952Y-57752380D01*
X127000000Y-57752380D02*
X126904761Y-57704761D01*
X126857142Y-57657142D01*
X126809523Y-57561904D01*
X126809523Y-57276190D01*
X126857142Y-57180952D01*
X126904761Y-57133333D01*
X127000000Y-57085714D01*
X127142857Y-57085714D01*
X127238095Y-57133333D01*
X127285714Y-57180952D01*
X127333333Y-57276190D01*
X127333333Y-57561904D01*
X127285714Y-57657142D01*
X127238095Y-57704761D01*
X127142857Y-57752380D01*
X127000000Y-57752380D01*
X128190476Y-57085714D02*
X128190476Y-57752380D01*
X127761904Y-57085714D02*
X127761904Y-57609523D01*
X127809523Y-57704761D01*
X127904761Y-57752380D01*
X128047619Y-57752380D01*
X128142857Y-57704761D01*
X128190476Y-57657142D01*
X128666666Y-57085714D02*
X128666666Y-57752380D01*
X128666666Y-57180952D02*
X128714285Y-57133333D01*
X128809523Y-57085714D01*
X128952380Y-57085714D01*
X129047619Y-57133333D01*
X129095238Y-57228571D01*
X129095238Y-57752380D01*
X129428571Y-57085714D02*
X129809523Y-57085714D01*
X129571428Y-56752380D02*
X129571428Y-57609523D01*
X129619047Y-57704761D01*
X129714285Y-57752380D01*
X129809523Y-57752380D01*
X130142857Y-57752380D02*
X130142857Y-57085714D01*
X130142857Y-56752380D02*
X130095238Y-56800000D01*
X130142857Y-56847619D01*
X130190476Y-56800000D01*
X130142857Y-56752380D01*
X130142857Y-56847619D01*
X130619047Y-57085714D02*
X130619047Y-57752380D01*
X130619047Y-57180952D02*
X130666666Y-57133333D01*
X130761904Y-57085714D01*
X130904761Y-57085714D01*
X131000000Y-57133333D01*
X131047619Y-57228571D01*
X131047619Y-57752380D01*
X131952380Y-57085714D02*
X131952380Y-57895238D01*
X131904761Y-57990476D01*
X131857142Y-58038095D01*
X131761904Y-58085714D01*
X131619047Y-58085714D01*
X131523809Y-58038095D01*
X131952380Y-57704761D02*
X131857142Y-57752380D01*
X131666666Y-57752380D01*
X131571428Y-57704761D01*
X131523809Y-57657142D01*
X131476190Y-57561904D01*
X131476190Y-57276190D01*
X131523809Y-57180952D01*
X131571428Y-57133333D01*
X131666666Y-57085714D01*
X131857142Y-57085714D01*
X131952380Y-57133333D01*
X132428571Y-57752380D02*
X132428571Y-56752380D01*
X132428571Y-57228571D02*
X133000000Y-57228571D01*
X133000000Y-57752380D02*
X133000000Y-56752380D01*
X133619047Y-57752380D02*
X133523809Y-57704761D01*
X133476190Y-57657142D01*
X133428571Y-57561904D01*
X133428571Y-57276190D01*
X133476190Y-57180952D01*
X133523809Y-57133333D01*
X133619047Y-57085714D01*
X133761904Y-57085714D01*
X133857142Y-57133333D01*
X133904761Y-57180952D01*
X133952380Y-57276190D01*
X133952380Y-57561904D01*
X133904761Y-57657142D01*
X133857142Y-57704761D01*
X133761904Y-57752380D01*
X133619047Y-57752380D01*
X134523809Y-57752380D02*
X134428571Y-57704761D01*
X134380952Y-57609523D01*
X134380952Y-56752380D01*
X135285714Y-57704761D02*
X135190476Y-57752380D01*
X135000000Y-57752380D01*
X134904761Y-57704761D01*
X134857142Y-57609523D01*
X134857142Y-57228571D01*
X134904761Y-57133333D01*
X135000000Y-57085714D01*
X135190476Y-57085714D01*
X135285714Y-57133333D01*
X135333333Y-57228571D01*
X135333333Y-57323809D01*
X134857142Y-57419047D01*
X130038095Y-54052380D02*
X130038095Y-53052380D01*
X130038095Y-53528571D02*
X130609523Y-53528571D01*
X130609523Y-54052380D02*
X130609523Y-53052380D01*
X131561904Y-53052380D02*
X131085714Y-53052380D01*
X131038095Y-53528571D01*
X131085714Y-53480952D01*
X131180952Y-53433333D01*
X131419047Y-53433333D01*
X131514285Y-53480952D01*
X131561904Y-53528571D01*
X131609523Y-53623809D01*
X131609523Y-53861904D01*
X131561904Y-53957142D01*
X131514285Y-54004761D01*
X131419047Y-54052380D01*
X131180952Y-54052380D01*
X131085714Y-54004761D01*
X131038095Y-53957142D01*
%TO.C,SW301*%
X181454761Y-47798952D02*
X181502380Y-47656095D01*
X181502380Y-47418000D01*
X181454761Y-47322761D01*
X181407142Y-47275142D01*
X181311904Y-47227523D01*
X181216666Y-47227523D01*
X181121428Y-47275142D01*
X181073809Y-47322761D01*
X181026190Y-47418000D01*
X180978571Y-47608476D01*
X180930952Y-47703714D01*
X180883333Y-47751333D01*
X180788095Y-47798952D01*
X180692857Y-47798952D01*
X180597619Y-47751333D01*
X180550000Y-47703714D01*
X180502380Y-47608476D01*
X180502380Y-47370380D01*
X180550000Y-47227523D01*
X180502380Y-46894190D02*
X181502380Y-46656095D01*
X180788095Y-46465619D01*
X181502380Y-46275142D01*
X180502380Y-46037047D01*
X181597619Y-45894190D02*
X181597619Y-45132285D01*
X180978571Y-44560857D02*
X180978571Y-44894190D01*
X181502380Y-44894190D02*
X180502380Y-44894190D01*
X180502380Y-44418000D01*
X181502380Y-43894190D02*
X181454761Y-43989428D01*
X181407142Y-44037047D01*
X181311904Y-44084666D01*
X181026190Y-44084666D01*
X180930952Y-44037047D01*
X180883333Y-43989428D01*
X180835714Y-43894190D01*
X180835714Y-43751333D01*
X180883333Y-43656095D01*
X180930952Y-43608476D01*
X181026190Y-43560857D01*
X181311904Y-43560857D01*
X181407142Y-43608476D01*
X181454761Y-43656095D01*
X181502380Y-43751333D01*
X181502380Y-43894190D01*
X181502380Y-43132285D02*
X180835714Y-43132285D01*
X181026190Y-43132285D02*
X180930952Y-43084666D01*
X180883333Y-43037047D01*
X180835714Y-42941809D01*
X180835714Y-42846571D01*
X181454761Y-42084666D02*
X181502380Y-42179904D01*
X181502380Y-42370380D01*
X181454761Y-42465619D01*
X181407142Y-42513238D01*
X181311904Y-42560857D01*
X181026190Y-42560857D01*
X180930952Y-42513238D01*
X180883333Y-42465619D01*
X180835714Y-42370380D01*
X180835714Y-42179904D01*
X180883333Y-42084666D01*
X181454761Y-41275142D02*
X181502380Y-41370380D01*
X181502380Y-41560857D01*
X181454761Y-41656095D01*
X181359523Y-41703714D01*
X180978571Y-41703714D01*
X180883333Y-41656095D01*
X180835714Y-41560857D01*
X180835714Y-41370380D01*
X180883333Y-41275142D01*
X180978571Y-41227523D01*
X181073809Y-41227523D01*
X181169047Y-41703714D01*
X181454761Y-40846571D02*
X181502380Y-40703714D01*
X181502380Y-40465619D01*
X181454761Y-40370380D01*
X181407142Y-40322761D01*
X181311904Y-40275142D01*
X181216666Y-40275142D01*
X181121428Y-40322761D01*
X181073809Y-40370380D01*
X181026190Y-40465619D01*
X180978571Y-40656095D01*
X180930952Y-40751333D01*
X180883333Y-40798952D01*
X180788095Y-40846571D01*
X180692857Y-40846571D01*
X180597619Y-40798952D01*
X180550000Y-40751333D01*
X180502380Y-40656095D01*
X180502380Y-40418000D01*
X180550000Y-40275142D01*
X181454761Y-39465619D02*
X181502380Y-39560857D01*
X181502380Y-39751333D01*
X181454761Y-39846571D01*
X181359523Y-39894190D01*
X180978571Y-39894190D01*
X180883333Y-39846571D01*
X180835714Y-39751333D01*
X180835714Y-39560857D01*
X180883333Y-39465619D01*
X180978571Y-39418000D01*
X181073809Y-39418000D01*
X181169047Y-39894190D01*
X180835714Y-39132285D02*
X180835714Y-38751333D01*
X180502380Y-38989428D02*
X181359523Y-38989428D01*
X181454761Y-38941809D01*
X181502380Y-38846571D01*
X181502380Y-38751333D01*
X180835714Y-37989428D02*
X181502380Y-37989428D01*
X180835714Y-38418000D02*
X181359523Y-38418000D01*
X181454761Y-38370380D01*
X181502380Y-38275142D01*
X181502380Y-38132285D01*
X181454761Y-38037047D01*
X181407142Y-37989428D01*
X180835714Y-37513238D02*
X181835714Y-37513238D01*
X180883333Y-37513238D02*
X180835714Y-37418000D01*
X180835714Y-37227523D01*
X180883333Y-37132285D01*
X180930952Y-37084666D01*
X181026190Y-37037047D01*
X181311904Y-37037047D01*
X181407142Y-37084666D01*
X181454761Y-37132285D01*
X181502380Y-37227523D01*
X181502380Y-37418000D01*
X181454761Y-37513238D01*
X175704761Y-44703714D02*
X175752380Y-44560857D01*
X175752380Y-44322761D01*
X175704761Y-44227523D01*
X175657142Y-44179904D01*
X175561904Y-44132285D01*
X175466666Y-44132285D01*
X175371428Y-44179904D01*
X175323809Y-44227523D01*
X175276190Y-44322761D01*
X175228571Y-44513238D01*
X175180952Y-44608476D01*
X175133333Y-44656095D01*
X175038095Y-44703714D01*
X174942857Y-44703714D01*
X174847619Y-44656095D01*
X174800000Y-44608476D01*
X174752380Y-44513238D01*
X174752380Y-44275142D01*
X174800000Y-44132285D01*
X174752380Y-43798952D02*
X175752380Y-43560857D01*
X175038095Y-43370380D01*
X175752380Y-43179904D01*
X174752380Y-42941809D01*
X174752380Y-42656095D02*
X174752380Y-42037047D01*
X175133333Y-42370380D01*
X175133333Y-42227523D01*
X175180952Y-42132285D01*
X175228571Y-42084666D01*
X175323809Y-42037047D01*
X175561904Y-42037047D01*
X175657142Y-42084666D01*
X175704761Y-42132285D01*
X175752380Y-42227523D01*
X175752380Y-42513238D01*
X175704761Y-42608476D01*
X175657142Y-42656095D01*
X174752380Y-41418000D02*
X174752380Y-41322761D01*
X174800000Y-41227523D01*
X174847619Y-41179904D01*
X174942857Y-41132285D01*
X175133333Y-41084666D01*
X175371428Y-41084666D01*
X175561904Y-41132285D01*
X175657142Y-41179904D01*
X175704761Y-41227523D01*
X175752380Y-41322761D01*
X175752380Y-41418000D01*
X175704761Y-41513238D01*
X175657142Y-41560857D01*
X175561904Y-41608476D01*
X175371428Y-41656095D01*
X175133333Y-41656095D01*
X174942857Y-41608476D01*
X174847619Y-41560857D01*
X174800000Y-41513238D01*
X174752380Y-41418000D01*
X175752380Y-40132285D02*
X175752380Y-40703714D01*
X175752380Y-40418000D02*
X174752380Y-40418000D01*
X174895238Y-40513238D01*
X174990476Y-40608476D01*
X175038095Y-40703714D01*
%TO.C,SW302*%
X181454761Y-58149714D02*
X181502380Y-58006857D01*
X181502380Y-57768761D01*
X181454761Y-57673523D01*
X181407142Y-57625904D01*
X181311904Y-57578285D01*
X181216666Y-57578285D01*
X181121428Y-57625904D01*
X181073809Y-57673523D01*
X181026190Y-57768761D01*
X180978571Y-57959238D01*
X180930952Y-58054476D01*
X180883333Y-58102095D01*
X180788095Y-58149714D01*
X180692857Y-58149714D01*
X180597619Y-58102095D01*
X180550000Y-58054476D01*
X180502380Y-57959238D01*
X180502380Y-57721142D01*
X180550000Y-57578285D01*
X180502380Y-57244952D02*
X181502380Y-57006857D01*
X180788095Y-56816380D01*
X181502380Y-56625904D01*
X180502380Y-56387809D01*
X181597619Y-56244952D02*
X181597619Y-55483047D01*
X181502380Y-54673523D02*
X181026190Y-55006857D01*
X181502380Y-55244952D02*
X180502380Y-55244952D01*
X180502380Y-54864000D01*
X180550000Y-54768761D01*
X180597619Y-54721142D01*
X180692857Y-54673523D01*
X180835714Y-54673523D01*
X180930952Y-54721142D01*
X180978571Y-54768761D01*
X181026190Y-54864000D01*
X181026190Y-55244952D01*
X181454761Y-53864000D02*
X181502380Y-53959238D01*
X181502380Y-54149714D01*
X181454761Y-54244952D01*
X181359523Y-54292571D01*
X180978571Y-54292571D01*
X180883333Y-54244952D01*
X180835714Y-54149714D01*
X180835714Y-53959238D01*
X180883333Y-53864000D01*
X180978571Y-53816380D01*
X181073809Y-53816380D01*
X181169047Y-54292571D01*
X181454761Y-53435428D02*
X181502380Y-53340190D01*
X181502380Y-53149714D01*
X181454761Y-53054476D01*
X181359523Y-53006857D01*
X181311904Y-53006857D01*
X181216666Y-53054476D01*
X181169047Y-53149714D01*
X181169047Y-53292571D01*
X181121428Y-53387809D01*
X181026190Y-53435428D01*
X180978571Y-53435428D01*
X180883333Y-53387809D01*
X180835714Y-53292571D01*
X180835714Y-53149714D01*
X180883333Y-53054476D01*
X181454761Y-52197333D02*
X181502380Y-52292571D01*
X181502380Y-52483047D01*
X181454761Y-52578285D01*
X181359523Y-52625904D01*
X180978571Y-52625904D01*
X180883333Y-52578285D01*
X180835714Y-52483047D01*
X180835714Y-52292571D01*
X180883333Y-52197333D01*
X180978571Y-52149714D01*
X181073809Y-52149714D01*
X181169047Y-52625904D01*
X180835714Y-51864000D02*
X180835714Y-51483047D01*
X180502380Y-51721142D02*
X181359523Y-51721142D01*
X181454761Y-51673523D01*
X181502380Y-51578285D01*
X181502380Y-51483047D01*
X175704761Y-57149714D02*
X175752380Y-57006857D01*
X175752380Y-56768761D01*
X175704761Y-56673523D01*
X175657142Y-56625904D01*
X175561904Y-56578285D01*
X175466666Y-56578285D01*
X175371428Y-56625904D01*
X175323809Y-56673523D01*
X175276190Y-56768761D01*
X175228571Y-56959238D01*
X175180952Y-57054476D01*
X175133333Y-57102095D01*
X175038095Y-57149714D01*
X174942857Y-57149714D01*
X174847619Y-57102095D01*
X174800000Y-57054476D01*
X174752380Y-56959238D01*
X174752380Y-56721142D01*
X174800000Y-56578285D01*
X174752380Y-56244952D02*
X175752380Y-56006857D01*
X175038095Y-55816380D01*
X175752380Y-55625904D01*
X174752380Y-55387809D01*
X174752380Y-55102095D02*
X174752380Y-54483047D01*
X175133333Y-54816380D01*
X175133333Y-54673523D01*
X175180952Y-54578285D01*
X175228571Y-54530666D01*
X175323809Y-54483047D01*
X175561904Y-54483047D01*
X175657142Y-54530666D01*
X175704761Y-54578285D01*
X175752380Y-54673523D01*
X175752380Y-54959238D01*
X175704761Y-55054476D01*
X175657142Y-55102095D01*
X174752380Y-53864000D02*
X174752380Y-53768761D01*
X174800000Y-53673523D01*
X174847619Y-53625904D01*
X174942857Y-53578285D01*
X175133333Y-53530666D01*
X175371428Y-53530666D01*
X175561904Y-53578285D01*
X175657142Y-53625904D01*
X175704761Y-53673523D01*
X175752380Y-53768761D01*
X175752380Y-53864000D01*
X175704761Y-53959238D01*
X175657142Y-54006857D01*
X175561904Y-54054476D01*
X175371428Y-54102095D01*
X175133333Y-54102095D01*
X174942857Y-54054476D01*
X174847619Y-54006857D01*
X174800000Y-53959238D01*
X174752380Y-53864000D01*
X174847619Y-53149714D02*
X174800000Y-53102095D01*
X174752380Y-53006857D01*
X174752380Y-52768761D01*
X174800000Y-52673523D01*
X174847619Y-52625904D01*
X174942857Y-52578285D01*
X175038095Y-52578285D01*
X175180952Y-52625904D01*
X175752380Y-53197333D01*
X175752380Y-52578285D01*
%TO.C,SW303*%
X83602380Y-49328571D02*
X83602380Y-49138095D01*
X83650000Y-49042857D01*
X83745238Y-48947619D01*
X83935714Y-48900000D01*
X84269047Y-48900000D01*
X84459523Y-48947619D01*
X84554761Y-49042857D01*
X84602380Y-49138095D01*
X84602380Y-49328571D01*
X84554761Y-49423809D01*
X84459523Y-49519047D01*
X84269047Y-49566666D01*
X83935714Y-49566666D01*
X83745238Y-49519047D01*
X83650000Y-49423809D01*
X83602380Y-49328571D01*
X84554761Y-48519047D02*
X84602380Y-48376190D01*
X84602380Y-48138095D01*
X84554761Y-48042857D01*
X84507142Y-47995238D01*
X84411904Y-47947619D01*
X84316666Y-47947619D01*
X84221428Y-47995238D01*
X84173809Y-48042857D01*
X84126190Y-48138095D01*
X84078571Y-48328571D01*
X84030952Y-48423809D01*
X83983333Y-48471428D01*
X83888095Y-48519047D01*
X83792857Y-48519047D01*
X83697619Y-48471428D01*
X83650000Y-48423809D01*
X83602380Y-48328571D01*
X83602380Y-48090476D01*
X83650000Y-47947619D01*
X84602380Y-46995238D02*
X84602380Y-47566666D01*
X84602380Y-47280952D02*
X83602380Y-47280952D01*
X83745238Y-47376190D01*
X83840476Y-47471428D01*
X83888095Y-47566666D01*
X83602380Y-46376190D02*
X83602380Y-46280952D01*
X83650000Y-46185714D01*
X83697619Y-46138095D01*
X83792857Y-46090476D01*
X83983333Y-46042857D01*
X84221428Y-46042857D01*
X84411904Y-46090476D01*
X84507142Y-46138095D01*
X84554761Y-46185714D01*
X84602380Y-46280952D01*
X84602380Y-46376190D01*
X84554761Y-46471428D01*
X84507142Y-46519047D01*
X84411904Y-46566666D01*
X84221428Y-46614285D01*
X83983333Y-46614285D01*
X83792857Y-46566666D01*
X83697619Y-46519047D01*
X83650000Y-46471428D01*
X83602380Y-46376190D01*
X83697619Y-45661904D02*
X83650000Y-45614285D01*
X83602380Y-45519047D01*
X83602380Y-45280952D01*
X83650000Y-45185714D01*
X83697619Y-45138095D01*
X83792857Y-45090476D01*
X83888095Y-45090476D01*
X84030952Y-45138095D01*
X84602380Y-45709523D01*
X84602380Y-45090476D01*
X83602380Y-44471428D02*
X83602380Y-44376190D01*
X83650000Y-44280952D01*
X83697619Y-44233333D01*
X83792857Y-44185714D01*
X83983333Y-44138095D01*
X84221428Y-44138095D01*
X84411904Y-44185714D01*
X84507142Y-44233333D01*
X84554761Y-44280952D01*
X84602380Y-44376190D01*
X84602380Y-44471428D01*
X84554761Y-44566666D01*
X84507142Y-44614285D01*
X84411904Y-44661904D01*
X84221428Y-44709523D01*
X83983333Y-44709523D01*
X83792857Y-44661904D01*
X83697619Y-44614285D01*
X83650000Y-44566666D01*
X83602380Y-44471428D01*
X84602380Y-43185714D02*
X84602380Y-43757142D01*
X84602380Y-43471428D02*
X83602380Y-43471428D01*
X83745238Y-43566666D01*
X83840476Y-43661904D01*
X83888095Y-43757142D01*
X84602380Y-42233333D02*
X84602380Y-42804761D01*
X84602380Y-42519047D02*
X83602380Y-42519047D01*
X83745238Y-42614285D01*
X83840476Y-42709523D01*
X83888095Y-42804761D01*
X84602380Y-41804761D02*
X83602380Y-41804761D01*
X84316666Y-41471428D01*
X83602380Y-41138095D01*
X84602380Y-41138095D01*
X84316666Y-40709523D02*
X84316666Y-40233333D01*
X84602380Y-40804761D02*
X83602380Y-40471428D01*
X84602380Y-40138095D01*
X84602380Y-39280952D02*
X84602380Y-39852380D01*
X84602380Y-39566666D02*
X83602380Y-39566666D01*
X83745238Y-39661904D01*
X83840476Y-39757142D01*
X83888095Y-39852380D01*
X84697619Y-38185714D02*
X84650000Y-38280952D01*
X84554761Y-38376190D01*
X84411904Y-38519047D01*
X84364285Y-38614285D01*
X84364285Y-38709523D01*
X84602380Y-38661904D02*
X84554761Y-38757142D01*
X84459523Y-38852380D01*
X84269047Y-38900000D01*
X83935714Y-38900000D01*
X83745238Y-38852380D01*
X83650000Y-38757142D01*
X83602380Y-38661904D01*
X83602380Y-38471428D01*
X83650000Y-38376190D01*
X83745238Y-38280952D01*
X83935714Y-38233333D01*
X84269047Y-38233333D01*
X84459523Y-38280952D01*
X84554761Y-38376190D01*
X84602380Y-38471428D01*
X84602380Y-38661904D01*
X84602380Y-37804761D02*
X83602380Y-37804761D01*
X84602380Y-37233333D01*
X83602380Y-37233333D01*
X84602380Y-36233333D02*
X84602380Y-36804761D01*
X84602380Y-36519047D02*
X83602380Y-36519047D01*
X83745238Y-36614285D01*
X83840476Y-36709523D01*
X83888095Y-36804761D01*
X84507142Y-35233333D02*
X84554761Y-35280952D01*
X84602380Y-35423809D01*
X84602380Y-35519047D01*
X84554761Y-35661904D01*
X84459523Y-35757142D01*
X84364285Y-35804761D01*
X84173809Y-35852380D01*
X84030952Y-35852380D01*
X83840476Y-35804761D01*
X83745238Y-35757142D01*
X83650000Y-35661904D01*
X83602380Y-35519047D01*
X83602380Y-35423809D01*
X83650000Y-35280952D01*
X83697619Y-35233333D01*
D10*
X90352380Y-44142857D02*
X90376190Y-44071428D01*
X90376190Y-43952380D01*
X90352380Y-43904761D01*
X90328571Y-43880952D01*
X90280952Y-43857142D01*
X90233333Y-43857142D01*
X90185714Y-43880952D01*
X90161904Y-43904761D01*
X90138095Y-43952380D01*
X90114285Y-44047619D01*
X90090476Y-44095238D01*
X90066666Y-44119047D01*
X90019047Y-44142857D01*
X89971428Y-44142857D01*
X89923809Y-44119047D01*
X89900000Y-44095238D01*
X89876190Y-44047619D01*
X89876190Y-43928571D01*
X89900000Y-43857142D01*
X89876190Y-43690476D02*
X90376190Y-43571428D01*
X90019047Y-43476190D01*
X90376190Y-43380952D01*
X89876190Y-43261904D01*
X89876190Y-43119047D02*
X89876190Y-42809523D01*
X90066666Y-42976190D01*
X90066666Y-42904761D01*
X90090476Y-42857142D01*
X90114285Y-42833333D01*
X90161904Y-42809523D01*
X90280952Y-42809523D01*
X90328571Y-42833333D01*
X90352380Y-42857142D01*
X90376190Y-42904761D01*
X90376190Y-43047619D01*
X90352380Y-43095238D01*
X90328571Y-43119047D01*
X89876190Y-42500000D02*
X89876190Y-42452380D01*
X89900000Y-42404761D01*
X89923809Y-42380952D01*
X89971428Y-42357142D01*
X90066666Y-42333333D01*
X90185714Y-42333333D01*
X90280952Y-42357142D01*
X90328571Y-42380952D01*
X90352380Y-42404761D01*
X90376190Y-42452380D01*
X90376190Y-42500000D01*
X90352380Y-42547619D01*
X90328571Y-42571428D01*
X90280952Y-42595238D01*
X90185714Y-42619047D01*
X90066666Y-42619047D01*
X89971428Y-42595238D01*
X89923809Y-42571428D01*
X89900000Y-42547619D01*
X89876190Y-42500000D01*
X89876190Y-42166666D02*
X89876190Y-41857142D01*
X90066666Y-42023809D01*
X90066666Y-41952380D01*
X90090476Y-41904761D01*
X90114285Y-41880952D01*
X90161904Y-41857142D01*
X90280952Y-41857142D01*
X90328571Y-41880952D01*
X90352380Y-41904761D01*
X90376190Y-41952380D01*
X90376190Y-42095238D01*
X90352380Y-42142857D01*
X90328571Y-42166666D01*
%TO.C,U301*%
D11*
X98857142Y-77822380D02*
X98857142Y-76822380D01*
X99095238Y-76822380D01*
X99238095Y-76870000D01*
X99333333Y-76965238D01*
X99380952Y-77060476D01*
X99428571Y-77250952D01*
X99428571Y-77393809D01*
X99380952Y-77584285D01*
X99333333Y-77679523D01*
X99238095Y-77774761D01*
X99095238Y-77822380D01*
X98857142Y-77822380D01*
X100047619Y-76822380D02*
X100238095Y-76822380D01*
X100333333Y-76870000D01*
X100428571Y-76965238D01*
X100476190Y-77155714D01*
X100476190Y-77489047D01*
X100428571Y-77679523D01*
X100333333Y-77774761D01*
X100238095Y-77822380D01*
X100047619Y-77822380D01*
X99952380Y-77774761D01*
X99857142Y-77679523D01*
X99809523Y-77489047D01*
X99809523Y-77155714D01*
X99857142Y-76965238D01*
X99952380Y-76870000D01*
X100047619Y-76822380D01*
X100904761Y-77822380D02*
X100904761Y-76822380D01*
X101238095Y-76822380D02*
X101809523Y-76822380D01*
X101523809Y-77822380D02*
X101523809Y-76822380D01*
X102142857Y-77441428D02*
X102904761Y-77441428D01*
X103380952Y-77298571D02*
X103714285Y-77298571D01*
X103857142Y-77822380D02*
X103380952Y-77822380D01*
X103380952Y-76822380D01*
X103857142Y-76822380D01*
X104238095Y-77774761D02*
X104380952Y-77822380D01*
X104619047Y-77822380D01*
X104714285Y-77774761D01*
X104761904Y-77727142D01*
X104809523Y-77631904D01*
X104809523Y-77536666D01*
X104761904Y-77441428D01*
X104714285Y-77393809D01*
X104619047Y-77346190D01*
X104428571Y-77298571D01*
X104333333Y-77250952D01*
X104285714Y-77203333D01*
X104238095Y-77108095D01*
X104238095Y-77012857D01*
X104285714Y-76917619D01*
X104333333Y-76870000D01*
X104428571Y-76822380D01*
X104666666Y-76822380D01*
X104809523Y-76870000D01*
X105238095Y-77822380D02*
X105238095Y-76822380D01*
X105619047Y-76822380D01*
X105714285Y-76870000D01*
X105761904Y-76917619D01*
X105809523Y-77012857D01*
X105809523Y-77155714D01*
X105761904Y-77250952D01*
X105714285Y-77298571D01*
X105619047Y-77346190D01*
X105238095Y-77346190D01*
X106142857Y-76822380D02*
X106761904Y-76822380D01*
X106428571Y-77203333D01*
X106571428Y-77203333D01*
X106666666Y-77250952D01*
X106714285Y-77298571D01*
X106761904Y-77393809D01*
X106761904Y-77631904D01*
X106714285Y-77727142D01*
X106666666Y-77774761D01*
X106571428Y-77822380D01*
X106285714Y-77822380D01*
X106190476Y-77774761D01*
X106142857Y-77727142D01*
X107142857Y-76917619D02*
X107190476Y-76870000D01*
X107285714Y-76822380D01*
X107523809Y-76822380D01*
X107619047Y-76870000D01*
X107666666Y-76917619D01*
X107714285Y-77012857D01*
X107714285Y-77108095D01*
X107666666Y-77250952D01*
X107095238Y-77822380D01*
X107714285Y-77822380D01*
X108142857Y-77441428D02*
X108904761Y-77441428D01*
X109380952Y-77822380D02*
X109380952Y-76822380D01*
X109619047Y-76822380D01*
X109761904Y-76870000D01*
X109857142Y-76965238D01*
X109904761Y-77060476D01*
X109952380Y-77250952D01*
X109952380Y-77393809D01*
X109904761Y-77584285D01*
X109857142Y-77679523D01*
X109761904Y-77774761D01*
X109619047Y-77822380D01*
X109380952Y-77822380D01*
X110380952Y-77298571D02*
X110714285Y-77298571D01*
X110857142Y-77822380D02*
X110380952Y-77822380D01*
X110380952Y-76822380D01*
X110857142Y-76822380D01*
X111142857Y-76822380D02*
X111476190Y-77822380D01*
X111809523Y-76822380D01*
X112142857Y-77822380D02*
X112142857Y-76822380D01*
X112714285Y-77822380D02*
X112285714Y-77250952D01*
X112714285Y-76822380D02*
X112142857Y-77393809D01*
X113142857Y-77822380D02*
X113142857Y-76822380D01*
X113476190Y-76822380D02*
X114047619Y-76822380D01*
X113761904Y-77822380D02*
X113761904Y-76822380D01*
X114380952Y-77441428D02*
X115142857Y-77441428D01*
X115476190Y-76822380D02*
X115809523Y-77822380D01*
X116142857Y-76822380D01*
X117000000Y-77822380D02*
X116428571Y-77822380D01*
X116714285Y-77822380D02*
X116714285Y-76822380D01*
X116619047Y-76965238D01*
X116523809Y-77060476D01*
X116428571Y-77108095D01*
X117190476Y-77917619D02*
X117952380Y-77917619D01*
X118095238Y-76822380D02*
X118714285Y-76822380D01*
X118380952Y-77203333D01*
X118523809Y-77203333D01*
X118619047Y-77250952D01*
X118666666Y-77298571D01*
X118714285Y-77393809D01*
X118714285Y-77631904D01*
X118666666Y-77727142D01*
X118619047Y-77774761D01*
X118523809Y-77822380D01*
X118238095Y-77822380D01*
X118142857Y-77774761D01*
X118095238Y-77727142D01*
X119333333Y-76822380D02*
X119428571Y-76822380D01*
X119523809Y-76870000D01*
X119571428Y-76917619D01*
X119619047Y-77012857D01*
X119666666Y-77203333D01*
X119666666Y-77441428D01*
X119619047Y-77631904D01*
X119571428Y-77727142D01*
X119523809Y-77774761D01*
X119428571Y-77822380D01*
X119333333Y-77822380D01*
X119238095Y-77774761D01*
X119190476Y-77727142D01*
X119142857Y-77631904D01*
X119095238Y-77441428D01*
X119095238Y-77203333D01*
X119142857Y-77012857D01*
X119190476Y-76917619D01*
X119238095Y-76870000D01*
X119333333Y-76822380D01*
X120095238Y-77822380D02*
X120095238Y-76822380D01*
X120476190Y-76822380D01*
X120571428Y-76870000D01*
X120619047Y-76917619D01*
X120666666Y-77012857D01*
X120666666Y-77155714D01*
X120619047Y-77250952D01*
X120571428Y-77298571D01*
X120476190Y-77346190D01*
X120095238Y-77346190D01*
X121095238Y-77822380D02*
X121095238Y-76822380D01*
X121571428Y-77822380D02*
X121571428Y-76822380D01*
X122142857Y-77822380D01*
X122142857Y-76822380D01*
%TD*%
M02*
