%TF.GenerationSoftware,KiCad,Pcbnew,5.1.12-84ad8e8a86~92~ubuntu20.04.1*%
%TF.CreationDate,2022-04-21T21:58:34+02:00*%
%TF.ProjectId,bkm-15r-mini,626b6d2d-3135-4722-9d6d-696e692e6b69,rev?*%
%TF.SameCoordinates,Original*%
%TF.FileFunction,AssemblyDrawing,Bot*%
%FSLAX46Y46*%
G04 Gerber Fmt 4.6, Leading zero omitted, Abs format (unit mm)*
G04 Created by KiCad (PCBNEW 5.1.12-84ad8e8a86~92~ubuntu20.04.1) date 2022-04-21 21:58:34*
%MOMM*%
%LPD*%
G01*
G04 APERTURE LIST*
%ADD10C,0.150000*%
G04 APERTURE END LIST*
%TO.C,SW101*%
D10*
X170619047Y-38552380D02*
X170047619Y-38552380D01*
X170333333Y-39552380D02*
X170333333Y-38552380D01*
X169238095Y-39552380D02*
X169714285Y-39552380D01*
X169714285Y-38552380D01*
X168904761Y-39171428D02*
X168142857Y-39171428D01*
X167142857Y-39552380D02*
X167714285Y-39552380D01*
X167428571Y-39552380D02*
X167428571Y-38552380D01*
X167523809Y-38695238D01*
X167619047Y-38790476D01*
X167714285Y-38838095D01*
X166761904Y-38647619D02*
X166714285Y-38600000D01*
X166619047Y-38552380D01*
X166380952Y-38552380D01*
X166285714Y-38600000D01*
X166238095Y-38647619D01*
X166190476Y-38742857D01*
X166190476Y-38838095D01*
X166238095Y-38980952D01*
X166809523Y-39552380D01*
X166190476Y-39552380D01*
X165333333Y-38885714D02*
X165333333Y-39552380D01*
X165571428Y-38504761D02*
X165809523Y-39219047D01*
X165190476Y-39219047D01*
X164619047Y-38552380D02*
X164523809Y-38552380D01*
X164428571Y-38600000D01*
X164380952Y-38647619D01*
X164333333Y-38742857D01*
X164285714Y-38933333D01*
X164285714Y-39171428D01*
X164333333Y-39361904D01*
X164380952Y-39457142D01*
X164428571Y-39504761D01*
X164523809Y-39552380D01*
X164619047Y-39552380D01*
X164714285Y-39504761D01*
X164761904Y-39457142D01*
X164809523Y-39361904D01*
X164857142Y-39171428D01*
X164857142Y-38933333D01*
X164809523Y-38742857D01*
X164761904Y-38647619D01*
X164714285Y-38600000D01*
X164619047Y-38552380D01*
X163857142Y-39171428D02*
X163095238Y-39171428D01*
X162619047Y-39552380D02*
X162619047Y-38552380D01*
X162047619Y-39552380D01*
X162047619Y-38552380D01*
X161380952Y-38552380D02*
X161190476Y-38552380D01*
X161095238Y-38600000D01*
X161000000Y-38695238D01*
X160952380Y-38885714D01*
X160952380Y-39219047D01*
X161000000Y-39409523D01*
X161095238Y-39504761D01*
X161190476Y-39552380D01*
X161380952Y-39552380D01*
X161476190Y-39504761D01*
X161571428Y-39409523D01*
X161619047Y-39219047D01*
X161619047Y-38885714D01*
X161571428Y-38695238D01*
X161476190Y-38600000D01*
X161380952Y-38552380D01*
X160761904Y-39647619D02*
X160000000Y-39647619D01*
X159285714Y-39552380D02*
X159761904Y-39552380D01*
X159761904Y-38552380D01*
X158952380Y-39028571D02*
X158619047Y-39028571D01*
X158476190Y-39552380D02*
X158952380Y-39552380D01*
X158952380Y-38552380D01*
X158476190Y-38552380D01*
X158047619Y-39552380D02*
X158047619Y-38552380D01*
X157809523Y-38552380D01*
X157666666Y-38600000D01*
X157571428Y-38695238D01*
X157523809Y-38790476D01*
X157476190Y-38980952D01*
X157476190Y-39123809D01*
X157523809Y-39314285D01*
X157571428Y-39409523D01*
X157666666Y-39504761D01*
X157809523Y-39552380D01*
X158047619Y-39552380D01*
%TO.C,SW102*%
X158619047Y-38552380D02*
X158047619Y-38552380D01*
X158333333Y-39552380D02*
X158333333Y-38552380D01*
X157238095Y-39552380D02*
X157714285Y-39552380D01*
X157714285Y-38552380D01*
X156904761Y-39171428D02*
X156142857Y-39171428D01*
X155142857Y-39552380D02*
X155714285Y-39552380D01*
X155428571Y-39552380D02*
X155428571Y-38552380D01*
X155523809Y-38695238D01*
X155619047Y-38790476D01*
X155714285Y-38838095D01*
X154761904Y-38647619D02*
X154714285Y-38600000D01*
X154619047Y-38552380D01*
X154380952Y-38552380D01*
X154285714Y-38600000D01*
X154238095Y-38647619D01*
X154190476Y-38742857D01*
X154190476Y-38838095D01*
X154238095Y-38980952D01*
X154809523Y-39552380D01*
X154190476Y-39552380D01*
X153333333Y-38885714D02*
X153333333Y-39552380D01*
X153571428Y-38504761D02*
X153809523Y-39219047D01*
X153190476Y-39219047D01*
X152619047Y-38552380D02*
X152523809Y-38552380D01*
X152428571Y-38600000D01*
X152380952Y-38647619D01*
X152333333Y-38742857D01*
X152285714Y-38933333D01*
X152285714Y-39171428D01*
X152333333Y-39361904D01*
X152380952Y-39457142D01*
X152428571Y-39504761D01*
X152523809Y-39552380D01*
X152619047Y-39552380D01*
X152714285Y-39504761D01*
X152761904Y-39457142D01*
X152809523Y-39361904D01*
X152857142Y-39171428D01*
X152857142Y-38933333D01*
X152809523Y-38742857D01*
X152761904Y-38647619D01*
X152714285Y-38600000D01*
X152619047Y-38552380D01*
X151857142Y-39171428D02*
X151095238Y-39171428D01*
X150619047Y-39552380D02*
X150619047Y-38552380D01*
X150047619Y-39552380D01*
X150047619Y-38552380D01*
X149380952Y-38552380D02*
X149190476Y-38552380D01*
X149095238Y-38600000D01*
X149000000Y-38695238D01*
X148952380Y-38885714D01*
X148952380Y-39219047D01*
X149000000Y-39409523D01*
X149095238Y-39504761D01*
X149190476Y-39552380D01*
X149380952Y-39552380D01*
X149476190Y-39504761D01*
X149571428Y-39409523D01*
X149619047Y-39219047D01*
X149619047Y-38885714D01*
X149571428Y-38695238D01*
X149476190Y-38600000D01*
X149380952Y-38552380D01*
X148761904Y-39647619D02*
X148000000Y-39647619D01*
X147285714Y-39552380D02*
X147761904Y-39552380D01*
X147761904Y-38552380D01*
X146952380Y-39028571D02*
X146619047Y-39028571D01*
X146476190Y-39552380D02*
X146952380Y-39552380D01*
X146952380Y-38552380D01*
X146476190Y-38552380D01*
X146047619Y-39552380D02*
X146047619Y-38552380D01*
X145809523Y-38552380D01*
X145666666Y-38600000D01*
X145571428Y-38695238D01*
X145523809Y-38790476D01*
X145476190Y-38980952D01*
X145476190Y-39123809D01*
X145523809Y-39314285D01*
X145571428Y-39409523D01*
X145666666Y-39504761D01*
X145809523Y-39552380D01*
X146047619Y-39552380D01*
%TO.C,SW103*%
X146619047Y-38552380D02*
X146047619Y-38552380D01*
X146333333Y-39552380D02*
X146333333Y-38552380D01*
X145238095Y-39552380D02*
X145714285Y-39552380D01*
X145714285Y-38552380D01*
X144904761Y-39171428D02*
X144142857Y-39171428D01*
X143142857Y-39552380D02*
X143714285Y-39552380D01*
X143428571Y-39552380D02*
X143428571Y-38552380D01*
X143523809Y-38695238D01*
X143619047Y-38790476D01*
X143714285Y-38838095D01*
X142761904Y-38647619D02*
X142714285Y-38600000D01*
X142619047Y-38552380D01*
X142380952Y-38552380D01*
X142285714Y-38600000D01*
X142238095Y-38647619D01*
X142190476Y-38742857D01*
X142190476Y-38838095D01*
X142238095Y-38980952D01*
X142809523Y-39552380D01*
X142190476Y-39552380D01*
X141333333Y-38885714D02*
X141333333Y-39552380D01*
X141571428Y-38504761D02*
X141809523Y-39219047D01*
X141190476Y-39219047D01*
X140619047Y-38552380D02*
X140523809Y-38552380D01*
X140428571Y-38600000D01*
X140380952Y-38647619D01*
X140333333Y-38742857D01*
X140285714Y-38933333D01*
X140285714Y-39171428D01*
X140333333Y-39361904D01*
X140380952Y-39457142D01*
X140428571Y-39504761D01*
X140523809Y-39552380D01*
X140619047Y-39552380D01*
X140714285Y-39504761D01*
X140761904Y-39457142D01*
X140809523Y-39361904D01*
X140857142Y-39171428D01*
X140857142Y-38933333D01*
X140809523Y-38742857D01*
X140761904Y-38647619D01*
X140714285Y-38600000D01*
X140619047Y-38552380D01*
X139857142Y-39171428D02*
X139095238Y-39171428D01*
X138619047Y-39552380D02*
X138619047Y-38552380D01*
X138047619Y-39552380D01*
X138047619Y-38552380D01*
X137380952Y-38552380D02*
X137190476Y-38552380D01*
X137095238Y-38600000D01*
X137000000Y-38695238D01*
X136952380Y-38885714D01*
X136952380Y-39219047D01*
X137000000Y-39409523D01*
X137095238Y-39504761D01*
X137190476Y-39552380D01*
X137380952Y-39552380D01*
X137476190Y-39504761D01*
X137571428Y-39409523D01*
X137619047Y-39219047D01*
X137619047Y-38885714D01*
X137571428Y-38695238D01*
X137476190Y-38600000D01*
X137380952Y-38552380D01*
X136761904Y-39647619D02*
X136000000Y-39647619D01*
X135285714Y-39552380D02*
X135761904Y-39552380D01*
X135761904Y-38552380D01*
X134952380Y-39028571D02*
X134619047Y-39028571D01*
X134476190Y-39552380D02*
X134952380Y-39552380D01*
X134952380Y-38552380D01*
X134476190Y-38552380D01*
X134047619Y-39552380D02*
X134047619Y-38552380D01*
X133809523Y-38552380D01*
X133666666Y-38600000D01*
X133571428Y-38695238D01*
X133523809Y-38790476D01*
X133476190Y-38980952D01*
X133476190Y-39123809D01*
X133523809Y-39314285D01*
X133571428Y-39409523D01*
X133666666Y-39504761D01*
X133809523Y-39552380D01*
X134047619Y-39552380D01*
%TO.C,SW104*%
X170619047Y-50552380D02*
X170047619Y-50552380D01*
X170333333Y-51552380D02*
X170333333Y-50552380D01*
X169238095Y-51552380D02*
X169714285Y-51552380D01*
X169714285Y-50552380D01*
X168904761Y-51171428D02*
X168142857Y-51171428D01*
X167142857Y-51552380D02*
X167714285Y-51552380D01*
X167428571Y-51552380D02*
X167428571Y-50552380D01*
X167523809Y-50695238D01*
X167619047Y-50790476D01*
X167714285Y-50838095D01*
X166761904Y-50647619D02*
X166714285Y-50600000D01*
X166619047Y-50552380D01*
X166380952Y-50552380D01*
X166285714Y-50600000D01*
X166238095Y-50647619D01*
X166190476Y-50742857D01*
X166190476Y-50838095D01*
X166238095Y-50980952D01*
X166809523Y-51552380D01*
X166190476Y-51552380D01*
X165333333Y-50885714D02*
X165333333Y-51552380D01*
X165571428Y-50504761D02*
X165809523Y-51219047D01*
X165190476Y-51219047D01*
X164619047Y-50552380D02*
X164523809Y-50552380D01*
X164428571Y-50600000D01*
X164380952Y-50647619D01*
X164333333Y-50742857D01*
X164285714Y-50933333D01*
X164285714Y-51171428D01*
X164333333Y-51361904D01*
X164380952Y-51457142D01*
X164428571Y-51504761D01*
X164523809Y-51552380D01*
X164619047Y-51552380D01*
X164714285Y-51504761D01*
X164761904Y-51457142D01*
X164809523Y-51361904D01*
X164857142Y-51171428D01*
X164857142Y-50933333D01*
X164809523Y-50742857D01*
X164761904Y-50647619D01*
X164714285Y-50600000D01*
X164619047Y-50552380D01*
X163857142Y-51171428D02*
X163095238Y-51171428D01*
X162619047Y-51552380D02*
X162619047Y-50552380D01*
X162047619Y-51552380D01*
X162047619Y-50552380D01*
X161380952Y-50552380D02*
X161190476Y-50552380D01*
X161095238Y-50600000D01*
X161000000Y-50695238D01*
X160952380Y-50885714D01*
X160952380Y-51219047D01*
X161000000Y-51409523D01*
X161095238Y-51504761D01*
X161190476Y-51552380D01*
X161380952Y-51552380D01*
X161476190Y-51504761D01*
X161571428Y-51409523D01*
X161619047Y-51219047D01*
X161619047Y-50885714D01*
X161571428Y-50695238D01*
X161476190Y-50600000D01*
X161380952Y-50552380D01*
X160761904Y-51647619D02*
X160000000Y-51647619D01*
X159285714Y-51552380D02*
X159761904Y-51552380D01*
X159761904Y-50552380D01*
X158952380Y-51028571D02*
X158619047Y-51028571D01*
X158476190Y-51552380D02*
X158952380Y-51552380D01*
X158952380Y-50552380D01*
X158476190Y-50552380D01*
X158047619Y-51552380D02*
X158047619Y-50552380D01*
X157809523Y-50552380D01*
X157666666Y-50600000D01*
X157571428Y-50695238D01*
X157523809Y-50790476D01*
X157476190Y-50980952D01*
X157476190Y-51123809D01*
X157523809Y-51314285D01*
X157571428Y-51409523D01*
X157666666Y-51504761D01*
X157809523Y-51552380D01*
X158047619Y-51552380D01*
%TO.C,SW105*%
X158619047Y-50552380D02*
X158047619Y-50552380D01*
X158333333Y-51552380D02*
X158333333Y-50552380D01*
X157238095Y-51552380D02*
X157714285Y-51552380D01*
X157714285Y-50552380D01*
X156904761Y-51171428D02*
X156142857Y-51171428D01*
X155142857Y-51552380D02*
X155714285Y-51552380D01*
X155428571Y-51552380D02*
X155428571Y-50552380D01*
X155523809Y-50695238D01*
X155619047Y-50790476D01*
X155714285Y-50838095D01*
X154761904Y-50647619D02*
X154714285Y-50600000D01*
X154619047Y-50552380D01*
X154380952Y-50552380D01*
X154285714Y-50600000D01*
X154238095Y-50647619D01*
X154190476Y-50742857D01*
X154190476Y-50838095D01*
X154238095Y-50980952D01*
X154809523Y-51552380D01*
X154190476Y-51552380D01*
X153333333Y-50885714D02*
X153333333Y-51552380D01*
X153571428Y-50504761D02*
X153809523Y-51219047D01*
X153190476Y-51219047D01*
X152619047Y-50552380D02*
X152523809Y-50552380D01*
X152428571Y-50600000D01*
X152380952Y-50647619D01*
X152333333Y-50742857D01*
X152285714Y-50933333D01*
X152285714Y-51171428D01*
X152333333Y-51361904D01*
X152380952Y-51457142D01*
X152428571Y-51504761D01*
X152523809Y-51552380D01*
X152619047Y-51552380D01*
X152714285Y-51504761D01*
X152761904Y-51457142D01*
X152809523Y-51361904D01*
X152857142Y-51171428D01*
X152857142Y-50933333D01*
X152809523Y-50742857D01*
X152761904Y-50647619D01*
X152714285Y-50600000D01*
X152619047Y-50552380D01*
X151857142Y-51171428D02*
X151095238Y-51171428D01*
X150619047Y-51552380D02*
X150619047Y-50552380D01*
X150047619Y-51552380D01*
X150047619Y-50552380D01*
X149380952Y-50552380D02*
X149190476Y-50552380D01*
X149095238Y-50600000D01*
X149000000Y-50695238D01*
X148952380Y-50885714D01*
X148952380Y-51219047D01*
X149000000Y-51409523D01*
X149095238Y-51504761D01*
X149190476Y-51552380D01*
X149380952Y-51552380D01*
X149476190Y-51504761D01*
X149571428Y-51409523D01*
X149619047Y-51219047D01*
X149619047Y-50885714D01*
X149571428Y-50695238D01*
X149476190Y-50600000D01*
X149380952Y-50552380D01*
X148761904Y-51647619D02*
X148000000Y-51647619D01*
X147285714Y-51552380D02*
X147761904Y-51552380D01*
X147761904Y-50552380D01*
X146952380Y-51028571D02*
X146619047Y-51028571D01*
X146476190Y-51552380D02*
X146952380Y-51552380D01*
X146952380Y-50552380D01*
X146476190Y-50552380D01*
X146047619Y-51552380D02*
X146047619Y-50552380D01*
X145809523Y-50552380D01*
X145666666Y-50600000D01*
X145571428Y-50695238D01*
X145523809Y-50790476D01*
X145476190Y-50980952D01*
X145476190Y-51123809D01*
X145523809Y-51314285D01*
X145571428Y-51409523D01*
X145666666Y-51504761D01*
X145809523Y-51552380D01*
X146047619Y-51552380D01*
%TO.C,SW106*%
X146619047Y-50552380D02*
X146047619Y-50552380D01*
X146333333Y-51552380D02*
X146333333Y-50552380D01*
X145238095Y-51552380D02*
X145714285Y-51552380D01*
X145714285Y-50552380D01*
X144904761Y-51171428D02*
X144142857Y-51171428D01*
X143142857Y-51552380D02*
X143714285Y-51552380D01*
X143428571Y-51552380D02*
X143428571Y-50552380D01*
X143523809Y-50695238D01*
X143619047Y-50790476D01*
X143714285Y-50838095D01*
X142761904Y-50647619D02*
X142714285Y-50600000D01*
X142619047Y-50552380D01*
X142380952Y-50552380D01*
X142285714Y-50600000D01*
X142238095Y-50647619D01*
X142190476Y-50742857D01*
X142190476Y-50838095D01*
X142238095Y-50980952D01*
X142809523Y-51552380D01*
X142190476Y-51552380D01*
X141333333Y-50885714D02*
X141333333Y-51552380D01*
X141571428Y-50504761D02*
X141809523Y-51219047D01*
X141190476Y-51219047D01*
X140619047Y-50552380D02*
X140523809Y-50552380D01*
X140428571Y-50600000D01*
X140380952Y-50647619D01*
X140333333Y-50742857D01*
X140285714Y-50933333D01*
X140285714Y-51171428D01*
X140333333Y-51361904D01*
X140380952Y-51457142D01*
X140428571Y-51504761D01*
X140523809Y-51552380D01*
X140619047Y-51552380D01*
X140714285Y-51504761D01*
X140761904Y-51457142D01*
X140809523Y-51361904D01*
X140857142Y-51171428D01*
X140857142Y-50933333D01*
X140809523Y-50742857D01*
X140761904Y-50647619D01*
X140714285Y-50600000D01*
X140619047Y-50552380D01*
X139857142Y-51171428D02*
X139095238Y-51171428D01*
X138619047Y-51552380D02*
X138619047Y-50552380D01*
X138047619Y-51552380D01*
X138047619Y-50552380D01*
X137380952Y-50552380D02*
X137190476Y-50552380D01*
X137095238Y-50600000D01*
X137000000Y-50695238D01*
X136952380Y-50885714D01*
X136952380Y-51219047D01*
X137000000Y-51409523D01*
X137095238Y-51504761D01*
X137190476Y-51552380D01*
X137380952Y-51552380D01*
X137476190Y-51504761D01*
X137571428Y-51409523D01*
X137619047Y-51219047D01*
X137619047Y-50885714D01*
X137571428Y-50695238D01*
X137476190Y-50600000D01*
X137380952Y-50552380D01*
X136761904Y-51647619D02*
X136000000Y-51647619D01*
X135285714Y-51552380D02*
X135761904Y-51552380D01*
X135761904Y-50552380D01*
X134952380Y-51028571D02*
X134619047Y-51028571D01*
X134476190Y-51552380D02*
X134952380Y-51552380D01*
X134952380Y-50552380D01*
X134476190Y-50552380D01*
X134047619Y-51552380D02*
X134047619Y-50552380D01*
X133809523Y-50552380D01*
X133666666Y-50600000D01*
X133571428Y-50695238D01*
X133523809Y-50790476D01*
X133476190Y-50980952D01*
X133476190Y-51123809D01*
X133523809Y-51314285D01*
X133571428Y-51409523D01*
X133666666Y-51504761D01*
X133809523Y-51552380D01*
X134047619Y-51552380D01*
%TO.C,SW107*%
X170619047Y-62552380D02*
X170047619Y-62552380D01*
X170333333Y-63552380D02*
X170333333Y-62552380D01*
X169238095Y-63552380D02*
X169714285Y-63552380D01*
X169714285Y-62552380D01*
X168904761Y-63171428D02*
X168142857Y-63171428D01*
X167142857Y-63552380D02*
X167714285Y-63552380D01*
X167428571Y-63552380D02*
X167428571Y-62552380D01*
X167523809Y-62695238D01*
X167619047Y-62790476D01*
X167714285Y-62838095D01*
X166761904Y-62647619D02*
X166714285Y-62600000D01*
X166619047Y-62552380D01*
X166380952Y-62552380D01*
X166285714Y-62600000D01*
X166238095Y-62647619D01*
X166190476Y-62742857D01*
X166190476Y-62838095D01*
X166238095Y-62980952D01*
X166809523Y-63552380D01*
X166190476Y-63552380D01*
X165333333Y-62885714D02*
X165333333Y-63552380D01*
X165571428Y-62504761D02*
X165809523Y-63219047D01*
X165190476Y-63219047D01*
X164619047Y-62552380D02*
X164523809Y-62552380D01*
X164428571Y-62600000D01*
X164380952Y-62647619D01*
X164333333Y-62742857D01*
X164285714Y-62933333D01*
X164285714Y-63171428D01*
X164333333Y-63361904D01*
X164380952Y-63457142D01*
X164428571Y-63504761D01*
X164523809Y-63552380D01*
X164619047Y-63552380D01*
X164714285Y-63504761D01*
X164761904Y-63457142D01*
X164809523Y-63361904D01*
X164857142Y-63171428D01*
X164857142Y-62933333D01*
X164809523Y-62742857D01*
X164761904Y-62647619D01*
X164714285Y-62600000D01*
X164619047Y-62552380D01*
X163857142Y-63171428D02*
X163095238Y-63171428D01*
X162619047Y-63552380D02*
X162619047Y-62552380D01*
X162047619Y-63552380D01*
X162047619Y-62552380D01*
X161380952Y-62552380D02*
X161190476Y-62552380D01*
X161095238Y-62600000D01*
X161000000Y-62695238D01*
X160952380Y-62885714D01*
X160952380Y-63219047D01*
X161000000Y-63409523D01*
X161095238Y-63504761D01*
X161190476Y-63552380D01*
X161380952Y-63552380D01*
X161476190Y-63504761D01*
X161571428Y-63409523D01*
X161619047Y-63219047D01*
X161619047Y-62885714D01*
X161571428Y-62695238D01*
X161476190Y-62600000D01*
X161380952Y-62552380D01*
X160761904Y-63647619D02*
X160000000Y-63647619D01*
X159285714Y-63552380D02*
X159761904Y-63552380D01*
X159761904Y-62552380D01*
X158952380Y-63028571D02*
X158619047Y-63028571D01*
X158476190Y-63552380D02*
X158952380Y-63552380D01*
X158952380Y-62552380D01*
X158476190Y-62552380D01*
X158047619Y-63552380D02*
X158047619Y-62552380D01*
X157809523Y-62552380D01*
X157666666Y-62600000D01*
X157571428Y-62695238D01*
X157523809Y-62790476D01*
X157476190Y-62980952D01*
X157476190Y-63123809D01*
X157523809Y-63314285D01*
X157571428Y-63409523D01*
X157666666Y-63504761D01*
X157809523Y-63552380D01*
X158047619Y-63552380D01*
%TO.C,SW108*%
X158619047Y-62552380D02*
X158047619Y-62552380D01*
X158333333Y-63552380D02*
X158333333Y-62552380D01*
X157238095Y-63552380D02*
X157714285Y-63552380D01*
X157714285Y-62552380D01*
X156904761Y-63171428D02*
X156142857Y-63171428D01*
X155142857Y-63552380D02*
X155714285Y-63552380D01*
X155428571Y-63552380D02*
X155428571Y-62552380D01*
X155523809Y-62695238D01*
X155619047Y-62790476D01*
X155714285Y-62838095D01*
X154761904Y-62647619D02*
X154714285Y-62600000D01*
X154619047Y-62552380D01*
X154380952Y-62552380D01*
X154285714Y-62600000D01*
X154238095Y-62647619D01*
X154190476Y-62742857D01*
X154190476Y-62838095D01*
X154238095Y-62980952D01*
X154809523Y-63552380D01*
X154190476Y-63552380D01*
X153333333Y-62885714D02*
X153333333Y-63552380D01*
X153571428Y-62504761D02*
X153809523Y-63219047D01*
X153190476Y-63219047D01*
X152619047Y-62552380D02*
X152523809Y-62552380D01*
X152428571Y-62600000D01*
X152380952Y-62647619D01*
X152333333Y-62742857D01*
X152285714Y-62933333D01*
X152285714Y-63171428D01*
X152333333Y-63361904D01*
X152380952Y-63457142D01*
X152428571Y-63504761D01*
X152523809Y-63552380D01*
X152619047Y-63552380D01*
X152714285Y-63504761D01*
X152761904Y-63457142D01*
X152809523Y-63361904D01*
X152857142Y-63171428D01*
X152857142Y-62933333D01*
X152809523Y-62742857D01*
X152761904Y-62647619D01*
X152714285Y-62600000D01*
X152619047Y-62552380D01*
X151857142Y-63171428D02*
X151095238Y-63171428D01*
X150619047Y-63552380D02*
X150619047Y-62552380D01*
X150047619Y-63552380D01*
X150047619Y-62552380D01*
X149380952Y-62552380D02*
X149190476Y-62552380D01*
X149095238Y-62600000D01*
X149000000Y-62695238D01*
X148952380Y-62885714D01*
X148952380Y-63219047D01*
X149000000Y-63409523D01*
X149095238Y-63504761D01*
X149190476Y-63552380D01*
X149380952Y-63552380D01*
X149476190Y-63504761D01*
X149571428Y-63409523D01*
X149619047Y-63219047D01*
X149619047Y-62885714D01*
X149571428Y-62695238D01*
X149476190Y-62600000D01*
X149380952Y-62552380D01*
X148761904Y-63647619D02*
X148000000Y-63647619D01*
X147285714Y-63552380D02*
X147761904Y-63552380D01*
X147761904Y-62552380D01*
X146952380Y-63028571D02*
X146619047Y-63028571D01*
X146476190Y-63552380D02*
X146952380Y-63552380D01*
X146952380Y-62552380D01*
X146476190Y-62552380D01*
X146047619Y-63552380D02*
X146047619Y-62552380D01*
X145809523Y-62552380D01*
X145666666Y-62600000D01*
X145571428Y-62695238D01*
X145523809Y-62790476D01*
X145476190Y-62980952D01*
X145476190Y-63123809D01*
X145523809Y-63314285D01*
X145571428Y-63409523D01*
X145666666Y-63504761D01*
X145809523Y-63552380D01*
X146047619Y-63552380D01*
%TO.C,SW109*%
X146619047Y-62552380D02*
X146047619Y-62552380D01*
X146333333Y-63552380D02*
X146333333Y-62552380D01*
X145238095Y-63552380D02*
X145714285Y-63552380D01*
X145714285Y-62552380D01*
X144904761Y-63171428D02*
X144142857Y-63171428D01*
X143142857Y-63552380D02*
X143714285Y-63552380D01*
X143428571Y-63552380D02*
X143428571Y-62552380D01*
X143523809Y-62695238D01*
X143619047Y-62790476D01*
X143714285Y-62838095D01*
X142761904Y-62647619D02*
X142714285Y-62600000D01*
X142619047Y-62552380D01*
X142380952Y-62552380D01*
X142285714Y-62600000D01*
X142238095Y-62647619D01*
X142190476Y-62742857D01*
X142190476Y-62838095D01*
X142238095Y-62980952D01*
X142809523Y-63552380D01*
X142190476Y-63552380D01*
X141333333Y-62885714D02*
X141333333Y-63552380D01*
X141571428Y-62504761D02*
X141809523Y-63219047D01*
X141190476Y-63219047D01*
X140619047Y-62552380D02*
X140523809Y-62552380D01*
X140428571Y-62600000D01*
X140380952Y-62647619D01*
X140333333Y-62742857D01*
X140285714Y-62933333D01*
X140285714Y-63171428D01*
X140333333Y-63361904D01*
X140380952Y-63457142D01*
X140428571Y-63504761D01*
X140523809Y-63552380D01*
X140619047Y-63552380D01*
X140714285Y-63504761D01*
X140761904Y-63457142D01*
X140809523Y-63361904D01*
X140857142Y-63171428D01*
X140857142Y-62933333D01*
X140809523Y-62742857D01*
X140761904Y-62647619D01*
X140714285Y-62600000D01*
X140619047Y-62552380D01*
X139857142Y-63171428D02*
X139095238Y-63171428D01*
X138619047Y-63552380D02*
X138619047Y-62552380D01*
X138047619Y-63552380D01*
X138047619Y-62552380D01*
X137380952Y-62552380D02*
X137190476Y-62552380D01*
X137095238Y-62600000D01*
X137000000Y-62695238D01*
X136952380Y-62885714D01*
X136952380Y-63219047D01*
X137000000Y-63409523D01*
X137095238Y-63504761D01*
X137190476Y-63552380D01*
X137380952Y-63552380D01*
X137476190Y-63504761D01*
X137571428Y-63409523D01*
X137619047Y-63219047D01*
X137619047Y-62885714D01*
X137571428Y-62695238D01*
X137476190Y-62600000D01*
X137380952Y-62552380D01*
X136761904Y-63647619D02*
X136000000Y-63647619D01*
X135285714Y-63552380D02*
X135761904Y-63552380D01*
X135761904Y-62552380D01*
X134952380Y-63028571D02*
X134619047Y-63028571D01*
X134476190Y-63552380D02*
X134952380Y-63552380D01*
X134952380Y-62552380D01*
X134476190Y-62552380D01*
X134047619Y-63552380D02*
X134047619Y-62552380D01*
X133809523Y-62552380D01*
X133666666Y-62600000D01*
X133571428Y-62695238D01*
X133523809Y-62790476D01*
X133476190Y-62980952D01*
X133476190Y-63123809D01*
X133523809Y-63314285D01*
X133571428Y-63409523D01*
X133666666Y-63504761D01*
X133809523Y-63552380D01*
X134047619Y-63552380D01*
%TO.C,SW110*%
X170619047Y-74552380D02*
X170047619Y-74552380D01*
X170333333Y-75552380D02*
X170333333Y-74552380D01*
X169238095Y-75552380D02*
X169714285Y-75552380D01*
X169714285Y-74552380D01*
X168904761Y-75171428D02*
X168142857Y-75171428D01*
X167142857Y-75552380D02*
X167714285Y-75552380D01*
X167428571Y-75552380D02*
X167428571Y-74552380D01*
X167523809Y-74695238D01*
X167619047Y-74790476D01*
X167714285Y-74838095D01*
X166761904Y-74647619D02*
X166714285Y-74600000D01*
X166619047Y-74552380D01*
X166380952Y-74552380D01*
X166285714Y-74600000D01*
X166238095Y-74647619D01*
X166190476Y-74742857D01*
X166190476Y-74838095D01*
X166238095Y-74980952D01*
X166809523Y-75552380D01*
X166190476Y-75552380D01*
X165333333Y-74885714D02*
X165333333Y-75552380D01*
X165571428Y-74504761D02*
X165809523Y-75219047D01*
X165190476Y-75219047D01*
X164619047Y-74552380D02*
X164523809Y-74552380D01*
X164428571Y-74600000D01*
X164380952Y-74647619D01*
X164333333Y-74742857D01*
X164285714Y-74933333D01*
X164285714Y-75171428D01*
X164333333Y-75361904D01*
X164380952Y-75457142D01*
X164428571Y-75504761D01*
X164523809Y-75552380D01*
X164619047Y-75552380D01*
X164714285Y-75504761D01*
X164761904Y-75457142D01*
X164809523Y-75361904D01*
X164857142Y-75171428D01*
X164857142Y-74933333D01*
X164809523Y-74742857D01*
X164761904Y-74647619D01*
X164714285Y-74600000D01*
X164619047Y-74552380D01*
X163857142Y-75171428D02*
X163095238Y-75171428D01*
X162619047Y-75552380D02*
X162619047Y-74552380D01*
X162047619Y-75552380D01*
X162047619Y-74552380D01*
X161380952Y-74552380D02*
X161190476Y-74552380D01*
X161095238Y-74600000D01*
X161000000Y-74695238D01*
X160952380Y-74885714D01*
X160952380Y-75219047D01*
X161000000Y-75409523D01*
X161095238Y-75504761D01*
X161190476Y-75552380D01*
X161380952Y-75552380D01*
X161476190Y-75504761D01*
X161571428Y-75409523D01*
X161619047Y-75219047D01*
X161619047Y-74885714D01*
X161571428Y-74695238D01*
X161476190Y-74600000D01*
X161380952Y-74552380D01*
X160761904Y-75647619D02*
X160000000Y-75647619D01*
X159285714Y-75552380D02*
X159761904Y-75552380D01*
X159761904Y-74552380D01*
X158952380Y-75028571D02*
X158619047Y-75028571D01*
X158476190Y-75552380D02*
X158952380Y-75552380D01*
X158952380Y-74552380D01*
X158476190Y-74552380D01*
X158047619Y-75552380D02*
X158047619Y-74552380D01*
X157809523Y-74552380D01*
X157666666Y-74600000D01*
X157571428Y-74695238D01*
X157523809Y-74790476D01*
X157476190Y-74980952D01*
X157476190Y-75123809D01*
X157523809Y-75314285D01*
X157571428Y-75409523D01*
X157666666Y-75504761D01*
X157809523Y-75552380D01*
X158047619Y-75552380D01*
%TO.C,SW111*%
X158619047Y-74552380D02*
X158047619Y-74552380D01*
X158333333Y-75552380D02*
X158333333Y-74552380D01*
X157238095Y-75552380D02*
X157714285Y-75552380D01*
X157714285Y-74552380D01*
X156904761Y-75171428D02*
X156142857Y-75171428D01*
X155142857Y-75552380D02*
X155714285Y-75552380D01*
X155428571Y-75552380D02*
X155428571Y-74552380D01*
X155523809Y-74695238D01*
X155619047Y-74790476D01*
X155714285Y-74838095D01*
X154761904Y-74647619D02*
X154714285Y-74600000D01*
X154619047Y-74552380D01*
X154380952Y-74552380D01*
X154285714Y-74600000D01*
X154238095Y-74647619D01*
X154190476Y-74742857D01*
X154190476Y-74838095D01*
X154238095Y-74980952D01*
X154809523Y-75552380D01*
X154190476Y-75552380D01*
X153333333Y-74885714D02*
X153333333Y-75552380D01*
X153571428Y-74504761D02*
X153809523Y-75219047D01*
X153190476Y-75219047D01*
X152619047Y-74552380D02*
X152523809Y-74552380D01*
X152428571Y-74600000D01*
X152380952Y-74647619D01*
X152333333Y-74742857D01*
X152285714Y-74933333D01*
X152285714Y-75171428D01*
X152333333Y-75361904D01*
X152380952Y-75457142D01*
X152428571Y-75504761D01*
X152523809Y-75552380D01*
X152619047Y-75552380D01*
X152714285Y-75504761D01*
X152761904Y-75457142D01*
X152809523Y-75361904D01*
X152857142Y-75171428D01*
X152857142Y-74933333D01*
X152809523Y-74742857D01*
X152761904Y-74647619D01*
X152714285Y-74600000D01*
X152619047Y-74552380D01*
X151857142Y-75171428D02*
X151095238Y-75171428D01*
X150619047Y-75552380D02*
X150619047Y-74552380D01*
X150047619Y-75552380D01*
X150047619Y-74552380D01*
X149380952Y-74552380D02*
X149190476Y-74552380D01*
X149095238Y-74600000D01*
X149000000Y-74695238D01*
X148952380Y-74885714D01*
X148952380Y-75219047D01*
X149000000Y-75409523D01*
X149095238Y-75504761D01*
X149190476Y-75552380D01*
X149380952Y-75552380D01*
X149476190Y-75504761D01*
X149571428Y-75409523D01*
X149619047Y-75219047D01*
X149619047Y-74885714D01*
X149571428Y-74695238D01*
X149476190Y-74600000D01*
X149380952Y-74552380D01*
X148761904Y-75647619D02*
X148000000Y-75647619D01*
X147285714Y-75552380D02*
X147761904Y-75552380D01*
X147761904Y-74552380D01*
X146952380Y-75028571D02*
X146619047Y-75028571D01*
X146476190Y-75552380D02*
X146952380Y-75552380D01*
X146952380Y-74552380D01*
X146476190Y-74552380D01*
X146047619Y-75552380D02*
X146047619Y-74552380D01*
X145809523Y-74552380D01*
X145666666Y-74600000D01*
X145571428Y-74695238D01*
X145523809Y-74790476D01*
X145476190Y-74980952D01*
X145476190Y-75123809D01*
X145523809Y-75314285D01*
X145571428Y-75409523D01*
X145666666Y-75504761D01*
X145809523Y-75552380D01*
X146047619Y-75552380D01*
%TO.C,SW112*%
X146619047Y-74552380D02*
X146047619Y-74552380D01*
X146333333Y-75552380D02*
X146333333Y-74552380D01*
X145238095Y-75552380D02*
X145714285Y-75552380D01*
X145714285Y-74552380D01*
X144904761Y-75171428D02*
X144142857Y-75171428D01*
X143142857Y-75552380D02*
X143714285Y-75552380D01*
X143428571Y-75552380D02*
X143428571Y-74552380D01*
X143523809Y-74695238D01*
X143619047Y-74790476D01*
X143714285Y-74838095D01*
X142761904Y-74647619D02*
X142714285Y-74600000D01*
X142619047Y-74552380D01*
X142380952Y-74552380D01*
X142285714Y-74600000D01*
X142238095Y-74647619D01*
X142190476Y-74742857D01*
X142190476Y-74838095D01*
X142238095Y-74980952D01*
X142809523Y-75552380D01*
X142190476Y-75552380D01*
X141333333Y-74885714D02*
X141333333Y-75552380D01*
X141571428Y-74504761D02*
X141809523Y-75219047D01*
X141190476Y-75219047D01*
X140619047Y-74552380D02*
X140523809Y-74552380D01*
X140428571Y-74600000D01*
X140380952Y-74647619D01*
X140333333Y-74742857D01*
X140285714Y-74933333D01*
X140285714Y-75171428D01*
X140333333Y-75361904D01*
X140380952Y-75457142D01*
X140428571Y-75504761D01*
X140523809Y-75552380D01*
X140619047Y-75552380D01*
X140714285Y-75504761D01*
X140761904Y-75457142D01*
X140809523Y-75361904D01*
X140857142Y-75171428D01*
X140857142Y-74933333D01*
X140809523Y-74742857D01*
X140761904Y-74647619D01*
X140714285Y-74600000D01*
X140619047Y-74552380D01*
X139857142Y-75171428D02*
X139095238Y-75171428D01*
X138619047Y-75552380D02*
X138619047Y-74552380D01*
X138047619Y-75552380D01*
X138047619Y-74552380D01*
X137380952Y-74552380D02*
X137190476Y-74552380D01*
X137095238Y-74600000D01*
X137000000Y-74695238D01*
X136952380Y-74885714D01*
X136952380Y-75219047D01*
X137000000Y-75409523D01*
X137095238Y-75504761D01*
X137190476Y-75552380D01*
X137380952Y-75552380D01*
X137476190Y-75504761D01*
X137571428Y-75409523D01*
X137619047Y-75219047D01*
X137619047Y-74885714D01*
X137571428Y-74695238D01*
X137476190Y-74600000D01*
X137380952Y-74552380D01*
X136761904Y-75647619D02*
X136000000Y-75647619D01*
X135285714Y-75552380D02*
X135761904Y-75552380D01*
X135761904Y-74552380D01*
X134952380Y-75028571D02*
X134619047Y-75028571D01*
X134476190Y-75552380D02*
X134952380Y-75552380D01*
X134952380Y-74552380D01*
X134476190Y-74552380D01*
X134047619Y-75552380D02*
X134047619Y-74552380D01*
X133809523Y-74552380D01*
X133666666Y-74600000D01*
X133571428Y-74695238D01*
X133523809Y-74790476D01*
X133476190Y-74980952D01*
X133476190Y-75123809D01*
X133523809Y-75314285D01*
X133571428Y-75409523D01*
X133666666Y-75504761D01*
X133809523Y-75552380D01*
X134047619Y-75552380D01*
%TO.C,SW201*%
X123119047Y-51552380D02*
X122547619Y-51552380D01*
X122833333Y-52552380D02*
X122833333Y-51552380D01*
X121738095Y-52552380D02*
X122214285Y-52552380D01*
X122214285Y-51552380D01*
X121404761Y-52171428D02*
X120642857Y-52171428D01*
X119642857Y-52552380D02*
X120214285Y-52552380D01*
X119928571Y-52552380D02*
X119928571Y-51552380D01*
X120023809Y-51695238D01*
X120119047Y-51790476D01*
X120214285Y-51838095D01*
X119261904Y-51647619D02*
X119214285Y-51600000D01*
X119119047Y-51552380D01*
X118880952Y-51552380D01*
X118785714Y-51600000D01*
X118738095Y-51647619D01*
X118690476Y-51742857D01*
X118690476Y-51838095D01*
X118738095Y-51980952D01*
X119309523Y-52552380D01*
X118690476Y-52552380D01*
X117833333Y-51885714D02*
X117833333Y-52552380D01*
X118071428Y-51504761D02*
X118309523Y-52219047D01*
X117690476Y-52219047D01*
X117119047Y-51552380D02*
X117023809Y-51552380D01*
X116928571Y-51600000D01*
X116880952Y-51647619D01*
X116833333Y-51742857D01*
X116785714Y-51933333D01*
X116785714Y-52171428D01*
X116833333Y-52361904D01*
X116880952Y-52457142D01*
X116928571Y-52504761D01*
X117023809Y-52552380D01*
X117119047Y-52552380D01*
X117214285Y-52504761D01*
X117261904Y-52457142D01*
X117309523Y-52361904D01*
X117357142Y-52171428D01*
X117357142Y-51933333D01*
X117309523Y-51742857D01*
X117261904Y-51647619D01*
X117214285Y-51600000D01*
X117119047Y-51552380D01*
X116357142Y-52171428D02*
X115595238Y-52171428D01*
X115119047Y-52552380D02*
X115119047Y-51552380D01*
X114547619Y-52552380D01*
X114547619Y-51552380D01*
X113880952Y-51552380D02*
X113690476Y-51552380D01*
X113595238Y-51600000D01*
X113500000Y-51695238D01*
X113452380Y-51885714D01*
X113452380Y-52219047D01*
X113500000Y-52409523D01*
X113595238Y-52504761D01*
X113690476Y-52552380D01*
X113880952Y-52552380D01*
X113976190Y-52504761D01*
X114071428Y-52409523D01*
X114119047Y-52219047D01*
X114119047Y-51885714D01*
X114071428Y-51695238D01*
X113976190Y-51600000D01*
X113880952Y-51552380D01*
X113261904Y-52647619D02*
X112500000Y-52647619D01*
X111785714Y-52552380D02*
X112261904Y-52552380D01*
X112261904Y-51552380D01*
X111452380Y-52028571D02*
X111119047Y-52028571D01*
X110976190Y-52552380D02*
X111452380Y-52552380D01*
X111452380Y-51552380D01*
X110976190Y-51552380D01*
X110547619Y-52552380D02*
X110547619Y-51552380D01*
X110309523Y-51552380D01*
X110166666Y-51600000D01*
X110071428Y-51695238D01*
X110023809Y-51790476D01*
X109976190Y-51980952D01*
X109976190Y-52123809D01*
X110023809Y-52314285D01*
X110071428Y-52409523D01*
X110166666Y-52504761D01*
X110309523Y-52552380D01*
X110547619Y-52552380D01*
%TO.C,SW202*%
X111119047Y-51552380D02*
X110547619Y-51552380D01*
X110833333Y-52552380D02*
X110833333Y-51552380D01*
X109738095Y-52552380D02*
X110214285Y-52552380D01*
X110214285Y-51552380D01*
X109404761Y-52171428D02*
X108642857Y-52171428D01*
X107642857Y-52552380D02*
X108214285Y-52552380D01*
X107928571Y-52552380D02*
X107928571Y-51552380D01*
X108023809Y-51695238D01*
X108119047Y-51790476D01*
X108214285Y-51838095D01*
X107261904Y-51647619D02*
X107214285Y-51600000D01*
X107119047Y-51552380D01*
X106880952Y-51552380D01*
X106785714Y-51600000D01*
X106738095Y-51647619D01*
X106690476Y-51742857D01*
X106690476Y-51838095D01*
X106738095Y-51980952D01*
X107309523Y-52552380D01*
X106690476Y-52552380D01*
X105833333Y-51885714D02*
X105833333Y-52552380D01*
X106071428Y-51504761D02*
X106309523Y-52219047D01*
X105690476Y-52219047D01*
X105119047Y-51552380D02*
X105023809Y-51552380D01*
X104928571Y-51600000D01*
X104880952Y-51647619D01*
X104833333Y-51742857D01*
X104785714Y-51933333D01*
X104785714Y-52171428D01*
X104833333Y-52361904D01*
X104880952Y-52457142D01*
X104928571Y-52504761D01*
X105023809Y-52552380D01*
X105119047Y-52552380D01*
X105214285Y-52504761D01*
X105261904Y-52457142D01*
X105309523Y-52361904D01*
X105357142Y-52171428D01*
X105357142Y-51933333D01*
X105309523Y-51742857D01*
X105261904Y-51647619D01*
X105214285Y-51600000D01*
X105119047Y-51552380D01*
X104357142Y-52171428D02*
X103595238Y-52171428D01*
X103119047Y-52552380D02*
X103119047Y-51552380D01*
X102547619Y-52552380D01*
X102547619Y-51552380D01*
X101880952Y-51552380D02*
X101690476Y-51552380D01*
X101595238Y-51600000D01*
X101500000Y-51695238D01*
X101452380Y-51885714D01*
X101452380Y-52219047D01*
X101500000Y-52409523D01*
X101595238Y-52504761D01*
X101690476Y-52552380D01*
X101880952Y-52552380D01*
X101976190Y-52504761D01*
X102071428Y-52409523D01*
X102119047Y-52219047D01*
X102119047Y-51885714D01*
X102071428Y-51695238D01*
X101976190Y-51600000D01*
X101880952Y-51552380D01*
X101261904Y-52647619D02*
X100500000Y-52647619D01*
X99785714Y-52552380D02*
X100261904Y-52552380D01*
X100261904Y-51552380D01*
X99452380Y-52028571D02*
X99119047Y-52028571D01*
X98976190Y-52552380D02*
X99452380Y-52552380D01*
X99452380Y-51552380D01*
X98976190Y-51552380D01*
X98547619Y-52552380D02*
X98547619Y-51552380D01*
X98309523Y-51552380D01*
X98166666Y-51600000D01*
X98071428Y-51695238D01*
X98023809Y-51790476D01*
X97976190Y-51980952D01*
X97976190Y-52123809D01*
X98023809Y-52314285D01*
X98071428Y-52409523D01*
X98166666Y-52504761D01*
X98309523Y-52552380D01*
X98547619Y-52552380D01*
%TO.C,SW203*%
X123119047Y-63552380D02*
X122547619Y-63552380D01*
X122833333Y-64552380D02*
X122833333Y-63552380D01*
X121738095Y-64552380D02*
X122214285Y-64552380D01*
X122214285Y-63552380D01*
X121404761Y-64171428D02*
X120642857Y-64171428D01*
X119642857Y-64552380D02*
X120214285Y-64552380D01*
X119928571Y-64552380D02*
X119928571Y-63552380D01*
X120023809Y-63695238D01*
X120119047Y-63790476D01*
X120214285Y-63838095D01*
X119261904Y-63647619D02*
X119214285Y-63600000D01*
X119119047Y-63552380D01*
X118880952Y-63552380D01*
X118785714Y-63600000D01*
X118738095Y-63647619D01*
X118690476Y-63742857D01*
X118690476Y-63838095D01*
X118738095Y-63980952D01*
X119309523Y-64552380D01*
X118690476Y-64552380D01*
X117833333Y-63885714D02*
X117833333Y-64552380D01*
X118071428Y-63504761D02*
X118309523Y-64219047D01*
X117690476Y-64219047D01*
X117119047Y-63552380D02*
X117023809Y-63552380D01*
X116928571Y-63600000D01*
X116880952Y-63647619D01*
X116833333Y-63742857D01*
X116785714Y-63933333D01*
X116785714Y-64171428D01*
X116833333Y-64361904D01*
X116880952Y-64457142D01*
X116928571Y-64504761D01*
X117023809Y-64552380D01*
X117119047Y-64552380D01*
X117214285Y-64504761D01*
X117261904Y-64457142D01*
X117309523Y-64361904D01*
X117357142Y-64171428D01*
X117357142Y-63933333D01*
X117309523Y-63742857D01*
X117261904Y-63647619D01*
X117214285Y-63600000D01*
X117119047Y-63552380D01*
X116357142Y-64171428D02*
X115595238Y-64171428D01*
X115119047Y-64552380D02*
X115119047Y-63552380D01*
X114547619Y-64552380D01*
X114547619Y-63552380D01*
X113880952Y-63552380D02*
X113690476Y-63552380D01*
X113595238Y-63600000D01*
X113500000Y-63695238D01*
X113452380Y-63885714D01*
X113452380Y-64219047D01*
X113500000Y-64409523D01*
X113595238Y-64504761D01*
X113690476Y-64552380D01*
X113880952Y-64552380D01*
X113976190Y-64504761D01*
X114071428Y-64409523D01*
X114119047Y-64219047D01*
X114119047Y-63885714D01*
X114071428Y-63695238D01*
X113976190Y-63600000D01*
X113880952Y-63552380D01*
X113261904Y-64647619D02*
X112500000Y-64647619D01*
X111785714Y-64552380D02*
X112261904Y-64552380D01*
X112261904Y-63552380D01*
X111452380Y-64028571D02*
X111119047Y-64028571D01*
X110976190Y-64552380D02*
X111452380Y-64552380D01*
X111452380Y-63552380D01*
X110976190Y-63552380D01*
X110547619Y-64552380D02*
X110547619Y-63552380D01*
X110309523Y-63552380D01*
X110166666Y-63600000D01*
X110071428Y-63695238D01*
X110023809Y-63790476D01*
X109976190Y-63980952D01*
X109976190Y-64123809D01*
X110023809Y-64314285D01*
X110071428Y-64409523D01*
X110166666Y-64504761D01*
X110309523Y-64552380D01*
X110547619Y-64552380D01*
%TO.C,SW204*%
X111119047Y-63552380D02*
X110547619Y-63552380D01*
X110833333Y-64552380D02*
X110833333Y-63552380D01*
X109738095Y-64552380D02*
X110214285Y-64552380D01*
X110214285Y-63552380D01*
X109404761Y-64171428D02*
X108642857Y-64171428D01*
X107642857Y-64552380D02*
X108214285Y-64552380D01*
X107928571Y-64552380D02*
X107928571Y-63552380D01*
X108023809Y-63695238D01*
X108119047Y-63790476D01*
X108214285Y-63838095D01*
X107261904Y-63647619D02*
X107214285Y-63600000D01*
X107119047Y-63552380D01*
X106880952Y-63552380D01*
X106785714Y-63600000D01*
X106738095Y-63647619D01*
X106690476Y-63742857D01*
X106690476Y-63838095D01*
X106738095Y-63980952D01*
X107309523Y-64552380D01*
X106690476Y-64552380D01*
X105833333Y-63885714D02*
X105833333Y-64552380D01*
X106071428Y-63504761D02*
X106309523Y-64219047D01*
X105690476Y-64219047D01*
X105119047Y-63552380D02*
X105023809Y-63552380D01*
X104928571Y-63600000D01*
X104880952Y-63647619D01*
X104833333Y-63742857D01*
X104785714Y-63933333D01*
X104785714Y-64171428D01*
X104833333Y-64361904D01*
X104880952Y-64457142D01*
X104928571Y-64504761D01*
X105023809Y-64552380D01*
X105119047Y-64552380D01*
X105214285Y-64504761D01*
X105261904Y-64457142D01*
X105309523Y-64361904D01*
X105357142Y-64171428D01*
X105357142Y-63933333D01*
X105309523Y-63742857D01*
X105261904Y-63647619D01*
X105214285Y-63600000D01*
X105119047Y-63552380D01*
X104357142Y-64171428D02*
X103595238Y-64171428D01*
X103119047Y-64552380D02*
X103119047Y-63552380D01*
X102547619Y-64552380D01*
X102547619Y-63552380D01*
X101880952Y-63552380D02*
X101690476Y-63552380D01*
X101595238Y-63600000D01*
X101500000Y-63695238D01*
X101452380Y-63885714D01*
X101452380Y-64219047D01*
X101500000Y-64409523D01*
X101595238Y-64504761D01*
X101690476Y-64552380D01*
X101880952Y-64552380D01*
X101976190Y-64504761D01*
X102071428Y-64409523D01*
X102119047Y-64219047D01*
X102119047Y-63885714D01*
X102071428Y-63695238D01*
X101976190Y-63600000D01*
X101880952Y-63552380D01*
X101261904Y-64647619D02*
X100500000Y-64647619D01*
X99785714Y-64552380D02*
X100261904Y-64552380D01*
X100261904Y-63552380D01*
X99452380Y-64028571D02*
X99119047Y-64028571D01*
X98976190Y-64552380D02*
X99452380Y-64552380D01*
X99452380Y-63552380D01*
X98976190Y-63552380D01*
X98547619Y-64552380D02*
X98547619Y-63552380D01*
X98309523Y-63552380D01*
X98166666Y-63600000D01*
X98071428Y-63695238D01*
X98023809Y-63790476D01*
X97976190Y-63980952D01*
X97976190Y-64123809D01*
X98023809Y-64314285D01*
X98071428Y-64409523D01*
X98166666Y-64504761D01*
X98309523Y-64552380D01*
X98547619Y-64552380D01*
%TO.C,SW205*%
X111119047Y-38552380D02*
X110547619Y-38552380D01*
X110833333Y-39552380D02*
X110833333Y-38552380D01*
X109738095Y-39552380D02*
X110214285Y-39552380D01*
X110214285Y-38552380D01*
X109404761Y-39171428D02*
X108642857Y-39171428D01*
X107642857Y-39552380D02*
X108214285Y-39552380D01*
X107928571Y-39552380D02*
X107928571Y-38552380D01*
X108023809Y-38695238D01*
X108119047Y-38790476D01*
X108214285Y-38838095D01*
X107261904Y-38647619D02*
X107214285Y-38600000D01*
X107119047Y-38552380D01*
X106880952Y-38552380D01*
X106785714Y-38600000D01*
X106738095Y-38647619D01*
X106690476Y-38742857D01*
X106690476Y-38838095D01*
X106738095Y-38980952D01*
X107309523Y-39552380D01*
X106690476Y-39552380D01*
X105833333Y-38885714D02*
X105833333Y-39552380D01*
X106071428Y-38504761D02*
X106309523Y-39219047D01*
X105690476Y-39219047D01*
X105119047Y-38552380D02*
X105023809Y-38552380D01*
X104928571Y-38600000D01*
X104880952Y-38647619D01*
X104833333Y-38742857D01*
X104785714Y-38933333D01*
X104785714Y-39171428D01*
X104833333Y-39361904D01*
X104880952Y-39457142D01*
X104928571Y-39504761D01*
X105023809Y-39552380D01*
X105119047Y-39552380D01*
X105214285Y-39504761D01*
X105261904Y-39457142D01*
X105309523Y-39361904D01*
X105357142Y-39171428D01*
X105357142Y-38933333D01*
X105309523Y-38742857D01*
X105261904Y-38647619D01*
X105214285Y-38600000D01*
X105119047Y-38552380D01*
X104357142Y-39171428D02*
X103595238Y-39171428D01*
X103119047Y-39552380D02*
X103119047Y-38552380D01*
X102547619Y-39552380D01*
X102547619Y-38552380D01*
X101880952Y-38552380D02*
X101690476Y-38552380D01*
X101595238Y-38600000D01*
X101500000Y-38695238D01*
X101452380Y-38885714D01*
X101452380Y-39219047D01*
X101500000Y-39409523D01*
X101595238Y-39504761D01*
X101690476Y-39552380D01*
X101880952Y-39552380D01*
X101976190Y-39504761D01*
X102071428Y-39409523D01*
X102119047Y-39219047D01*
X102119047Y-38885714D01*
X102071428Y-38695238D01*
X101976190Y-38600000D01*
X101880952Y-38552380D01*
X101261904Y-39647619D02*
X100500000Y-39647619D01*
X99785714Y-39552380D02*
X100261904Y-39552380D01*
X100261904Y-38552380D01*
X99452380Y-39028571D02*
X99119047Y-39028571D01*
X98976190Y-39552380D02*
X99452380Y-39552380D01*
X99452380Y-38552380D01*
X98976190Y-38552380D01*
X98547619Y-39552380D02*
X98547619Y-38552380D01*
X98309523Y-38552380D01*
X98166666Y-38600000D01*
X98071428Y-38695238D01*
X98023809Y-38790476D01*
X97976190Y-38980952D01*
X97976190Y-39123809D01*
X98023809Y-39314285D01*
X98071428Y-39409523D01*
X98166666Y-39504761D01*
X98309523Y-39552380D01*
X98547619Y-39552380D01*
%TD*%
M02*
